M48
; DRILL file {KiCad (5.1.4)-1} date 11/15/20 00:01:50
; FORMAT={-:-/ absolute / inch / decimal}
; #@! TF.CreationDate,2020-11-15T00:01:50-05:00
; #@! TF.GenerationSoftware,Kicad,Pcbnew,(5.1.4)-1
FMAT,2
INCH
T1C0.0295
T2C0.0394
T3C0.0689
T4C0.1122
%
G90
G05
T1
X4.7988Y-3.7402
X4.7988Y-3.8189
X4.7988Y-3.8976
X4.7988Y-3.9764
X4.7988Y-4.0551
X4.7988Y-4.1339
X4.8776Y-3.7402
X4.8776Y-3.8189
X4.8776Y-3.8976
X4.8776Y-3.9764
X4.8776Y-4.0551
X4.8776Y-4.1339
T2
X6.9618Y-3.687
X6.9618Y-3.787
X6.9618Y-3.887
X6.9618Y-3.987
X6.9618Y-4.087
X6.9618Y-4.187
X7.0618Y-3.687
X7.0618Y-3.787
X7.0618Y-3.887
X7.0618Y-3.987
X7.0618Y-4.087
X7.0618Y-4.187
T3
X5.5906Y-3.7795
X5.5906Y-4.0945
X5.6693Y-3.937
X5.748Y-3.7795
X5.748Y-4.0945
X5.8268Y-3.937
X5.9055Y-3.7795
X5.9055Y-4.0945
X5.9843Y-3.937
X6.063Y-3.7795
X6.063Y-4.0945
X6.1417Y-3.937
X6.2205Y-3.7795
X6.2205Y-4.0945
T4
X5.3346Y-3.9567
X6.4764Y-3.9567
T0
M30
