G04 #@! TF.GenerationSoftware,KiCad,Pcbnew,(5.1.4)-1*
G04 #@! TF.CreationDate,2020-11-24T01:46:06-05:00*
G04 #@! TF.ProjectId,MAIN_newBreakoutBoard,4d41494e-5f6e-4657-9742-7265616b6f75,v1.0*
G04 #@! TF.SameCoordinates,Original*
G04 #@! TF.FileFunction,Legend,Bot*
G04 #@! TF.FilePolarity,Positive*
%FSLAX46Y46*%
G04 Gerber Fmt 4.6, Leading zero omitted, Abs format (unit mm)*
G04 Created by KiCad (PCBNEW (5.1.4)-1) date 2020-11-24 01:46:06*
%MOMM*%
%LPD*%
G04 APERTURE LIST*
%ADD10C,0.150000*%
%ADD11C,0.120000*%
G04 APERTURE END LIST*
D10*
X139331071Y-91603571D02*
X139188214Y-91651190D01*
X139140595Y-91698809D01*
X139092976Y-91794047D01*
X139092976Y-91936904D01*
X139140595Y-92032142D01*
X139188214Y-92079761D01*
X139283452Y-92127380D01*
X139664404Y-92127380D01*
X139664404Y-91127380D01*
X139331071Y-91127380D01*
X139235833Y-91175000D01*
X139188214Y-91222619D01*
X139140595Y-91317857D01*
X139140595Y-91413095D01*
X139188214Y-91508333D01*
X139235833Y-91555952D01*
X139331071Y-91603571D01*
X139664404Y-91603571D01*
X138759642Y-91460714D02*
X138521547Y-92127380D01*
X138283452Y-91460714D02*
X138521547Y-92127380D01*
X138616785Y-92365476D01*
X138664404Y-92413095D01*
X138759642Y-92460714D01*
X137902500Y-92032142D02*
X137854880Y-92079761D01*
X137902500Y-92127380D01*
X137950119Y-92079761D01*
X137902500Y-92032142D01*
X137902500Y-92127380D01*
X137902500Y-91508333D02*
X137854880Y-91555952D01*
X137902500Y-91603571D01*
X137950119Y-91555952D01*
X137902500Y-91508333D01*
X137902500Y-91603571D01*
X136664404Y-92127380D02*
X136664404Y-91127380D01*
X136331071Y-91841666D01*
X135997738Y-91127380D01*
X135997738Y-92127380D01*
X135092976Y-92127380D02*
X135092976Y-91603571D01*
X135140595Y-91508333D01*
X135235833Y-91460714D01*
X135426309Y-91460714D01*
X135521547Y-91508333D01*
X135092976Y-92079761D02*
X135188214Y-92127380D01*
X135426309Y-92127380D01*
X135521547Y-92079761D01*
X135569166Y-91984523D01*
X135569166Y-91889285D01*
X135521547Y-91794047D01*
X135426309Y-91746428D01*
X135188214Y-91746428D01*
X135092976Y-91698809D01*
X134616785Y-92127380D02*
X134616785Y-91460714D01*
X134616785Y-91651190D02*
X134569166Y-91555952D01*
X134521547Y-91508333D01*
X134426309Y-91460714D01*
X134331071Y-91460714D01*
X134140595Y-91460714D02*
X133759642Y-91460714D01*
X133997738Y-91127380D02*
X133997738Y-91984523D01*
X133950119Y-92079761D01*
X133854880Y-92127380D01*
X133759642Y-92127380D01*
X133426309Y-92127380D02*
X133426309Y-91460714D01*
X133426309Y-91127380D02*
X133473928Y-91175000D01*
X133426309Y-91222619D01*
X133378690Y-91175000D01*
X133426309Y-91127380D01*
X133426309Y-91222619D01*
X132950119Y-91460714D02*
X132950119Y-92127380D01*
X132950119Y-91555952D02*
X132902500Y-91508333D01*
X132807261Y-91460714D01*
X132664404Y-91460714D01*
X132569166Y-91508333D01*
X132521547Y-91603571D01*
X132521547Y-92127380D01*
X131283452Y-92127380D02*
X131283452Y-91127380D01*
X130950119Y-91841666D01*
X130616785Y-91127380D01*
X130616785Y-92127380D01*
X129712023Y-92127380D02*
X129712023Y-91603571D01*
X129759642Y-91508333D01*
X129854880Y-91460714D01*
X130045357Y-91460714D01*
X130140595Y-91508333D01*
X129712023Y-92079761D02*
X129807261Y-92127380D01*
X130045357Y-92127380D01*
X130140595Y-92079761D01*
X130188214Y-91984523D01*
X130188214Y-91889285D01*
X130140595Y-91794047D01*
X130045357Y-91746428D01*
X129807261Y-91746428D01*
X129712023Y-91698809D01*
X129235833Y-91460714D02*
X129235833Y-92317857D01*
X129283452Y-92413095D01*
X129378690Y-92460714D01*
X129426309Y-92460714D01*
X129235833Y-91127380D02*
X129283452Y-91175000D01*
X129235833Y-91222619D01*
X129188214Y-91175000D01*
X129235833Y-91127380D01*
X129235833Y-91222619D01*
X128759642Y-92127380D02*
X128759642Y-91127380D01*
X128664404Y-91746428D02*
X128378690Y-92127380D01*
X128378690Y-91460714D02*
X128759642Y-91841666D01*
X127521547Y-91460714D02*
X127521547Y-92127380D01*
X127950119Y-91460714D02*
X127950119Y-91984523D01*
X127902500Y-92079761D01*
X127807261Y-92127380D01*
X127664404Y-92127380D01*
X127569166Y-92079761D01*
X127521547Y-92032142D01*
X127188214Y-91460714D02*
X126807261Y-91460714D01*
X127045357Y-91127380D02*
X127045357Y-91984523D01*
X126997738Y-92079761D01*
X126902500Y-92127380D01*
X126807261Y-92127380D01*
X139664404Y-93777380D02*
X139664404Y-92777380D01*
X139426309Y-92777380D01*
X139283452Y-92825000D01*
X139188214Y-92920238D01*
X139140595Y-93015476D01*
X139092976Y-93205952D01*
X139092976Y-93348809D01*
X139140595Y-93539285D01*
X139188214Y-93634523D01*
X139283452Y-93729761D01*
X139426309Y-93777380D01*
X139664404Y-93777380D01*
X138235833Y-93777380D02*
X138235833Y-93253571D01*
X138283452Y-93158333D01*
X138378690Y-93110714D01*
X138569166Y-93110714D01*
X138664404Y-93158333D01*
X138235833Y-93729761D02*
X138331071Y-93777380D01*
X138569166Y-93777380D01*
X138664404Y-93729761D01*
X138712023Y-93634523D01*
X138712023Y-93539285D01*
X138664404Y-93444047D01*
X138569166Y-93396428D01*
X138331071Y-93396428D01*
X138235833Y-93348809D01*
X137902500Y-93110714D02*
X137521547Y-93110714D01*
X137759642Y-92777380D02*
X137759642Y-93634523D01*
X137712023Y-93729761D01*
X137616785Y-93777380D01*
X137521547Y-93777380D01*
X136807261Y-93729761D02*
X136902500Y-93777380D01*
X137092976Y-93777380D01*
X137188214Y-93729761D01*
X137235833Y-93634523D01*
X137235833Y-93253571D01*
X137188214Y-93158333D01*
X137092976Y-93110714D01*
X136902500Y-93110714D01*
X136807261Y-93158333D01*
X136759642Y-93253571D01*
X136759642Y-93348809D01*
X137235833Y-93444047D01*
X136331071Y-93682142D02*
X136283452Y-93729761D01*
X136331071Y-93777380D01*
X136378690Y-93729761D01*
X136331071Y-93682142D01*
X136331071Y-93777380D01*
X136331071Y-93158333D02*
X136283452Y-93205952D01*
X136331071Y-93253571D01*
X136378690Y-93205952D01*
X136331071Y-93158333D01*
X136331071Y-93253571D01*
X135092976Y-93777380D02*
X135092976Y-92777380D01*
X134521547Y-93777380D01*
X134521547Y-92777380D01*
X133902500Y-93777380D02*
X133997738Y-93729761D01*
X134045357Y-93682142D01*
X134092976Y-93586904D01*
X134092976Y-93301190D01*
X134045357Y-93205952D01*
X133997738Y-93158333D01*
X133902500Y-93110714D01*
X133759642Y-93110714D01*
X133664404Y-93158333D01*
X133616785Y-93205952D01*
X133569166Y-93301190D01*
X133569166Y-93586904D01*
X133616785Y-93682142D01*
X133664404Y-93729761D01*
X133759642Y-93777380D01*
X133902500Y-93777380D01*
X133235833Y-93110714D02*
X132997738Y-93777380D01*
X132759642Y-93110714D01*
X132378690Y-93682142D02*
X132331071Y-93729761D01*
X132378690Y-93777380D01*
X132426309Y-93729761D01*
X132378690Y-93682142D01*
X132378690Y-93777380D01*
X131188214Y-92872619D02*
X131140595Y-92825000D01*
X131045357Y-92777380D01*
X130807261Y-92777380D01*
X130712023Y-92825000D01*
X130664404Y-92872619D01*
X130616785Y-92967857D01*
X130616785Y-93063095D01*
X130664404Y-93205952D01*
X131235833Y-93777380D01*
X130616785Y-93777380D01*
X129997738Y-92777380D02*
X129902500Y-92777380D01*
X129807261Y-92825000D01*
X129759642Y-92872619D01*
X129712023Y-92967857D01*
X129664404Y-93158333D01*
X129664404Y-93396428D01*
X129712023Y-93586904D01*
X129759642Y-93682142D01*
X129807261Y-93729761D01*
X129902500Y-93777380D01*
X129997738Y-93777380D01*
X130092976Y-93729761D01*
X130140595Y-93682142D01*
X130188214Y-93586904D01*
X130235833Y-93396428D01*
X130235833Y-93158333D01*
X130188214Y-92967857D01*
X130140595Y-92872619D01*
X130092976Y-92825000D01*
X129997738Y-92777380D01*
X129283452Y-92872619D02*
X129235833Y-92825000D01*
X129140595Y-92777380D01*
X128902500Y-92777380D01*
X128807261Y-92825000D01*
X128759642Y-92872619D01*
X128712023Y-92967857D01*
X128712023Y-93063095D01*
X128759642Y-93205952D01*
X129331071Y-93777380D01*
X128712023Y-93777380D01*
X128092976Y-92777380D02*
X127997738Y-92777380D01*
X127902500Y-92825000D01*
X127854880Y-92872619D01*
X127807261Y-92967857D01*
X127759642Y-93158333D01*
X127759642Y-93396428D01*
X127807261Y-93586904D01*
X127854880Y-93682142D01*
X127902500Y-93729761D01*
X127997738Y-93777380D01*
X128092976Y-93777380D01*
X128188214Y-93729761D01*
X128235833Y-93682142D01*
X128283452Y-93586904D01*
X128331071Y-93396428D01*
X128331071Y-93158333D01*
X128283452Y-92967857D01*
X128235833Y-92872619D01*
X128188214Y-92825000D01*
X128092976Y-92777380D01*
X173212023Y-92079761D02*
X173069166Y-92127380D01*
X172831071Y-92127380D01*
X172735833Y-92079761D01*
X172688214Y-92032142D01*
X172640595Y-91936904D01*
X172640595Y-91841666D01*
X172688214Y-91746428D01*
X172735833Y-91698809D01*
X172831071Y-91651190D01*
X173021547Y-91603571D01*
X173116785Y-91555952D01*
X173164404Y-91508333D01*
X173212023Y-91413095D01*
X173212023Y-91317857D01*
X173164404Y-91222619D01*
X173116785Y-91175000D01*
X173021547Y-91127380D01*
X172783452Y-91127380D01*
X172640595Y-91175000D01*
X172354880Y-91460714D02*
X171973928Y-91460714D01*
X172212023Y-91127380D02*
X172212023Y-91984523D01*
X172164404Y-92079761D01*
X172069166Y-92127380D01*
X171973928Y-92127380D01*
X171259642Y-92079761D02*
X171354880Y-92127380D01*
X171545357Y-92127380D01*
X171640595Y-92079761D01*
X171688214Y-91984523D01*
X171688214Y-91603571D01*
X171640595Y-91508333D01*
X171545357Y-91460714D01*
X171354880Y-91460714D01*
X171259642Y-91508333D01*
X171212023Y-91603571D01*
X171212023Y-91698809D01*
X171688214Y-91794047D01*
X170402500Y-92079761D02*
X170497738Y-92127380D01*
X170688214Y-92127380D01*
X170783452Y-92079761D01*
X170831071Y-91984523D01*
X170831071Y-91603571D01*
X170783452Y-91508333D01*
X170688214Y-91460714D01*
X170497738Y-91460714D01*
X170402500Y-91508333D01*
X170354880Y-91603571D01*
X170354880Y-91698809D01*
X170831071Y-91794047D01*
X169926309Y-92127380D02*
X169926309Y-91460714D01*
X169926309Y-91651190D02*
X169878690Y-91555952D01*
X169831071Y-91508333D01*
X169735833Y-91460714D01*
X169640595Y-91460714D01*
X169307261Y-92127380D02*
X169307261Y-91460714D01*
X169307261Y-91127380D02*
X169354880Y-91175000D01*
X169307261Y-91222619D01*
X169259642Y-91175000D01*
X169307261Y-91127380D01*
X169307261Y-91222619D01*
X168831071Y-91460714D02*
X168831071Y-92127380D01*
X168831071Y-91555952D02*
X168783452Y-91508333D01*
X168688214Y-91460714D01*
X168545357Y-91460714D01*
X168450119Y-91508333D01*
X168402500Y-91603571D01*
X168402500Y-92127380D01*
X167497738Y-91460714D02*
X167497738Y-92270238D01*
X167545357Y-92365476D01*
X167592976Y-92413095D01*
X167688214Y-92460714D01*
X167831071Y-92460714D01*
X167926309Y-92413095D01*
X167497738Y-92079761D02*
X167592976Y-92127380D01*
X167783452Y-92127380D01*
X167878690Y-92079761D01*
X167926309Y-92032142D01*
X167973928Y-91936904D01*
X167973928Y-91651190D01*
X167926309Y-91555952D01*
X167878690Y-91508333D01*
X167783452Y-91460714D01*
X167592976Y-91460714D01*
X167497738Y-91508333D01*
X166354880Y-91127380D02*
X166116785Y-92127380D01*
X165926309Y-91413095D01*
X165735833Y-92127380D01*
X165497738Y-91127380D01*
X165116785Y-92127380D02*
X165116785Y-91127380D01*
X164688214Y-92127380D02*
X164688214Y-91603571D01*
X164735833Y-91508333D01*
X164831071Y-91460714D01*
X164973928Y-91460714D01*
X165069166Y-91508333D01*
X165116785Y-91555952D01*
X163831071Y-92079761D02*
X163926309Y-92127380D01*
X164116785Y-92127380D01*
X164212023Y-92079761D01*
X164259642Y-91984523D01*
X164259642Y-91603571D01*
X164212023Y-91508333D01*
X164116785Y-91460714D01*
X163926309Y-91460714D01*
X163831071Y-91508333D01*
X163783452Y-91603571D01*
X163783452Y-91698809D01*
X164259642Y-91794047D01*
X162973928Y-92079761D02*
X163069166Y-92127380D01*
X163259642Y-92127380D01*
X163354880Y-92079761D01*
X163402500Y-91984523D01*
X163402500Y-91603571D01*
X163354880Y-91508333D01*
X163259642Y-91460714D01*
X163069166Y-91460714D01*
X162973928Y-91508333D01*
X162926309Y-91603571D01*
X162926309Y-91698809D01*
X163402500Y-91794047D01*
X162354880Y-92127380D02*
X162450119Y-92079761D01*
X162497738Y-91984523D01*
X162497738Y-91127380D01*
X160878690Y-91603571D02*
X160735833Y-91651190D01*
X160688214Y-91698809D01*
X160640595Y-91794047D01*
X160640595Y-91936904D01*
X160688214Y-92032142D01*
X160735833Y-92079761D01*
X160831071Y-92127380D01*
X161212023Y-92127380D01*
X161212023Y-91127380D01*
X160878690Y-91127380D01*
X160783452Y-91175000D01*
X160735833Y-91222619D01*
X160688214Y-91317857D01*
X160688214Y-91413095D01*
X160735833Y-91508333D01*
X160783452Y-91555952D01*
X160878690Y-91603571D01*
X161212023Y-91603571D01*
X160212023Y-92127380D02*
X160212023Y-91460714D01*
X160212023Y-91651190D02*
X160164404Y-91555952D01*
X160116785Y-91508333D01*
X160021547Y-91460714D01*
X159926309Y-91460714D01*
X159212023Y-92079761D02*
X159307261Y-92127380D01*
X159497738Y-92127380D01*
X159592976Y-92079761D01*
X159640595Y-91984523D01*
X159640595Y-91603571D01*
X159592976Y-91508333D01*
X159497738Y-91460714D01*
X159307261Y-91460714D01*
X159212023Y-91508333D01*
X159164404Y-91603571D01*
X159164404Y-91698809D01*
X159640595Y-91794047D01*
X158307261Y-92127380D02*
X158307261Y-91603571D01*
X158354880Y-91508333D01*
X158450119Y-91460714D01*
X158640595Y-91460714D01*
X158735833Y-91508333D01*
X158307261Y-92079761D02*
X158402500Y-92127380D01*
X158640595Y-92127380D01*
X158735833Y-92079761D01*
X158783452Y-91984523D01*
X158783452Y-91889285D01*
X158735833Y-91794047D01*
X158640595Y-91746428D01*
X158402500Y-91746428D01*
X158307261Y-91698809D01*
X157831071Y-92127380D02*
X157831071Y-91127380D01*
X157735833Y-91746428D02*
X157450119Y-92127380D01*
X157450119Y-91460714D02*
X157831071Y-91841666D01*
X156878690Y-92127380D02*
X156973928Y-92079761D01*
X157021547Y-92032142D01*
X157069166Y-91936904D01*
X157069166Y-91651190D01*
X157021547Y-91555952D01*
X156973928Y-91508333D01*
X156878690Y-91460714D01*
X156735833Y-91460714D01*
X156640595Y-91508333D01*
X156592976Y-91555952D01*
X156545357Y-91651190D01*
X156545357Y-91936904D01*
X156592976Y-92032142D01*
X156640595Y-92079761D01*
X156735833Y-92127380D01*
X156878690Y-92127380D01*
X155688214Y-91460714D02*
X155688214Y-92127380D01*
X156116785Y-91460714D02*
X156116785Y-91984523D01*
X156069166Y-92079761D01*
X155973928Y-92127380D01*
X155831071Y-92127380D01*
X155735833Y-92079761D01*
X155688214Y-92032142D01*
X155354880Y-91460714D02*
X154973928Y-91460714D01*
X155212023Y-91127380D02*
X155212023Y-91984523D01*
X155164404Y-92079761D01*
X155069166Y-92127380D01*
X154973928Y-92127380D01*
X153545357Y-91603571D02*
X153402500Y-91651190D01*
X153354880Y-91698809D01*
X153307261Y-91794047D01*
X153307261Y-91936904D01*
X153354880Y-92032142D01*
X153402500Y-92079761D01*
X153497738Y-92127380D01*
X153878690Y-92127380D01*
X153878690Y-91127380D01*
X153545357Y-91127380D01*
X153450119Y-91175000D01*
X153402500Y-91222619D01*
X153354880Y-91317857D01*
X153354880Y-91413095D01*
X153402500Y-91508333D01*
X153450119Y-91555952D01*
X153545357Y-91603571D01*
X153878690Y-91603571D01*
X152735833Y-92127380D02*
X152831071Y-92079761D01*
X152878690Y-92032142D01*
X152926309Y-91936904D01*
X152926309Y-91651190D01*
X152878690Y-91555952D01*
X152831071Y-91508333D01*
X152735833Y-91460714D01*
X152592976Y-91460714D01*
X152497738Y-91508333D01*
X152450119Y-91555952D01*
X152402500Y-91651190D01*
X152402500Y-91936904D01*
X152450119Y-92032142D01*
X152497738Y-92079761D01*
X152592976Y-92127380D01*
X152735833Y-92127380D01*
X151545357Y-92127380D02*
X151545357Y-91603571D01*
X151592976Y-91508333D01*
X151688214Y-91460714D01*
X151878690Y-91460714D01*
X151973928Y-91508333D01*
X151545357Y-92079761D02*
X151640595Y-92127380D01*
X151878690Y-92127380D01*
X151973928Y-92079761D01*
X152021547Y-91984523D01*
X152021547Y-91889285D01*
X151973928Y-91794047D01*
X151878690Y-91746428D01*
X151640595Y-91746428D01*
X151545357Y-91698809D01*
X151069166Y-92127380D02*
X151069166Y-91460714D01*
X151069166Y-91651190D02*
X151021547Y-91555952D01*
X150973928Y-91508333D01*
X150878690Y-91460714D01*
X150783452Y-91460714D01*
X150021547Y-92127380D02*
X150021547Y-91127380D01*
X150021547Y-92079761D02*
X150116785Y-92127380D01*
X150307261Y-92127380D01*
X150402500Y-92079761D01*
X150450119Y-92032142D01*
X150497738Y-91936904D01*
X150497738Y-91651190D01*
X150450119Y-91555952D01*
X150402500Y-91508333D01*
X150307261Y-91460714D01*
X150116785Y-91460714D01*
X150021547Y-91508333D01*
X148878690Y-91460714D02*
X148640595Y-92127380D01*
X148402500Y-91460714D01*
X147497738Y-92127380D02*
X148069166Y-92127380D01*
X147783452Y-92127380D02*
X147783452Y-91127380D01*
X147878690Y-91270238D01*
X147973928Y-91365476D01*
X148069166Y-91413095D01*
X147069166Y-92032142D02*
X147021547Y-92079761D01*
X147069166Y-92127380D01*
X147116785Y-92079761D01*
X147069166Y-92032142D01*
X147069166Y-92127380D01*
X146402500Y-91127380D02*
X146307261Y-91127380D01*
X146212023Y-91175000D01*
X146164404Y-91222619D01*
X146116785Y-91317857D01*
X146069166Y-91508333D01*
X146069166Y-91746428D01*
X146116785Y-91936904D01*
X146164404Y-92032142D01*
X146212023Y-92079761D01*
X146307261Y-92127380D01*
X146402500Y-92127380D01*
X146497738Y-92079761D01*
X146545357Y-92032142D01*
X146592976Y-91936904D01*
X146640595Y-91746428D01*
X146640595Y-91508333D01*
X146592976Y-91317857D01*
X146545357Y-91222619D01*
X146497738Y-91175000D01*
X146402500Y-91127380D01*
X173307261Y-92777380D02*
X172735833Y-92777380D01*
X173021547Y-93777380D02*
X173021547Y-92777380D01*
X171973928Y-93110714D02*
X171973928Y-93777380D01*
X172402500Y-93110714D02*
X172402500Y-93634523D01*
X172354880Y-93729761D01*
X172259642Y-93777380D01*
X172116785Y-93777380D01*
X172021547Y-93729761D01*
X171973928Y-93682142D01*
X171640595Y-93110714D02*
X171259642Y-93110714D01*
X171497738Y-93777380D02*
X171497738Y-92920238D01*
X171450119Y-92825000D01*
X171354880Y-92777380D01*
X171259642Y-92777380D01*
X171069166Y-93110714D02*
X170688214Y-93110714D01*
X170926309Y-92777380D02*
X170926309Y-93634523D01*
X170878690Y-93729761D01*
X170783452Y-93777380D01*
X170688214Y-93777380D01*
X170402500Y-93729761D02*
X170307261Y-93777380D01*
X170116785Y-93777380D01*
X170021547Y-93729761D01*
X169973928Y-93634523D01*
X169973928Y-93586904D01*
X170021547Y-93491666D01*
X170116785Y-93444047D01*
X170259642Y-93444047D01*
X170354880Y-93396428D01*
X170402500Y-93301190D01*
X170402500Y-93253571D01*
X170354880Y-93158333D01*
X170259642Y-93110714D01*
X170116785Y-93110714D01*
X170021547Y-93158333D01*
X168783452Y-93253571D02*
X168450119Y-93253571D01*
X168307261Y-93777380D02*
X168783452Y-93777380D01*
X168783452Y-92777380D01*
X168307261Y-92777380D01*
X167735833Y-93777380D02*
X167831071Y-93729761D01*
X167878690Y-93634523D01*
X167878690Y-92777380D01*
X166973928Y-93729761D02*
X167069166Y-93777380D01*
X167259642Y-93777380D01*
X167354880Y-93729761D01*
X167402500Y-93634523D01*
X167402500Y-93253571D01*
X167354880Y-93158333D01*
X167259642Y-93110714D01*
X167069166Y-93110714D01*
X166973928Y-93158333D01*
X166926309Y-93253571D01*
X166926309Y-93348809D01*
X167402500Y-93444047D01*
X166069166Y-93729761D02*
X166164404Y-93777380D01*
X166354880Y-93777380D01*
X166450119Y-93729761D01*
X166497738Y-93682142D01*
X166545357Y-93586904D01*
X166545357Y-93301190D01*
X166497738Y-93205952D01*
X166450119Y-93158333D01*
X166354880Y-93110714D01*
X166164404Y-93110714D01*
X166069166Y-93158333D01*
X165783452Y-93110714D02*
X165402500Y-93110714D01*
X165640595Y-92777380D02*
X165640595Y-93634523D01*
X165592976Y-93729761D01*
X165497738Y-93777380D01*
X165402500Y-93777380D01*
X165069166Y-93777380D02*
X165069166Y-93110714D01*
X165069166Y-93301190D02*
X165021547Y-93205952D01*
X164973928Y-93158333D01*
X164878690Y-93110714D01*
X164783452Y-93110714D01*
X164450119Y-93777380D02*
X164450119Y-93110714D01*
X164450119Y-92777380D02*
X164497738Y-92825000D01*
X164450119Y-92872619D01*
X164402500Y-92825000D01*
X164450119Y-92777380D01*
X164450119Y-92872619D01*
X163545357Y-93729761D02*
X163640595Y-93777380D01*
X163831071Y-93777380D01*
X163926309Y-93729761D01*
X163973928Y-93682142D01*
X164021547Y-93586904D01*
X164021547Y-93301190D01*
X163973928Y-93205952D01*
X163926309Y-93158333D01*
X163831071Y-93110714D01*
X163640595Y-93110714D01*
X163545357Y-93158333D01*
X161783452Y-93777380D02*
X162116785Y-93301190D01*
X162354880Y-93777380D02*
X162354880Y-92777380D01*
X161973928Y-92777380D01*
X161878690Y-92825000D01*
X161831071Y-92872619D01*
X161783452Y-92967857D01*
X161783452Y-93110714D01*
X161831071Y-93205952D01*
X161878690Y-93253571D01*
X161973928Y-93301190D01*
X162354880Y-93301190D01*
X160926309Y-93777380D02*
X160926309Y-93253571D01*
X160973928Y-93158333D01*
X161069166Y-93110714D01*
X161259642Y-93110714D01*
X161354880Y-93158333D01*
X160926309Y-93729761D02*
X161021547Y-93777380D01*
X161259642Y-93777380D01*
X161354880Y-93729761D01*
X161402500Y-93634523D01*
X161402500Y-93539285D01*
X161354880Y-93444047D01*
X161259642Y-93396428D01*
X161021547Y-93396428D01*
X160926309Y-93348809D01*
X160021547Y-93729761D02*
X160116785Y-93777380D01*
X160307261Y-93777380D01*
X160402500Y-93729761D01*
X160450119Y-93682142D01*
X160497738Y-93586904D01*
X160497738Y-93301190D01*
X160450119Y-93205952D01*
X160402500Y-93158333D01*
X160307261Y-93110714D01*
X160116785Y-93110714D01*
X160021547Y-93158333D01*
X159592976Y-93777380D02*
X159592976Y-93110714D01*
X159592976Y-92777380D02*
X159640595Y-92825000D01*
X159592976Y-92872619D01*
X159545357Y-92825000D01*
X159592976Y-92777380D01*
X159592976Y-92872619D01*
X159116785Y-93110714D02*
X159116785Y-93777380D01*
X159116785Y-93205952D02*
X159069166Y-93158333D01*
X158973928Y-93110714D01*
X158831071Y-93110714D01*
X158735833Y-93158333D01*
X158688214Y-93253571D01*
X158688214Y-93777380D01*
X157783452Y-93110714D02*
X157783452Y-93920238D01*
X157831071Y-94015476D01*
X157878690Y-94063095D01*
X157973928Y-94110714D01*
X158116785Y-94110714D01*
X158212023Y-94063095D01*
X157783452Y-93729761D02*
X157878690Y-93777380D01*
X158069166Y-93777380D01*
X158164404Y-93729761D01*
X158212023Y-93682142D01*
X158259642Y-93586904D01*
X158259642Y-93301190D01*
X158212023Y-93205952D01*
X158164404Y-93158333D01*
X158069166Y-93110714D01*
X157878690Y-93110714D01*
X157783452Y-93158333D01*
X121442219Y-92113076D02*
X121442219Y-92684504D01*
X121442219Y-92398790D02*
X122442219Y-92398790D01*
X122299361Y-92494028D01*
X122204123Y-92589266D01*
X122156504Y-92684504D01*
X122346980Y-91732123D02*
X122394600Y-91684504D01*
X122442219Y-91589266D01*
X122442219Y-91351171D01*
X122394600Y-91255933D01*
X122346980Y-91208314D01*
X122251742Y-91160695D01*
X122156504Y-91160695D01*
X122013647Y-91208314D01*
X121442219Y-91779742D01*
X121442219Y-91160695D01*
X123448819Y-92138476D02*
X123448819Y-92709904D01*
X123448819Y-92424190D02*
X124448819Y-92424190D01*
X124305961Y-92519428D01*
X124210723Y-92614666D01*
X124163104Y-92709904D01*
X123448819Y-91186095D02*
X123448819Y-91757523D01*
X123448819Y-91471809D02*
X124448819Y-91471809D01*
X124305961Y-91567047D01*
X124210723Y-91662285D01*
X124163104Y-91757523D01*
X122296180Y-108515114D02*
X122343800Y-108467495D01*
X122391419Y-108372257D01*
X122391419Y-108134161D01*
X122343800Y-108038923D01*
X122296180Y-107991304D01*
X122200942Y-107943685D01*
X122105704Y-107943685D01*
X121962847Y-107991304D01*
X121391419Y-108562733D01*
X121391419Y-107943685D01*
X123550419Y-107918285D02*
X123550419Y-108489714D01*
X123550419Y-108204000D02*
X124550419Y-108204000D01*
X124407561Y-108299238D01*
X124312323Y-108394476D01*
X124264704Y-108489714D01*
X179768476Y-109037380D02*
X180339904Y-109037380D01*
X180054190Y-109037380D02*
X180054190Y-108037380D01*
X180149428Y-108180238D01*
X180244666Y-108275476D01*
X180339904Y-108323095D01*
X179387523Y-108132619D02*
X179339904Y-108085000D01*
X179244666Y-108037380D01*
X179006571Y-108037380D01*
X178911333Y-108085000D01*
X178863714Y-108132619D01*
X178816095Y-108227857D01*
X178816095Y-108323095D01*
X178863714Y-108465952D01*
X179435142Y-109037380D01*
X178816095Y-109037380D01*
X176974476Y-109037380D02*
X177545904Y-109037380D01*
X177260190Y-109037380D02*
X177260190Y-108037380D01*
X177355428Y-108180238D01*
X177450666Y-108275476D01*
X177545904Y-108323095D01*
X176022095Y-109037380D02*
X176593523Y-109037380D01*
X176307809Y-109037380D02*
X176307809Y-108037380D01*
X176403047Y-108180238D01*
X176498285Y-108275476D01*
X176593523Y-108323095D01*
X179609714Y-91114619D02*
X179562095Y-91067000D01*
X179466857Y-91019380D01*
X179228761Y-91019380D01*
X179133523Y-91067000D01*
X179085904Y-91114619D01*
X179038285Y-91209857D01*
X179038285Y-91305095D01*
X179085904Y-91447952D01*
X179657333Y-92019380D01*
X179038285Y-92019380D01*
X176625285Y-92019380D02*
X177196714Y-92019380D01*
X176911000Y-92019380D02*
X176911000Y-91019380D01*
X177006238Y-91162238D01*
X177101476Y-91257476D01*
X177196714Y-91305095D01*
D11*
X180700000Y-92320000D02*
X178100000Y-92320000D01*
X180700000Y-92320000D02*
X180700000Y-107680000D01*
X180700000Y-107680000D02*
X175500000Y-107680000D01*
X175500000Y-94920000D02*
X175500000Y-107680000D01*
X178100000Y-94920000D02*
X175500000Y-94920000D01*
X178100000Y-92320000D02*
X178100000Y-94920000D01*
X175500000Y-92320000D02*
X175500000Y-93650000D01*
X176830000Y-92320000D02*
X175500000Y-92320000D01*
X121500000Y-105840000D02*
X124500000Y-105840000D01*
X124500000Y-105840000D02*
X124500000Y-107060000D01*
X124500000Y-107060000D02*
X114780000Y-107060000D01*
X114780000Y-107060000D02*
X114780000Y-100000000D01*
X121500000Y-94160000D02*
X124500000Y-94160000D01*
X124500000Y-94160000D02*
X124500000Y-92940000D01*
X124500000Y-92940000D02*
X114780000Y-92940000D01*
X114780000Y-92940000D02*
X114780000Y-100000000D01*
X124550000Y-104000000D02*
X124800000Y-104000000D01*
X124800000Y-104000000D02*
X124800000Y-107360000D01*
X124800000Y-107360000D02*
X122300000Y-107360000D01*
D10*
X174148780Y-99793666D02*
X174863066Y-99793666D01*
X175005923Y-99746047D01*
X175101161Y-99650809D01*
X175148780Y-99507952D01*
X175148780Y-99412714D01*
X175148780Y-100793666D02*
X175148780Y-100222238D01*
X175148780Y-100507952D02*
X174148780Y-100507952D01*
X174291638Y-100412714D01*
X174386876Y-100317476D01*
X174434495Y-100222238D01*
X126237619Y-100333333D02*
X125523333Y-100333333D01*
X125380476Y-100380952D01*
X125285238Y-100476190D01*
X125237619Y-100619047D01*
X125237619Y-100714285D01*
X126142380Y-99904761D02*
X126190000Y-99857142D01*
X126237619Y-99761904D01*
X126237619Y-99523809D01*
X126190000Y-99428571D01*
X126142380Y-99380952D01*
X126047142Y-99333333D01*
X125951904Y-99333333D01*
X125809047Y-99380952D01*
X125237619Y-99952380D01*
X125237619Y-99333333D01*
M02*
