%
M48
M72
T01C0.04000
T02C0.06890
T03C0.07874
T04C0.13780
%
T01
X32996Y41843
X42996Y41843
X42996Y51843
X32996Y51843
X32996Y61843
X42996Y61843
X42996Y71843
X32996Y71843
X32996Y81843
X42996Y81843
X42996Y91843
X32996Y91843
X32996Y101843
X42996Y101843
T02
X99031Y87654
X114780Y87654
X130528Y87654
X146276Y87654
X162024Y87654
X154150Y71906
X138402Y71906
X122654Y71906
X106906Y71906
X114780Y56157
X130528Y56157
X146276Y56157
X162024Y56157
X99031Y56157
T03
X54937Y43165
X60843Y114425
X200213Y114425
X206118Y44346
T04
X11748Y54898
X11748Y84091
M30
