G75*
%MOIN*%
%OFA0B0*%
%FSLAX25Y25*%
%IPPOS*%
%LPD*%
%AMOC8*
5,1,8,0,0,1.08239X$1,22.5*
%
%ADD10OC8,0.06000*%
%ADD11OC8,0.10335*%
%ADD12C,0.02400*%
D10*
X0032996Y0041843D03*
X0042996Y0041843D03*
X0042996Y0051843D03*
X0032996Y0051843D03*
X0032996Y0061843D03*
X0042996Y0061843D03*
X0042996Y0071843D03*
X0032996Y0071843D03*
X0032996Y0081843D03*
X0042996Y0081843D03*
X0042996Y0091843D03*
X0032996Y0091843D03*
X0032996Y0101843D03*
X0042996Y0101843D03*
D11*
X0099031Y0087654D03*
X0114780Y0087654D03*
X0130528Y0087654D03*
X0146276Y0087654D03*
X0162024Y0087654D03*
X0154150Y0071906D03*
X0138402Y0071906D03*
X0122654Y0071906D03*
X0106906Y0071906D03*
X0114780Y0056157D03*
X0130528Y0056157D03*
X0146276Y0056157D03*
X0162024Y0056157D03*
X0099031Y0056157D03*
D12*
X0039996Y0030843D02*
X0032996Y0037843D01*
X0032996Y0041843D01*
X0037496Y0046843D02*
X0048496Y0046843D01*
X0051496Y0049843D01*
X0060496Y0049843D01*
X0066496Y0043843D01*
X0125496Y0043843D01*
X0130528Y0048874D01*
X0130528Y0056157D01*
X0125496Y0062843D02*
X0119496Y0062843D01*
X0117496Y0064843D01*
X0111496Y0064843D01*
X0109496Y0062843D01*
X0103496Y0062843D01*
X0101496Y0064843D01*
X0047496Y0064843D01*
X0045496Y0066843D01*
X0037996Y0066843D01*
X0032996Y0071843D01*
X0042996Y0071843D02*
X0049996Y0078843D01*
X0102496Y0078843D01*
X0104496Y0080843D01*
X0109496Y0080843D01*
X0111496Y0078843D01*
X0113496Y0078843D01*
X0120433Y0071906D01*
X0122654Y0071906D01*
X0127496Y0064843D02*
X0125496Y0062843D01*
X0127496Y0064843D02*
X0132496Y0064843D01*
X0138402Y0070748D01*
X0138402Y0071906D01*
X0146276Y0087654D02*
X0133087Y0100843D01*
X0089496Y0100843D01*
X0085496Y0096843D01*
X0037496Y0096843D01*
X0032996Y0092343D01*
X0032996Y0091843D01*
X0042996Y0091843D02*
X0087496Y0091843D01*
X0091496Y0095843D01*
X0122339Y0095843D01*
X0130528Y0087654D01*
X0146276Y0056157D02*
X0146276Y0039622D01*
X0142496Y0035843D01*
X0049059Y0035843D01*
X0042996Y0041843D01*
X0037496Y0046843D02*
X0032996Y0051343D01*
X0032996Y0051843D01*
X0042996Y0051843D02*
X0045996Y0054843D01*
X0062496Y0054843D01*
X0068496Y0048843D01*
X0108496Y0048843D01*
X0114780Y0055126D01*
X0114780Y0056157D01*
X0154996Y0030843D02*
X0162024Y0037870D01*
X0162024Y0056157D01*
X0154996Y0030843D02*
X0039996Y0030843D01*
M02*
