%TF.GenerationSoftware,KiCad,Pcbnew,(5.1.9)-1*%
%TF.CreationDate,2022-01-23T20:12:45-08:00*%
%TF.ProjectId,MAIN_daq,4d41494e-5f64-4617-912e-6b696361645f,rev?*%
%TF.SameCoordinates,Original*%
%TF.FileFunction,Soldermask,Top*%
%TF.FilePolarity,Negative*%
%FSLAX46Y46*%
G04 Gerber Fmt 4.6, Leading zero omitted, Abs format (unit mm)*
G04 Created by KiCad (PCBNEW (5.1.9)-1) date 2022-01-23 20:12:45*
%MOMM*%
%LPD*%
G01*
G04 APERTURE LIST*
%ADD10C,2.500000*%
%ADD11C,2.951600*%
%ADD12C,2.726600*%
%ADD13C,2.881600*%
%ADD14O,1.801600X1.801600*%
%ADD15C,1.701600*%
%ADD16O,1.701600X1.701600*%
%ADD17O,2.006600X2.101600*%
%ADD18O,3.601600X3.601600*%
G04 APERTURE END LIST*
D10*
X183850000Y-80000000D02*
G75*
G03*
X183850000Y-80000000I-1250000J0D01*
G01*
X73650000Y-80000000D02*
G75*
G03*
X73650000Y-80000000I-1250000J0D01*
G01*
X73650000Y-131000000D02*
G75*
G03*
X73650000Y-131000000I-1250000J0D01*
G01*
X183850000Y-131000000D02*
G75*
G03*
X183850000Y-131000000I-1250000J0D01*
G01*
X183850000Y-80000000D02*
G75*
G03*
X183850000Y-80000000I-1250000J0D01*
G01*
X73650000Y-80000000D02*
G75*
G03*
X73650000Y-80000000I-1250000J0D01*
G01*
X73650000Y-131000000D02*
G75*
G03*
X73650000Y-131000000I-1250000J0D01*
G01*
X183850000Y-131000000D02*
G75*
G03*
X183850000Y-131000000I-1250000J0D01*
G01*
D11*
%TO.C,J2*%
X169500000Y-125500000D03*
X140500000Y-125500000D03*
D12*
X163000000Y-129000000D03*
X159000000Y-129000000D03*
X155000000Y-129000000D03*
X151000000Y-129000000D03*
X147000000Y-129000000D03*
X161000000Y-125000000D03*
X157000000Y-125000000D03*
X153000000Y-125000000D03*
X149000000Y-125000000D03*
X163000000Y-121000000D03*
X159000000Y-121000000D03*
X155000000Y-121000000D03*
X151000000Y-121000000D03*
G36*
G01*
X145636700Y-122312500D02*
X145636700Y-119687500D01*
G75*
G02*
X145687500Y-119636700I50800J0D01*
G01*
X148312500Y-119636700D01*
G75*
G02*
X148363300Y-119687500I0J-50800D01*
G01*
X148363300Y-122312500D01*
G75*
G02*
X148312500Y-122363300I-50800J0D01*
G01*
X145687500Y-122363300D01*
G75*
G02*
X145636700Y-122312500I0J50800D01*
G01*
G37*
%TD*%
D11*
%TO.C,J1*%
X114500000Y-125500000D03*
X85500000Y-125500000D03*
D12*
X108000000Y-129000000D03*
X104000000Y-129000000D03*
X100000000Y-129000000D03*
X96000000Y-129000000D03*
X92000000Y-129000000D03*
X106000000Y-125000000D03*
X102000000Y-125000000D03*
X98000000Y-125000000D03*
X94000000Y-125000000D03*
X108000000Y-121000000D03*
X104000000Y-121000000D03*
X100000000Y-121000000D03*
X96000000Y-121000000D03*
G36*
G01*
X90636700Y-122312500D02*
X90636700Y-119687500D01*
G75*
G02*
X90687500Y-119636700I50800J0D01*
G01*
X93312500Y-119636700D01*
G75*
G02*
X93363300Y-119687500I0J-50800D01*
G01*
X93363300Y-122312500D01*
G75*
G02*
X93312500Y-122363300I-50800J0D01*
G01*
X90687500Y-122363300D01*
G75*
G02*
X90636700Y-122312500I0J50800D01*
G01*
G37*
%TD*%
%TO.C,C1*%
G36*
G01*
X95749200Y-103462900D02*
X95749200Y-102937100D01*
G75*
G02*
X96012100Y-102674200I262900J0D01*
G01*
X96662900Y-102674200D01*
G75*
G02*
X96925800Y-102937100I0J-262900D01*
G01*
X96925800Y-103462900D01*
G75*
G02*
X96662900Y-103725800I-262900J0D01*
G01*
X96012100Y-103725800D01*
G75*
G02*
X95749200Y-103462900I0J262900D01*
G01*
G37*
G36*
G01*
X97474200Y-103462900D02*
X97474200Y-102937100D01*
G75*
G02*
X97737100Y-102674200I262900J0D01*
G01*
X98387900Y-102674200D01*
G75*
G02*
X98650800Y-102937100I0J-262900D01*
G01*
X98650800Y-103462900D01*
G75*
G02*
X98387900Y-103725800I-262900J0D01*
G01*
X97737100Y-103725800D01*
G75*
G02*
X97474200Y-103462900I0J262900D01*
G01*
G37*
%TD*%
%TO.C,C2*%
G36*
G01*
X101785800Y-102749600D02*
X101785800Y-103110400D01*
G75*
G02*
X101605400Y-103290800I-180400J0D01*
G01*
X101129600Y-103290800D01*
G75*
G02*
X100949200Y-103110400I0J180400D01*
G01*
X100949200Y-102749600D01*
G75*
G02*
X101129600Y-102569200I180400J0D01*
G01*
X101605400Y-102569200D01*
G75*
G02*
X101785800Y-102749600I0J-180400D01*
G01*
G37*
G36*
G01*
X100650800Y-102749600D02*
X100650800Y-103110400D01*
G75*
G02*
X100470400Y-103290800I-180400J0D01*
G01*
X99994600Y-103290800D01*
G75*
G02*
X99814200Y-103110400I0J180400D01*
G01*
X99814200Y-102749600D01*
G75*
G02*
X99994600Y-102569200I180400J0D01*
G01*
X100470400Y-102569200D01*
G75*
G02*
X100650800Y-102749600I0J-180400D01*
G01*
G37*
%TD*%
D13*
%TO.C,F1*%
X88560000Y-84000000D03*
X88560000Y-80600000D03*
X78640000Y-84000000D03*
X78640000Y-80600000D03*
%TD*%
%TO.C,F2*%
X78640000Y-90600000D03*
X78640000Y-94000000D03*
X88560000Y-90600000D03*
X88560000Y-94000000D03*
%TD*%
%TO.C,F3*%
X88560000Y-104000000D03*
X88560000Y-100600000D03*
X78640000Y-104000000D03*
X78640000Y-100600000D03*
%TD*%
%TO.C,F4*%
X78640000Y-110600000D03*
X78640000Y-114000000D03*
X88560000Y-110600000D03*
X88560000Y-114000000D03*
%TD*%
%TO.C,F5*%
X166440000Y-80600000D03*
X166440000Y-84000000D03*
X176360000Y-80600000D03*
X176360000Y-84000000D03*
%TD*%
%TO.C,F6*%
X176360000Y-94000000D03*
X176360000Y-90600000D03*
X166440000Y-94000000D03*
X166440000Y-90600000D03*
%TD*%
%TO.C,F7*%
X166440000Y-100600000D03*
X166440000Y-104000000D03*
X176360000Y-100600000D03*
X176360000Y-104000000D03*
%TD*%
%TO.C,F8*%
X176360000Y-114000000D03*
X176360000Y-110600000D03*
X166440000Y-114000000D03*
X166440000Y-110600000D03*
%TD*%
%TO.C,F9*%
X111907500Y-90680000D03*
X108507500Y-90680000D03*
X111907500Y-100600000D03*
X108507500Y-100600000D03*
%TD*%
D14*
%TO.C,J3*%
X157770000Y-80490000D03*
X157770000Y-83030000D03*
X155230000Y-80490000D03*
X155230000Y-83030000D03*
X152690000Y-80490000D03*
X152690000Y-83030000D03*
X150150000Y-80490000D03*
X150150000Y-83030000D03*
X147610000Y-80490000D03*
X147610000Y-83030000D03*
X145070000Y-80490000D03*
X145070000Y-83030000D03*
X142530000Y-80490000D03*
X142530000Y-83030000D03*
X139990000Y-80490000D03*
X139990000Y-83030000D03*
X137450000Y-80490000D03*
X137450000Y-83030000D03*
X134910000Y-80490000D03*
X134910000Y-83030000D03*
X132370000Y-80490000D03*
X132370000Y-83030000D03*
X129830000Y-80490000D03*
X129830000Y-83030000D03*
X127290000Y-80490000D03*
X127290000Y-83030000D03*
X124750000Y-80490000D03*
X124750000Y-83030000D03*
X122210000Y-80490000D03*
X122210000Y-83030000D03*
X119670000Y-80490000D03*
X119670000Y-83030000D03*
X117130000Y-80490000D03*
X117130000Y-83030000D03*
X114590000Y-80490000D03*
X114590000Y-83030000D03*
X112050000Y-80490000D03*
X112050000Y-83030000D03*
X109510000Y-80490000D03*
G36*
G01*
X110360000Y-83930800D02*
X108660000Y-83930800D01*
G75*
G02*
X108609200Y-83880000I0J50800D01*
G01*
X108609200Y-82180000D01*
G75*
G02*
X108660000Y-82129200I50800J0D01*
G01*
X110360000Y-82129200D01*
G75*
G02*
X110410800Y-82180000I0J-50800D01*
G01*
X110410800Y-83880000D01*
G75*
G02*
X110360000Y-83930800I-50800J0D01*
G01*
G37*
%TD*%
D15*
%TO.C,U1*%
X117615000Y-96400000D03*
X117615000Y-98940000D03*
X117615000Y-101480000D03*
X117615000Y-104020000D03*
X117615000Y-93860000D03*
X117615000Y-91320000D03*
X117615000Y-88780000D03*
X120155000Y-104020000D03*
X122695000Y-104020000D03*
X125235000Y-104020000D03*
X127775000Y-104020000D03*
X130315000Y-104020000D03*
X132855000Y-104020000D03*
X135395000Y-104020000D03*
X137935000Y-104020000D03*
X140475000Y-104020000D03*
X143015000Y-104020000D03*
X145555000Y-104020000D03*
X148095000Y-104020000D03*
X150635000Y-104020000D03*
X148095000Y-101480000D03*
X120155000Y-88780000D03*
X122695000Y-88780000D03*
X125235000Y-88780000D03*
X127775000Y-88780000D03*
X130315000Y-88780000D03*
X132855000Y-88780000D03*
X135395000Y-88780000D03*
X137935000Y-88780000D03*
X140475000Y-88780000D03*
X143015000Y-88780000D03*
X145555000Y-88780000D03*
X148095000Y-88780000D03*
X150635000Y-88780000D03*
X122695000Y-101480000D03*
X125235000Y-101480000D03*
X122695000Y-98940000D03*
X125235000Y-98940000D03*
X122695000Y-96400000D03*
X125235000Y-96400000D03*
X122695000Y-93860000D03*
X125235000Y-93860000D03*
X122695000Y-91320000D03*
X125235000Y-91320000D03*
%TD*%
%TO.C,U3*%
G36*
G01*
X106050800Y-107200000D02*
X106050800Y-108800000D01*
G75*
G02*
X106000000Y-108850800I-50800J0D01*
G01*
X104400000Y-108850800D01*
G75*
G02*
X104349200Y-108800000I0J50800D01*
G01*
X104349200Y-107200000D01*
G75*
G02*
X104400000Y-107149200I50800J0D01*
G01*
X106000000Y-107149200D01*
G75*
G02*
X106050800Y-107200000I0J-50800D01*
G01*
G37*
D16*
X97580000Y-115620000D03*
X105200000Y-110540000D03*
X97580000Y-113080000D03*
X105200000Y-113080000D03*
X97580000Y-110540000D03*
X105200000Y-115620000D03*
X97580000Y-108000000D03*
%TD*%
D17*
%TO.C,U2*%
X101410000Y-98390000D03*
X98870000Y-98390000D03*
G36*
G01*
X95326700Y-99390000D02*
X95326700Y-97390000D01*
G75*
G02*
X95377500Y-97339200I50800J0D01*
G01*
X97282500Y-97339200D01*
G75*
G02*
X97333300Y-97390000I0J-50800D01*
G01*
X97333300Y-99390000D01*
G75*
G02*
X97282500Y-99440800I-50800J0D01*
G01*
X95377500Y-99440800D01*
G75*
G02*
X95326700Y-99390000I0J50800D01*
G01*
G37*
D18*
X98870000Y-81730000D03*
%TD*%
M02*
