M48
; DRILL file {KiCad (5.1.9)-1} date 01/23/22 20:13:55
; FORMAT={-:-/ absolute / inch / decimal}
; #@! TF.CreationDate,2022-01-23T20:13:55-08:00
; #@! TF.GenerationSoftware,Kicad,Pcbnew,(5.1.9)-1
FMAT,2
INCH
T1C0.0150
T2C0.0315
T3C0.0394
T4C0.0433
T5C0.0689
T6C0.0701
T7C0.1122
T8C0.1378
%
G90
G05
T1
X4.5039Y-3.6693
X4.5512Y-3.5827
X5.0236Y-5.1754
T2
X3.8417Y-4.252
X3.8417Y-4.352
X3.8417Y-4.452
X3.8417Y-4.552
X4.1417Y-4.252
X4.1417Y-4.352
X4.1417Y-4.452
X4.1417Y-4.552
T3
X4.3114Y-3.1689
X4.3114Y-3.2689
X4.4114Y-3.1689
X4.4114Y-3.2689
X4.5114Y-3.1689
X4.5114Y-3.2689
X4.6114Y-3.1689
X4.6114Y-3.2689
X4.7114Y-3.1689
X4.7114Y-3.2689
X4.8114Y-3.1689
X4.8114Y-3.2689
X4.9114Y-3.1689
X4.9114Y-3.2689
X5.0114Y-3.1689
X5.0114Y-3.2689
X5.1114Y-3.1689
X5.1114Y-3.2689
X5.2114Y-3.1689
X5.2114Y-3.2689
X5.3114Y-3.1689
X5.3114Y-3.2689
X5.4114Y-3.1689
X5.4114Y-3.2689
X5.5114Y-3.1689
X5.5114Y-3.2689
X5.6114Y-3.1689
X5.6114Y-3.2689
X5.7114Y-3.1689
X5.7114Y-3.2689
X5.8114Y-3.1689
X5.8114Y-3.2689
X5.9114Y-3.1689
X5.9114Y-3.2689
X6.0114Y-3.1689
X6.0114Y-3.2689
X6.1114Y-3.1689
X6.1114Y-3.2689
X6.2114Y-3.1689
X6.2114Y-3.2689
T4
X3.7925Y-3.8736
X3.8925Y-3.8736
X3.9925Y-3.8736
X4.6305Y-3.4953
X4.6305Y-3.5953
X4.6305Y-3.6953
X4.6305Y-3.7953
X4.6305Y-3.8953
X4.6305Y-3.9953
X4.6305Y-4.0953
X4.7305Y-3.4953
X4.7305Y-4.0953
X4.8305Y-3.4953
X4.8305Y-3.5953
X4.8305Y-3.6953
X4.8305Y-3.7953
X4.8305Y-3.8953
X4.8305Y-3.9953
X4.8305Y-4.0953
X4.9305Y-3.4953
X4.9305Y-3.5953
X4.9305Y-3.6953
X4.9305Y-3.7953
X4.9305Y-3.8953
X4.9305Y-3.9953
X4.9305Y-4.0953
X5.0305Y-3.4953
X5.0305Y-4.0953
X5.1305Y-3.4953
X5.1305Y-4.0953
X5.2305Y-3.4953
X5.2305Y-4.0953
X5.3305Y-3.4953
X5.3305Y-4.0953
X5.4305Y-3.4953
X5.4305Y-4.0953
X5.5305Y-3.4953
X5.5305Y-4.0953
X5.6305Y-3.4953
X5.6305Y-4.0953
X5.7305Y-3.4953
X5.7305Y-4.0953
X5.8305Y-3.4953
X5.8305Y-3.9953
X5.8305Y-4.0953
X5.9305Y-3.4953
X5.9305Y-4.0953
T5
X3.622Y-4.7638
X3.622Y-5.0787
X3.7008Y-4.9213
X3.7795Y-4.7638
X3.7795Y-5.0787
X3.8583Y-4.9213
X3.937Y-4.7638
X3.937Y-5.0787
X4.0157Y-4.9213
X4.0945Y-4.7638
X4.0945Y-5.0787
X4.1732Y-4.9213
X4.252Y-4.7638
X4.252Y-5.0787
X5.7874Y-4.7638
X5.7874Y-5.0787
X5.8661Y-4.9213
X5.9449Y-4.7638
X5.9449Y-5.0787
X6.0236Y-4.9213
X6.1024Y-4.7638
X6.1024Y-5.0787
X6.1811Y-4.9213
X6.2598Y-4.7638
X6.2598Y-5.0787
X6.3386Y-4.9213
X6.4173Y-4.7638
X6.4173Y-5.0787
T6
X3.0961Y-3.1732
X3.0961Y-3.3071
X3.0961Y-3.5669
X3.0961Y-3.7008
X3.0961Y-3.9606
X3.0961Y-4.0945
X3.0961Y-4.3543
X3.0961Y-4.4882
X3.4866Y-3.1732
X3.4866Y-3.3071
X3.4866Y-3.5669
X3.4866Y-3.7008
X3.4866Y-3.9606
X3.4866Y-4.0945
X3.4866Y-4.3543
X3.4866Y-4.4882
X4.2719Y-3.5701
X4.2719Y-3.9606
X4.4058Y-3.5701
X4.4058Y-3.9606
X6.5528Y-3.1732
X6.5528Y-3.3071
X6.5528Y-3.5669
X6.5528Y-3.7008
X6.5528Y-3.9606
X6.5528Y-4.0945
X6.5528Y-4.3543
X6.5528Y-4.4882
X6.9433Y-3.1732
X6.9433Y-3.3071
X6.9433Y-3.5669
X6.9433Y-3.7008
X6.9433Y-3.9606
X6.9433Y-4.0945
X6.9433Y-4.3543
X6.9433Y-4.4882
T7
X3.3661Y-4.9409
X4.5079Y-4.9409
X5.5315Y-4.9409
X6.6732Y-4.9409
T8
X3.8925Y-3.2177
T0
M30
