%TF.GenerationSoftware,KiCad,Pcbnew,(5.1.9)-1*%
%TF.CreationDate,2022-01-23T20:12:45-08:00*%
%TF.ProjectId,MAIN_daq,4d41494e-5f64-4617-912e-6b696361645f,rev?*%
%TF.SameCoordinates,Original*%
%TF.FileFunction,Legend,Bot*%
%TF.FilePolarity,Positive*%
%FSLAX46Y46*%
G04 Gerber Fmt 4.6, Leading zero omitted, Abs format (unit mm)*
G04 Created by KiCad (PCBNEW (5.1.9)-1) date 2022-01-23 20:12:45*
%MOMM*%
%LPD*%
G01*
G04 APERTURE LIST*
%ADD10C,0.120000*%
%ADD11C,0.150000*%
G04 APERTURE END LIST*
D10*
%TO.C,R1*%
X113997500Y-114934724D02*
X113997500Y-114425276D01*
X115042500Y-114934724D02*
X115042500Y-114425276D01*
%TO.C,R3*%
X124442500Y-114934724D02*
X124442500Y-114425276D01*
X123397500Y-114934724D02*
X123397500Y-114425276D01*
%TO.C,R5*%
X113047500Y-110854724D02*
X113047500Y-110345276D01*
X112002500Y-110854724D02*
X112002500Y-110345276D01*
%TO.C,R6*%
X121402500Y-110854724D02*
X121402500Y-110345276D01*
X122447500Y-110854724D02*
X122447500Y-110345276D01*
%TO.C,R7*%
X136642500Y-114934724D02*
X136642500Y-114425276D01*
X135597500Y-114934724D02*
X135597500Y-114425276D01*
%TO.C,R9*%
X146042500Y-114934724D02*
X146042500Y-114425276D01*
X144997500Y-114934724D02*
X144997500Y-114425276D01*
%TO.C,R11*%
X133602500Y-110854724D02*
X133602500Y-110345276D01*
X134647500Y-110854724D02*
X134647500Y-110345276D01*
%TO.C,R12*%
X143002500Y-110854724D02*
X143002500Y-110345276D01*
X144047500Y-110854724D02*
X144047500Y-110345276D01*
%TO.C,R13*%
X93945276Y-116122500D02*
X94454724Y-116122500D01*
X93945276Y-115077500D02*
X94454724Y-115077500D01*
%TO.C,U3*%
X102390000Y-106670000D02*
X104040000Y-106670000D01*
X104040000Y-106670000D02*
X104040000Y-116950000D01*
X104040000Y-116950000D02*
X98740000Y-116950000D01*
X98740000Y-116950000D02*
X98740000Y-106670000D01*
X98740000Y-106670000D02*
X100390000Y-106670000D01*
X100390000Y-106670000D02*
G75*
G03*
X102390000Y-106670000I1000000J0D01*
G01*
%TO.C,R8*%
X132605000Y-116080000D02*
X132605000Y-113280000D01*
X132605000Y-113280000D02*
X130605000Y-113280000D01*
X130605000Y-113280000D02*
X130605000Y-116080000D01*
X130605000Y-116080000D02*
X132605000Y-116080000D01*
%TO.C,R2*%
X111005000Y-116080000D02*
X111005000Y-113280000D01*
X111005000Y-113280000D02*
X109005000Y-113280000D01*
X109005000Y-113280000D02*
X109005000Y-116080000D01*
X109005000Y-116080000D02*
X111005000Y-116080000D01*
%TO.C,R4*%
X118405000Y-116080000D02*
X120405000Y-116080000D01*
X118405000Y-113280000D02*
X118405000Y-116080000D01*
X120405000Y-113280000D02*
X118405000Y-113280000D01*
X120405000Y-116080000D02*
X120405000Y-113280000D01*
%TO.C,R10*%
X142005000Y-116080000D02*
X142005000Y-113280000D01*
X142005000Y-113280000D02*
X140005000Y-113280000D01*
X140005000Y-113280000D02*
X140005000Y-116080000D01*
X140005000Y-116080000D02*
X142005000Y-116080000D01*
%TO.C,R1*%
D11*
X116402380Y-114513333D02*
X115926190Y-114180000D01*
X116402380Y-113941904D02*
X115402380Y-113941904D01*
X115402380Y-114322857D01*
X115450000Y-114418095D01*
X115497619Y-114465714D01*
X115592857Y-114513333D01*
X115735714Y-114513333D01*
X115830952Y-114465714D01*
X115878571Y-114418095D01*
X115926190Y-114322857D01*
X115926190Y-113941904D01*
X116402380Y-115465714D02*
X116402380Y-114894285D01*
X116402380Y-115180000D02*
X115402380Y-115180000D01*
X115545238Y-115084761D01*
X115640476Y-114989523D01*
X115688095Y-114894285D01*
%TO.C,R3*%
X125802380Y-114513333D02*
X125326190Y-114180000D01*
X125802380Y-113941904D02*
X124802380Y-113941904D01*
X124802380Y-114322857D01*
X124850000Y-114418095D01*
X124897619Y-114465714D01*
X124992857Y-114513333D01*
X125135714Y-114513333D01*
X125230952Y-114465714D01*
X125278571Y-114418095D01*
X125326190Y-114322857D01*
X125326190Y-113941904D01*
X124802380Y-114846666D02*
X124802380Y-115465714D01*
X125183333Y-115132380D01*
X125183333Y-115275238D01*
X125230952Y-115370476D01*
X125278571Y-115418095D01*
X125373809Y-115465714D01*
X125611904Y-115465714D01*
X125707142Y-115418095D01*
X125754761Y-115370476D01*
X125802380Y-115275238D01*
X125802380Y-114989523D01*
X125754761Y-114894285D01*
X125707142Y-114846666D01*
%TO.C,R5*%
X114407380Y-110433333D02*
X113931190Y-110100000D01*
X114407380Y-109861904D02*
X113407380Y-109861904D01*
X113407380Y-110242857D01*
X113455000Y-110338095D01*
X113502619Y-110385714D01*
X113597857Y-110433333D01*
X113740714Y-110433333D01*
X113835952Y-110385714D01*
X113883571Y-110338095D01*
X113931190Y-110242857D01*
X113931190Y-109861904D01*
X113407380Y-111338095D02*
X113407380Y-110861904D01*
X113883571Y-110814285D01*
X113835952Y-110861904D01*
X113788333Y-110957142D01*
X113788333Y-111195238D01*
X113835952Y-111290476D01*
X113883571Y-111338095D01*
X113978809Y-111385714D01*
X114216904Y-111385714D01*
X114312142Y-111338095D01*
X114359761Y-111290476D01*
X114407380Y-111195238D01*
X114407380Y-110957142D01*
X114359761Y-110861904D01*
X114312142Y-110814285D01*
%TO.C,R6*%
X123807380Y-110433333D02*
X123331190Y-110100000D01*
X123807380Y-109861904D02*
X122807380Y-109861904D01*
X122807380Y-110242857D01*
X122855000Y-110338095D01*
X122902619Y-110385714D01*
X122997857Y-110433333D01*
X123140714Y-110433333D01*
X123235952Y-110385714D01*
X123283571Y-110338095D01*
X123331190Y-110242857D01*
X123331190Y-109861904D01*
X122807380Y-111290476D02*
X122807380Y-111100000D01*
X122855000Y-111004761D01*
X122902619Y-110957142D01*
X123045476Y-110861904D01*
X123235952Y-110814285D01*
X123616904Y-110814285D01*
X123712142Y-110861904D01*
X123759761Y-110909523D01*
X123807380Y-111004761D01*
X123807380Y-111195238D01*
X123759761Y-111290476D01*
X123712142Y-111338095D01*
X123616904Y-111385714D01*
X123378809Y-111385714D01*
X123283571Y-111338095D01*
X123235952Y-111290476D01*
X123188333Y-111195238D01*
X123188333Y-111004761D01*
X123235952Y-110909523D01*
X123283571Y-110861904D01*
X123378809Y-110814285D01*
%TO.C,R7*%
X138002380Y-114513333D02*
X137526190Y-114180000D01*
X138002380Y-113941904D02*
X137002380Y-113941904D01*
X137002380Y-114322857D01*
X137050000Y-114418095D01*
X137097619Y-114465714D01*
X137192857Y-114513333D01*
X137335714Y-114513333D01*
X137430952Y-114465714D01*
X137478571Y-114418095D01*
X137526190Y-114322857D01*
X137526190Y-113941904D01*
X137002380Y-114846666D02*
X137002380Y-115513333D01*
X138002380Y-115084761D01*
%TO.C,R9*%
X147402380Y-114513333D02*
X146926190Y-114180000D01*
X147402380Y-113941904D02*
X146402380Y-113941904D01*
X146402380Y-114322857D01*
X146450000Y-114418095D01*
X146497619Y-114465714D01*
X146592857Y-114513333D01*
X146735714Y-114513333D01*
X146830952Y-114465714D01*
X146878571Y-114418095D01*
X146926190Y-114322857D01*
X146926190Y-113941904D01*
X147402380Y-114989523D02*
X147402380Y-115180000D01*
X147354761Y-115275238D01*
X147307142Y-115322857D01*
X147164285Y-115418095D01*
X146973809Y-115465714D01*
X146592857Y-115465714D01*
X146497619Y-115418095D01*
X146450000Y-115370476D01*
X146402380Y-115275238D01*
X146402380Y-115084761D01*
X146450000Y-114989523D01*
X146497619Y-114941904D01*
X146592857Y-114894285D01*
X146830952Y-114894285D01*
X146926190Y-114941904D01*
X146973809Y-114989523D01*
X147021428Y-115084761D01*
X147021428Y-115275238D01*
X146973809Y-115370476D01*
X146926190Y-115418095D01*
X146830952Y-115465714D01*
%TO.C,R11*%
X136007380Y-109957142D02*
X135531190Y-109623809D01*
X136007380Y-109385714D02*
X135007380Y-109385714D01*
X135007380Y-109766666D01*
X135055000Y-109861904D01*
X135102619Y-109909523D01*
X135197857Y-109957142D01*
X135340714Y-109957142D01*
X135435952Y-109909523D01*
X135483571Y-109861904D01*
X135531190Y-109766666D01*
X135531190Y-109385714D01*
X136007380Y-110909523D02*
X136007380Y-110338095D01*
X136007380Y-110623809D02*
X135007380Y-110623809D01*
X135150238Y-110528571D01*
X135245476Y-110433333D01*
X135293095Y-110338095D01*
X136007380Y-111861904D02*
X136007380Y-111290476D01*
X136007380Y-111576190D02*
X135007380Y-111576190D01*
X135150238Y-111480952D01*
X135245476Y-111385714D01*
X135293095Y-111290476D01*
%TO.C,R12*%
X145407380Y-109957142D02*
X144931190Y-109623809D01*
X145407380Y-109385714D02*
X144407380Y-109385714D01*
X144407380Y-109766666D01*
X144455000Y-109861904D01*
X144502619Y-109909523D01*
X144597857Y-109957142D01*
X144740714Y-109957142D01*
X144835952Y-109909523D01*
X144883571Y-109861904D01*
X144931190Y-109766666D01*
X144931190Y-109385714D01*
X145407380Y-110909523D02*
X145407380Y-110338095D01*
X145407380Y-110623809D02*
X144407380Y-110623809D01*
X144550238Y-110528571D01*
X144645476Y-110433333D01*
X144693095Y-110338095D01*
X144502619Y-111290476D02*
X144455000Y-111338095D01*
X144407380Y-111433333D01*
X144407380Y-111671428D01*
X144455000Y-111766666D01*
X144502619Y-111814285D01*
X144597857Y-111861904D01*
X144693095Y-111861904D01*
X144835952Y-111814285D01*
X145407380Y-111242857D01*
X145407380Y-111861904D01*
%TO.C,R13*%
X94842857Y-117482380D02*
X95176190Y-117006190D01*
X95414285Y-117482380D02*
X95414285Y-116482380D01*
X95033333Y-116482380D01*
X94938095Y-116530000D01*
X94890476Y-116577619D01*
X94842857Y-116672857D01*
X94842857Y-116815714D01*
X94890476Y-116910952D01*
X94938095Y-116958571D01*
X95033333Y-117006190D01*
X95414285Y-117006190D01*
X93890476Y-117482380D02*
X94461904Y-117482380D01*
X94176190Y-117482380D02*
X94176190Y-116482380D01*
X94271428Y-116625238D01*
X94366666Y-116720476D01*
X94461904Y-116768095D01*
X93557142Y-116482380D02*
X92938095Y-116482380D01*
X93271428Y-116863333D01*
X93128571Y-116863333D01*
X93033333Y-116910952D01*
X92985714Y-116958571D01*
X92938095Y-117053809D01*
X92938095Y-117291904D01*
X92985714Y-117387142D01*
X93033333Y-117434761D01*
X93128571Y-117482380D01*
X93414285Y-117482380D01*
X93509523Y-117434761D01*
X93557142Y-117387142D01*
%TO.C,U3*%
X102151904Y-105122380D02*
X102151904Y-105931904D01*
X102104285Y-106027142D01*
X102056666Y-106074761D01*
X101961428Y-106122380D01*
X101770952Y-106122380D01*
X101675714Y-106074761D01*
X101628095Y-106027142D01*
X101580476Y-105931904D01*
X101580476Y-105122380D01*
X101199523Y-105122380D02*
X100580476Y-105122380D01*
X100913809Y-105503333D01*
X100770952Y-105503333D01*
X100675714Y-105550952D01*
X100628095Y-105598571D01*
X100580476Y-105693809D01*
X100580476Y-105931904D01*
X100628095Y-106027142D01*
X100675714Y-106074761D01*
X100770952Y-106122380D01*
X101056666Y-106122380D01*
X101151904Y-106074761D01*
X101199523Y-106027142D01*
%TO.C,R8*%
X133857380Y-114513333D02*
X133381190Y-114180000D01*
X133857380Y-113941904D02*
X132857380Y-113941904D01*
X132857380Y-114322857D01*
X132905000Y-114418095D01*
X132952619Y-114465714D01*
X133047857Y-114513333D01*
X133190714Y-114513333D01*
X133285952Y-114465714D01*
X133333571Y-114418095D01*
X133381190Y-114322857D01*
X133381190Y-113941904D01*
X133285952Y-115084761D02*
X133238333Y-114989523D01*
X133190714Y-114941904D01*
X133095476Y-114894285D01*
X133047857Y-114894285D01*
X132952619Y-114941904D01*
X132905000Y-114989523D01*
X132857380Y-115084761D01*
X132857380Y-115275238D01*
X132905000Y-115370476D01*
X132952619Y-115418095D01*
X133047857Y-115465714D01*
X133095476Y-115465714D01*
X133190714Y-115418095D01*
X133238333Y-115370476D01*
X133285952Y-115275238D01*
X133285952Y-115084761D01*
X133333571Y-114989523D01*
X133381190Y-114941904D01*
X133476428Y-114894285D01*
X133666904Y-114894285D01*
X133762142Y-114941904D01*
X133809761Y-114989523D01*
X133857380Y-115084761D01*
X133857380Y-115275238D01*
X133809761Y-115370476D01*
X133762142Y-115418095D01*
X133666904Y-115465714D01*
X133476428Y-115465714D01*
X133381190Y-115418095D01*
X133333571Y-115370476D01*
X133285952Y-115275238D01*
%TO.C,R2*%
X112257380Y-114513333D02*
X111781190Y-114180000D01*
X112257380Y-113941904D02*
X111257380Y-113941904D01*
X111257380Y-114322857D01*
X111305000Y-114418095D01*
X111352619Y-114465714D01*
X111447857Y-114513333D01*
X111590714Y-114513333D01*
X111685952Y-114465714D01*
X111733571Y-114418095D01*
X111781190Y-114322857D01*
X111781190Y-113941904D01*
X111352619Y-114894285D02*
X111305000Y-114941904D01*
X111257380Y-115037142D01*
X111257380Y-115275238D01*
X111305000Y-115370476D01*
X111352619Y-115418095D01*
X111447857Y-115465714D01*
X111543095Y-115465714D01*
X111685952Y-115418095D01*
X112257380Y-114846666D01*
X112257380Y-115465714D01*
%TO.C,R4*%
X121657380Y-114513333D02*
X121181190Y-114180000D01*
X121657380Y-113941904D02*
X120657380Y-113941904D01*
X120657380Y-114322857D01*
X120705000Y-114418095D01*
X120752619Y-114465714D01*
X120847857Y-114513333D01*
X120990714Y-114513333D01*
X121085952Y-114465714D01*
X121133571Y-114418095D01*
X121181190Y-114322857D01*
X121181190Y-113941904D01*
X120990714Y-115370476D02*
X121657380Y-115370476D01*
X120609761Y-115132380D02*
X121324047Y-114894285D01*
X121324047Y-115513333D01*
%TO.C,R10*%
X143257380Y-114037142D02*
X142781190Y-113703809D01*
X143257380Y-113465714D02*
X142257380Y-113465714D01*
X142257380Y-113846666D01*
X142305000Y-113941904D01*
X142352619Y-113989523D01*
X142447857Y-114037142D01*
X142590714Y-114037142D01*
X142685952Y-113989523D01*
X142733571Y-113941904D01*
X142781190Y-113846666D01*
X142781190Y-113465714D01*
X143257380Y-114989523D02*
X143257380Y-114418095D01*
X143257380Y-114703809D02*
X142257380Y-114703809D01*
X142400238Y-114608571D01*
X142495476Y-114513333D01*
X142543095Y-114418095D01*
X142257380Y-115608571D02*
X142257380Y-115703809D01*
X142305000Y-115799047D01*
X142352619Y-115846666D01*
X142447857Y-115894285D01*
X142638333Y-115941904D01*
X142876428Y-115941904D01*
X143066904Y-115894285D01*
X143162142Y-115846666D01*
X143209761Y-115799047D01*
X143257380Y-115703809D01*
X143257380Y-115608571D01*
X143209761Y-115513333D01*
X143162142Y-115465714D01*
X143066904Y-115418095D01*
X142876428Y-115370476D01*
X142638333Y-115370476D01*
X142447857Y-115418095D01*
X142352619Y-115465714D01*
X142305000Y-115513333D01*
X142257380Y-115608571D01*
%TD*%
M02*
