%TF.GenerationSoftware,KiCad,Pcbnew,(5.1.9)-1*%
%TF.CreationDate,2022-01-24T01:27:23-08:00*%
%TF.ProjectId,MAIN_daq,4d41494e-5f64-4617-912e-6b696361645f,v1.0*%
%TF.SameCoordinates,Original*%
%TF.FileFunction,Legend,Top*%
%TF.FilePolarity,Positive*%
%FSLAX46Y46*%
G04 Gerber Fmt 4.6, Leading zero omitted, Abs format (unit mm)*
G04 Created by KiCad (PCBNEW (5.1.9)-1) date 2022-01-24 01:27:23*
%MOMM*%
%LPD*%
G01*
G04 APERTURE LIST*
%ADD10C,0.127000*%
%ADD11C,0.400000*%
%ADD12C,0.120000*%
%ADD13C,0.100000*%
%ADD14C,0.150000*%
%ADD15C,0.015000*%
G04 APERTURE END LIST*
D10*
%TO.C,J2*%
X179400000Y-134000000D02*
X179400000Y-118950000D01*
X130600000Y-118950000D02*
X130600000Y-134000000D01*
X130600000Y-118950000D02*
X179400000Y-118950000D01*
D11*
X147200000Y-118000000D02*
G75*
G03*
X147200000Y-118000000I-200000J0D01*
G01*
D10*
%TO.C,J1*%
X124400000Y-134000000D02*
X124400000Y-118950000D01*
X75600000Y-118950000D02*
X75600000Y-134000000D01*
X75600000Y-118950000D02*
X124400000Y-118950000D01*
D11*
X92200000Y-118000000D02*
G75*
G03*
X92200000Y-118000000I-200000J0D01*
G01*
D12*
%TO.C,C1*%
X97053733Y-103710000D02*
X97346267Y-103710000D01*
X97053733Y-102690000D02*
X97346267Y-102690000D01*
%TO.C,C2*%
X100915835Y-102570000D02*
X100684165Y-102570000D01*
X100915835Y-103290000D02*
X100684165Y-103290000D01*
%TO.C,F1*%
X85200000Y-84300000D02*
X82000000Y-84300000D01*
X82000000Y-80300000D02*
X85200000Y-80300000D01*
X84350000Y-82300000D02*
X82850000Y-82300000D01*
X75500000Y-85770000D02*
X91700000Y-85770000D01*
X75500000Y-78830000D02*
X75500000Y-85770000D01*
X91700000Y-78830000D02*
X75500000Y-78830000D01*
X91700000Y-85770000D02*
X91700000Y-78830000D01*
%TO.C,F2*%
X91700000Y-95770000D02*
X91700000Y-88830000D01*
X91700000Y-88830000D02*
X75500000Y-88830000D01*
X75500000Y-88830000D02*
X75500000Y-95770000D01*
X75500000Y-95770000D02*
X91700000Y-95770000D01*
X84350000Y-92300000D02*
X82850000Y-92300000D01*
X82000000Y-90300000D02*
X85200000Y-90300000D01*
X85200000Y-94300000D02*
X82000000Y-94300000D01*
%TO.C,F3*%
X85200000Y-104300000D02*
X82000000Y-104300000D01*
X82000000Y-100300000D02*
X85200000Y-100300000D01*
X84350000Y-102300000D02*
X82850000Y-102300000D01*
X75500000Y-105770000D02*
X91700000Y-105770000D01*
X75500000Y-98830000D02*
X75500000Y-105770000D01*
X91700000Y-98830000D02*
X75500000Y-98830000D01*
X91700000Y-105770000D02*
X91700000Y-98830000D01*
%TO.C,F4*%
X91700000Y-115770000D02*
X91700000Y-108830000D01*
X91700000Y-108830000D02*
X75500000Y-108830000D01*
X75500000Y-108830000D02*
X75500000Y-115770000D01*
X75500000Y-115770000D02*
X91700000Y-115770000D01*
X84350000Y-112300000D02*
X82850000Y-112300000D01*
X82000000Y-110300000D02*
X85200000Y-110300000D01*
X85200000Y-114300000D02*
X82000000Y-114300000D01*
%TO.C,F5*%
X169800000Y-80300000D02*
X173000000Y-80300000D01*
X173000000Y-84300000D02*
X169800000Y-84300000D01*
X170650000Y-82300000D02*
X172150000Y-82300000D01*
X179500000Y-78830000D02*
X163300000Y-78830000D01*
X179500000Y-85770000D02*
X179500000Y-78830000D01*
X163300000Y-85770000D02*
X179500000Y-85770000D01*
X163300000Y-78830000D02*
X163300000Y-85770000D01*
%TO.C,F6*%
X163300000Y-88830000D02*
X163300000Y-95770000D01*
X163300000Y-95770000D02*
X179500000Y-95770000D01*
X179500000Y-95770000D02*
X179500000Y-88830000D01*
X179500000Y-88830000D02*
X163300000Y-88830000D01*
X170650000Y-92300000D02*
X172150000Y-92300000D01*
X173000000Y-94300000D02*
X169800000Y-94300000D01*
X169800000Y-90300000D02*
X173000000Y-90300000D01*
%TO.C,F7*%
X169800000Y-100300000D02*
X173000000Y-100300000D01*
X173000000Y-104300000D02*
X169800000Y-104300000D01*
X170650000Y-102300000D02*
X172150000Y-102300000D01*
X179500000Y-98830000D02*
X163300000Y-98830000D01*
X179500000Y-105770000D02*
X179500000Y-98830000D01*
X163300000Y-105770000D02*
X179500000Y-105770000D01*
X163300000Y-98830000D02*
X163300000Y-105770000D01*
%TO.C,F8*%
X163300000Y-108830000D02*
X163300000Y-115770000D01*
X163300000Y-115770000D02*
X179500000Y-115770000D01*
X179500000Y-115770000D02*
X179500000Y-108830000D01*
X179500000Y-108830000D02*
X163300000Y-108830000D01*
X170650000Y-112300000D02*
X172150000Y-112300000D01*
X173000000Y-114300000D02*
X169800000Y-114300000D01*
X169800000Y-110300000D02*
X173000000Y-110300000D01*
%TO.C,F9*%
X106737500Y-103740000D02*
X113677500Y-103740000D01*
X113677500Y-103740000D02*
X113677500Y-87540000D01*
X113677500Y-87540000D02*
X106737500Y-87540000D01*
X106737500Y-87540000D02*
X106737500Y-103740000D01*
X110207500Y-96390000D02*
X110207500Y-94890000D01*
X112207500Y-94040000D02*
X112207500Y-97240000D01*
X108207500Y-97240000D02*
X108207500Y-94040000D01*
%TO.C,J3*%
X159100000Y-84360000D02*
X159100000Y-79160000D01*
X110780000Y-84360000D02*
X159100000Y-84360000D01*
X108180000Y-79160000D02*
X159100000Y-79160000D01*
X110780000Y-84360000D02*
X110780000Y-81760000D01*
X110780000Y-81760000D02*
X108180000Y-81760000D01*
X108180000Y-81760000D02*
X108180000Y-79160000D01*
X109510000Y-84360000D02*
X108180000Y-84360000D01*
X108180000Y-84360000D02*
X108180000Y-83030000D01*
D13*
%TO.C,U1*%
G36*
X138062000Y-96273000D02*
G01*
X137808000Y-96527000D01*
X137554000Y-96146000D01*
X137808000Y-95892000D01*
X138062000Y-96273000D01*
G37*
X138062000Y-96273000D02*
X137808000Y-96527000D01*
X137554000Y-96146000D01*
X137808000Y-95892000D01*
X138062000Y-96273000D01*
G36*
X137681000Y-96654000D02*
G01*
X137427000Y-96908000D01*
X137173000Y-96527000D01*
X137427000Y-96273000D01*
X137681000Y-96654000D01*
G37*
X137681000Y-96654000D02*
X137427000Y-96908000D01*
X137173000Y-96527000D01*
X137427000Y-96273000D01*
X137681000Y-96654000D01*
G36*
X135776000Y-95892000D02*
G01*
X135522000Y-96146000D01*
X135268000Y-95765000D01*
X135522000Y-95511000D01*
X135776000Y-95892000D01*
G37*
X135776000Y-95892000D02*
X135522000Y-96146000D01*
X135268000Y-95765000D01*
X135522000Y-95511000D01*
X135776000Y-95892000D01*
G36*
X136157000Y-96400000D02*
G01*
X135903000Y-96654000D01*
X135649000Y-96273000D01*
X135903000Y-96019000D01*
X136157000Y-96400000D01*
G37*
X136157000Y-96400000D02*
X135903000Y-96654000D01*
X135649000Y-96273000D01*
X135903000Y-96019000D01*
X136157000Y-96400000D01*
G36*
X136538000Y-96908000D02*
G01*
X136284000Y-97162000D01*
X136030000Y-96781000D01*
X136284000Y-96527000D01*
X136538000Y-96908000D01*
G37*
X136538000Y-96908000D02*
X136284000Y-97162000D01*
X136030000Y-96781000D01*
X136284000Y-96527000D01*
X136538000Y-96908000D01*
G36*
X136538000Y-96019000D02*
G01*
X136284000Y-96273000D01*
X136030000Y-95892000D01*
X136284000Y-95638000D01*
X136538000Y-96019000D01*
G37*
X136538000Y-96019000D02*
X136284000Y-96273000D01*
X136030000Y-95892000D01*
X136284000Y-95638000D01*
X136538000Y-96019000D01*
G36*
X136919000Y-96527000D02*
G01*
X136665000Y-96781000D01*
X136411000Y-96400000D01*
X136665000Y-96146000D01*
X136919000Y-96527000D01*
G37*
X136919000Y-96527000D02*
X136665000Y-96781000D01*
X136411000Y-96400000D01*
X136665000Y-96146000D01*
X136919000Y-96527000D01*
G36*
X137300000Y-97035000D02*
G01*
X137046000Y-97289000D01*
X136792000Y-96908000D01*
X137046000Y-96654000D01*
X137300000Y-97035000D01*
G37*
X137300000Y-97035000D02*
X137046000Y-97289000D01*
X136792000Y-96908000D01*
X137046000Y-96654000D01*
X137300000Y-97035000D01*
D14*
X129045000Y-98305000D02*
X129045000Y-101480000D01*
X126505000Y-98305000D02*
X129045000Y-98305000D01*
X126505000Y-101480000D02*
X126505000Y-98305000D01*
X129045000Y-101480000D02*
X126505000Y-101480000D01*
X151905000Y-87510000D02*
X151905000Y-105290000D01*
X116345000Y-87510000D02*
X151905000Y-87510000D01*
X116345000Y-105290000D02*
X116345000Y-87510000D01*
X151905000Y-105290000D02*
X116345000Y-105290000D01*
X129680000Y-91320000D02*
X139840000Y-91320000D01*
X129680000Y-101480000D02*
X139840000Y-101480000D01*
X139840000Y-101480000D02*
X139840000Y-91320000D01*
X129680000Y-91320000D02*
X129680000Y-101480000D01*
X123965000Y-97670000D02*
X119393000Y-97670000D01*
X123965000Y-95130000D02*
X123965000Y-97670000D01*
X119393000Y-95130000D02*
X123965000Y-95130000D01*
X119393000Y-97670000D02*
X119393000Y-95130000D01*
X146825000Y-92590000D02*
X151905000Y-92590000D01*
X146825000Y-100210000D02*
X151905000Y-100210000D01*
X146825000Y-92590000D02*
X146825000Y-100210000D01*
X153175000Y-100210000D02*
X151905000Y-100210000D01*
X153175000Y-92590000D02*
X153175000Y-100210000D01*
X151905000Y-92590000D02*
X153175000Y-92590000D01*
D12*
%TO.C,U2*%
X93750000Y-94700000D02*
X103990000Y-94700000D01*
X93750000Y-78810000D02*
X103990000Y-78810000D01*
X93750000Y-78810000D02*
X93750000Y-94700000D01*
X103990000Y-78810000D02*
X103990000Y-94700000D01*
X96330000Y-94700000D02*
X96330000Y-97240000D01*
X98870000Y-94700000D02*
X98870000Y-97240000D01*
X101410000Y-94700000D02*
X101410000Y-97240000D01*
%TO.C,J2*%
D15*
X133299593Y-117051980D02*
X133299593Y-117767655D01*
X133251881Y-117910790D01*
X133156458Y-118006214D01*
X133013323Y-118053925D01*
X132917900Y-118053925D01*
X133728998Y-117147404D02*
X133776710Y-117099692D01*
X133872133Y-117051980D01*
X134110691Y-117051980D01*
X134206115Y-117099692D01*
X134253826Y-117147404D01*
X134301538Y-117242827D01*
X134301538Y-117338250D01*
X134253826Y-117481385D01*
X133681286Y-118053925D01*
X134301538Y-118053925D01*
%TO.C,J1*%
X78299593Y-117051980D02*
X78299593Y-117767655D01*
X78251881Y-117910790D01*
X78156458Y-118006214D01*
X78013323Y-118053925D01*
X77917900Y-118053925D01*
X79301538Y-118053925D02*
X78728998Y-118053925D01*
X79015268Y-118053925D02*
X79015268Y-117051980D01*
X78919845Y-117195115D01*
X78824421Y-117290539D01*
X78728998Y-117338250D01*
%TO.C,C1*%
D14*
X97033333Y-102127142D02*
X96985714Y-102174761D01*
X96842857Y-102222380D01*
X96747619Y-102222380D01*
X96604761Y-102174761D01*
X96509523Y-102079523D01*
X96461904Y-101984285D01*
X96414285Y-101793809D01*
X96414285Y-101650952D01*
X96461904Y-101460476D01*
X96509523Y-101365238D01*
X96604761Y-101270000D01*
X96747619Y-101222380D01*
X96842857Y-101222380D01*
X96985714Y-101270000D01*
X97033333Y-101317619D01*
X97985714Y-102222380D02*
X97414285Y-102222380D01*
X97700000Y-102222380D02*
X97700000Y-101222380D01*
X97604761Y-101365238D01*
X97509523Y-101460476D01*
X97414285Y-101508095D01*
%TO.C,C2*%
X100633333Y-102157142D02*
X100585714Y-102204761D01*
X100442857Y-102252380D01*
X100347619Y-102252380D01*
X100204761Y-102204761D01*
X100109523Y-102109523D01*
X100061904Y-102014285D01*
X100014285Y-101823809D01*
X100014285Y-101680952D01*
X100061904Y-101490476D01*
X100109523Y-101395238D01*
X100204761Y-101300000D01*
X100347619Y-101252380D01*
X100442857Y-101252380D01*
X100585714Y-101300000D01*
X100633333Y-101347619D01*
X101014285Y-101347619D02*
X101061904Y-101300000D01*
X101157142Y-101252380D01*
X101395238Y-101252380D01*
X101490476Y-101300000D01*
X101538095Y-101347619D01*
X101585714Y-101442857D01*
X101585714Y-101538095D01*
X101538095Y-101680952D01*
X100966666Y-102252380D01*
X101585714Y-102252380D01*
%TO.C,F1*%
X83266666Y-86598571D02*
X82933333Y-86598571D01*
X82933333Y-87122380D02*
X82933333Y-86122380D01*
X83409523Y-86122380D01*
X84314285Y-87122380D02*
X83742857Y-87122380D01*
X84028571Y-87122380D02*
X84028571Y-86122380D01*
X83933333Y-86265238D01*
X83838095Y-86360476D01*
X83742857Y-86408095D01*
%TO.C,F2*%
X83266666Y-96598571D02*
X82933333Y-96598571D01*
X82933333Y-97122380D02*
X82933333Y-96122380D01*
X83409523Y-96122380D01*
X83742857Y-96217619D02*
X83790476Y-96170000D01*
X83885714Y-96122380D01*
X84123809Y-96122380D01*
X84219047Y-96170000D01*
X84266666Y-96217619D01*
X84314285Y-96312857D01*
X84314285Y-96408095D01*
X84266666Y-96550952D01*
X83695238Y-97122380D01*
X84314285Y-97122380D01*
%TO.C,F3*%
X83266666Y-106598571D02*
X82933333Y-106598571D01*
X82933333Y-107122380D02*
X82933333Y-106122380D01*
X83409523Y-106122380D01*
X83695238Y-106122380D02*
X84314285Y-106122380D01*
X83980952Y-106503333D01*
X84123809Y-106503333D01*
X84219047Y-106550952D01*
X84266666Y-106598571D01*
X84314285Y-106693809D01*
X84314285Y-106931904D01*
X84266666Y-107027142D01*
X84219047Y-107074761D01*
X84123809Y-107122380D01*
X83838095Y-107122380D01*
X83742857Y-107074761D01*
X83695238Y-107027142D01*
%TO.C,F4*%
X83266666Y-116598571D02*
X82933333Y-116598571D01*
X82933333Y-117122380D02*
X82933333Y-116122380D01*
X83409523Y-116122380D01*
X84219047Y-116455714D02*
X84219047Y-117122380D01*
X83980952Y-116074761D02*
X83742857Y-116789047D01*
X84361904Y-116789047D01*
%TO.C,F5*%
X171066666Y-77858571D02*
X170733333Y-77858571D01*
X170733333Y-78382380D02*
X170733333Y-77382380D01*
X171209523Y-77382380D01*
X172066666Y-77382380D02*
X171590476Y-77382380D01*
X171542857Y-77858571D01*
X171590476Y-77810952D01*
X171685714Y-77763333D01*
X171923809Y-77763333D01*
X172019047Y-77810952D01*
X172066666Y-77858571D01*
X172114285Y-77953809D01*
X172114285Y-78191904D01*
X172066666Y-78287142D01*
X172019047Y-78334761D01*
X171923809Y-78382380D01*
X171685714Y-78382380D01*
X171590476Y-78334761D01*
X171542857Y-78287142D01*
%TO.C,F6*%
X171066666Y-87858571D02*
X170733333Y-87858571D01*
X170733333Y-88382380D02*
X170733333Y-87382380D01*
X171209523Y-87382380D01*
X172019047Y-87382380D02*
X171828571Y-87382380D01*
X171733333Y-87430000D01*
X171685714Y-87477619D01*
X171590476Y-87620476D01*
X171542857Y-87810952D01*
X171542857Y-88191904D01*
X171590476Y-88287142D01*
X171638095Y-88334761D01*
X171733333Y-88382380D01*
X171923809Y-88382380D01*
X172019047Y-88334761D01*
X172066666Y-88287142D01*
X172114285Y-88191904D01*
X172114285Y-87953809D01*
X172066666Y-87858571D01*
X172019047Y-87810952D01*
X171923809Y-87763333D01*
X171733333Y-87763333D01*
X171638095Y-87810952D01*
X171590476Y-87858571D01*
X171542857Y-87953809D01*
%TO.C,F7*%
X171066666Y-97858571D02*
X170733333Y-97858571D01*
X170733333Y-98382380D02*
X170733333Y-97382380D01*
X171209523Y-97382380D01*
X171495238Y-97382380D02*
X172161904Y-97382380D01*
X171733333Y-98382380D01*
%TO.C,F8*%
X171066666Y-107858571D02*
X170733333Y-107858571D01*
X170733333Y-108382380D02*
X170733333Y-107382380D01*
X171209523Y-107382380D01*
X171733333Y-107810952D02*
X171638095Y-107763333D01*
X171590476Y-107715714D01*
X171542857Y-107620476D01*
X171542857Y-107572857D01*
X171590476Y-107477619D01*
X171638095Y-107430000D01*
X171733333Y-107382380D01*
X171923809Y-107382380D01*
X172019047Y-107430000D01*
X172066666Y-107477619D01*
X172114285Y-107572857D01*
X172114285Y-107620476D01*
X172066666Y-107715714D01*
X172019047Y-107763333D01*
X171923809Y-107810952D01*
X171733333Y-107810952D01*
X171638095Y-107858571D01*
X171590476Y-107906190D01*
X171542857Y-108001428D01*
X171542857Y-108191904D01*
X171590476Y-108287142D01*
X171638095Y-108334761D01*
X171733333Y-108382380D01*
X171923809Y-108382380D01*
X172019047Y-108334761D01*
X172066666Y-108287142D01*
X172114285Y-108191904D01*
X172114285Y-108001428D01*
X172066666Y-107906190D01*
X172019047Y-107858571D01*
X171923809Y-107810952D01*
%TO.C,F9*%
X105766071Y-95973333D02*
X105766071Y-96306666D01*
X106289880Y-96306666D02*
X105289880Y-96306666D01*
X105289880Y-95830476D01*
X106289880Y-95401904D02*
X106289880Y-95211428D01*
X106242261Y-95116190D01*
X106194642Y-95068571D01*
X106051785Y-94973333D01*
X105861309Y-94925714D01*
X105480357Y-94925714D01*
X105385119Y-94973333D01*
X105337500Y-95020952D01*
X105289880Y-95116190D01*
X105289880Y-95306666D01*
X105337500Y-95401904D01*
X105385119Y-95449523D01*
X105480357Y-95497142D01*
X105718452Y-95497142D01*
X105813690Y-95449523D01*
X105861309Y-95401904D01*
X105908928Y-95306666D01*
X105908928Y-95116190D01*
X105861309Y-95020952D01*
X105813690Y-94973333D01*
X105718452Y-94925714D01*
%TO.C,J3*%
X106632380Y-82093333D02*
X107346666Y-82093333D01*
X107489523Y-82140952D01*
X107584761Y-82236190D01*
X107632380Y-82379047D01*
X107632380Y-82474285D01*
X106632380Y-81712380D02*
X106632380Y-81093333D01*
X107013333Y-81426666D01*
X107013333Y-81283809D01*
X107060952Y-81188571D01*
X107108571Y-81140952D01*
X107203809Y-81093333D01*
X107441904Y-81093333D01*
X107537142Y-81140952D01*
X107584761Y-81188571D01*
X107632380Y-81283809D01*
X107632380Y-81569523D01*
X107584761Y-81664761D01*
X107537142Y-81712380D01*
%TO.C,U1*%
X133363095Y-106012380D02*
X133363095Y-106821904D01*
X133410714Y-106917142D01*
X133458333Y-106964761D01*
X133553571Y-107012380D01*
X133744047Y-107012380D01*
X133839285Y-106964761D01*
X133886904Y-106917142D01*
X133934523Y-106821904D01*
X133934523Y-106012380D01*
X134934523Y-107012380D02*
X134363095Y-107012380D01*
X134648809Y-107012380D02*
X134648809Y-106012380D01*
X134553571Y-106155238D01*
X134458333Y-106250476D01*
X134363095Y-106298095D01*
X134187666Y-99483333D02*
X133487666Y-99483333D01*
X133987666Y-99250000D01*
X133487666Y-99016666D01*
X134187666Y-99016666D01*
X134187666Y-98683333D02*
X133487666Y-98683333D01*
X134187666Y-98350000D02*
X133487666Y-98350000D01*
X133987666Y-98116666D01*
X133487666Y-97883333D01*
X134187666Y-97883333D01*
X133487666Y-97616666D02*
X134187666Y-97150000D01*
X133487666Y-97150000D02*
X134187666Y-97616666D01*
X134187666Y-96483333D02*
X133854333Y-96716666D01*
X134187666Y-96883333D02*
X133487666Y-96883333D01*
X133487666Y-96616666D01*
X133521000Y-96550000D01*
X133554333Y-96516666D01*
X133621000Y-96483333D01*
X133721000Y-96483333D01*
X133787666Y-96516666D01*
X133821000Y-96550000D01*
X133854333Y-96616666D01*
X133854333Y-96883333D01*
X133487666Y-96283333D02*
X133487666Y-95883333D01*
X134187666Y-96083333D02*
X133487666Y-96083333D01*
X134187666Y-95283333D02*
X134187666Y-95683333D01*
X134187666Y-95483333D02*
X133487666Y-95483333D01*
X133587666Y-95550000D01*
X133654333Y-95616666D01*
X133687666Y-95683333D01*
X133487666Y-94850000D02*
X133487666Y-94783333D01*
X133521000Y-94716666D01*
X133554333Y-94683333D01*
X133621000Y-94650000D01*
X133754333Y-94616666D01*
X133921000Y-94616666D01*
X134054333Y-94650000D01*
X134121000Y-94683333D01*
X134154333Y-94716666D01*
X134187666Y-94783333D01*
X134187666Y-94850000D01*
X134154333Y-94916666D01*
X134121000Y-94950000D01*
X134054333Y-94983333D01*
X133921000Y-95016666D01*
X133754333Y-95016666D01*
X133621000Y-94983333D01*
X133554333Y-94950000D01*
X133521000Y-94916666D01*
X133487666Y-94850000D01*
X133487666Y-94016666D02*
X133487666Y-94150000D01*
X133521000Y-94216666D01*
X133554333Y-94250000D01*
X133654333Y-94316666D01*
X133787666Y-94350000D01*
X134054333Y-94350000D01*
X134121000Y-94316666D01*
X134154333Y-94283333D01*
X134187666Y-94216666D01*
X134187666Y-94083333D01*
X134154333Y-94016666D01*
X134121000Y-93983333D01*
X134054333Y-93950000D01*
X133887666Y-93950000D01*
X133821000Y-93983333D01*
X133787666Y-94016666D01*
X133754333Y-94083333D01*
X133754333Y-94216666D01*
X133787666Y-94283333D01*
X133821000Y-94316666D01*
X133887666Y-94350000D01*
X133554333Y-93683333D02*
X133521000Y-93650000D01*
X133487666Y-93583333D01*
X133487666Y-93416666D01*
X133521000Y-93350000D01*
X133554333Y-93316666D01*
X133621000Y-93283333D01*
X133687666Y-93283333D01*
X133787666Y-93316666D01*
X134187666Y-93716666D01*
X134187666Y-93283333D01*
X132663666Y-97800000D02*
X131963666Y-97800000D01*
X131963666Y-97633333D01*
X131997000Y-97533333D01*
X132063666Y-97466666D01*
X132130333Y-97433333D01*
X132263666Y-97400000D01*
X132363666Y-97400000D01*
X132497000Y-97433333D01*
X132563666Y-97466666D01*
X132630333Y-97533333D01*
X132663666Y-97633333D01*
X132663666Y-97800000D01*
X131963666Y-97200000D02*
X132663666Y-96966666D01*
X131963666Y-96733333D01*
X132663666Y-96166666D02*
X132663666Y-96500000D01*
X131963666Y-96500000D01*
X131963666Y-95633333D02*
X131963666Y-95766666D01*
X131997000Y-95833333D01*
X132030333Y-95866666D01*
X132130333Y-95933333D01*
X132263666Y-95966666D01*
X132530333Y-95966666D01*
X132597000Y-95933333D01*
X132630333Y-95900000D01*
X132663666Y-95833333D01*
X132663666Y-95700000D01*
X132630333Y-95633333D01*
X132597000Y-95600000D01*
X132530333Y-95566666D01*
X132363666Y-95566666D01*
X132297000Y-95600000D01*
X132263666Y-95633333D01*
X132230333Y-95700000D01*
X132230333Y-95833333D01*
X132263666Y-95900000D01*
X132297000Y-95933333D01*
X132363666Y-95966666D01*
X132463666Y-95300000D02*
X132463666Y-94966666D01*
X132663666Y-95366666D02*
X131963666Y-95133333D01*
X132663666Y-94900000D01*
%TO.C,U2*%
X98108095Y-77262380D02*
X98108095Y-78071904D01*
X98155714Y-78167142D01*
X98203333Y-78214761D01*
X98298571Y-78262380D01*
X98489047Y-78262380D01*
X98584285Y-78214761D01*
X98631904Y-78167142D01*
X98679523Y-78071904D01*
X98679523Y-77262380D01*
X99108095Y-77357619D02*
X99155714Y-77310000D01*
X99250952Y-77262380D01*
X99489047Y-77262380D01*
X99584285Y-77310000D01*
X99631904Y-77357619D01*
X99679523Y-77452857D01*
X99679523Y-77548095D01*
X99631904Y-77690952D01*
X99060476Y-78262380D01*
X99679523Y-78262380D01*
%TD*%
M02*
