%TF.GenerationSoftware,KiCad,Pcbnew,(5.1.9)-1*%
%TF.CreationDate,2022-01-24T01:27:22-08:00*%
%TF.ProjectId,MAIN_daq,4d41494e-5f64-4617-912e-6b696361645f,v1.0*%
%TF.SameCoordinates,Original*%
%TF.FileFunction,Copper,L1,Top*%
%TF.FilePolarity,Positive*%
%FSLAX46Y46*%
G04 Gerber Fmt 4.6, Leading zero omitted, Abs format (unit mm)*
G04 Created by KiCad (PCBNEW (5.1.9)-1) date 2022-01-24 01:27:22*
%MOMM*%
%LPD*%
G01*
G04 APERTURE LIST*
%TA.AperFunction,ComponentPad*%
%ADD10C,2.625000*%
%TD*%
%TA.AperFunction,ComponentPad*%
%ADD11R,2.625000X2.625000*%
%TD*%
%TA.AperFunction,ComponentPad*%
%ADD12C,2.780000*%
%TD*%
%TA.AperFunction,ComponentPad*%
%ADD13O,1.700000X1.700000*%
%TD*%
%TA.AperFunction,ComponentPad*%
%ADD14R,1.700000X1.700000*%
%TD*%
%TA.AperFunction,ComponentPad*%
%ADD15C,1.600000*%
%TD*%
%TA.AperFunction,ComponentPad*%
%ADD16R,1.600000X1.600000*%
%TD*%
%TA.AperFunction,ComponentPad*%
%ADD17O,1.600000X1.600000*%
%TD*%
%TA.AperFunction,ComponentPad*%
%ADD18O,1.905000X2.000000*%
%TD*%
%TA.AperFunction,ComponentPad*%
%ADD19R,1.905000X2.000000*%
%TD*%
%TA.AperFunction,ViaPad*%
%ADD20C,0.762000*%
%TD*%
%TA.AperFunction,Conductor*%
%ADD21C,0.300000*%
%TD*%
%TA.AperFunction,Conductor*%
%ADD22C,0.254000*%
%TD*%
%TA.AperFunction,Conductor*%
%ADD23C,0.100000*%
%TD*%
G04 APERTURE END LIST*
D10*
%TO.P,J2,14*%
%TO.N,SDA0*%
X163000000Y-129000000D03*
%TO.P,J2,13*%
%TO.N,SCL0*%
X159000000Y-129000000D03*
%TO.P,J2,12*%
%TO.N,Net-(F8-Pad1)*%
X155000000Y-129000000D03*
%TO.P,J2,11*%
%TO.N,CAN_Low*%
X151000000Y-129000000D03*
%TO.P,J2,10*%
%TO.N,CAN_High*%
X147000000Y-129000000D03*
%TO.P,J2,9*%
%TO.N,Net-(F7-Pad1)*%
X161000000Y-125000000D03*
%TO.P,J2,8*%
%TO.N,AIN4*%
X157000000Y-125000000D03*
%TO.P,J2,7*%
%TO.N,Net-(F6-Pad1)*%
X153000000Y-125000000D03*
%TO.P,J2,6*%
%TO.N,AIN3*%
X149000000Y-125000000D03*
%TO.P,J2,5*%
%TO.N,SDA0*%
X163000000Y-121000000D03*
%TO.P,J2,4*%
%TO.N,SCL0*%
X159000000Y-121000000D03*
%TO.P,J2,3*%
%TO.N,Net-(F5-Pad1)*%
X155000000Y-121000000D03*
%TO.P,J2,2*%
%TO.N,CAN_Low*%
X151000000Y-121000000D03*
D11*
%TO.P,J2,1*%
%TO.N,CAN_High*%
X147000000Y-121000000D03*
%TD*%
D10*
%TO.P,J1,14*%
%TO.N,SDA0*%
X108000000Y-129000000D03*
%TO.P,J1,13*%
%TO.N,SCL0*%
X104000000Y-129000000D03*
%TO.P,J1,12*%
%TO.N,Net-(F4-Pad1)*%
X100000000Y-129000000D03*
%TO.P,J1,11*%
%TO.N,GND*%
X96000000Y-129000000D03*
%TO.P,J1,10*%
%TO.N,12V_SUPPLY*%
X92000000Y-129000000D03*
%TO.P,J1,9*%
%TO.N,AIN2*%
X106000000Y-125000000D03*
%TO.P,J1,8*%
%TO.N,Net-(F3-Pad1)*%
X102000000Y-125000000D03*
%TO.P,J1,7*%
%TO.N,AIN1*%
X98000000Y-125000000D03*
%TO.P,J1,6*%
%TO.N,Net-(F2-Pad1)*%
X94000000Y-125000000D03*
%TO.P,J1,5*%
%TO.N,SDA0*%
X108000000Y-121000000D03*
%TO.P,J1,4*%
%TO.N,SCL0*%
X104000000Y-121000000D03*
%TO.P,J1,3*%
%TO.N,Net-(F1-Pad1)*%
X100000000Y-121000000D03*
%TO.P,J1,2*%
%TO.N,CAN_Low*%
X96000000Y-121000000D03*
D11*
%TO.P,J1,1*%
%TO.N,CAN_High*%
X92000000Y-121000000D03*
%TD*%
%TO.P,C1,1*%
%TO.N,12V_SUPPLY*%
%TA.AperFunction,SMDPad,CuDef*%
G36*
G01*
X95800000Y-103437500D02*
X95800000Y-102962500D01*
G75*
G02*
X96037500Y-102725000I237500J0D01*
G01*
X96637500Y-102725000D01*
G75*
G02*
X96875000Y-102962500I0J-237500D01*
G01*
X96875000Y-103437500D01*
G75*
G02*
X96637500Y-103675000I-237500J0D01*
G01*
X96037500Y-103675000D01*
G75*
G02*
X95800000Y-103437500I0J237500D01*
G01*
G37*
%TD.AperFunction*%
%TO.P,C1,2*%
%TO.N,GND*%
%TA.AperFunction,SMDPad,CuDef*%
G36*
G01*
X97525000Y-103437500D02*
X97525000Y-102962500D01*
G75*
G02*
X97762500Y-102725000I237500J0D01*
G01*
X98362500Y-102725000D01*
G75*
G02*
X98600000Y-102962500I0J-237500D01*
G01*
X98600000Y-103437500D01*
G75*
G02*
X98362500Y-103675000I-237500J0D01*
G01*
X97762500Y-103675000D01*
G75*
G02*
X97525000Y-103437500I0J237500D01*
G01*
G37*
%TD.AperFunction*%
%TD*%
%TO.P,C2,1*%
%TO.N,+5V*%
%TA.AperFunction,SMDPad,CuDef*%
G36*
G01*
X101735000Y-102775000D02*
X101735000Y-103085000D01*
G75*
G02*
X101580000Y-103240000I-155000J0D01*
G01*
X101155000Y-103240000D01*
G75*
G02*
X101000000Y-103085000I0J155000D01*
G01*
X101000000Y-102775000D01*
G75*
G02*
X101155000Y-102620000I155000J0D01*
G01*
X101580000Y-102620000D01*
G75*
G02*
X101735000Y-102775000I0J-155000D01*
G01*
G37*
%TD.AperFunction*%
%TO.P,C2,2*%
%TO.N,GND*%
%TA.AperFunction,SMDPad,CuDef*%
G36*
G01*
X100600000Y-102775000D02*
X100600000Y-103085000D01*
G75*
G02*
X100445000Y-103240000I-155000J0D01*
G01*
X100020000Y-103240000D01*
G75*
G02*
X99865000Y-103085000I0J155000D01*
G01*
X99865000Y-102775000D01*
G75*
G02*
X100020000Y-102620000I155000J0D01*
G01*
X100445000Y-102620000D01*
G75*
G02*
X100600000Y-102775000I0J-155000D01*
G01*
G37*
%TD.AperFunction*%
%TD*%
D12*
%TO.P,F1,1*%
%TO.N,Net-(F1-Pad1)*%
X88560000Y-84000000D03*
X88560000Y-80600000D03*
%TO.P,F1,2*%
%TO.N,12V_SUPPLY*%
X78640000Y-84000000D03*
X78640000Y-80600000D03*
%TD*%
%TO.P,F2,2*%
%TO.N,12V_SUPPLY*%
X78640000Y-90600000D03*
X78640000Y-94000000D03*
%TO.P,F2,1*%
%TO.N,Net-(F2-Pad1)*%
X88560000Y-90600000D03*
X88560000Y-94000000D03*
%TD*%
%TO.P,F3,1*%
%TO.N,Net-(F3-Pad1)*%
X88560000Y-104000000D03*
X88560000Y-100600000D03*
%TO.P,F3,2*%
%TO.N,12V_SUPPLY*%
X78640000Y-104000000D03*
X78640000Y-100600000D03*
%TD*%
%TO.P,F4,2*%
%TO.N,12V_SUPPLY*%
X78640000Y-110600000D03*
X78640000Y-114000000D03*
%TO.P,F4,1*%
%TO.N,Net-(F4-Pad1)*%
X88560000Y-110600000D03*
X88560000Y-114000000D03*
%TD*%
%TO.P,F5,1*%
%TO.N,Net-(F5-Pad1)*%
X166440000Y-80600000D03*
X166440000Y-84000000D03*
%TO.P,F5,2*%
%TO.N,12V_SUPPLY*%
X176360000Y-80600000D03*
X176360000Y-84000000D03*
%TD*%
%TO.P,F6,2*%
%TO.N,12V_SUPPLY*%
X176360000Y-94000000D03*
X176360000Y-90600000D03*
%TO.P,F6,1*%
%TO.N,Net-(F6-Pad1)*%
X166440000Y-94000000D03*
X166440000Y-90600000D03*
%TD*%
%TO.P,F7,1*%
%TO.N,Net-(F7-Pad1)*%
X166440000Y-100600000D03*
X166440000Y-104000000D03*
%TO.P,F7,2*%
%TO.N,12V_SUPPLY*%
X176360000Y-100600000D03*
X176360000Y-104000000D03*
%TD*%
%TO.P,F8,2*%
%TO.N,12V_SUPPLY*%
X176360000Y-114000000D03*
X176360000Y-110600000D03*
%TO.P,F8,1*%
%TO.N,Net-(F8-Pad1)*%
X166440000Y-114000000D03*
X166440000Y-110600000D03*
%TD*%
%TO.P,F9,2*%
%TO.N,Net-(F9-Pad2)*%
X111907500Y-90680000D03*
X108507500Y-90680000D03*
%TO.P,F9,1*%
%TO.N,+5V*%
X111907500Y-100600000D03*
X108507500Y-100600000D03*
%TD*%
D13*
%TO.P,J3,40*%
%TO.N,Net-(J3-Pad40)*%
X157770000Y-80490000D03*
%TO.P,J3,39*%
%TO.N,GND*%
X157770000Y-83030000D03*
%TO.P,J3,38*%
%TO.N,Net-(J3-Pad38)*%
X155230000Y-80490000D03*
%TO.P,J3,37*%
%TO.N,Net-(J3-Pad37)*%
X155230000Y-83030000D03*
%TO.P,J3,36*%
%TO.N,Net-(J3-Pad36)*%
X152690000Y-80490000D03*
%TO.P,J3,35*%
%TO.N,Net-(J3-Pad35)*%
X152690000Y-83030000D03*
%TO.P,J3,34*%
%TO.N,GND*%
X150150000Y-80490000D03*
%TO.P,J3,33*%
%TO.N,Net-(J3-Pad33)*%
X150150000Y-83030000D03*
%TO.P,J3,32*%
%TO.N,Net-(J3-Pad32)*%
X147610000Y-80490000D03*
%TO.P,J3,31*%
%TO.N,Net-(J3-Pad31)*%
X147610000Y-83030000D03*
%TO.P,J3,30*%
%TO.N,GND*%
X145070000Y-80490000D03*
%TO.P,J3,29*%
%TO.N,Net-(J3-Pad29)*%
X145070000Y-83030000D03*
%TO.P,J3,28*%
%TO.N,Net-(J3-Pad28)*%
X142530000Y-80490000D03*
%TO.P,J3,27*%
%TO.N,Net-(J3-Pad27)*%
X142530000Y-83030000D03*
%TO.P,J3,26*%
%TO.N,Net-(J3-Pad26)*%
X139990000Y-80490000D03*
%TO.P,J3,25*%
%TO.N,GND*%
X139990000Y-83030000D03*
%TO.P,J3,24*%
%TO.N,Net-(J3-Pad24)*%
X137450000Y-80490000D03*
%TO.P,J3,23*%
%TO.N,Net-(J3-Pad23)*%
X137450000Y-83030000D03*
%TO.P,J3,22*%
%TO.N,Net-(J3-Pad22)*%
X134910000Y-80490000D03*
%TO.P,J3,21*%
%TO.N,Net-(J3-Pad21)*%
X134910000Y-83030000D03*
%TO.P,J3,20*%
%TO.N,GND*%
X132370000Y-80490000D03*
%TO.P,J3,19*%
%TO.N,Net-(J3-Pad19)*%
X132370000Y-83030000D03*
%TO.P,J3,18*%
%TO.N,Net-(J3-Pad18)*%
X129830000Y-80490000D03*
%TO.P,J3,17*%
%TO.N,Net-(J3-Pad17)*%
X129830000Y-83030000D03*
%TO.P,J3,16*%
%TO.N,Net-(J3-Pad16)*%
X127290000Y-80490000D03*
%TO.P,J3,15*%
%TO.N,Net-(J3-Pad15)*%
X127290000Y-83030000D03*
%TO.P,J3,14*%
%TO.N,GND*%
X124750000Y-80490000D03*
%TO.P,J3,13*%
%TO.N,Net-(J3-Pad13)*%
X124750000Y-83030000D03*
%TO.P,J3,12*%
%TO.N,Net-(J3-Pad12)*%
X122210000Y-80490000D03*
%TO.P,J3,11*%
%TO.N,Net-(J3-Pad11)*%
X122210000Y-83030000D03*
%TO.P,J3,10*%
%TO.N,Net-(J3-Pad10)*%
X119670000Y-80490000D03*
%TO.P,J3,9*%
%TO.N,GND*%
X119670000Y-83030000D03*
%TO.P,J3,8*%
%TO.N,Net-(J3-Pad8)*%
X117130000Y-80490000D03*
%TO.P,J3,7*%
%TO.N,Net-(J3-Pad7)*%
X117130000Y-83030000D03*
%TO.P,J3,6*%
%TO.N,GND*%
X114590000Y-80490000D03*
%TO.P,J3,5*%
%TO.N,SCL1*%
X114590000Y-83030000D03*
%TO.P,J3,4*%
%TO.N,Net-(F9-Pad2)*%
X112050000Y-80490000D03*
%TO.P,J3,3*%
%TO.N,SDA1*%
X112050000Y-83030000D03*
%TO.P,J3,2*%
%TO.N,Net-(F9-Pad2)*%
X109510000Y-80490000D03*
D14*
%TO.P,J3,1*%
%TO.N,Net-(J3-Pad1)*%
X109510000Y-83030000D03*
%TD*%
D15*
%TO.P,U1,17*%
%TO.N,GND*%
X117615000Y-96400000D03*
%TO.P,U1,18*%
%TO.N,Net-(U1-Pad18)*%
X117615000Y-98940000D03*
%TO.P,U1,19*%
%TO.N,Net-(U1-Pad19)*%
X117615000Y-101480000D03*
%TO.P,U1,20*%
%TO.N,Net-(U1-Pad20)*%
X117615000Y-104020000D03*
%TO.P,U1,16*%
%TO.N,Net-(U1-Pad16)*%
X117615000Y-93860000D03*
%TO.P,U1,15*%
%TO.N,Net-(U1-Pad15)*%
X117615000Y-91320000D03*
%TO.P,U1,14*%
%TO.N,Net-(U1-Pad14)*%
X117615000Y-88780000D03*
%TO.P,U1,21*%
%TO.N,AIN1_Teensy*%
X120155000Y-104020000D03*
%TO.P,U1,22*%
%TO.N,AIN2_Teensy*%
X122695000Y-104020000D03*
%TO.P,U1,23*%
%TO.N,SCL1*%
X125235000Y-104020000D03*
%TO.P,U1,24*%
%TO.N,SDA1*%
X127775000Y-104020000D03*
%TO.P,U1,25*%
%TO.N,SDA0*%
X130315000Y-104020000D03*
%TO.P,U1,26*%
%TO.N,SCL0*%
X132855000Y-104020000D03*
%TO.P,U1,27*%
%TO.N,AIN3_Teensy*%
X135395000Y-104020000D03*
%TO.P,U1,28*%
%TO.N,AIN4_Teensy*%
X137935000Y-104020000D03*
%TO.P,U1,29*%
%TO.N,CAN_TX*%
X140475000Y-104020000D03*
%TO.P,U1,30*%
%TO.N,CAN_RX*%
X143015000Y-104020000D03*
%TO.P,U1,31*%
%TO.N,Net-(U1-Pad31)*%
X145555000Y-104020000D03*
%TO.P,U1,32*%
%TO.N,GND*%
X148095000Y-104020000D03*
%TO.P,U1,33*%
%TO.N,+5V*%
X150635000Y-104020000D03*
%TO.P,U1,34*%
%TO.N,Net-(U1-Pad34)*%
X148095000Y-101480000D03*
%TO.P,U1,13*%
%TO.N,Net-(U1-Pad13)*%
X120155000Y-88780000D03*
%TO.P,U1,12*%
%TO.N,Net-(U1-Pad12)*%
X122695000Y-88780000D03*
%TO.P,U1,11*%
%TO.N,Net-(U1-Pad11)*%
X125235000Y-88780000D03*
%TO.P,U1,10*%
%TO.N,Net-(U1-Pad10)*%
X127775000Y-88780000D03*
%TO.P,U1,9*%
%TO.N,Net-(U1-Pad9)*%
X130315000Y-88780000D03*
%TO.P,U1,8*%
%TO.N,Net-(U1-Pad8)*%
X132855000Y-88780000D03*
%TO.P,U1,7*%
%TO.N,Net-(U1-Pad7)*%
X135395000Y-88780000D03*
%TO.P,U1,6*%
%TO.N,Net-(U1-Pad6)*%
X137935000Y-88780000D03*
%TO.P,U1,5*%
%TO.N,Net-(U1-Pad5)*%
X140475000Y-88780000D03*
%TO.P,U1,4*%
%TO.N,Net-(U1-Pad4)*%
X143015000Y-88780000D03*
%TO.P,U1,3*%
%TO.N,Net-(U1-Pad3)*%
X145555000Y-88780000D03*
%TO.P,U1,2*%
%TO.N,Net-(U1-Pad2)*%
X148095000Y-88780000D03*
%TO.P,U1,1*%
%TO.N,GND*%
X150635000Y-88780000D03*
%TO.P,U1,35*%
%TO.N,Net-(U1-Pad35)*%
X122695000Y-101480000D03*
%TO.P,U1,36*%
%TO.N,Net-(U1-Pad36)*%
X125235000Y-101480000D03*
%TO.P,U1,37*%
%TO.N,Net-(U1-Pad37)*%
X122695000Y-98940000D03*
%TO.P,U1,38*%
%TO.N,Net-(U1-Pad38)*%
X125235000Y-98940000D03*
%TO.P,U1,39*%
%TO.N,Net-(U1-Pad39)*%
X122695000Y-96400000D03*
%TO.P,U1,40*%
%TO.N,Net-(U1-Pad40)*%
X125235000Y-96400000D03*
%TO.P,U1,41*%
%TO.N,Net-(U1-Pad41)*%
X122695000Y-93860000D03*
%TO.P,U1,42*%
%TO.N,Net-(U1-Pad42)*%
X125235000Y-93860000D03*
%TO.P,U1,43*%
%TO.N,Net-(U1-Pad43)*%
X122695000Y-91320000D03*
%TO.P,U1,44*%
%TO.N,Net-(U1-Pad44)*%
X125235000Y-91320000D03*
%TD*%
D16*
%TO.P,U3,1*%
%TO.N,CAN_TX*%
X105200000Y-108000000D03*
D17*
%TO.P,U3,5*%
%TO.N,Net-(U3-Pad5)*%
X97580000Y-115620000D03*
%TO.P,U3,2*%
%TO.N,GND*%
X105200000Y-110540000D03*
%TO.P,U3,6*%
%TO.N,CAN_Low*%
X97580000Y-113080000D03*
%TO.P,U3,3*%
%TO.N,+5V*%
X105200000Y-113080000D03*
%TO.P,U3,7*%
%TO.N,CAN_High*%
X97580000Y-110540000D03*
%TO.P,U3,4*%
%TO.N,CAN_RX*%
X105200000Y-115620000D03*
%TO.P,U3,8*%
%TO.N,GND*%
X97580000Y-108000000D03*
%TD*%
D18*
%TO.P,U2,3*%
%TO.N,+5V*%
X101410000Y-98390000D03*
%TO.P,U2,2*%
%TO.N,GND*%
X98870000Y-98390000D03*
D19*
%TO.P,U2,1*%
%TO.N,12V_SUPPLY*%
X96330000Y-98390000D03*
%TD*%
D20*
%TO.N,SDA0*%
X127600000Y-131455501D03*
%TO.N,SDA1*%
X114400000Y-93200000D03*
%TO.N,SCL1*%
X115599998Y-91000000D03*
%TD*%
D21*
%TO.N,+5V*%
X101410000Y-102887500D02*
X101367500Y-102930000D01*
%TO.N,Net-(F1-Pad1)*%
X91462021Y-86902021D02*
X88560000Y-84000000D01*
X91462021Y-115320077D02*
X91462021Y-86902021D01*
X90222030Y-116560068D02*
X91462021Y-115320077D01*
X90222030Y-122777970D02*
X90222030Y-116560068D01*
X90727559Y-123283499D02*
X90222030Y-122777970D01*
X97176079Y-123283499D02*
X90727559Y-123283499D01*
X99459578Y-121000000D02*
X97176079Y-123283499D01*
X100000000Y-121000000D02*
X99459578Y-121000000D01*
X88560000Y-80600000D02*
X88560000Y-84000000D01*
%TO.N,12V_SUPPLY*%
X96337500Y-98467500D02*
X96330000Y-98460000D01*
X96330000Y-103192500D02*
X96337500Y-103200000D01*
%TO.N,Net-(F2-Pad1)*%
X90908011Y-96348011D02*
X88560000Y-94000000D01*
X90908011Y-115090599D02*
X90908011Y-96348011D01*
X89668020Y-116330590D02*
X90908011Y-115090599D01*
X88560000Y-90600000D02*
X88560000Y-94000000D01*
X89668020Y-123331980D02*
X89668020Y-116330590D01*
X91336040Y-125000000D02*
X89668020Y-123331980D01*
X94000000Y-125000000D02*
X91336040Y-125000000D01*
%TO.N,Net-(F3-Pad1)*%
X88560000Y-100600000D02*
X88560000Y-104000000D01*
X89114010Y-116101112D02*
X90354001Y-114861121D01*
X89114010Y-123561458D02*
X89114010Y-116101112D01*
X90354001Y-114861121D02*
X90354001Y-105794001D01*
X92282041Y-126729489D02*
X89114010Y-123561458D01*
X90354001Y-105794001D02*
X88560000Y-104000000D01*
X98270511Y-126729489D02*
X92282041Y-126729489D01*
X100283499Y-126716501D02*
X98283499Y-126716501D01*
X98283499Y-126716501D02*
X98270511Y-126729489D01*
X102000000Y-125000000D02*
X100283499Y-126716501D01*
%TO.N,Net-(F4-Pad1)*%
X88560000Y-110600000D02*
X88560000Y-114000000D01*
X88560000Y-123760000D02*
X88560000Y-114000000D01*
X88560000Y-123790936D02*
X88560000Y-123760000D01*
X92052562Y-127283498D02*
X88560000Y-123790936D01*
X98283499Y-127283499D02*
X92052562Y-127283498D01*
X100000000Y-129000000D02*
X98283499Y-127283499D01*
%TO.N,Net-(F5-Pad1)*%
X163500000Y-86940000D02*
X166440000Y-84000000D01*
X164777970Y-117844946D02*
X163500000Y-116566976D01*
X164777970Y-122222030D02*
X164777970Y-117844946D01*
X163500000Y-116566976D02*
X163500000Y-86940000D01*
X164283499Y-122716501D02*
X164777970Y-122222030D01*
X156716501Y-122716501D02*
X164283499Y-122716501D01*
X155000000Y-121000000D02*
X156716501Y-122716501D01*
X166440000Y-80600000D02*
X166440000Y-84000000D01*
%TO.N,Net-(F6-Pad1)*%
X164091989Y-96348011D02*
X166440000Y-94000000D01*
X164091989Y-116375477D02*
X164091989Y-96348011D01*
X165331980Y-117615468D02*
X164091989Y-116375477D01*
X154716501Y-123283499D02*
X164716501Y-123283499D01*
X153000000Y-125000000D02*
X154716501Y-123283499D01*
X165331980Y-122668020D02*
X165331980Y-117615468D01*
X164716501Y-123283499D02*
X165331980Y-122668020D01*
X166440000Y-90600000D02*
X166440000Y-94000000D01*
%TO.N,Net-(F7-Pad1)*%
X164645999Y-105794001D02*
X166440000Y-104000000D01*
X164645999Y-116145999D02*
X164645999Y-105794001D01*
X165885990Y-117385990D02*
X164645999Y-116145999D01*
X164271980Y-125000000D02*
X165885990Y-123385990D01*
X161000000Y-125000000D02*
X164271980Y-125000000D01*
X165885990Y-123385990D02*
X165885990Y-117385990D01*
X166440000Y-100600000D02*
X166440000Y-104000000D01*
%TO.N,Net-(F8-Pad1)*%
X166440000Y-128100422D02*
X166440000Y-114000000D01*
X163823921Y-130716501D02*
X166440000Y-128100422D01*
X155000000Y-129000000D02*
X156716501Y-130716501D01*
X156716501Y-130716501D02*
X163823921Y-130716501D01*
X166440000Y-110600000D02*
X166440000Y-114000000D01*
D22*
%TO.N,SDA0*%
X108000000Y-121000000D02*
X108000000Y-129000000D01*
X159508010Y-117508010D02*
X163000000Y-121000000D01*
X159508010Y-106389576D02*
X159508010Y-117508010D01*
X130315000Y-104020000D02*
X134843010Y-99491990D01*
X134843010Y-99491990D02*
X152610424Y-99491990D01*
X152659217Y-99540783D02*
X159508010Y-106389576D01*
X125144499Y-129000000D02*
X127600000Y-131455501D01*
X108000000Y-129000000D02*
X125144499Y-129000000D01*
%TO.N,SCL0*%
X104000000Y-121000000D02*
X104000000Y-129000000D01*
X132855000Y-104020000D02*
X136875000Y-100000000D01*
X136875000Y-100000000D02*
X152400000Y-100000000D01*
X159000000Y-106600000D02*
X159000000Y-121000000D01*
X152400000Y-100000000D02*
X159000000Y-106600000D01*
%TO.N,CAN_Low*%
X151000000Y-121000000D02*
X151000000Y-129000000D01*
X97693501Y-119306499D02*
X121706499Y-119306499D01*
X96000000Y-121000000D02*
X97693501Y-119306499D01*
X151000000Y-129000000D02*
X149306499Y-130693501D01*
X149306499Y-130693501D02*
X133093501Y-130693501D01*
X121706499Y-119306499D02*
X133093501Y-130693501D01*
%TO.N,CAN_High*%
X147000000Y-121000000D02*
X147000000Y-129000000D01*
X92000000Y-121000000D02*
X94201511Y-118798489D01*
X94201511Y-118798489D02*
X121916924Y-118798490D01*
X147000000Y-129000000D02*
X145814509Y-130185491D01*
X145814509Y-130185491D02*
X133303925Y-130185491D01*
X121916924Y-118798490D02*
X133303925Y-130185491D01*
%TO.N,SDA1*%
X125486990Y-106308010D02*
X116789575Y-106308009D01*
X127775000Y-104020000D02*
X125486990Y-106308010D01*
X116789575Y-106308009D02*
X114400000Y-103918434D01*
X114400000Y-103918434D02*
X114400000Y-93200000D01*
%TO.N,SCL1*%
X125235000Y-104020000D02*
X123455000Y-105799999D01*
X123455000Y-105799999D02*
X117000001Y-105799999D01*
X117000001Y-105799999D02*
X115599998Y-104399996D01*
X115599998Y-104399996D02*
X115599998Y-91000000D01*
%TO.N,CAN_TX*%
X136495000Y-108000000D02*
X105200000Y-108000000D01*
X140475000Y-104020000D02*
X136495000Y-108000000D01*
%TO.N,CAN_RX*%
X143015000Y-104020000D02*
X138526990Y-108508010D01*
X112311990Y-108508010D02*
X105200000Y-115620000D01*
X138526990Y-108508010D02*
X112311990Y-108508010D01*
D21*
%TO.N,Net-(F9-Pad2)*%
X108507500Y-90680000D02*
X107200000Y-89372500D01*
X107200000Y-82800000D02*
X109510000Y-80490000D01*
X107200000Y-89372500D02*
X107200000Y-82800000D01*
X109510000Y-80490000D02*
X112050000Y-80490000D01*
X111907500Y-90680000D02*
X108507500Y-90680000D01*
%TD*%
%TO.N,GND*%
X99020000Y-98240000D02*
X99040000Y-98240000D01*
X99040000Y-98540000D01*
X99020000Y-98540000D01*
X99020000Y-99945056D01*
X99283447Y-100089035D01*
X99487792Y-100022424D01*
X99785125Y-99871445D01*
X99850000Y-99820447D01*
X99850000Y-100000000D01*
X99852882Y-100029264D01*
X99861418Y-100057403D01*
X99875280Y-100083336D01*
X99893934Y-100106066D01*
X100450000Y-100662132D01*
X100450000Y-101990000D01*
X100382500Y-102057500D01*
X100382500Y-102302004D01*
X100315537Y-102427283D01*
X100263831Y-102597735D01*
X100246372Y-102775000D01*
X100246372Y-103085000D01*
X100247849Y-103100000D01*
X100082500Y-103100000D01*
X100082500Y-103080000D01*
X100062500Y-103080000D01*
X100062500Y-102780000D01*
X100082500Y-102780000D01*
X100082500Y-102057500D01*
X99895000Y-101870000D01*
X99878954Y-101866500D01*
X99731685Y-101878256D01*
X99589540Y-101918517D01*
X99457980Y-101985736D01*
X99342062Y-102077328D01*
X99246240Y-102189776D01*
X99199565Y-102273340D01*
X99132896Y-102192104D01*
X99018694Y-102098380D01*
X98888401Y-102028738D01*
X98747026Y-101985852D01*
X98600000Y-101971371D01*
X98400000Y-101975000D01*
X98212500Y-102162500D01*
X98212500Y-103050000D01*
X98232500Y-103050000D01*
X98232500Y-103350000D01*
X98212500Y-103350000D01*
X98212500Y-103370000D01*
X97912500Y-103370000D01*
X97912500Y-103350000D01*
X97892500Y-103350000D01*
X97892500Y-103050000D01*
X97912500Y-103050000D01*
X97912500Y-102162500D01*
X97750000Y-102000000D01*
X97750000Y-100624340D01*
X97942302Y-100047434D01*
X97948822Y-100018761D01*
X97950000Y-100000000D01*
X97950000Y-99867613D01*
X97954875Y-99871445D01*
X98252208Y-100022424D01*
X98456553Y-100089035D01*
X98720000Y-99945056D01*
X98720000Y-98540000D01*
X98700000Y-98540000D01*
X98700000Y-98240000D01*
X98720000Y-98240000D01*
X98720000Y-98220000D01*
X99020000Y-98220000D01*
X99020000Y-98240000D01*
%TA.AperFunction,Conductor*%
D23*
G36*
X99020000Y-98240000D02*
G01*
X99040000Y-98240000D01*
X99040000Y-98540000D01*
X99020000Y-98540000D01*
X99020000Y-99945056D01*
X99283447Y-100089035D01*
X99487792Y-100022424D01*
X99785125Y-99871445D01*
X99850000Y-99820447D01*
X99850000Y-100000000D01*
X99852882Y-100029264D01*
X99861418Y-100057403D01*
X99875280Y-100083336D01*
X99893934Y-100106066D01*
X100450000Y-100662132D01*
X100450000Y-101990000D01*
X100382500Y-102057500D01*
X100382500Y-102302004D01*
X100315537Y-102427283D01*
X100263831Y-102597735D01*
X100246372Y-102775000D01*
X100246372Y-103085000D01*
X100247849Y-103100000D01*
X100082500Y-103100000D01*
X100082500Y-103080000D01*
X100062500Y-103080000D01*
X100062500Y-102780000D01*
X100082500Y-102780000D01*
X100082500Y-102057500D01*
X99895000Y-101870000D01*
X99878954Y-101866500D01*
X99731685Y-101878256D01*
X99589540Y-101918517D01*
X99457980Y-101985736D01*
X99342062Y-102077328D01*
X99246240Y-102189776D01*
X99199565Y-102273340D01*
X99132896Y-102192104D01*
X99018694Y-102098380D01*
X98888401Y-102028738D01*
X98747026Y-101985852D01*
X98600000Y-101971371D01*
X98400000Y-101975000D01*
X98212500Y-102162500D01*
X98212500Y-103050000D01*
X98232500Y-103050000D01*
X98232500Y-103350000D01*
X98212500Y-103350000D01*
X98212500Y-103370000D01*
X97912500Y-103370000D01*
X97912500Y-103350000D01*
X97892500Y-103350000D01*
X97892500Y-103050000D01*
X97912500Y-103050000D01*
X97912500Y-102162500D01*
X97750000Y-102000000D01*
X97750000Y-100624340D01*
X97942302Y-100047434D01*
X97948822Y-100018761D01*
X97950000Y-100000000D01*
X97950000Y-99867613D01*
X97954875Y-99871445D01*
X98252208Y-100022424D01*
X98456553Y-100089035D01*
X98720000Y-99945056D01*
X98720000Y-98540000D01*
X98700000Y-98540000D01*
X98700000Y-98240000D01*
X98720000Y-98240000D01*
X98720000Y-98220000D01*
X99020000Y-98220000D01*
X99020000Y-98240000D01*
G37*
%TD.AperFunction*%
%TD*%
D21*
%TO.N,+5V*%
X113523000Y-99374219D02*
X113397455Y-99322177D01*
X112119632Y-100600000D01*
X113397455Y-101877823D01*
X113523000Y-101825781D01*
X113523000Y-103875354D01*
X113518757Y-103918434D01*
X113535690Y-104090356D01*
X113560658Y-104172662D01*
X113585838Y-104255670D01*
X113667273Y-104408025D01*
X113776867Y-104541567D01*
X113810332Y-104569031D01*
X116138983Y-106897682D01*
X116166442Y-106931141D01*
X116199901Y-106958600D01*
X116199903Y-106958602D01*
X116299982Y-107040735D01*
X116452337Y-107122170D01*
X116455073Y-107123000D01*
X106746044Y-107123000D01*
X106739147Y-107052974D01*
X106696261Y-106911599D01*
X106626619Y-106781307D01*
X106532895Y-106667105D01*
X106418693Y-106573381D01*
X106288401Y-106503739D01*
X106147026Y-106460853D01*
X106000000Y-106446372D01*
X104400000Y-106446372D01*
X104252974Y-106460853D01*
X104111599Y-106503739D01*
X103981307Y-106573381D01*
X103867105Y-106667105D01*
X103773381Y-106781307D01*
X103703739Y-106911599D01*
X103660853Y-107052974D01*
X103646372Y-107200000D01*
X103646372Y-108800000D01*
X103660853Y-108947026D01*
X103703739Y-109088401D01*
X103773381Y-109218693D01*
X103867105Y-109332895D01*
X103981307Y-109426619D01*
X104072569Y-109475399D01*
X103996036Y-109551932D01*
X103826408Y-109805800D01*
X103709565Y-110087882D01*
X103650000Y-110387338D01*
X103650000Y-110692662D01*
X103709565Y-110992118D01*
X103826408Y-111274200D01*
X103996036Y-111528068D01*
X104211932Y-111743964D01*
X104315176Y-111812949D01*
X104266031Y-111842981D01*
X104042647Y-112048958D01*
X103863739Y-112294558D01*
X103736183Y-112570342D01*
X103699734Y-112690511D01*
X103845782Y-112930000D01*
X105050000Y-112930000D01*
X105050000Y-112910000D01*
X105350000Y-112910000D01*
X105350000Y-112930000D01*
X105370000Y-112930000D01*
X105370000Y-113230000D01*
X105350000Y-113230000D01*
X105350000Y-113250000D01*
X105050000Y-113250000D01*
X105050000Y-113230000D01*
X103845782Y-113230000D01*
X103699734Y-113469489D01*
X103736183Y-113589658D01*
X103863739Y-113865442D01*
X104042647Y-114111042D01*
X104266031Y-114317019D01*
X104315176Y-114347051D01*
X104211932Y-114416036D01*
X103996036Y-114631932D01*
X103826408Y-114885800D01*
X103709565Y-115167882D01*
X103650000Y-115467338D01*
X103650000Y-115772662D01*
X103709565Y-116072118D01*
X103826408Y-116354200D01*
X103996036Y-116608068D01*
X104211932Y-116823964D01*
X104465800Y-116993592D01*
X104747882Y-117110435D01*
X105047338Y-117170000D01*
X105352662Y-117170000D01*
X105652118Y-117110435D01*
X105934200Y-116993592D01*
X106188068Y-116823964D01*
X106403964Y-116608068D01*
X106573592Y-116354200D01*
X106690435Y-116072118D01*
X106750000Y-115772662D01*
X106750000Y-115467338D01*
X106723940Y-115336325D01*
X112675255Y-109385010D01*
X138483911Y-109385010D01*
X138526990Y-109389253D01*
X138570069Y-109385010D01*
X138698912Y-109372320D01*
X138864227Y-109322172D01*
X139016582Y-109240737D01*
X139150123Y-109131143D01*
X139177587Y-109097678D01*
X142731325Y-105543940D01*
X142862338Y-105570000D01*
X143167662Y-105570000D01*
X143467118Y-105510435D01*
X143749200Y-105393592D01*
X144003068Y-105223964D01*
X144218964Y-105008068D01*
X144285000Y-104909237D01*
X144351036Y-105008068D01*
X144566932Y-105223964D01*
X144820800Y-105393592D01*
X145102882Y-105510435D01*
X145402338Y-105570000D01*
X145707662Y-105570000D01*
X146007118Y-105510435D01*
X146289200Y-105393592D01*
X146543068Y-105223964D01*
X146758964Y-105008068D01*
X146825000Y-104909237D01*
X146891036Y-105008068D01*
X147106932Y-105223964D01*
X147360800Y-105393592D01*
X147642882Y-105510435D01*
X147942338Y-105570000D01*
X148247662Y-105570000D01*
X148547118Y-105510435D01*
X148829200Y-105393592D01*
X149083068Y-105223964D01*
X149218053Y-105088979D01*
X149778153Y-105088979D01*
X149845132Y-105362355D01*
X150122190Y-105490657D01*
X150418955Y-105562443D01*
X150724022Y-105574953D01*
X151025667Y-105527708D01*
X151312299Y-105422522D01*
X151424868Y-105362355D01*
X151491847Y-105088979D01*
X150635000Y-104232132D01*
X149778153Y-105088979D01*
X149218053Y-105088979D01*
X149298964Y-105008068D01*
X149411877Y-104839081D01*
X149566021Y-104876847D01*
X150422868Y-104020000D01*
X150847132Y-104020000D01*
X151703979Y-104876847D01*
X151977355Y-104809868D01*
X152105657Y-104532810D01*
X152177443Y-104236045D01*
X152189953Y-103930978D01*
X152142708Y-103629333D01*
X152037522Y-103342701D01*
X151977355Y-103230132D01*
X151703979Y-103163153D01*
X150847132Y-104020000D01*
X150422868Y-104020000D01*
X149566021Y-103163153D01*
X149411877Y-103200919D01*
X149298964Y-103031932D01*
X149218053Y-102951021D01*
X149778153Y-102951021D01*
X150635000Y-103807868D01*
X151491847Y-102951021D01*
X151424868Y-102677645D01*
X151147810Y-102549343D01*
X150851045Y-102477557D01*
X150545978Y-102465047D01*
X150244333Y-102512292D01*
X149957701Y-102617478D01*
X149845132Y-102677645D01*
X149778153Y-102951021D01*
X149218053Y-102951021D01*
X149083068Y-102816036D01*
X148984237Y-102750000D01*
X149083068Y-102683964D01*
X149298964Y-102468068D01*
X149468592Y-102214200D01*
X149585435Y-101932118D01*
X149645000Y-101632662D01*
X149645000Y-101327338D01*
X149585435Y-101027882D01*
X149522937Y-100877000D01*
X152036735Y-100877000D01*
X158123000Y-106963265D01*
X158123001Y-115664867D01*
X155337868Y-118450000D01*
X122808699Y-118450000D01*
X122567516Y-118208817D01*
X122540057Y-118175358D01*
X122506598Y-118147899D01*
X122506595Y-118147896D01*
X122406516Y-118065764D01*
X122254160Y-117984328D01*
X122088846Y-117934180D01*
X121916924Y-117917247D01*
X121873834Y-117921491D01*
X102733622Y-117921490D01*
X101350000Y-116537868D01*
X101350000Y-103121836D01*
X101353628Y-103085000D01*
X101353628Y-103080000D01*
X101517500Y-103080000D01*
X101517500Y-103802500D01*
X101705000Y-103990000D01*
X101721046Y-103993500D01*
X101868315Y-103981744D01*
X102010460Y-103941483D01*
X102142020Y-103874264D01*
X102257938Y-103782672D01*
X102353760Y-103670224D01*
X102425803Y-103541243D01*
X102471299Y-103400686D01*
X102485000Y-103267500D01*
X102297500Y-103080000D01*
X101517500Y-103080000D01*
X101353628Y-103080000D01*
X101353628Y-102775000D01*
X101350000Y-102738164D01*
X101350000Y-102057500D01*
X101517500Y-102057500D01*
X101517500Y-102780000D01*
X102297500Y-102780000D01*
X102485000Y-102592500D01*
X102471299Y-102459314D01*
X102425803Y-102318757D01*
X102353760Y-102189776D01*
X102268699Y-102089955D01*
X107229677Y-102089955D01*
X107367984Y-102423604D01*
X107745647Y-102610872D01*
X108152587Y-102720864D01*
X108573166Y-102749353D01*
X108991223Y-102695243D01*
X109390690Y-102560614D01*
X109647016Y-102423604D01*
X109785323Y-102089955D01*
X110629677Y-102089955D01*
X110767984Y-102423604D01*
X111145647Y-102610872D01*
X111552587Y-102720864D01*
X111973166Y-102749353D01*
X112391223Y-102695243D01*
X112790690Y-102560614D01*
X113047016Y-102423604D01*
X113185323Y-102089955D01*
X111907500Y-100812132D01*
X110629677Y-102089955D01*
X109785323Y-102089955D01*
X108507500Y-100812132D01*
X107229677Y-102089955D01*
X102268699Y-102089955D01*
X102257938Y-102077328D01*
X102142020Y-101985736D01*
X102010460Y-101918517D01*
X101868315Y-101878256D01*
X101721046Y-101866500D01*
X101705000Y-101870000D01*
X101517500Y-102057500D01*
X101350000Y-102057500D01*
X101350000Y-100665666D01*
X106358147Y-100665666D01*
X106412257Y-101083723D01*
X106546886Y-101483190D01*
X106683896Y-101739516D01*
X107017545Y-101877823D01*
X108295368Y-100600000D01*
X108719632Y-100600000D01*
X109997455Y-101877823D01*
X110207500Y-101790753D01*
X110417545Y-101877823D01*
X111695368Y-100600000D01*
X110417545Y-99322177D01*
X110207500Y-99409247D01*
X109997455Y-99322177D01*
X108719632Y-100600000D01*
X108295368Y-100600000D01*
X107017545Y-99322177D01*
X106683896Y-99460484D01*
X106496628Y-99838147D01*
X106386636Y-100245087D01*
X106358147Y-100665666D01*
X101350000Y-100665666D01*
X101350000Y-98540000D01*
X101560000Y-98540000D01*
X101560000Y-99945056D01*
X101823447Y-100089035D01*
X102027792Y-100022424D01*
X102325125Y-99871445D01*
X102587290Y-99665360D01*
X102804212Y-99412089D01*
X102967555Y-99121365D01*
X102971250Y-99110045D01*
X107229677Y-99110045D01*
X108507500Y-100387868D01*
X109785323Y-99110045D01*
X110629677Y-99110045D01*
X111907500Y-100387868D01*
X113185323Y-99110045D01*
X113047016Y-98776396D01*
X112669353Y-98589128D01*
X112262413Y-98479136D01*
X111841834Y-98450647D01*
X111423777Y-98504757D01*
X111024310Y-98639386D01*
X110767984Y-98776396D01*
X110629677Y-99110045D01*
X109785323Y-99110045D01*
X109647016Y-98776396D01*
X109269353Y-98589128D01*
X108862413Y-98479136D01*
X108441834Y-98450647D01*
X108023777Y-98504757D01*
X107624310Y-98639386D01*
X107367984Y-98776396D01*
X107229677Y-99110045D01*
X102971250Y-99110045D01*
X103071042Y-98804361D01*
X102920482Y-98540000D01*
X101560000Y-98540000D01*
X101350000Y-98540000D01*
X101350000Y-96834944D01*
X101560000Y-96834944D01*
X101560000Y-98240000D01*
X102920482Y-98240000D01*
X103071042Y-97975639D01*
X102967555Y-97658635D01*
X102804212Y-97367911D01*
X102587290Y-97114640D01*
X102325125Y-96908555D01*
X102027792Y-96757576D01*
X101823447Y-96690965D01*
X101560000Y-96834944D01*
X101350000Y-96834944D01*
X101350000Y-96062132D01*
X102462132Y-94950000D01*
X113523001Y-94950000D01*
X113523000Y-99374219D01*
%TA.AperFunction,Conductor*%
D23*
G36*
X113523000Y-99374219D02*
G01*
X113397455Y-99322177D01*
X112119632Y-100600000D01*
X113397455Y-101877823D01*
X113523000Y-101825781D01*
X113523000Y-103875354D01*
X113518757Y-103918434D01*
X113535690Y-104090356D01*
X113560658Y-104172662D01*
X113585838Y-104255670D01*
X113667273Y-104408025D01*
X113776867Y-104541567D01*
X113810332Y-104569031D01*
X116138983Y-106897682D01*
X116166442Y-106931141D01*
X116199901Y-106958600D01*
X116199903Y-106958602D01*
X116299982Y-107040735D01*
X116452337Y-107122170D01*
X116455073Y-107123000D01*
X106746044Y-107123000D01*
X106739147Y-107052974D01*
X106696261Y-106911599D01*
X106626619Y-106781307D01*
X106532895Y-106667105D01*
X106418693Y-106573381D01*
X106288401Y-106503739D01*
X106147026Y-106460853D01*
X106000000Y-106446372D01*
X104400000Y-106446372D01*
X104252974Y-106460853D01*
X104111599Y-106503739D01*
X103981307Y-106573381D01*
X103867105Y-106667105D01*
X103773381Y-106781307D01*
X103703739Y-106911599D01*
X103660853Y-107052974D01*
X103646372Y-107200000D01*
X103646372Y-108800000D01*
X103660853Y-108947026D01*
X103703739Y-109088401D01*
X103773381Y-109218693D01*
X103867105Y-109332895D01*
X103981307Y-109426619D01*
X104072569Y-109475399D01*
X103996036Y-109551932D01*
X103826408Y-109805800D01*
X103709565Y-110087882D01*
X103650000Y-110387338D01*
X103650000Y-110692662D01*
X103709565Y-110992118D01*
X103826408Y-111274200D01*
X103996036Y-111528068D01*
X104211932Y-111743964D01*
X104315176Y-111812949D01*
X104266031Y-111842981D01*
X104042647Y-112048958D01*
X103863739Y-112294558D01*
X103736183Y-112570342D01*
X103699734Y-112690511D01*
X103845782Y-112930000D01*
X105050000Y-112930000D01*
X105050000Y-112910000D01*
X105350000Y-112910000D01*
X105350000Y-112930000D01*
X105370000Y-112930000D01*
X105370000Y-113230000D01*
X105350000Y-113230000D01*
X105350000Y-113250000D01*
X105050000Y-113250000D01*
X105050000Y-113230000D01*
X103845782Y-113230000D01*
X103699734Y-113469489D01*
X103736183Y-113589658D01*
X103863739Y-113865442D01*
X104042647Y-114111042D01*
X104266031Y-114317019D01*
X104315176Y-114347051D01*
X104211932Y-114416036D01*
X103996036Y-114631932D01*
X103826408Y-114885800D01*
X103709565Y-115167882D01*
X103650000Y-115467338D01*
X103650000Y-115772662D01*
X103709565Y-116072118D01*
X103826408Y-116354200D01*
X103996036Y-116608068D01*
X104211932Y-116823964D01*
X104465800Y-116993592D01*
X104747882Y-117110435D01*
X105047338Y-117170000D01*
X105352662Y-117170000D01*
X105652118Y-117110435D01*
X105934200Y-116993592D01*
X106188068Y-116823964D01*
X106403964Y-116608068D01*
X106573592Y-116354200D01*
X106690435Y-116072118D01*
X106750000Y-115772662D01*
X106750000Y-115467338D01*
X106723940Y-115336325D01*
X112675255Y-109385010D01*
X138483911Y-109385010D01*
X138526990Y-109389253D01*
X138570069Y-109385010D01*
X138698912Y-109372320D01*
X138864227Y-109322172D01*
X139016582Y-109240737D01*
X139150123Y-109131143D01*
X139177587Y-109097678D01*
X142731325Y-105543940D01*
X142862338Y-105570000D01*
X143167662Y-105570000D01*
X143467118Y-105510435D01*
X143749200Y-105393592D01*
X144003068Y-105223964D01*
X144218964Y-105008068D01*
X144285000Y-104909237D01*
X144351036Y-105008068D01*
X144566932Y-105223964D01*
X144820800Y-105393592D01*
X145102882Y-105510435D01*
X145402338Y-105570000D01*
X145707662Y-105570000D01*
X146007118Y-105510435D01*
X146289200Y-105393592D01*
X146543068Y-105223964D01*
X146758964Y-105008068D01*
X146825000Y-104909237D01*
X146891036Y-105008068D01*
X147106932Y-105223964D01*
X147360800Y-105393592D01*
X147642882Y-105510435D01*
X147942338Y-105570000D01*
X148247662Y-105570000D01*
X148547118Y-105510435D01*
X148829200Y-105393592D01*
X149083068Y-105223964D01*
X149218053Y-105088979D01*
X149778153Y-105088979D01*
X149845132Y-105362355D01*
X150122190Y-105490657D01*
X150418955Y-105562443D01*
X150724022Y-105574953D01*
X151025667Y-105527708D01*
X151312299Y-105422522D01*
X151424868Y-105362355D01*
X151491847Y-105088979D01*
X150635000Y-104232132D01*
X149778153Y-105088979D01*
X149218053Y-105088979D01*
X149298964Y-105008068D01*
X149411877Y-104839081D01*
X149566021Y-104876847D01*
X150422868Y-104020000D01*
X150847132Y-104020000D01*
X151703979Y-104876847D01*
X151977355Y-104809868D01*
X152105657Y-104532810D01*
X152177443Y-104236045D01*
X152189953Y-103930978D01*
X152142708Y-103629333D01*
X152037522Y-103342701D01*
X151977355Y-103230132D01*
X151703979Y-103163153D01*
X150847132Y-104020000D01*
X150422868Y-104020000D01*
X149566021Y-103163153D01*
X149411877Y-103200919D01*
X149298964Y-103031932D01*
X149218053Y-102951021D01*
X149778153Y-102951021D01*
X150635000Y-103807868D01*
X151491847Y-102951021D01*
X151424868Y-102677645D01*
X151147810Y-102549343D01*
X150851045Y-102477557D01*
X150545978Y-102465047D01*
X150244333Y-102512292D01*
X149957701Y-102617478D01*
X149845132Y-102677645D01*
X149778153Y-102951021D01*
X149218053Y-102951021D01*
X149083068Y-102816036D01*
X148984237Y-102750000D01*
X149083068Y-102683964D01*
X149298964Y-102468068D01*
X149468592Y-102214200D01*
X149585435Y-101932118D01*
X149645000Y-101632662D01*
X149645000Y-101327338D01*
X149585435Y-101027882D01*
X149522937Y-100877000D01*
X152036735Y-100877000D01*
X158123000Y-106963265D01*
X158123001Y-115664867D01*
X155337868Y-118450000D01*
X122808699Y-118450000D01*
X122567516Y-118208817D01*
X122540057Y-118175358D01*
X122506598Y-118147899D01*
X122506595Y-118147896D01*
X122406516Y-118065764D01*
X122254160Y-117984328D01*
X122088846Y-117934180D01*
X121916924Y-117917247D01*
X121873834Y-117921491D01*
X102733622Y-117921490D01*
X101350000Y-116537868D01*
X101350000Y-103121836D01*
X101353628Y-103085000D01*
X101353628Y-103080000D01*
X101517500Y-103080000D01*
X101517500Y-103802500D01*
X101705000Y-103990000D01*
X101721046Y-103993500D01*
X101868315Y-103981744D01*
X102010460Y-103941483D01*
X102142020Y-103874264D01*
X102257938Y-103782672D01*
X102353760Y-103670224D01*
X102425803Y-103541243D01*
X102471299Y-103400686D01*
X102485000Y-103267500D01*
X102297500Y-103080000D01*
X101517500Y-103080000D01*
X101353628Y-103080000D01*
X101353628Y-102775000D01*
X101350000Y-102738164D01*
X101350000Y-102057500D01*
X101517500Y-102057500D01*
X101517500Y-102780000D01*
X102297500Y-102780000D01*
X102485000Y-102592500D01*
X102471299Y-102459314D01*
X102425803Y-102318757D01*
X102353760Y-102189776D01*
X102268699Y-102089955D01*
X107229677Y-102089955D01*
X107367984Y-102423604D01*
X107745647Y-102610872D01*
X108152587Y-102720864D01*
X108573166Y-102749353D01*
X108991223Y-102695243D01*
X109390690Y-102560614D01*
X109647016Y-102423604D01*
X109785323Y-102089955D01*
X110629677Y-102089955D01*
X110767984Y-102423604D01*
X111145647Y-102610872D01*
X111552587Y-102720864D01*
X111973166Y-102749353D01*
X112391223Y-102695243D01*
X112790690Y-102560614D01*
X113047016Y-102423604D01*
X113185323Y-102089955D01*
X111907500Y-100812132D01*
X110629677Y-102089955D01*
X109785323Y-102089955D01*
X108507500Y-100812132D01*
X107229677Y-102089955D01*
X102268699Y-102089955D01*
X102257938Y-102077328D01*
X102142020Y-101985736D01*
X102010460Y-101918517D01*
X101868315Y-101878256D01*
X101721046Y-101866500D01*
X101705000Y-101870000D01*
X101517500Y-102057500D01*
X101350000Y-102057500D01*
X101350000Y-100665666D01*
X106358147Y-100665666D01*
X106412257Y-101083723D01*
X106546886Y-101483190D01*
X106683896Y-101739516D01*
X107017545Y-101877823D01*
X108295368Y-100600000D01*
X108719632Y-100600000D01*
X109997455Y-101877823D01*
X110207500Y-101790753D01*
X110417545Y-101877823D01*
X111695368Y-100600000D01*
X110417545Y-99322177D01*
X110207500Y-99409247D01*
X109997455Y-99322177D01*
X108719632Y-100600000D01*
X108295368Y-100600000D01*
X107017545Y-99322177D01*
X106683896Y-99460484D01*
X106496628Y-99838147D01*
X106386636Y-100245087D01*
X106358147Y-100665666D01*
X101350000Y-100665666D01*
X101350000Y-98540000D01*
X101560000Y-98540000D01*
X101560000Y-99945056D01*
X101823447Y-100089035D01*
X102027792Y-100022424D01*
X102325125Y-99871445D01*
X102587290Y-99665360D01*
X102804212Y-99412089D01*
X102967555Y-99121365D01*
X102971250Y-99110045D01*
X107229677Y-99110045D01*
X108507500Y-100387868D01*
X109785323Y-99110045D01*
X110629677Y-99110045D01*
X111907500Y-100387868D01*
X113185323Y-99110045D01*
X113047016Y-98776396D01*
X112669353Y-98589128D01*
X112262413Y-98479136D01*
X111841834Y-98450647D01*
X111423777Y-98504757D01*
X111024310Y-98639386D01*
X110767984Y-98776396D01*
X110629677Y-99110045D01*
X109785323Y-99110045D01*
X109647016Y-98776396D01*
X109269353Y-98589128D01*
X108862413Y-98479136D01*
X108441834Y-98450647D01*
X108023777Y-98504757D01*
X107624310Y-98639386D01*
X107367984Y-98776396D01*
X107229677Y-99110045D01*
X102971250Y-99110045D01*
X103071042Y-98804361D01*
X102920482Y-98540000D01*
X101560000Y-98540000D01*
X101350000Y-98540000D01*
X101350000Y-96834944D01*
X101560000Y-96834944D01*
X101560000Y-98240000D01*
X102920482Y-98240000D01*
X103071042Y-97975639D01*
X102967555Y-97658635D01*
X102804212Y-97367911D01*
X102587290Y-97114640D01*
X102325125Y-96908555D01*
X102027792Y-96757576D01*
X101823447Y-96690965D01*
X101560000Y-96834944D01*
X101350000Y-96834944D01*
X101350000Y-96062132D01*
X102462132Y-94950000D01*
X113523001Y-94950000D01*
X113523000Y-99374219D01*
G37*
%TD.AperFunction*%
%TD*%
D21*
%TO.N,12V_SUPPLY*%
X96450000Y-81081586D02*
X96370000Y-81483772D01*
X96370000Y-81976228D01*
X96450000Y-82378414D01*
X96450000Y-106937968D01*
X96376036Y-107011932D01*
X96206408Y-107265800D01*
X96089565Y-107547882D01*
X96030000Y-107847338D01*
X96030000Y-108152662D01*
X96089565Y-108452118D01*
X96206408Y-108734200D01*
X96376036Y-108988068D01*
X96450000Y-109062032D01*
X96450000Y-109477968D01*
X96376036Y-109551932D01*
X96206408Y-109805800D01*
X96089565Y-110087882D01*
X96030000Y-110387338D01*
X96030000Y-110692662D01*
X96058851Y-110837708D01*
X92362021Y-114608474D01*
X92362021Y-103675000D01*
X95046371Y-103675000D01*
X95060852Y-103822026D01*
X95103738Y-103963401D01*
X95173380Y-104093694D01*
X95267104Y-104207896D01*
X95381306Y-104301620D01*
X95511599Y-104371262D01*
X95652974Y-104414148D01*
X95800000Y-104428629D01*
X96000000Y-104425000D01*
X96187500Y-104237500D01*
X96187500Y-103350000D01*
X95237500Y-103350000D01*
X95050000Y-103537500D01*
X95046371Y-103675000D01*
X92362021Y-103675000D01*
X92362021Y-102725000D01*
X95046371Y-102725000D01*
X95050000Y-102862500D01*
X95237500Y-103050000D01*
X96187500Y-103050000D01*
X96187500Y-102162500D01*
X96000000Y-101975000D01*
X95800000Y-101971371D01*
X95652974Y-101985852D01*
X95511599Y-102028738D01*
X95381306Y-102098380D01*
X95267104Y-102192104D01*
X95173380Y-102306306D01*
X95103738Y-102436599D01*
X95060852Y-102577974D01*
X95046371Y-102725000D01*
X92362021Y-102725000D01*
X92362021Y-99390000D01*
X94623871Y-99390000D01*
X94638352Y-99537026D01*
X94681238Y-99678401D01*
X94750880Y-99808694D01*
X94844604Y-99922896D01*
X94958806Y-100016620D01*
X95089099Y-100086262D01*
X95230474Y-100129148D01*
X95377500Y-100143629D01*
X95992500Y-100140000D01*
X96180000Y-99952500D01*
X96180000Y-98540000D01*
X94815000Y-98540000D01*
X94627500Y-98727500D01*
X94623871Y-99390000D01*
X92362021Y-99390000D01*
X92362021Y-97390000D01*
X94623871Y-97390000D01*
X94627500Y-98052500D01*
X94815000Y-98240000D01*
X96180000Y-98240000D01*
X96180000Y-96827500D01*
X95992500Y-96640000D01*
X95377500Y-96636371D01*
X95230474Y-96650852D01*
X95089099Y-96693738D01*
X94958806Y-96763380D01*
X94844604Y-96857104D01*
X94750880Y-96971306D01*
X94681238Y-97101599D01*
X94638352Y-97242974D01*
X94623871Y-97390000D01*
X92362021Y-97390000D01*
X92362021Y-86946217D01*
X92366374Y-86902020D01*
X92362021Y-86857823D01*
X92362021Y-86857814D01*
X92348998Y-86725590D01*
X92297535Y-86555940D01*
X92213964Y-86399589D01*
X92101496Y-86262546D01*
X92067156Y-86234364D01*
X90570677Y-84737885D01*
X90617761Y-84624215D01*
X90700000Y-84210772D01*
X90700000Y-83789228D01*
X90617761Y-83375785D01*
X90456444Y-82986330D01*
X90222247Y-82635829D01*
X89924171Y-82337753D01*
X89867670Y-82300000D01*
X89924171Y-82262247D01*
X90222247Y-81964171D01*
X90456444Y-81613670D01*
X90617761Y-81224215D01*
X90700000Y-80810772D01*
X90700000Y-80389228D01*
X90617761Y-79975785D01*
X90456444Y-79586330D01*
X90222247Y-79235829D01*
X89924171Y-78937753D01*
X89573670Y-78703556D01*
X89184215Y-78542239D01*
X88770772Y-78460000D01*
X88349228Y-78460000D01*
X87935785Y-78542239D01*
X87546330Y-78703556D01*
X87195829Y-78937753D01*
X86897753Y-79235829D01*
X86663556Y-79586330D01*
X86502239Y-79975785D01*
X86420000Y-80389228D01*
X86420000Y-80810772D01*
X86502239Y-81224215D01*
X86663556Y-81613670D01*
X86897753Y-81964171D01*
X87195829Y-82262247D01*
X87252330Y-82300000D01*
X87195829Y-82337753D01*
X86897753Y-82635829D01*
X86663556Y-82986330D01*
X86502239Y-83375785D01*
X86420000Y-83789228D01*
X86420000Y-84210772D01*
X86502239Y-84624215D01*
X86663556Y-85013670D01*
X86897753Y-85364171D01*
X87195829Y-85662247D01*
X87546330Y-85896444D01*
X87935785Y-86057761D01*
X88349228Y-86140000D01*
X88770772Y-86140000D01*
X89184215Y-86057761D01*
X89297885Y-86010677D01*
X90562022Y-87274814D01*
X90562022Y-89841218D01*
X90456444Y-89586330D01*
X90222247Y-89235829D01*
X89924171Y-88937753D01*
X89573670Y-88703556D01*
X89184215Y-88542239D01*
X88770772Y-88460000D01*
X88349228Y-88460000D01*
X87935785Y-88542239D01*
X87546330Y-88703556D01*
X87195829Y-88937753D01*
X86897753Y-89235829D01*
X86663556Y-89586330D01*
X86502239Y-89975785D01*
X86420000Y-90389228D01*
X86420000Y-90810772D01*
X86502239Y-91224215D01*
X86663556Y-91613670D01*
X86897753Y-91964171D01*
X87195829Y-92262247D01*
X87252330Y-92300000D01*
X87195829Y-92337753D01*
X86897753Y-92635829D01*
X86663556Y-92986330D01*
X86502239Y-93375785D01*
X86420000Y-93789228D01*
X86420000Y-94210772D01*
X86502239Y-94624215D01*
X86663556Y-95013670D01*
X86897753Y-95364171D01*
X87195829Y-95662247D01*
X87546330Y-95896444D01*
X87935785Y-96057761D01*
X88349228Y-96140000D01*
X88770772Y-96140000D01*
X89184215Y-96057761D01*
X89297885Y-96010678D01*
X90008012Y-96720805D01*
X90008012Y-99021594D01*
X89924171Y-98937753D01*
X89573670Y-98703556D01*
X89184215Y-98542239D01*
X88770772Y-98460000D01*
X88349228Y-98460000D01*
X87935785Y-98542239D01*
X87546330Y-98703556D01*
X87195829Y-98937753D01*
X86897753Y-99235829D01*
X86663556Y-99586330D01*
X86502239Y-99975785D01*
X86420000Y-100389228D01*
X86420000Y-100810772D01*
X86502239Y-101224215D01*
X86663556Y-101613670D01*
X86897753Y-101964171D01*
X87195829Y-102262247D01*
X87252330Y-102300000D01*
X87195829Y-102337753D01*
X86897753Y-102635829D01*
X86663556Y-102986330D01*
X86502239Y-103375785D01*
X86420000Y-103789228D01*
X86420000Y-104210772D01*
X86502239Y-104624215D01*
X86663556Y-105013670D01*
X86897753Y-105364171D01*
X87195829Y-105662247D01*
X87546330Y-105896444D01*
X87935785Y-106057761D01*
X88349228Y-106140000D01*
X88770772Y-106140000D01*
X89184215Y-106057761D01*
X89297885Y-106010677D01*
X89454002Y-106166794D01*
X89454002Y-108653988D01*
X89184215Y-108542239D01*
X88770772Y-108460000D01*
X88349228Y-108460000D01*
X87935785Y-108542239D01*
X87546330Y-108703556D01*
X87195829Y-108937753D01*
X86897753Y-109235829D01*
X86663556Y-109586330D01*
X86502239Y-109975785D01*
X86420000Y-110389228D01*
X86420000Y-110810772D01*
X86502239Y-111224215D01*
X86663556Y-111613670D01*
X86897753Y-111964171D01*
X87195829Y-112262247D01*
X87252330Y-112300000D01*
X87195829Y-112337753D01*
X86897753Y-112635829D01*
X86663556Y-112986330D01*
X86502239Y-113375785D01*
X86420000Y-113789228D01*
X86420000Y-114210772D01*
X86502239Y-114624215D01*
X86663556Y-115013670D01*
X86897753Y-115364171D01*
X87195829Y-115662247D01*
X87546330Y-115896444D01*
X87660001Y-115943528D01*
X87660000Y-123715793D01*
X87660000Y-123746730D01*
X87655646Y-123790936D01*
X87668651Y-123922973D01*
X87673023Y-123967366D01*
X87724486Y-124137016D01*
X87808057Y-124293367D01*
X87920525Y-124430411D01*
X87954865Y-124458593D01*
X90858002Y-127361730D01*
X90777411Y-127565279D01*
X92000000Y-128787868D01*
X92014143Y-128773726D01*
X92226275Y-128985858D01*
X92212132Y-129000000D01*
X93434721Y-130222589D01*
X93760442Y-130093626D01*
X93939971Y-129729167D01*
X93998561Y-129510117D01*
X94016760Y-129601609D01*
X94172236Y-129976960D01*
X94397951Y-130314767D01*
X94685233Y-130602049D01*
X95023040Y-130827764D01*
X95398391Y-130983240D01*
X95796861Y-131062500D01*
X96203139Y-131062500D01*
X96601609Y-130983240D01*
X96976960Y-130827764D01*
X97314767Y-130602049D01*
X97602049Y-130314767D01*
X97827764Y-129976960D01*
X97983240Y-129601609D01*
X98000000Y-129517350D01*
X98016760Y-129601609D01*
X98172236Y-129976960D01*
X98397951Y-130314767D01*
X98685233Y-130602049D01*
X99023040Y-130827764D01*
X99398391Y-130983240D01*
X99796861Y-131062500D01*
X100203139Y-131062500D01*
X100601609Y-130983240D01*
X100976960Y-130827764D01*
X101314767Y-130602049D01*
X101602049Y-130314767D01*
X101827764Y-129976960D01*
X101983240Y-129601609D01*
X102000000Y-129517350D01*
X102016760Y-129601609D01*
X102172236Y-129976960D01*
X102397951Y-130314767D01*
X102685233Y-130602049D01*
X103023040Y-130827764D01*
X103398391Y-130983240D01*
X103796861Y-131062500D01*
X104203139Y-131062500D01*
X104601609Y-130983240D01*
X104976960Y-130827764D01*
X105314767Y-130602049D01*
X105602049Y-130314767D01*
X105827764Y-129976960D01*
X105983240Y-129601609D01*
X106000000Y-129517350D01*
X106016760Y-129601609D01*
X106172236Y-129976960D01*
X106397951Y-130314767D01*
X106685233Y-130602049D01*
X107023040Y-130827764D01*
X107398391Y-130983240D01*
X107796861Y-131062500D01*
X108203139Y-131062500D01*
X108601609Y-130983240D01*
X108976960Y-130827764D01*
X109314767Y-130602049D01*
X109602049Y-130314767D01*
X109827764Y-129976960D01*
X109869169Y-129877000D01*
X124781234Y-129877000D01*
X126469000Y-131564767D01*
X126469000Y-131566895D01*
X126512464Y-131785401D01*
X126597721Y-131991230D01*
X126721495Y-132176471D01*
X126879030Y-132334006D01*
X127064271Y-132457780D01*
X127270100Y-132543037D01*
X127488606Y-132586501D01*
X127711394Y-132586501D01*
X127929900Y-132543037D01*
X128135729Y-132457780D01*
X128320970Y-132334006D01*
X128478505Y-132176471D01*
X128602279Y-131991230D01*
X128687536Y-131785401D01*
X128731000Y-131566895D01*
X128731000Y-131344107D01*
X128687536Y-131125601D01*
X128602279Y-130919772D01*
X128478505Y-130734531D01*
X128320970Y-130576996D01*
X128135729Y-130453222D01*
X127929900Y-130367965D01*
X127711394Y-130324501D01*
X127709266Y-130324501D01*
X125795096Y-128410332D01*
X125767632Y-128376867D01*
X125634091Y-128267273D01*
X125481736Y-128185838D01*
X125316421Y-128135690D01*
X125187578Y-128123000D01*
X125144499Y-128118757D01*
X125101420Y-128123000D01*
X109869169Y-128123000D01*
X109827764Y-128023040D01*
X109602049Y-127685233D01*
X109314767Y-127397951D01*
X108976960Y-127172236D01*
X108877000Y-127130831D01*
X108877000Y-125285781D01*
X112325000Y-125285781D01*
X112325000Y-125714219D01*
X112408584Y-126134424D01*
X112572540Y-126530249D01*
X112810567Y-126886482D01*
X113113518Y-127189433D01*
X113469751Y-127427460D01*
X113865576Y-127591416D01*
X114285781Y-127675000D01*
X114714219Y-127675000D01*
X115134424Y-127591416D01*
X115530249Y-127427460D01*
X115886482Y-127189433D01*
X116189433Y-126886482D01*
X116427460Y-126530249D01*
X116591416Y-126134424D01*
X116675000Y-125714219D01*
X116675000Y-125285781D01*
X116591416Y-124865576D01*
X116427460Y-124469751D01*
X116189433Y-124113518D01*
X115886482Y-123810567D01*
X115530249Y-123572540D01*
X115134424Y-123408584D01*
X114714219Y-123325000D01*
X114285781Y-123325000D01*
X113865576Y-123408584D01*
X113469751Y-123572540D01*
X113113518Y-123810567D01*
X112810567Y-124113518D01*
X112572540Y-124469751D01*
X112408584Y-124865576D01*
X112325000Y-125285781D01*
X108877000Y-125285781D01*
X108877000Y-122869169D01*
X108976960Y-122827764D01*
X109314767Y-122602049D01*
X109602049Y-122314767D01*
X109827764Y-121976960D01*
X109983240Y-121601609D01*
X110062500Y-121203139D01*
X110062500Y-120796861D01*
X109983240Y-120398391D01*
X109894229Y-120183499D01*
X121343234Y-120183499D01*
X132442904Y-131283169D01*
X132470368Y-131316634D01*
X132603909Y-131426228D01*
X132701260Y-131478263D01*
X132756264Y-131507663D01*
X132921578Y-131557811D01*
X133093501Y-131574744D01*
X133136580Y-131570501D01*
X149263420Y-131570501D01*
X149306499Y-131574744D01*
X149349578Y-131570501D01*
X149478421Y-131557811D01*
X149643736Y-131507663D01*
X149796091Y-131426228D01*
X149929632Y-131316634D01*
X149957096Y-131283169D01*
X150298430Y-130941835D01*
X150398391Y-130983240D01*
X150796861Y-131062500D01*
X151203139Y-131062500D01*
X151601609Y-130983240D01*
X151976960Y-130827764D01*
X152314767Y-130602049D01*
X152602049Y-130314767D01*
X152827764Y-129976960D01*
X152983240Y-129601609D01*
X153000000Y-129517350D01*
X153016760Y-129601609D01*
X153172236Y-129976960D01*
X153397951Y-130314767D01*
X153685233Y-130602049D01*
X154023040Y-130827764D01*
X154398391Y-130983240D01*
X154796861Y-131062500D01*
X155203139Y-131062500D01*
X155601609Y-130983240D01*
X155678569Y-130951362D01*
X156048848Y-131321641D01*
X156077026Y-131355976D01*
X156111361Y-131384154D01*
X156111363Y-131384156D01*
X156194116Y-131452069D01*
X156214069Y-131468444D01*
X156370420Y-131552015D01*
X156540070Y-131603478D01*
X156599710Y-131609352D01*
X156716501Y-131620855D01*
X156760707Y-131616501D01*
X163779715Y-131616501D01*
X163823921Y-131620855D01*
X163868127Y-131616501D01*
X163868128Y-131616501D01*
X164000352Y-131603478D01*
X164170002Y-131552015D01*
X164326353Y-131468444D01*
X164463396Y-131355976D01*
X164491578Y-131321636D01*
X165024706Y-130788508D01*
X180452690Y-130788508D01*
X180452690Y-131211492D01*
X180535210Y-131626347D01*
X180697078Y-132017133D01*
X180932075Y-132368830D01*
X181231170Y-132667925D01*
X181582867Y-132902922D01*
X181973653Y-133064790D01*
X182388508Y-133147310D01*
X182811492Y-133147310D01*
X183226347Y-133064790D01*
X183617133Y-132902922D01*
X183968830Y-132667925D01*
X184267925Y-132368830D01*
X184502922Y-132017133D01*
X184664790Y-131626347D01*
X184747310Y-131211492D01*
X184747310Y-130788508D01*
X184664790Y-130373653D01*
X184502922Y-129982867D01*
X184267925Y-129631170D01*
X183968830Y-129332075D01*
X183617133Y-129097078D01*
X183226347Y-128935210D01*
X182811492Y-128852690D01*
X182388508Y-128852690D01*
X181973653Y-128935210D01*
X181582867Y-129097078D01*
X181231170Y-129332075D01*
X180932075Y-129631170D01*
X180697078Y-129982867D01*
X180535210Y-130373653D01*
X180452690Y-130788508D01*
X165024706Y-130788508D01*
X167045136Y-128768078D01*
X167079475Y-128739897D01*
X167191943Y-128602854D01*
X167275514Y-128446503D01*
X167326977Y-128276853D01*
X167340000Y-128144629D01*
X167340000Y-128144620D01*
X167344353Y-128100423D01*
X167340000Y-128056226D01*
X167340000Y-125789629D01*
X167408584Y-126134424D01*
X167572540Y-126530249D01*
X167810567Y-126886482D01*
X168113518Y-127189433D01*
X168469751Y-127427460D01*
X168865576Y-127591416D01*
X169285781Y-127675000D01*
X169714219Y-127675000D01*
X170134424Y-127591416D01*
X170530249Y-127427460D01*
X170886482Y-127189433D01*
X171189433Y-126886482D01*
X171427460Y-126530249D01*
X171591416Y-126134424D01*
X171675000Y-125714219D01*
X171675000Y-125285781D01*
X171591416Y-124865576D01*
X171427460Y-124469751D01*
X171189433Y-124113518D01*
X170886482Y-123810567D01*
X170530249Y-123572540D01*
X170134424Y-123408584D01*
X169714219Y-123325000D01*
X169285781Y-123325000D01*
X168865576Y-123408584D01*
X168469751Y-123572540D01*
X168113518Y-123810567D01*
X167810567Y-124113518D01*
X167572540Y-124469751D01*
X167408584Y-124865576D01*
X167340000Y-125210371D01*
X167340000Y-119452729D01*
X167347118Y-119429264D01*
X167350000Y-119400000D01*
X167350000Y-115939385D01*
X167453670Y-115896444D01*
X167804171Y-115662247D01*
X167976463Y-115489955D01*
X175082177Y-115489955D01*
X175220484Y-115823604D01*
X175598147Y-116010872D01*
X176005087Y-116120864D01*
X176425666Y-116149353D01*
X176843723Y-116095243D01*
X177243190Y-115960614D01*
X177499516Y-115823604D01*
X177637823Y-115489955D01*
X176360000Y-114212132D01*
X175082177Y-115489955D01*
X167976463Y-115489955D01*
X168102247Y-115364171D01*
X168336444Y-115013670D01*
X168497761Y-114624215D01*
X168580000Y-114210772D01*
X168580000Y-114065666D01*
X174210647Y-114065666D01*
X174264757Y-114483723D01*
X174399386Y-114883190D01*
X174536396Y-115139516D01*
X174870045Y-115277823D01*
X176147868Y-114000000D01*
X176572132Y-114000000D01*
X177849955Y-115277823D01*
X178183604Y-115139516D01*
X178370872Y-114761853D01*
X178480864Y-114354913D01*
X178509353Y-113934334D01*
X178455243Y-113516277D01*
X178320614Y-113116810D01*
X178183604Y-112860484D01*
X177849955Y-112722177D01*
X176572132Y-114000000D01*
X176147868Y-114000000D01*
X174870045Y-112722177D01*
X174536396Y-112860484D01*
X174349128Y-113238147D01*
X174239136Y-113645087D01*
X174210647Y-114065666D01*
X168580000Y-114065666D01*
X168580000Y-113789228D01*
X168497761Y-113375785D01*
X168336444Y-112986330D01*
X168102247Y-112635829D01*
X167804171Y-112337753D01*
X167747670Y-112300000D01*
X167804171Y-112262247D01*
X167976463Y-112089955D01*
X175082177Y-112089955D01*
X175169247Y-112300000D01*
X175082177Y-112510045D01*
X176360000Y-113787868D01*
X177637823Y-112510045D01*
X177550753Y-112300000D01*
X177637823Y-112089955D01*
X176360000Y-110812132D01*
X175082177Y-112089955D01*
X167976463Y-112089955D01*
X168102247Y-111964171D01*
X168336444Y-111613670D01*
X168497761Y-111224215D01*
X168580000Y-110810772D01*
X168580000Y-110665666D01*
X174210647Y-110665666D01*
X174264757Y-111083723D01*
X174399386Y-111483190D01*
X174536396Y-111739516D01*
X174870045Y-111877823D01*
X176147868Y-110600000D01*
X176572132Y-110600000D01*
X177849955Y-111877823D01*
X178183604Y-111739516D01*
X178370872Y-111361853D01*
X178480864Y-110954913D01*
X178509353Y-110534334D01*
X178455243Y-110116277D01*
X178320614Y-109716810D01*
X178183604Y-109460484D01*
X177849955Y-109322177D01*
X176572132Y-110600000D01*
X176147868Y-110600000D01*
X174870045Y-109322177D01*
X174536396Y-109460484D01*
X174349128Y-109838147D01*
X174239136Y-110245087D01*
X174210647Y-110665666D01*
X168580000Y-110665666D01*
X168580000Y-110389228D01*
X168497761Y-109975785D01*
X168336444Y-109586330D01*
X168102247Y-109235829D01*
X167976463Y-109110045D01*
X175082177Y-109110045D01*
X176360000Y-110387868D01*
X177637823Y-109110045D01*
X177499516Y-108776396D01*
X177121853Y-108589128D01*
X176714913Y-108479136D01*
X176294334Y-108450647D01*
X175876277Y-108504757D01*
X175476810Y-108639386D01*
X175220484Y-108776396D01*
X175082177Y-109110045D01*
X167976463Y-109110045D01*
X167804171Y-108937753D01*
X167453670Y-108703556D01*
X167350000Y-108660615D01*
X167350000Y-105939385D01*
X167453670Y-105896444D01*
X167804171Y-105662247D01*
X167976463Y-105489955D01*
X175082177Y-105489955D01*
X175220484Y-105823604D01*
X175598147Y-106010872D01*
X176005087Y-106120864D01*
X176425666Y-106149353D01*
X176843723Y-106095243D01*
X177243190Y-105960614D01*
X177499516Y-105823604D01*
X177637823Y-105489955D01*
X176360000Y-104212132D01*
X175082177Y-105489955D01*
X167976463Y-105489955D01*
X168102247Y-105364171D01*
X168336444Y-105013670D01*
X168497761Y-104624215D01*
X168580000Y-104210772D01*
X168580000Y-104065666D01*
X174210647Y-104065666D01*
X174264757Y-104483723D01*
X174399386Y-104883190D01*
X174536396Y-105139516D01*
X174870045Y-105277823D01*
X176147868Y-104000000D01*
X176572132Y-104000000D01*
X177849955Y-105277823D01*
X178183604Y-105139516D01*
X178370872Y-104761853D01*
X178480864Y-104354913D01*
X178509353Y-103934334D01*
X178455243Y-103516277D01*
X178320614Y-103116810D01*
X178183604Y-102860484D01*
X177849955Y-102722177D01*
X176572132Y-104000000D01*
X176147868Y-104000000D01*
X174870045Y-102722177D01*
X174536396Y-102860484D01*
X174349128Y-103238147D01*
X174239136Y-103645087D01*
X174210647Y-104065666D01*
X168580000Y-104065666D01*
X168580000Y-103789228D01*
X168497761Y-103375785D01*
X168336444Y-102986330D01*
X168102247Y-102635829D01*
X167804171Y-102337753D01*
X167747670Y-102300000D01*
X167804171Y-102262247D01*
X167976463Y-102089955D01*
X175082177Y-102089955D01*
X175169247Y-102300000D01*
X175082177Y-102510045D01*
X176360000Y-103787868D01*
X177637823Y-102510045D01*
X177550753Y-102300000D01*
X177637823Y-102089955D01*
X176360000Y-100812132D01*
X175082177Y-102089955D01*
X167976463Y-102089955D01*
X168102247Y-101964171D01*
X168336444Y-101613670D01*
X168497761Y-101224215D01*
X168580000Y-100810772D01*
X168580000Y-100665666D01*
X174210647Y-100665666D01*
X174264757Y-101083723D01*
X174399386Y-101483190D01*
X174536396Y-101739516D01*
X174870045Y-101877823D01*
X176147868Y-100600000D01*
X176572132Y-100600000D01*
X177849955Y-101877823D01*
X178183604Y-101739516D01*
X178370872Y-101361853D01*
X178480864Y-100954913D01*
X178509353Y-100534334D01*
X178455243Y-100116277D01*
X178320614Y-99716810D01*
X178183604Y-99460484D01*
X177849955Y-99322177D01*
X176572132Y-100600000D01*
X176147868Y-100600000D01*
X174870045Y-99322177D01*
X174536396Y-99460484D01*
X174349128Y-99838147D01*
X174239136Y-100245087D01*
X174210647Y-100665666D01*
X168580000Y-100665666D01*
X168580000Y-100389228D01*
X168497761Y-99975785D01*
X168336444Y-99586330D01*
X168102247Y-99235829D01*
X167976463Y-99110045D01*
X175082177Y-99110045D01*
X176360000Y-100387868D01*
X177637823Y-99110045D01*
X177499516Y-98776396D01*
X177121853Y-98589128D01*
X176714913Y-98479136D01*
X176294334Y-98450647D01*
X175876277Y-98504757D01*
X175476810Y-98639386D01*
X175220484Y-98776396D01*
X175082177Y-99110045D01*
X167976463Y-99110045D01*
X167804171Y-98937753D01*
X167453670Y-98703556D01*
X167350000Y-98660615D01*
X167350000Y-95939385D01*
X167453670Y-95896444D01*
X167804171Y-95662247D01*
X167976463Y-95489955D01*
X175082177Y-95489955D01*
X175220484Y-95823604D01*
X175598147Y-96010872D01*
X176005087Y-96120864D01*
X176425666Y-96149353D01*
X176843723Y-96095243D01*
X177243190Y-95960614D01*
X177499516Y-95823604D01*
X177637823Y-95489955D01*
X176360000Y-94212132D01*
X175082177Y-95489955D01*
X167976463Y-95489955D01*
X168102247Y-95364171D01*
X168336444Y-95013670D01*
X168497761Y-94624215D01*
X168580000Y-94210772D01*
X168580000Y-94065666D01*
X174210647Y-94065666D01*
X174264757Y-94483723D01*
X174399386Y-94883190D01*
X174536396Y-95139516D01*
X174870045Y-95277823D01*
X176147868Y-94000000D01*
X176572132Y-94000000D01*
X177849955Y-95277823D01*
X178183604Y-95139516D01*
X178370872Y-94761853D01*
X178480864Y-94354913D01*
X178509353Y-93934334D01*
X178455243Y-93516277D01*
X178320614Y-93116810D01*
X178183604Y-92860484D01*
X177849955Y-92722177D01*
X176572132Y-94000000D01*
X176147868Y-94000000D01*
X174870045Y-92722177D01*
X174536396Y-92860484D01*
X174349128Y-93238147D01*
X174239136Y-93645087D01*
X174210647Y-94065666D01*
X168580000Y-94065666D01*
X168580000Y-93789228D01*
X168497761Y-93375785D01*
X168336444Y-92986330D01*
X168102247Y-92635829D01*
X167804171Y-92337753D01*
X167747670Y-92300000D01*
X167804171Y-92262247D01*
X167976463Y-92089955D01*
X175082177Y-92089955D01*
X175169247Y-92300000D01*
X175082177Y-92510045D01*
X176360000Y-93787868D01*
X177637823Y-92510045D01*
X177550753Y-92300000D01*
X177637823Y-92089955D01*
X176360000Y-90812132D01*
X175082177Y-92089955D01*
X167976463Y-92089955D01*
X168102247Y-91964171D01*
X168336444Y-91613670D01*
X168497761Y-91224215D01*
X168580000Y-90810772D01*
X168580000Y-90665666D01*
X174210647Y-90665666D01*
X174264757Y-91083723D01*
X174399386Y-91483190D01*
X174536396Y-91739516D01*
X174870045Y-91877823D01*
X176147868Y-90600000D01*
X176572132Y-90600000D01*
X177849955Y-91877823D01*
X178183604Y-91739516D01*
X178370872Y-91361853D01*
X178480864Y-90954913D01*
X178509353Y-90534334D01*
X178455243Y-90116277D01*
X178320614Y-89716810D01*
X178183604Y-89460484D01*
X177849955Y-89322177D01*
X176572132Y-90600000D01*
X176147868Y-90600000D01*
X174870045Y-89322177D01*
X174536396Y-89460484D01*
X174349128Y-89838147D01*
X174239136Y-90245087D01*
X174210647Y-90665666D01*
X168580000Y-90665666D01*
X168580000Y-90389228D01*
X168497761Y-89975785D01*
X168336444Y-89586330D01*
X168102247Y-89235829D01*
X167976463Y-89110045D01*
X175082177Y-89110045D01*
X176360000Y-90387868D01*
X177637823Y-89110045D01*
X177499516Y-88776396D01*
X177121853Y-88589128D01*
X176714913Y-88479136D01*
X176294334Y-88450647D01*
X175876277Y-88504757D01*
X175476810Y-88639386D01*
X175220484Y-88776396D01*
X175082177Y-89110045D01*
X167976463Y-89110045D01*
X167804171Y-88937753D01*
X167453670Y-88703556D01*
X167350000Y-88660615D01*
X167350000Y-85939385D01*
X167453670Y-85896444D01*
X167804171Y-85662247D01*
X167976463Y-85489955D01*
X175082177Y-85489955D01*
X175220484Y-85823604D01*
X175598147Y-86010872D01*
X176005087Y-86120864D01*
X176425666Y-86149353D01*
X176843723Y-86095243D01*
X177243190Y-85960614D01*
X177499516Y-85823604D01*
X177637823Y-85489955D01*
X176360000Y-84212132D01*
X175082177Y-85489955D01*
X167976463Y-85489955D01*
X168102247Y-85364171D01*
X168336444Y-85013670D01*
X168497761Y-84624215D01*
X168580000Y-84210772D01*
X168580000Y-84065666D01*
X174210647Y-84065666D01*
X174264757Y-84483723D01*
X174399386Y-84883190D01*
X174536396Y-85139516D01*
X174870045Y-85277823D01*
X176147868Y-84000000D01*
X176572132Y-84000000D01*
X177849955Y-85277823D01*
X178183604Y-85139516D01*
X178370872Y-84761853D01*
X178480864Y-84354913D01*
X178509353Y-83934334D01*
X178455243Y-83516277D01*
X178320614Y-83116810D01*
X178183604Y-82860484D01*
X177849955Y-82722177D01*
X176572132Y-84000000D01*
X176147868Y-84000000D01*
X174870045Y-82722177D01*
X174536396Y-82860484D01*
X174349128Y-83238147D01*
X174239136Y-83645087D01*
X174210647Y-84065666D01*
X168580000Y-84065666D01*
X168580000Y-83789228D01*
X168497761Y-83375785D01*
X168336444Y-82986330D01*
X168102247Y-82635829D01*
X167804171Y-82337753D01*
X167747670Y-82300000D01*
X167804171Y-82262247D01*
X167976463Y-82089955D01*
X175082177Y-82089955D01*
X175169247Y-82300000D01*
X175082177Y-82510045D01*
X176360000Y-83787868D01*
X177637823Y-82510045D01*
X177550753Y-82300000D01*
X177637823Y-82089955D01*
X176360000Y-80812132D01*
X175082177Y-82089955D01*
X167976463Y-82089955D01*
X168102247Y-81964171D01*
X168336444Y-81613670D01*
X168497761Y-81224215D01*
X168580000Y-80810772D01*
X168580000Y-80665666D01*
X174210647Y-80665666D01*
X174264757Y-81083723D01*
X174399386Y-81483190D01*
X174536396Y-81739516D01*
X174870045Y-81877823D01*
X176147868Y-80600000D01*
X176572132Y-80600000D01*
X177849955Y-81877823D01*
X178183604Y-81739516D01*
X178370872Y-81361853D01*
X178480864Y-80954913D01*
X178509353Y-80534334D01*
X178455243Y-80116277D01*
X178344778Y-79788508D01*
X180452690Y-79788508D01*
X180452690Y-80211492D01*
X180535210Y-80626347D01*
X180697078Y-81017133D01*
X180932075Y-81368830D01*
X181231170Y-81667925D01*
X181582867Y-81902922D01*
X181973653Y-82064790D01*
X182388508Y-82147310D01*
X182811492Y-82147310D01*
X183226347Y-82064790D01*
X183617133Y-81902922D01*
X183968830Y-81667925D01*
X184267925Y-81368830D01*
X184502922Y-81017133D01*
X184664790Y-80626347D01*
X184747310Y-80211492D01*
X184747310Y-79788508D01*
X184664790Y-79373653D01*
X184502922Y-78982867D01*
X184267925Y-78631170D01*
X183968830Y-78332075D01*
X183617133Y-78097078D01*
X183226347Y-77935210D01*
X182811492Y-77852690D01*
X182388508Y-77852690D01*
X181973653Y-77935210D01*
X181582867Y-78097078D01*
X181231170Y-78332075D01*
X180932075Y-78631170D01*
X180697078Y-78982867D01*
X180535210Y-79373653D01*
X180452690Y-79788508D01*
X178344778Y-79788508D01*
X178320614Y-79716810D01*
X178183604Y-79460484D01*
X177849955Y-79322177D01*
X176572132Y-80600000D01*
X176147868Y-80600000D01*
X174870045Y-79322177D01*
X174536396Y-79460484D01*
X174349128Y-79838147D01*
X174239136Y-80245087D01*
X174210647Y-80665666D01*
X168580000Y-80665666D01*
X168580000Y-80389228D01*
X168497761Y-79975785D01*
X168336444Y-79586330D01*
X168102247Y-79235829D01*
X167976463Y-79110045D01*
X175082177Y-79110045D01*
X176360000Y-80387868D01*
X177637823Y-79110045D01*
X177499516Y-78776396D01*
X177121853Y-78589128D01*
X176714913Y-78479136D01*
X176294334Y-78450647D01*
X175876277Y-78504757D01*
X175476810Y-78639386D01*
X175220484Y-78776396D01*
X175082177Y-79110045D01*
X167976463Y-79110045D01*
X167804171Y-78937753D01*
X167453670Y-78703556D01*
X167350000Y-78660615D01*
X167350000Y-77762700D01*
X182562696Y-77762700D01*
X183033849Y-77808897D01*
X183451179Y-77934896D01*
X183836080Y-78139552D01*
X184173901Y-78415073D01*
X184451775Y-78750964D01*
X184659111Y-79134426D01*
X184788021Y-79550862D01*
X184837300Y-80019723D01*
X184837301Y-130962686D01*
X184791103Y-131433849D01*
X184665104Y-131851177D01*
X184460450Y-132236077D01*
X184184926Y-132573903D01*
X183849036Y-132851775D01*
X183465574Y-133059111D01*
X183049135Y-133188021D01*
X182580277Y-133237300D01*
X72521532Y-133237300D01*
X72486389Y-133229830D01*
X72475627Y-133228699D01*
X71968553Y-133178980D01*
X71553535Y-133053679D01*
X71170757Y-132850152D01*
X70834809Y-132576159D01*
X70558471Y-132242124D01*
X70352282Y-131860784D01*
X70224085Y-131446650D01*
X70170827Y-130939935D01*
X70167544Y-130923942D01*
X70162700Y-130876247D01*
X70162700Y-130788508D01*
X70252690Y-130788508D01*
X70252690Y-131211492D01*
X70335210Y-131626347D01*
X70497078Y-132017133D01*
X70732075Y-132368830D01*
X71031170Y-132667925D01*
X71382867Y-132902922D01*
X71773653Y-133064790D01*
X72188508Y-133147310D01*
X72611492Y-133147310D01*
X73026347Y-133064790D01*
X73417133Y-132902922D01*
X73768830Y-132667925D01*
X74067925Y-132368830D01*
X74302922Y-132017133D01*
X74464790Y-131626347D01*
X74547310Y-131211492D01*
X74547310Y-130788508D01*
X74476938Y-130434721D01*
X90777411Y-130434721D01*
X90906374Y-130760442D01*
X91270833Y-130939971D01*
X91663313Y-131044949D01*
X92068732Y-131071341D01*
X92471510Y-131018131D01*
X92856168Y-130887366D01*
X93093626Y-130760442D01*
X93222589Y-130434721D01*
X92000000Y-129212132D01*
X90777411Y-130434721D01*
X74476938Y-130434721D01*
X74464790Y-130373653D01*
X74302922Y-129982867D01*
X74067925Y-129631170D01*
X73768830Y-129332075D01*
X73417133Y-129097078D01*
X73348700Y-129068732D01*
X89928659Y-129068732D01*
X89981869Y-129471510D01*
X90112634Y-129856168D01*
X90239558Y-130093626D01*
X90565279Y-130222589D01*
X91787868Y-129000000D01*
X90565279Y-127777411D01*
X90239558Y-127906374D01*
X90060029Y-128270833D01*
X89955051Y-128663313D01*
X89928659Y-129068732D01*
X73348700Y-129068732D01*
X73026347Y-128935210D01*
X72611492Y-128852690D01*
X72188508Y-128852690D01*
X71773653Y-128935210D01*
X71382867Y-129097078D01*
X71031170Y-129332075D01*
X70732075Y-129631170D01*
X70497078Y-129982867D01*
X70335210Y-130373653D01*
X70252690Y-130788508D01*
X70162700Y-130788508D01*
X70162700Y-125285781D01*
X83325000Y-125285781D01*
X83325000Y-125714219D01*
X83408584Y-126134424D01*
X83572540Y-126530249D01*
X83810567Y-126886482D01*
X84113518Y-127189433D01*
X84469751Y-127427460D01*
X84865576Y-127591416D01*
X85285781Y-127675000D01*
X85714219Y-127675000D01*
X86134424Y-127591416D01*
X86530249Y-127427460D01*
X86886482Y-127189433D01*
X87189433Y-126886482D01*
X87427460Y-126530249D01*
X87591416Y-126134424D01*
X87675000Y-125714219D01*
X87675000Y-125285781D01*
X87591416Y-124865576D01*
X87427460Y-124469751D01*
X87189433Y-124113518D01*
X86886482Y-123810567D01*
X86530249Y-123572540D01*
X86134424Y-123408584D01*
X85714219Y-123325000D01*
X85285781Y-123325000D01*
X84865576Y-123408584D01*
X84469751Y-123572540D01*
X84113518Y-123810567D01*
X83810567Y-124113518D01*
X83572540Y-124469751D01*
X83408584Y-124865576D01*
X83325000Y-125285781D01*
X70162700Y-125285781D01*
X70162700Y-115489955D01*
X77362177Y-115489955D01*
X77500484Y-115823604D01*
X77878147Y-116010872D01*
X78285087Y-116120864D01*
X78705666Y-116149353D01*
X79123723Y-116095243D01*
X79523190Y-115960614D01*
X79779516Y-115823604D01*
X79917823Y-115489955D01*
X78640000Y-114212132D01*
X77362177Y-115489955D01*
X70162700Y-115489955D01*
X70162700Y-114065666D01*
X76490647Y-114065666D01*
X76544757Y-114483723D01*
X76679386Y-114883190D01*
X76816396Y-115139516D01*
X77150045Y-115277823D01*
X78427868Y-114000000D01*
X78852132Y-114000000D01*
X80129955Y-115277823D01*
X80463604Y-115139516D01*
X80650872Y-114761853D01*
X80760864Y-114354913D01*
X80789353Y-113934334D01*
X80735243Y-113516277D01*
X80600614Y-113116810D01*
X80463604Y-112860484D01*
X80129955Y-112722177D01*
X78852132Y-114000000D01*
X78427868Y-114000000D01*
X77150045Y-112722177D01*
X76816396Y-112860484D01*
X76629128Y-113238147D01*
X76519136Y-113645087D01*
X76490647Y-114065666D01*
X70162700Y-114065666D01*
X70162700Y-112089955D01*
X77362177Y-112089955D01*
X77449247Y-112300000D01*
X77362177Y-112510045D01*
X78640000Y-113787868D01*
X79917823Y-112510045D01*
X79830753Y-112300000D01*
X79917823Y-112089955D01*
X78640000Y-110812132D01*
X77362177Y-112089955D01*
X70162700Y-112089955D01*
X70162700Y-110665666D01*
X76490647Y-110665666D01*
X76544757Y-111083723D01*
X76679386Y-111483190D01*
X76816396Y-111739516D01*
X77150045Y-111877823D01*
X78427868Y-110600000D01*
X78852132Y-110600000D01*
X80129955Y-111877823D01*
X80463604Y-111739516D01*
X80650872Y-111361853D01*
X80760864Y-110954913D01*
X80789353Y-110534334D01*
X80735243Y-110116277D01*
X80600614Y-109716810D01*
X80463604Y-109460484D01*
X80129955Y-109322177D01*
X78852132Y-110600000D01*
X78427868Y-110600000D01*
X77150045Y-109322177D01*
X76816396Y-109460484D01*
X76629128Y-109838147D01*
X76519136Y-110245087D01*
X76490647Y-110665666D01*
X70162700Y-110665666D01*
X70162700Y-109110045D01*
X77362177Y-109110045D01*
X78640000Y-110387868D01*
X79917823Y-109110045D01*
X79779516Y-108776396D01*
X79401853Y-108589128D01*
X78994913Y-108479136D01*
X78574334Y-108450647D01*
X78156277Y-108504757D01*
X77756810Y-108639386D01*
X77500484Y-108776396D01*
X77362177Y-109110045D01*
X70162700Y-109110045D01*
X70162700Y-105489955D01*
X77362177Y-105489955D01*
X77500484Y-105823604D01*
X77878147Y-106010872D01*
X78285087Y-106120864D01*
X78705666Y-106149353D01*
X79123723Y-106095243D01*
X79523190Y-105960614D01*
X79779516Y-105823604D01*
X79917823Y-105489955D01*
X78640000Y-104212132D01*
X77362177Y-105489955D01*
X70162700Y-105489955D01*
X70162700Y-104065666D01*
X76490647Y-104065666D01*
X76544757Y-104483723D01*
X76679386Y-104883190D01*
X76816396Y-105139516D01*
X77150045Y-105277823D01*
X78427868Y-104000000D01*
X78852132Y-104000000D01*
X80129955Y-105277823D01*
X80463604Y-105139516D01*
X80650872Y-104761853D01*
X80760864Y-104354913D01*
X80789353Y-103934334D01*
X80735243Y-103516277D01*
X80600614Y-103116810D01*
X80463604Y-102860484D01*
X80129955Y-102722177D01*
X78852132Y-104000000D01*
X78427868Y-104000000D01*
X77150045Y-102722177D01*
X76816396Y-102860484D01*
X76629128Y-103238147D01*
X76519136Y-103645087D01*
X76490647Y-104065666D01*
X70162700Y-104065666D01*
X70162700Y-102089955D01*
X77362177Y-102089955D01*
X77449247Y-102300000D01*
X77362177Y-102510045D01*
X78640000Y-103787868D01*
X79917823Y-102510045D01*
X79830753Y-102300000D01*
X79917823Y-102089955D01*
X78640000Y-100812132D01*
X77362177Y-102089955D01*
X70162700Y-102089955D01*
X70162700Y-100665666D01*
X76490647Y-100665666D01*
X76544757Y-101083723D01*
X76679386Y-101483190D01*
X76816396Y-101739516D01*
X77150045Y-101877823D01*
X78427868Y-100600000D01*
X78852132Y-100600000D01*
X80129955Y-101877823D01*
X80463604Y-101739516D01*
X80650872Y-101361853D01*
X80760864Y-100954913D01*
X80789353Y-100534334D01*
X80735243Y-100116277D01*
X80600614Y-99716810D01*
X80463604Y-99460484D01*
X80129955Y-99322177D01*
X78852132Y-100600000D01*
X78427868Y-100600000D01*
X77150045Y-99322177D01*
X76816396Y-99460484D01*
X76629128Y-99838147D01*
X76519136Y-100245087D01*
X76490647Y-100665666D01*
X70162700Y-100665666D01*
X70162700Y-99110045D01*
X77362177Y-99110045D01*
X78640000Y-100387868D01*
X79917823Y-99110045D01*
X79779516Y-98776396D01*
X79401853Y-98589128D01*
X78994913Y-98479136D01*
X78574334Y-98450647D01*
X78156277Y-98504757D01*
X77756810Y-98639386D01*
X77500484Y-98776396D01*
X77362177Y-99110045D01*
X70162700Y-99110045D01*
X70162700Y-95489955D01*
X77362177Y-95489955D01*
X77500484Y-95823604D01*
X77878147Y-96010872D01*
X78285087Y-96120864D01*
X78705666Y-96149353D01*
X79123723Y-96095243D01*
X79523190Y-95960614D01*
X79779516Y-95823604D01*
X79917823Y-95489955D01*
X78640000Y-94212132D01*
X77362177Y-95489955D01*
X70162700Y-95489955D01*
X70162700Y-94065666D01*
X76490647Y-94065666D01*
X76544757Y-94483723D01*
X76679386Y-94883190D01*
X76816396Y-95139516D01*
X77150045Y-95277823D01*
X78427868Y-94000000D01*
X78852132Y-94000000D01*
X80129955Y-95277823D01*
X80463604Y-95139516D01*
X80650872Y-94761853D01*
X80760864Y-94354913D01*
X80789353Y-93934334D01*
X80735243Y-93516277D01*
X80600614Y-93116810D01*
X80463604Y-92860484D01*
X80129955Y-92722177D01*
X78852132Y-94000000D01*
X78427868Y-94000000D01*
X77150045Y-92722177D01*
X76816396Y-92860484D01*
X76629128Y-93238147D01*
X76519136Y-93645087D01*
X76490647Y-94065666D01*
X70162700Y-94065666D01*
X70162700Y-92089955D01*
X77362177Y-92089955D01*
X77449247Y-92300000D01*
X77362177Y-92510045D01*
X78640000Y-93787868D01*
X79917823Y-92510045D01*
X79830753Y-92300000D01*
X79917823Y-92089955D01*
X78640000Y-90812132D01*
X77362177Y-92089955D01*
X70162700Y-92089955D01*
X70162700Y-90665666D01*
X76490647Y-90665666D01*
X76544757Y-91083723D01*
X76679386Y-91483190D01*
X76816396Y-91739516D01*
X77150045Y-91877823D01*
X78427868Y-90600000D01*
X78852132Y-90600000D01*
X80129955Y-91877823D01*
X80463604Y-91739516D01*
X80650872Y-91361853D01*
X80760864Y-90954913D01*
X80789353Y-90534334D01*
X80735243Y-90116277D01*
X80600614Y-89716810D01*
X80463604Y-89460484D01*
X80129955Y-89322177D01*
X78852132Y-90600000D01*
X78427868Y-90600000D01*
X77150045Y-89322177D01*
X76816396Y-89460484D01*
X76629128Y-89838147D01*
X76519136Y-90245087D01*
X76490647Y-90665666D01*
X70162700Y-90665666D01*
X70162700Y-89110045D01*
X77362177Y-89110045D01*
X78640000Y-90387868D01*
X79917823Y-89110045D01*
X79779516Y-88776396D01*
X79401853Y-88589128D01*
X78994913Y-88479136D01*
X78574334Y-88450647D01*
X78156277Y-88504757D01*
X77756810Y-88639386D01*
X77500484Y-88776396D01*
X77362177Y-89110045D01*
X70162700Y-89110045D01*
X70162700Y-85489955D01*
X77362177Y-85489955D01*
X77500484Y-85823604D01*
X77878147Y-86010872D01*
X78285087Y-86120864D01*
X78705666Y-86149353D01*
X79123723Y-86095243D01*
X79523190Y-85960614D01*
X79779516Y-85823604D01*
X79917823Y-85489955D01*
X78640000Y-84212132D01*
X77362177Y-85489955D01*
X70162700Y-85489955D01*
X70162700Y-84065666D01*
X76490647Y-84065666D01*
X76544757Y-84483723D01*
X76679386Y-84883190D01*
X76816396Y-85139516D01*
X77150045Y-85277823D01*
X78427868Y-84000000D01*
X78852132Y-84000000D01*
X80129955Y-85277823D01*
X80463604Y-85139516D01*
X80650872Y-84761853D01*
X80760864Y-84354913D01*
X80789353Y-83934334D01*
X80735243Y-83516277D01*
X80600614Y-83116810D01*
X80463604Y-82860484D01*
X80129955Y-82722177D01*
X78852132Y-84000000D01*
X78427868Y-84000000D01*
X77150045Y-82722177D01*
X76816396Y-82860484D01*
X76629128Y-83238147D01*
X76519136Y-83645087D01*
X76490647Y-84065666D01*
X70162700Y-84065666D01*
X70162700Y-80037304D01*
X70187094Y-79788508D01*
X70252690Y-79788508D01*
X70252690Y-80211492D01*
X70335210Y-80626347D01*
X70497078Y-81017133D01*
X70732075Y-81368830D01*
X71031170Y-81667925D01*
X71382867Y-81902922D01*
X71773653Y-82064790D01*
X72188508Y-82147310D01*
X72611492Y-82147310D01*
X72899834Y-82089955D01*
X77362177Y-82089955D01*
X77449247Y-82300000D01*
X77362177Y-82510045D01*
X78640000Y-83787868D01*
X79917823Y-82510045D01*
X79830753Y-82300000D01*
X79917823Y-82089955D01*
X78640000Y-80812132D01*
X77362177Y-82089955D01*
X72899834Y-82089955D01*
X73026347Y-82064790D01*
X73417133Y-81902922D01*
X73768830Y-81667925D01*
X74067925Y-81368830D01*
X74302922Y-81017133D01*
X74448503Y-80665666D01*
X76490647Y-80665666D01*
X76544757Y-81083723D01*
X76679386Y-81483190D01*
X76816396Y-81739516D01*
X77150045Y-81877823D01*
X78427868Y-80600000D01*
X78852132Y-80600000D01*
X80129955Y-81877823D01*
X80463604Y-81739516D01*
X80650872Y-81361853D01*
X80760864Y-80954913D01*
X80789353Y-80534334D01*
X80735243Y-80116277D01*
X80600614Y-79716810D01*
X80463604Y-79460484D01*
X80129955Y-79322177D01*
X78852132Y-80600000D01*
X78427868Y-80600000D01*
X77150045Y-79322177D01*
X76816396Y-79460484D01*
X76629128Y-79838147D01*
X76519136Y-80245087D01*
X76490647Y-80665666D01*
X74448503Y-80665666D01*
X74464790Y-80626347D01*
X74547310Y-80211492D01*
X74547310Y-79788508D01*
X74464790Y-79373653D01*
X74355601Y-79110045D01*
X77362177Y-79110045D01*
X78640000Y-80387868D01*
X79917823Y-79110045D01*
X79779516Y-78776396D01*
X79401853Y-78589128D01*
X78994913Y-78479136D01*
X78574334Y-78450647D01*
X78156277Y-78504757D01*
X77756810Y-78639386D01*
X77500484Y-78776396D01*
X77362177Y-79110045D01*
X74355601Y-79110045D01*
X74302922Y-78982867D01*
X74067925Y-78631170D01*
X73768830Y-78332075D01*
X73417133Y-78097078D01*
X73026347Y-77935210D01*
X72611492Y-77852690D01*
X72188508Y-77852690D01*
X71773653Y-77935210D01*
X71382867Y-78097078D01*
X71031170Y-78332075D01*
X70732075Y-78631170D01*
X70497078Y-78982867D01*
X70335210Y-79373653D01*
X70252690Y-79788508D01*
X70187094Y-79788508D01*
X70208897Y-79566151D01*
X70334896Y-79148821D01*
X70539552Y-78763920D01*
X70815073Y-78426099D01*
X71150964Y-78148225D01*
X71534426Y-77940889D01*
X71950862Y-77811979D01*
X72419723Y-77762700D01*
X96450000Y-77762700D01*
X96450000Y-81081586D01*
%TA.AperFunction,Conductor*%
D23*
G36*
X96450000Y-81081586D02*
G01*
X96370000Y-81483772D01*
X96370000Y-81976228D01*
X96450000Y-82378414D01*
X96450000Y-106937968D01*
X96376036Y-107011932D01*
X96206408Y-107265800D01*
X96089565Y-107547882D01*
X96030000Y-107847338D01*
X96030000Y-108152662D01*
X96089565Y-108452118D01*
X96206408Y-108734200D01*
X96376036Y-108988068D01*
X96450000Y-109062032D01*
X96450000Y-109477968D01*
X96376036Y-109551932D01*
X96206408Y-109805800D01*
X96089565Y-110087882D01*
X96030000Y-110387338D01*
X96030000Y-110692662D01*
X96058851Y-110837708D01*
X92362021Y-114608474D01*
X92362021Y-103675000D01*
X95046371Y-103675000D01*
X95060852Y-103822026D01*
X95103738Y-103963401D01*
X95173380Y-104093694D01*
X95267104Y-104207896D01*
X95381306Y-104301620D01*
X95511599Y-104371262D01*
X95652974Y-104414148D01*
X95800000Y-104428629D01*
X96000000Y-104425000D01*
X96187500Y-104237500D01*
X96187500Y-103350000D01*
X95237500Y-103350000D01*
X95050000Y-103537500D01*
X95046371Y-103675000D01*
X92362021Y-103675000D01*
X92362021Y-102725000D01*
X95046371Y-102725000D01*
X95050000Y-102862500D01*
X95237500Y-103050000D01*
X96187500Y-103050000D01*
X96187500Y-102162500D01*
X96000000Y-101975000D01*
X95800000Y-101971371D01*
X95652974Y-101985852D01*
X95511599Y-102028738D01*
X95381306Y-102098380D01*
X95267104Y-102192104D01*
X95173380Y-102306306D01*
X95103738Y-102436599D01*
X95060852Y-102577974D01*
X95046371Y-102725000D01*
X92362021Y-102725000D01*
X92362021Y-99390000D01*
X94623871Y-99390000D01*
X94638352Y-99537026D01*
X94681238Y-99678401D01*
X94750880Y-99808694D01*
X94844604Y-99922896D01*
X94958806Y-100016620D01*
X95089099Y-100086262D01*
X95230474Y-100129148D01*
X95377500Y-100143629D01*
X95992500Y-100140000D01*
X96180000Y-99952500D01*
X96180000Y-98540000D01*
X94815000Y-98540000D01*
X94627500Y-98727500D01*
X94623871Y-99390000D01*
X92362021Y-99390000D01*
X92362021Y-97390000D01*
X94623871Y-97390000D01*
X94627500Y-98052500D01*
X94815000Y-98240000D01*
X96180000Y-98240000D01*
X96180000Y-96827500D01*
X95992500Y-96640000D01*
X95377500Y-96636371D01*
X95230474Y-96650852D01*
X95089099Y-96693738D01*
X94958806Y-96763380D01*
X94844604Y-96857104D01*
X94750880Y-96971306D01*
X94681238Y-97101599D01*
X94638352Y-97242974D01*
X94623871Y-97390000D01*
X92362021Y-97390000D01*
X92362021Y-86946217D01*
X92366374Y-86902020D01*
X92362021Y-86857823D01*
X92362021Y-86857814D01*
X92348998Y-86725590D01*
X92297535Y-86555940D01*
X92213964Y-86399589D01*
X92101496Y-86262546D01*
X92067156Y-86234364D01*
X90570677Y-84737885D01*
X90617761Y-84624215D01*
X90700000Y-84210772D01*
X90700000Y-83789228D01*
X90617761Y-83375785D01*
X90456444Y-82986330D01*
X90222247Y-82635829D01*
X89924171Y-82337753D01*
X89867670Y-82300000D01*
X89924171Y-82262247D01*
X90222247Y-81964171D01*
X90456444Y-81613670D01*
X90617761Y-81224215D01*
X90700000Y-80810772D01*
X90700000Y-80389228D01*
X90617761Y-79975785D01*
X90456444Y-79586330D01*
X90222247Y-79235829D01*
X89924171Y-78937753D01*
X89573670Y-78703556D01*
X89184215Y-78542239D01*
X88770772Y-78460000D01*
X88349228Y-78460000D01*
X87935785Y-78542239D01*
X87546330Y-78703556D01*
X87195829Y-78937753D01*
X86897753Y-79235829D01*
X86663556Y-79586330D01*
X86502239Y-79975785D01*
X86420000Y-80389228D01*
X86420000Y-80810772D01*
X86502239Y-81224215D01*
X86663556Y-81613670D01*
X86897753Y-81964171D01*
X87195829Y-82262247D01*
X87252330Y-82300000D01*
X87195829Y-82337753D01*
X86897753Y-82635829D01*
X86663556Y-82986330D01*
X86502239Y-83375785D01*
X86420000Y-83789228D01*
X86420000Y-84210772D01*
X86502239Y-84624215D01*
X86663556Y-85013670D01*
X86897753Y-85364171D01*
X87195829Y-85662247D01*
X87546330Y-85896444D01*
X87935785Y-86057761D01*
X88349228Y-86140000D01*
X88770772Y-86140000D01*
X89184215Y-86057761D01*
X89297885Y-86010677D01*
X90562022Y-87274814D01*
X90562022Y-89841218D01*
X90456444Y-89586330D01*
X90222247Y-89235829D01*
X89924171Y-88937753D01*
X89573670Y-88703556D01*
X89184215Y-88542239D01*
X88770772Y-88460000D01*
X88349228Y-88460000D01*
X87935785Y-88542239D01*
X87546330Y-88703556D01*
X87195829Y-88937753D01*
X86897753Y-89235829D01*
X86663556Y-89586330D01*
X86502239Y-89975785D01*
X86420000Y-90389228D01*
X86420000Y-90810772D01*
X86502239Y-91224215D01*
X86663556Y-91613670D01*
X86897753Y-91964171D01*
X87195829Y-92262247D01*
X87252330Y-92300000D01*
X87195829Y-92337753D01*
X86897753Y-92635829D01*
X86663556Y-92986330D01*
X86502239Y-93375785D01*
X86420000Y-93789228D01*
X86420000Y-94210772D01*
X86502239Y-94624215D01*
X86663556Y-95013670D01*
X86897753Y-95364171D01*
X87195829Y-95662247D01*
X87546330Y-95896444D01*
X87935785Y-96057761D01*
X88349228Y-96140000D01*
X88770772Y-96140000D01*
X89184215Y-96057761D01*
X89297885Y-96010678D01*
X90008012Y-96720805D01*
X90008012Y-99021594D01*
X89924171Y-98937753D01*
X89573670Y-98703556D01*
X89184215Y-98542239D01*
X88770772Y-98460000D01*
X88349228Y-98460000D01*
X87935785Y-98542239D01*
X87546330Y-98703556D01*
X87195829Y-98937753D01*
X86897753Y-99235829D01*
X86663556Y-99586330D01*
X86502239Y-99975785D01*
X86420000Y-100389228D01*
X86420000Y-100810772D01*
X86502239Y-101224215D01*
X86663556Y-101613670D01*
X86897753Y-101964171D01*
X87195829Y-102262247D01*
X87252330Y-102300000D01*
X87195829Y-102337753D01*
X86897753Y-102635829D01*
X86663556Y-102986330D01*
X86502239Y-103375785D01*
X86420000Y-103789228D01*
X86420000Y-104210772D01*
X86502239Y-104624215D01*
X86663556Y-105013670D01*
X86897753Y-105364171D01*
X87195829Y-105662247D01*
X87546330Y-105896444D01*
X87935785Y-106057761D01*
X88349228Y-106140000D01*
X88770772Y-106140000D01*
X89184215Y-106057761D01*
X89297885Y-106010677D01*
X89454002Y-106166794D01*
X89454002Y-108653988D01*
X89184215Y-108542239D01*
X88770772Y-108460000D01*
X88349228Y-108460000D01*
X87935785Y-108542239D01*
X87546330Y-108703556D01*
X87195829Y-108937753D01*
X86897753Y-109235829D01*
X86663556Y-109586330D01*
X86502239Y-109975785D01*
X86420000Y-110389228D01*
X86420000Y-110810772D01*
X86502239Y-111224215D01*
X86663556Y-111613670D01*
X86897753Y-111964171D01*
X87195829Y-112262247D01*
X87252330Y-112300000D01*
X87195829Y-112337753D01*
X86897753Y-112635829D01*
X86663556Y-112986330D01*
X86502239Y-113375785D01*
X86420000Y-113789228D01*
X86420000Y-114210772D01*
X86502239Y-114624215D01*
X86663556Y-115013670D01*
X86897753Y-115364171D01*
X87195829Y-115662247D01*
X87546330Y-115896444D01*
X87660001Y-115943528D01*
X87660000Y-123715793D01*
X87660000Y-123746730D01*
X87655646Y-123790936D01*
X87668651Y-123922973D01*
X87673023Y-123967366D01*
X87724486Y-124137016D01*
X87808057Y-124293367D01*
X87920525Y-124430411D01*
X87954865Y-124458593D01*
X90858002Y-127361730D01*
X90777411Y-127565279D01*
X92000000Y-128787868D01*
X92014143Y-128773726D01*
X92226275Y-128985858D01*
X92212132Y-129000000D01*
X93434721Y-130222589D01*
X93760442Y-130093626D01*
X93939971Y-129729167D01*
X93998561Y-129510117D01*
X94016760Y-129601609D01*
X94172236Y-129976960D01*
X94397951Y-130314767D01*
X94685233Y-130602049D01*
X95023040Y-130827764D01*
X95398391Y-130983240D01*
X95796861Y-131062500D01*
X96203139Y-131062500D01*
X96601609Y-130983240D01*
X96976960Y-130827764D01*
X97314767Y-130602049D01*
X97602049Y-130314767D01*
X97827764Y-129976960D01*
X97983240Y-129601609D01*
X98000000Y-129517350D01*
X98016760Y-129601609D01*
X98172236Y-129976960D01*
X98397951Y-130314767D01*
X98685233Y-130602049D01*
X99023040Y-130827764D01*
X99398391Y-130983240D01*
X99796861Y-131062500D01*
X100203139Y-131062500D01*
X100601609Y-130983240D01*
X100976960Y-130827764D01*
X101314767Y-130602049D01*
X101602049Y-130314767D01*
X101827764Y-129976960D01*
X101983240Y-129601609D01*
X102000000Y-129517350D01*
X102016760Y-129601609D01*
X102172236Y-129976960D01*
X102397951Y-130314767D01*
X102685233Y-130602049D01*
X103023040Y-130827764D01*
X103398391Y-130983240D01*
X103796861Y-131062500D01*
X104203139Y-131062500D01*
X104601609Y-130983240D01*
X104976960Y-130827764D01*
X105314767Y-130602049D01*
X105602049Y-130314767D01*
X105827764Y-129976960D01*
X105983240Y-129601609D01*
X106000000Y-129517350D01*
X106016760Y-129601609D01*
X106172236Y-129976960D01*
X106397951Y-130314767D01*
X106685233Y-130602049D01*
X107023040Y-130827764D01*
X107398391Y-130983240D01*
X107796861Y-131062500D01*
X108203139Y-131062500D01*
X108601609Y-130983240D01*
X108976960Y-130827764D01*
X109314767Y-130602049D01*
X109602049Y-130314767D01*
X109827764Y-129976960D01*
X109869169Y-129877000D01*
X124781234Y-129877000D01*
X126469000Y-131564767D01*
X126469000Y-131566895D01*
X126512464Y-131785401D01*
X126597721Y-131991230D01*
X126721495Y-132176471D01*
X126879030Y-132334006D01*
X127064271Y-132457780D01*
X127270100Y-132543037D01*
X127488606Y-132586501D01*
X127711394Y-132586501D01*
X127929900Y-132543037D01*
X128135729Y-132457780D01*
X128320970Y-132334006D01*
X128478505Y-132176471D01*
X128602279Y-131991230D01*
X128687536Y-131785401D01*
X128731000Y-131566895D01*
X128731000Y-131344107D01*
X128687536Y-131125601D01*
X128602279Y-130919772D01*
X128478505Y-130734531D01*
X128320970Y-130576996D01*
X128135729Y-130453222D01*
X127929900Y-130367965D01*
X127711394Y-130324501D01*
X127709266Y-130324501D01*
X125795096Y-128410332D01*
X125767632Y-128376867D01*
X125634091Y-128267273D01*
X125481736Y-128185838D01*
X125316421Y-128135690D01*
X125187578Y-128123000D01*
X125144499Y-128118757D01*
X125101420Y-128123000D01*
X109869169Y-128123000D01*
X109827764Y-128023040D01*
X109602049Y-127685233D01*
X109314767Y-127397951D01*
X108976960Y-127172236D01*
X108877000Y-127130831D01*
X108877000Y-125285781D01*
X112325000Y-125285781D01*
X112325000Y-125714219D01*
X112408584Y-126134424D01*
X112572540Y-126530249D01*
X112810567Y-126886482D01*
X113113518Y-127189433D01*
X113469751Y-127427460D01*
X113865576Y-127591416D01*
X114285781Y-127675000D01*
X114714219Y-127675000D01*
X115134424Y-127591416D01*
X115530249Y-127427460D01*
X115886482Y-127189433D01*
X116189433Y-126886482D01*
X116427460Y-126530249D01*
X116591416Y-126134424D01*
X116675000Y-125714219D01*
X116675000Y-125285781D01*
X116591416Y-124865576D01*
X116427460Y-124469751D01*
X116189433Y-124113518D01*
X115886482Y-123810567D01*
X115530249Y-123572540D01*
X115134424Y-123408584D01*
X114714219Y-123325000D01*
X114285781Y-123325000D01*
X113865576Y-123408584D01*
X113469751Y-123572540D01*
X113113518Y-123810567D01*
X112810567Y-124113518D01*
X112572540Y-124469751D01*
X112408584Y-124865576D01*
X112325000Y-125285781D01*
X108877000Y-125285781D01*
X108877000Y-122869169D01*
X108976960Y-122827764D01*
X109314767Y-122602049D01*
X109602049Y-122314767D01*
X109827764Y-121976960D01*
X109983240Y-121601609D01*
X110062500Y-121203139D01*
X110062500Y-120796861D01*
X109983240Y-120398391D01*
X109894229Y-120183499D01*
X121343234Y-120183499D01*
X132442904Y-131283169D01*
X132470368Y-131316634D01*
X132603909Y-131426228D01*
X132701260Y-131478263D01*
X132756264Y-131507663D01*
X132921578Y-131557811D01*
X133093501Y-131574744D01*
X133136580Y-131570501D01*
X149263420Y-131570501D01*
X149306499Y-131574744D01*
X149349578Y-131570501D01*
X149478421Y-131557811D01*
X149643736Y-131507663D01*
X149796091Y-131426228D01*
X149929632Y-131316634D01*
X149957096Y-131283169D01*
X150298430Y-130941835D01*
X150398391Y-130983240D01*
X150796861Y-131062500D01*
X151203139Y-131062500D01*
X151601609Y-130983240D01*
X151976960Y-130827764D01*
X152314767Y-130602049D01*
X152602049Y-130314767D01*
X152827764Y-129976960D01*
X152983240Y-129601609D01*
X153000000Y-129517350D01*
X153016760Y-129601609D01*
X153172236Y-129976960D01*
X153397951Y-130314767D01*
X153685233Y-130602049D01*
X154023040Y-130827764D01*
X154398391Y-130983240D01*
X154796861Y-131062500D01*
X155203139Y-131062500D01*
X155601609Y-130983240D01*
X155678569Y-130951362D01*
X156048848Y-131321641D01*
X156077026Y-131355976D01*
X156111361Y-131384154D01*
X156111363Y-131384156D01*
X156194116Y-131452069D01*
X156214069Y-131468444D01*
X156370420Y-131552015D01*
X156540070Y-131603478D01*
X156599710Y-131609352D01*
X156716501Y-131620855D01*
X156760707Y-131616501D01*
X163779715Y-131616501D01*
X163823921Y-131620855D01*
X163868127Y-131616501D01*
X163868128Y-131616501D01*
X164000352Y-131603478D01*
X164170002Y-131552015D01*
X164326353Y-131468444D01*
X164463396Y-131355976D01*
X164491578Y-131321636D01*
X165024706Y-130788508D01*
X180452690Y-130788508D01*
X180452690Y-131211492D01*
X180535210Y-131626347D01*
X180697078Y-132017133D01*
X180932075Y-132368830D01*
X181231170Y-132667925D01*
X181582867Y-132902922D01*
X181973653Y-133064790D01*
X182388508Y-133147310D01*
X182811492Y-133147310D01*
X183226347Y-133064790D01*
X183617133Y-132902922D01*
X183968830Y-132667925D01*
X184267925Y-132368830D01*
X184502922Y-132017133D01*
X184664790Y-131626347D01*
X184747310Y-131211492D01*
X184747310Y-130788508D01*
X184664790Y-130373653D01*
X184502922Y-129982867D01*
X184267925Y-129631170D01*
X183968830Y-129332075D01*
X183617133Y-129097078D01*
X183226347Y-128935210D01*
X182811492Y-128852690D01*
X182388508Y-128852690D01*
X181973653Y-128935210D01*
X181582867Y-129097078D01*
X181231170Y-129332075D01*
X180932075Y-129631170D01*
X180697078Y-129982867D01*
X180535210Y-130373653D01*
X180452690Y-130788508D01*
X165024706Y-130788508D01*
X167045136Y-128768078D01*
X167079475Y-128739897D01*
X167191943Y-128602854D01*
X167275514Y-128446503D01*
X167326977Y-128276853D01*
X167340000Y-128144629D01*
X167340000Y-128144620D01*
X167344353Y-128100423D01*
X167340000Y-128056226D01*
X167340000Y-125789629D01*
X167408584Y-126134424D01*
X167572540Y-126530249D01*
X167810567Y-126886482D01*
X168113518Y-127189433D01*
X168469751Y-127427460D01*
X168865576Y-127591416D01*
X169285781Y-127675000D01*
X169714219Y-127675000D01*
X170134424Y-127591416D01*
X170530249Y-127427460D01*
X170886482Y-127189433D01*
X171189433Y-126886482D01*
X171427460Y-126530249D01*
X171591416Y-126134424D01*
X171675000Y-125714219D01*
X171675000Y-125285781D01*
X171591416Y-124865576D01*
X171427460Y-124469751D01*
X171189433Y-124113518D01*
X170886482Y-123810567D01*
X170530249Y-123572540D01*
X170134424Y-123408584D01*
X169714219Y-123325000D01*
X169285781Y-123325000D01*
X168865576Y-123408584D01*
X168469751Y-123572540D01*
X168113518Y-123810567D01*
X167810567Y-124113518D01*
X167572540Y-124469751D01*
X167408584Y-124865576D01*
X167340000Y-125210371D01*
X167340000Y-119452729D01*
X167347118Y-119429264D01*
X167350000Y-119400000D01*
X167350000Y-115939385D01*
X167453670Y-115896444D01*
X167804171Y-115662247D01*
X167976463Y-115489955D01*
X175082177Y-115489955D01*
X175220484Y-115823604D01*
X175598147Y-116010872D01*
X176005087Y-116120864D01*
X176425666Y-116149353D01*
X176843723Y-116095243D01*
X177243190Y-115960614D01*
X177499516Y-115823604D01*
X177637823Y-115489955D01*
X176360000Y-114212132D01*
X175082177Y-115489955D01*
X167976463Y-115489955D01*
X168102247Y-115364171D01*
X168336444Y-115013670D01*
X168497761Y-114624215D01*
X168580000Y-114210772D01*
X168580000Y-114065666D01*
X174210647Y-114065666D01*
X174264757Y-114483723D01*
X174399386Y-114883190D01*
X174536396Y-115139516D01*
X174870045Y-115277823D01*
X176147868Y-114000000D01*
X176572132Y-114000000D01*
X177849955Y-115277823D01*
X178183604Y-115139516D01*
X178370872Y-114761853D01*
X178480864Y-114354913D01*
X178509353Y-113934334D01*
X178455243Y-113516277D01*
X178320614Y-113116810D01*
X178183604Y-112860484D01*
X177849955Y-112722177D01*
X176572132Y-114000000D01*
X176147868Y-114000000D01*
X174870045Y-112722177D01*
X174536396Y-112860484D01*
X174349128Y-113238147D01*
X174239136Y-113645087D01*
X174210647Y-114065666D01*
X168580000Y-114065666D01*
X168580000Y-113789228D01*
X168497761Y-113375785D01*
X168336444Y-112986330D01*
X168102247Y-112635829D01*
X167804171Y-112337753D01*
X167747670Y-112300000D01*
X167804171Y-112262247D01*
X167976463Y-112089955D01*
X175082177Y-112089955D01*
X175169247Y-112300000D01*
X175082177Y-112510045D01*
X176360000Y-113787868D01*
X177637823Y-112510045D01*
X177550753Y-112300000D01*
X177637823Y-112089955D01*
X176360000Y-110812132D01*
X175082177Y-112089955D01*
X167976463Y-112089955D01*
X168102247Y-111964171D01*
X168336444Y-111613670D01*
X168497761Y-111224215D01*
X168580000Y-110810772D01*
X168580000Y-110665666D01*
X174210647Y-110665666D01*
X174264757Y-111083723D01*
X174399386Y-111483190D01*
X174536396Y-111739516D01*
X174870045Y-111877823D01*
X176147868Y-110600000D01*
X176572132Y-110600000D01*
X177849955Y-111877823D01*
X178183604Y-111739516D01*
X178370872Y-111361853D01*
X178480864Y-110954913D01*
X178509353Y-110534334D01*
X178455243Y-110116277D01*
X178320614Y-109716810D01*
X178183604Y-109460484D01*
X177849955Y-109322177D01*
X176572132Y-110600000D01*
X176147868Y-110600000D01*
X174870045Y-109322177D01*
X174536396Y-109460484D01*
X174349128Y-109838147D01*
X174239136Y-110245087D01*
X174210647Y-110665666D01*
X168580000Y-110665666D01*
X168580000Y-110389228D01*
X168497761Y-109975785D01*
X168336444Y-109586330D01*
X168102247Y-109235829D01*
X167976463Y-109110045D01*
X175082177Y-109110045D01*
X176360000Y-110387868D01*
X177637823Y-109110045D01*
X177499516Y-108776396D01*
X177121853Y-108589128D01*
X176714913Y-108479136D01*
X176294334Y-108450647D01*
X175876277Y-108504757D01*
X175476810Y-108639386D01*
X175220484Y-108776396D01*
X175082177Y-109110045D01*
X167976463Y-109110045D01*
X167804171Y-108937753D01*
X167453670Y-108703556D01*
X167350000Y-108660615D01*
X167350000Y-105939385D01*
X167453670Y-105896444D01*
X167804171Y-105662247D01*
X167976463Y-105489955D01*
X175082177Y-105489955D01*
X175220484Y-105823604D01*
X175598147Y-106010872D01*
X176005087Y-106120864D01*
X176425666Y-106149353D01*
X176843723Y-106095243D01*
X177243190Y-105960614D01*
X177499516Y-105823604D01*
X177637823Y-105489955D01*
X176360000Y-104212132D01*
X175082177Y-105489955D01*
X167976463Y-105489955D01*
X168102247Y-105364171D01*
X168336444Y-105013670D01*
X168497761Y-104624215D01*
X168580000Y-104210772D01*
X168580000Y-104065666D01*
X174210647Y-104065666D01*
X174264757Y-104483723D01*
X174399386Y-104883190D01*
X174536396Y-105139516D01*
X174870045Y-105277823D01*
X176147868Y-104000000D01*
X176572132Y-104000000D01*
X177849955Y-105277823D01*
X178183604Y-105139516D01*
X178370872Y-104761853D01*
X178480864Y-104354913D01*
X178509353Y-103934334D01*
X178455243Y-103516277D01*
X178320614Y-103116810D01*
X178183604Y-102860484D01*
X177849955Y-102722177D01*
X176572132Y-104000000D01*
X176147868Y-104000000D01*
X174870045Y-102722177D01*
X174536396Y-102860484D01*
X174349128Y-103238147D01*
X174239136Y-103645087D01*
X174210647Y-104065666D01*
X168580000Y-104065666D01*
X168580000Y-103789228D01*
X168497761Y-103375785D01*
X168336444Y-102986330D01*
X168102247Y-102635829D01*
X167804171Y-102337753D01*
X167747670Y-102300000D01*
X167804171Y-102262247D01*
X167976463Y-102089955D01*
X175082177Y-102089955D01*
X175169247Y-102300000D01*
X175082177Y-102510045D01*
X176360000Y-103787868D01*
X177637823Y-102510045D01*
X177550753Y-102300000D01*
X177637823Y-102089955D01*
X176360000Y-100812132D01*
X175082177Y-102089955D01*
X167976463Y-102089955D01*
X168102247Y-101964171D01*
X168336444Y-101613670D01*
X168497761Y-101224215D01*
X168580000Y-100810772D01*
X168580000Y-100665666D01*
X174210647Y-100665666D01*
X174264757Y-101083723D01*
X174399386Y-101483190D01*
X174536396Y-101739516D01*
X174870045Y-101877823D01*
X176147868Y-100600000D01*
X176572132Y-100600000D01*
X177849955Y-101877823D01*
X178183604Y-101739516D01*
X178370872Y-101361853D01*
X178480864Y-100954913D01*
X178509353Y-100534334D01*
X178455243Y-100116277D01*
X178320614Y-99716810D01*
X178183604Y-99460484D01*
X177849955Y-99322177D01*
X176572132Y-100600000D01*
X176147868Y-100600000D01*
X174870045Y-99322177D01*
X174536396Y-99460484D01*
X174349128Y-99838147D01*
X174239136Y-100245087D01*
X174210647Y-100665666D01*
X168580000Y-100665666D01*
X168580000Y-100389228D01*
X168497761Y-99975785D01*
X168336444Y-99586330D01*
X168102247Y-99235829D01*
X167976463Y-99110045D01*
X175082177Y-99110045D01*
X176360000Y-100387868D01*
X177637823Y-99110045D01*
X177499516Y-98776396D01*
X177121853Y-98589128D01*
X176714913Y-98479136D01*
X176294334Y-98450647D01*
X175876277Y-98504757D01*
X175476810Y-98639386D01*
X175220484Y-98776396D01*
X175082177Y-99110045D01*
X167976463Y-99110045D01*
X167804171Y-98937753D01*
X167453670Y-98703556D01*
X167350000Y-98660615D01*
X167350000Y-95939385D01*
X167453670Y-95896444D01*
X167804171Y-95662247D01*
X167976463Y-95489955D01*
X175082177Y-95489955D01*
X175220484Y-95823604D01*
X175598147Y-96010872D01*
X176005087Y-96120864D01*
X176425666Y-96149353D01*
X176843723Y-96095243D01*
X177243190Y-95960614D01*
X177499516Y-95823604D01*
X177637823Y-95489955D01*
X176360000Y-94212132D01*
X175082177Y-95489955D01*
X167976463Y-95489955D01*
X168102247Y-95364171D01*
X168336444Y-95013670D01*
X168497761Y-94624215D01*
X168580000Y-94210772D01*
X168580000Y-94065666D01*
X174210647Y-94065666D01*
X174264757Y-94483723D01*
X174399386Y-94883190D01*
X174536396Y-95139516D01*
X174870045Y-95277823D01*
X176147868Y-94000000D01*
X176572132Y-94000000D01*
X177849955Y-95277823D01*
X178183604Y-95139516D01*
X178370872Y-94761853D01*
X178480864Y-94354913D01*
X178509353Y-93934334D01*
X178455243Y-93516277D01*
X178320614Y-93116810D01*
X178183604Y-92860484D01*
X177849955Y-92722177D01*
X176572132Y-94000000D01*
X176147868Y-94000000D01*
X174870045Y-92722177D01*
X174536396Y-92860484D01*
X174349128Y-93238147D01*
X174239136Y-93645087D01*
X174210647Y-94065666D01*
X168580000Y-94065666D01*
X168580000Y-93789228D01*
X168497761Y-93375785D01*
X168336444Y-92986330D01*
X168102247Y-92635829D01*
X167804171Y-92337753D01*
X167747670Y-92300000D01*
X167804171Y-92262247D01*
X167976463Y-92089955D01*
X175082177Y-92089955D01*
X175169247Y-92300000D01*
X175082177Y-92510045D01*
X176360000Y-93787868D01*
X177637823Y-92510045D01*
X177550753Y-92300000D01*
X177637823Y-92089955D01*
X176360000Y-90812132D01*
X175082177Y-92089955D01*
X167976463Y-92089955D01*
X168102247Y-91964171D01*
X168336444Y-91613670D01*
X168497761Y-91224215D01*
X168580000Y-90810772D01*
X168580000Y-90665666D01*
X174210647Y-90665666D01*
X174264757Y-91083723D01*
X174399386Y-91483190D01*
X174536396Y-91739516D01*
X174870045Y-91877823D01*
X176147868Y-90600000D01*
X176572132Y-90600000D01*
X177849955Y-91877823D01*
X178183604Y-91739516D01*
X178370872Y-91361853D01*
X178480864Y-90954913D01*
X178509353Y-90534334D01*
X178455243Y-90116277D01*
X178320614Y-89716810D01*
X178183604Y-89460484D01*
X177849955Y-89322177D01*
X176572132Y-90600000D01*
X176147868Y-90600000D01*
X174870045Y-89322177D01*
X174536396Y-89460484D01*
X174349128Y-89838147D01*
X174239136Y-90245087D01*
X174210647Y-90665666D01*
X168580000Y-90665666D01*
X168580000Y-90389228D01*
X168497761Y-89975785D01*
X168336444Y-89586330D01*
X168102247Y-89235829D01*
X167976463Y-89110045D01*
X175082177Y-89110045D01*
X176360000Y-90387868D01*
X177637823Y-89110045D01*
X177499516Y-88776396D01*
X177121853Y-88589128D01*
X176714913Y-88479136D01*
X176294334Y-88450647D01*
X175876277Y-88504757D01*
X175476810Y-88639386D01*
X175220484Y-88776396D01*
X175082177Y-89110045D01*
X167976463Y-89110045D01*
X167804171Y-88937753D01*
X167453670Y-88703556D01*
X167350000Y-88660615D01*
X167350000Y-85939385D01*
X167453670Y-85896444D01*
X167804171Y-85662247D01*
X167976463Y-85489955D01*
X175082177Y-85489955D01*
X175220484Y-85823604D01*
X175598147Y-86010872D01*
X176005087Y-86120864D01*
X176425666Y-86149353D01*
X176843723Y-86095243D01*
X177243190Y-85960614D01*
X177499516Y-85823604D01*
X177637823Y-85489955D01*
X176360000Y-84212132D01*
X175082177Y-85489955D01*
X167976463Y-85489955D01*
X168102247Y-85364171D01*
X168336444Y-85013670D01*
X168497761Y-84624215D01*
X168580000Y-84210772D01*
X168580000Y-84065666D01*
X174210647Y-84065666D01*
X174264757Y-84483723D01*
X174399386Y-84883190D01*
X174536396Y-85139516D01*
X174870045Y-85277823D01*
X176147868Y-84000000D01*
X176572132Y-84000000D01*
X177849955Y-85277823D01*
X178183604Y-85139516D01*
X178370872Y-84761853D01*
X178480864Y-84354913D01*
X178509353Y-83934334D01*
X178455243Y-83516277D01*
X178320614Y-83116810D01*
X178183604Y-82860484D01*
X177849955Y-82722177D01*
X176572132Y-84000000D01*
X176147868Y-84000000D01*
X174870045Y-82722177D01*
X174536396Y-82860484D01*
X174349128Y-83238147D01*
X174239136Y-83645087D01*
X174210647Y-84065666D01*
X168580000Y-84065666D01*
X168580000Y-83789228D01*
X168497761Y-83375785D01*
X168336444Y-82986330D01*
X168102247Y-82635829D01*
X167804171Y-82337753D01*
X167747670Y-82300000D01*
X167804171Y-82262247D01*
X167976463Y-82089955D01*
X175082177Y-82089955D01*
X175169247Y-82300000D01*
X175082177Y-82510045D01*
X176360000Y-83787868D01*
X177637823Y-82510045D01*
X177550753Y-82300000D01*
X177637823Y-82089955D01*
X176360000Y-80812132D01*
X175082177Y-82089955D01*
X167976463Y-82089955D01*
X168102247Y-81964171D01*
X168336444Y-81613670D01*
X168497761Y-81224215D01*
X168580000Y-80810772D01*
X168580000Y-80665666D01*
X174210647Y-80665666D01*
X174264757Y-81083723D01*
X174399386Y-81483190D01*
X174536396Y-81739516D01*
X174870045Y-81877823D01*
X176147868Y-80600000D01*
X176572132Y-80600000D01*
X177849955Y-81877823D01*
X178183604Y-81739516D01*
X178370872Y-81361853D01*
X178480864Y-80954913D01*
X178509353Y-80534334D01*
X178455243Y-80116277D01*
X178344778Y-79788508D01*
X180452690Y-79788508D01*
X180452690Y-80211492D01*
X180535210Y-80626347D01*
X180697078Y-81017133D01*
X180932075Y-81368830D01*
X181231170Y-81667925D01*
X181582867Y-81902922D01*
X181973653Y-82064790D01*
X182388508Y-82147310D01*
X182811492Y-82147310D01*
X183226347Y-82064790D01*
X183617133Y-81902922D01*
X183968830Y-81667925D01*
X184267925Y-81368830D01*
X184502922Y-81017133D01*
X184664790Y-80626347D01*
X184747310Y-80211492D01*
X184747310Y-79788508D01*
X184664790Y-79373653D01*
X184502922Y-78982867D01*
X184267925Y-78631170D01*
X183968830Y-78332075D01*
X183617133Y-78097078D01*
X183226347Y-77935210D01*
X182811492Y-77852690D01*
X182388508Y-77852690D01*
X181973653Y-77935210D01*
X181582867Y-78097078D01*
X181231170Y-78332075D01*
X180932075Y-78631170D01*
X180697078Y-78982867D01*
X180535210Y-79373653D01*
X180452690Y-79788508D01*
X178344778Y-79788508D01*
X178320614Y-79716810D01*
X178183604Y-79460484D01*
X177849955Y-79322177D01*
X176572132Y-80600000D01*
X176147868Y-80600000D01*
X174870045Y-79322177D01*
X174536396Y-79460484D01*
X174349128Y-79838147D01*
X174239136Y-80245087D01*
X174210647Y-80665666D01*
X168580000Y-80665666D01*
X168580000Y-80389228D01*
X168497761Y-79975785D01*
X168336444Y-79586330D01*
X168102247Y-79235829D01*
X167976463Y-79110045D01*
X175082177Y-79110045D01*
X176360000Y-80387868D01*
X177637823Y-79110045D01*
X177499516Y-78776396D01*
X177121853Y-78589128D01*
X176714913Y-78479136D01*
X176294334Y-78450647D01*
X175876277Y-78504757D01*
X175476810Y-78639386D01*
X175220484Y-78776396D01*
X175082177Y-79110045D01*
X167976463Y-79110045D01*
X167804171Y-78937753D01*
X167453670Y-78703556D01*
X167350000Y-78660615D01*
X167350000Y-77762700D01*
X182562696Y-77762700D01*
X183033849Y-77808897D01*
X183451179Y-77934896D01*
X183836080Y-78139552D01*
X184173901Y-78415073D01*
X184451775Y-78750964D01*
X184659111Y-79134426D01*
X184788021Y-79550862D01*
X184837300Y-80019723D01*
X184837301Y-130962686D01*
X184791103Y-131433849D01*
X184665104Y-131851177D01*
X184460450Y-132236077D01*
X184184926Y-132573903D01*
X183849036Y-132851775D01*
X183465574Y-133059111D01*
X183049135Y-133188021D01*
X182580277Y-133237300D01*
X72521532Y-133237300D01*
X72486389Y-133229830D01*
X72475627Y-133228699D01*
X71968553Y-133178980D01*
X71553535Y-133053679D01*
X71170757Y-132850152D01*
X70834809Y-132576159D01*
X70558471Y-132242124D01*
X70352282Y-131860784D01*
X70224085Y-131446650D01*
X70170827Y-130939935D01*
X70167544Y-130923942D01*
X70162700Y-130876247D01*
X70162700Y-130788508D01*
X70252690Y-130788508D01*
X70252690Y-131211492D01*
X70335210Y-131626347D01*
X70497078Y-132017133D01*
X70732075Y-132368830D01*
X71031170Y-132667925D01*
X71382867Y-132902922D01*
X71773653Y-133064790D01*
X72188508Y-133147310D01*
X72611492Y-133147310D01*
X73026347Y-133064790D01*
X73417133Y-132902922D01*
X73768830Y-132667925D01*
X74067925Y-132368830D01*
X74302922Y-132017133D01*
X74464790Y-131626347D01*
X74547310Y-131211492D01*
X74547310Y-130788508D01*
X74476938Y-130434721D01*
X90777411Y-130434721D01*
X90906374Y-130760442D01*
X91270833Y-130939971D01*
X91663313Y-131044949D01*
X92068732Y-131071341D01*
X92471510Y-131018131D01*
X92856168Y-130887366D01*
X93093626Y-130760442D01*
X93222589Y-130434721D01*
X92000000Y-129212132D01*
X90777411Y-130434721D01*
X74476938Y-130434721D01*
X74464790Y-130373653D01*
X74302922Y-129982867D01*
X74067925Y-129631170D01*
X73768830Y-129332075D01*
X73417133Y-129097078D01*
X73348700Y-129068732D01*
X89928659Y-129068732D01*
X89981869Y-129471510D01*
X90112634Y-129856168D01*
X90239558Y-130093626D01*
X90565279Y-130222589D01*
X91787868Y-129000000D01*
X90565279Y-127777411D01*
X90239558Y-127906374D01*
X90060029Y-128270833D01*
X89955051Y-128663313D01*
X89928659Y-129068732D01*
X73348700Y-129068732D01*
X73026347Y-128935210D01*
X72611492Y-128852690D01*
X72188508Y-128852690D01*
X71773653Y-128935210D01*
X71382867Y-129097078D01*
X71031170Y-129332075D01*
X70732075Y-129631170D01*
X70497078Y-129982867D01*
X70335210Y-130373653D01*
X70252690Y-130788508D01*
X70162700Y-130788508D01*
X70162700Y-125285781D01*
X83325000Y-125285781D01*
X83325000Y-125714219D01*
X83408584Y-126134424D01*
X83572540Y-126530249D01*
X83810567Y-126886482D01*
X84113518Y-127189433D01*
X84469751Y-127427460D01*
X84865576Y-127591416D01*
X85285781Y-127675000D01*
X85714219Y-127675000D01*
X86134424Y-127591416D01*
X86530249Y-127427460D01*
X86886482Y-127189433D01*
X87189433Y-126886482D01*
X87427460Y-126530249D01*
X87591416Y-126134424D01*
X87675000Y-125714219D01*
X87675000Y-125285781D01*
X87591416Y-124865576D01*
X87427460Y-124469751D01*
X87189433Y-124113518D01*
X86886482Y-123810567D01*
X86530249Y-123572540D01*
X86134424Y-123408584D01*
X85714219Y-123325000D01*
X85285781Y-123325000D01*
X84865576Y-123408584D01*
X84469751Y-123572540D01*
X84113518Y-123810567D01*
X83810567Y-124113518D01*
X83572540Y-124469751D01*
X83408584Y-124865576D01*
X83325000Y-125285781D01*
X70162700Y-125285781D01*
X70162700Y-115489955D01*
X77362177Y-115489955D01*
X77500484Y-115823604D01*
X77878147Y-116010872D01*
X78285087Y-116120864D01*
X78705666Y-116149353D01*
X79123723Y-116095243D01*
X79523190Y-115960614D01*
X79779516Y-115823604D01*
X79917823Y-115489955D01*
X78640000Y-114212132D01*
X77362177Y-115489955D01*
X70162700Y-115489955D01*
X70162700Y-114065666D01*
X76490647Y-114065666D01*
X76544757Y-114483723D01*
X76679386Y-114883190D01*
X76816396Y-115139516D01*
X77150045Y-115277823D01*
X78427868Y-114000000D01*
X78852132Y-114000000D01*
X80129955Y-115277823D01*
X80463604Y-115139516D01*
X80650872Y-114761853D01*
X80760864Y-114354913D01*
X80789353Y-113934334D01*
X80735243Y-113516277D01*
X80600614Y-113116810D01*
X80463604Y-112860484D01*
X80129955Y-112722177D01*
X78852132Y-114000000D01*
X78427868Y-114000000D01*
X77150045Y-112722177D01*
X76816396Y-112860484D01*
X76629128Y-113238147D01*
X76519136Y-113645087D01*
X76490647Y-114065666D01*
X70162700Y-114065666D01*
X70162700Y-112089955D01*
X77362177Y-112089955D01*
X77449247Y-112300000D01*
X77362177Y-112510045D01*
X78640000Y-113787868D01*
X79917823Y-112510045D01*
X79830753Y-112300000D01*
X79917823Y-112089955D01*
X78640000Y-110812132D01*
X77362177Y-112089955D01*
X70162700Y-112089955D01*
X70162700Y-110665666D01*
X76490647Y-110665666D01*
X76544757Y-111083723D01*
X76679386Y-111483190D01*
X76816396Y-111739516D01*
X77150045Y-111877823D01*
X78427868Y-110600000D01*
X78852132Y-110600000D01*
X80129955Y-111877823D01*
X80463604Y-111739516D01*
X80650872Y-111361853D01*
X80760864Y-110954913D01*
X80789353Y-110534334D01*
X80735243Y-110116277D01*
X80600614Y-109716810D01*
X80463604Y-109460484D01*
X80129955Y-109322177D01*
X78852132Y-110600000D01*
X78427868Y-110600000D01*
X77150045Y-109322177D01*
X76816396Y-109460484D01*
X76629128Y-109838147D01*
X76519136Y-110245087D01*
X76490647Y-110665666D01*
X70162700Y-110665666D01*
X70162700Y-109110045D01*
X77362177Y-109110045D01*
X78640000Y-110387868D01*
X79917823Y-109110045D01*
X79779516Y-108776396D01*
X79401853Y-108589128D01*
X78994913Y-108479136D01*
X78574334Y-108450647D01*
X78156277Y-108504757D01*
X77756810Y-108639386D01*
X77500484Y-108776396D01*
X77362177Y-109110045D01*
X70162700Y-109110045D01*
X70162700Y-105489955D01*
X77362177Y-105489955D01*
X77500484Y-105823604D01*
X77878147Y-106010872D01*
X78285087Y-106120864D01*
X78705666Y-106149353D01*
X79123723Y-106095243D01*
X79523190Y-105960614D01*
X79779516Y-105823604D01*
X79917823Y-105489955D01*
X78640000Y-104212132D01*
X77362177Y-105489955D01*
X70162700Y-105489955D01*
X70162700Y-104065666D01*
X76490647Y-104065666D01*
X76544757Y-104483723D01*
X76679386Y-104883190D01*
X76816396Y-105139516D01*
X77150045Y-105277823D01*
X78427868Y-104000000D01*
X78852132Y-104000000D01*
X80129955Y-105277823D01*
X80463604Y-105139516D01*
X80650872Y-104761853D01*
X80760864Y-104354913D01*
X80789353Y-103934334D01*
X80735243Y-103516277D01*
X80600614Y-103116810D01*
X80463604Y-102860484D01*
X80129955Y-102722177D01*
X78852132Y-104000000D01*
X78427868Y-104000000D01*
X77150045Y-102722177D01*
X76816396Y-102860484D01*
X76629128Y-103238147D01*
X76519136Y-103645087D01*
X76490647Y-104065666D01*
X70162700Y-104065666D01*
X70162700Y-102089955D01*
X77362177Y-102089955D01*
X77449247Y-102300000D01*
X77362177Y-102510045D01*
X78640000Y-103787868D01*
X79917823Y-102510045D01*
X79830753Y-102300000D01*
X79917823Y-102089955D01*
X78640000Y-100812132D01*
X77362177Y-102089955D01*
X70162700Y-102089955D01*
X70162700Y-100665666D01*
X76490647Y-100665666D01*
X76544757Y-101083723D01*
X76679386Y-101483190D01*
X76816396Y-101739516D01*
X77150045Y-101877823D01*
X78427868Y-100600000D01*
X78852132Y-100600000D01*
X80129955Y-101877823D01*
X80463604Y-101739516D01*
X80650872Y-101361853D01*
X80760864Y-100954913D01*
X80789353Y-100534334D01*
X80735243Y-100116277D01*
X80600614Y-99716810D01*
X80463604Y-99460484D01*
X80129955Y-99322177D01*
X78852132Y-100600000D01*
X78427868Y-100600000D01*
X77150045Y-99322177D01*
X76816396Y-99460484D01*
X76629128Y-99838147D01*
X76519136Y-100245087D01*
X76490647Y-100665666D01*
X70162700Y-100665666D01*
X70162700Y-99110045D01*
X77362177Y-99110045D01*
X78640000Y-100387868D01*
X79917823Y-99110045D01*
X79779516Y-98776396D01*
X79401853Y-98589128D01*
X78994913Y-98479136D01*
X78574334Y-98450647D01*
X78156277Y-98504757D01*
X77756810Y-98639386D01*
X77500484Y-98776396D01*
X77362177Y-99110045D01*
X70162700Y-99110045D01*
X70162700Y-95489955D01*
X77362177Y-95489955D01*
X77500484Y-95823604D01*
X77878147Y-96010872D01*
X78285087Y-96120864D01*
X78705666Y-96149353D01*
X79123723Y-96095243D01*
X79523190Y-95960614D01*
X79779516Y-95823604D01*
X79917823Y-95489955D01*
X78640000Y-94212132D01*
X77362177Y-95489955D01*
X70162700Y-95489955D01*
X70162700Y-94065666D01*
X76490647Y-94065666D01*
X76544757Y-94483723D01*
X76679386Y-94883190D01*
X76816396Y-95139516D01*
X77150045Y-95277823D01*
X78427868Y-94000000D01*
X78852132Y-94000000D01*
X80129955Y-95277823D01*
X80463604Y-95139516D01*
X80650872Y-94761853D01*
X80760864Y-94354913D01*
X80789353Y-93934334D01*
X80735243Y-93516277D01*
X80600614Y-93116810D01*
X80463604Y-92860484D01*
X80129955Y-92722177D01*
X78852132Y-94000000D01*
X78427868Y-94000000D01*
X77150045Y-92722177D01*
X76816396Y-92860484D01*
X76629128Y-93238147D01*
X76519136Y-93645087D01*
X76490647Y-94065666D01*
X70162700Y-94065666D01*
X70162700Y-92089955D01*
X77362177Y-92089955D01*
X77449247Y-92300000D01*
X77362177Y-92510045D01*
X78640000Y-93787868D01*
X79917823Y-92510045D01*
X79830753Y-92300000D01*
X79917823Y-92089955D01*
X78640000Y-90812132D01*
X77362177Y-92089955D01*
X70162700Y-92089955D01*
X70162700Y-90665666D01*
X76490647Y-90665666D01*
X76544757Y-91083723D01*
X76679386Y-91483190D01*
X76816396Y-91739516D01*
X77150045Y-91877823D01*
X78427868Y-90600000D01*
X78852132Y-90600000D01*
X80129955Y-91877823D01*
X80463604Y-91739516D01*
X80650872Y-91361853D01*
X80760864Y-90954913D01*
X80789353Y-90534334D01*
X80735243Y-90116277D01*
X80600614Y-89716810D01*
X80463604Y-89460484D01*
X80129955Y-89322177D01*
X78852132Y-90600000D01*
X78427868Y-90600000D01*
X77150045Y-89322177D01*
X76816396Y-89460484D01*
X76629128Y-89838147D01*
X76519136Y-90245087D01*
X76490647Y-90665666D01*
X70162700Y-90665666D01*
X70162700Y-89110045D01*
X77362177Y-89110045D01*
X78640000Y-90387868D01*
X79917823Y-89110045D01*
X79779516Y-88776396D01*
X79401853Y-88589128D01*
X78994913Y-88479136D01*
X78574334Y-88450647D01*
X78156277Y-88504757D01*
X77756810Y-88639386D01*
X77500484Y-88776396D01*
X77362177Y-89110045D01*
X70162700Y-89110045D01*
X70162700Y-85489955D01*
X77362177Y-85489955D01*
X77500484Y-85823604D01*
X77878147Y-86010872D01*
X78285087Y-86120864D01*
X78705666Y-86149353D01*
X79123723Y-86095243D01*
X79523190Y-85960614D01*
X79779516Y-85823604D01*
X79917823Y-85489955D01*
X78640000Y-84212132D01*
X77362177Y-85489955D01*
X70162700Y-85489955D01*
X70162700Y-84065666D01*
X76490647Y-84065666D01*
X76544757Y-84483723D01*
X76679386Y-84883190D01*
X76816396Y-85139516D01*
X77150045Y-85277823D01*
X78427868Y-84000000D01*
X78852132Y-84000000D01*
X80129955Y-85277823D01*
X80463604Y-85139516D01*
X80650872Y-84761853D01*
X80760864Y-84354913D01*
X80789353Y-83934334D01*
X80735243Y-83516277D01*
X80600614Y-83116810D01*
X80463604Y-82860484D01*
X80129955Y-82722177D01*
X78852132Y-84000000D01*
X78427868Y-84000000D01*
X77150045Y-82722177D01*
X76816396Y-82860484D01*
X76629128Y-83238147D01*
X76519136Y-83645087D01*
X76490647Y-84065666D01*
X70162700Y-84065666D01*
X70162700Y-80037304D01*
X70187094Y-79788508D01*
X70252690Y-79788508D01*
X70252690Y-80211492D01*
X70335210Y-80626347D01*
X70497078Y-81017133D01*
X70732075Y-81368830D01*
X71031170Y-81667925D01*
X71382867Y-81902922D01*
X71773653Y-82064790D01*
X72188508Y-82147310D01*
X72611492Y-82147310D01*
X72899834Y-82089955D01*
X77362177Y-82089955D01*
X77449247Y-82300000D01*
X77362177Y-82510045D01*
X78640000Y-83787868D01*
X79917823Y-82510045D01*
X79830753Y-82300000D01*
X79917823Y-82089955D01*
X78640000Y-80812132D01*
X77362177Y-82089955D01*
X72899834Y-82089955D01*
X73026347Y-82064790D01*
X73417133Y-81902922D01*
X73768830Y-81667925D01*
X74067925Y-81368830D01*
X74302922Y-81017133D01*
X74448503Y-80665666D01*
X76490647Y-80665666D01*
X76544757Y-81083723D01*
X76679386Y-81483190D01*
X76816396Y-81739516D01*
X77150045Y-81877823D01*
X78427868Y-80600000D01*
X78852132Y-80600000D01*
X80129955Y-81877823D01*
X80463604Y-81739516D01*
X80650872Y-81361853D01*
X80760864Y-80954913D01*
X80789353Y-80534334D01*
X80735243Y-80116277D01*
X80600614Y-79716810D01*
X80463604Y-79460484D01*
X80129955Y-79322177D01*
X78852132Y-80600000D01*
X78427868Y-80600000D01*
X77150045Y-79322177D01*
X76816396Y-79460484D01*
X76629128Y-79838147D01*
X76519136Y-80245087D01*
X76490647Y-80665666D01*
X74448503Y-80665666D01*
X74464790Y-80626347D01*
X74547310Y-80211492D01*
X74547310Y-79788508D01*
X74464790Y-79373653D01*
X74355601Y-79110045D01*
X77362177Y-79110045D01*
X78640000Y-80387868D01*
X79917823Y-79110045D01*
X79779516Y-78776396D01*
X79401853Y-78589128D01*
X78994913Y-78479136D01*
X78574334Y-78450647D01*
X78156277Y-78504757D01*
X77756810Y-78639386D01*
X77500484Y-78776396D01*
X77362177Y-79110045D01*
X74355601Y-79110045D01*
X74302922Y-78982867D01*
X74067925Y-78631170D01*
X73768830Y-78332075D01*
X73417133Y-78097078D01*
X73026347Y-77935210D01*
X72611492Y-77852690D01*
X72188508Y-77852690D01*
X71773653Y-77935210D01*
X71382867Y-78097078D01*
X71031170Y-78332075D01*
X70732075Y-78631170D01*
X70497078Y-78982867D01*
X70335210Y-79373653D01*
X70252690Y-79788508D01*
X70187094Y-79788508D01*
X70208897Y-79566151D01*
X70334896Y-79148821D01*
X70539552Y-78763920D01*
X70815073Y-78426099D01*
X71150964Y-78148225D01*
X71534426Y-77940889D01*
X71950862Y-77811979D01*
X72419723Y-77762700D01*
X96450000Y-77762700D01*
X96450000Y-81081586D01*
G37*
%TD.AperFunction*%
%TD*%
M02*
