G04 #@! TF.GenerationSoftware,KiCad,Pcbnew,(5.1.4)-1*
G04 #@! TF.CreationDate,2020-03-01T00:53:56-05:00*
G04 #@! TF.ProjectId,TEST_newWheelBoard,54455354-5f6e-4657-9757-6865656c426f,v1.0*
G04 #@! TF.SameCoordinates,Original*
G04 #@! TF.FileFunction,Soldermask,Bot*
G04 #@! TF.FilePolarity,Negative*
%FSLAX46Y46*%
G04 Gerber Fmt 4.6, Leading zero omitted, Abs format (unit mm)*
G04 Created by KiCad (PCBNEW (5.1.4)-1) date 2020-03-01 00:53:56*
%MOMM*%
%LPD*%
G04 APERTURE LIST*
%ADD10C,0.100000*%
G04 APERTURE END LIST*
D10*
G36*
X73746920Y-106578960D02*
G01*
X72445320Y-106578960D01*
X72445320Y-105277360D01*
X73746920Y-105277360D01*
X73746920Y-106578960D01*
X73746920Y-106578960D01*
G37*
G36*
X67459005Y-103448830D02*
G01*
X67619385Y-103497481D01*
X67767187Y-103576483D01*
X67896737Y-103682803D01*
X68003057Y-103812353D01*
X68082059Y-103960155D01*
X68130710Y-104120535D01*
X68147136Y-104287320D01*
X68130710Y-104454105D01*
X68082059Y-104614485D01*
X68003057Y-104762287D01*
X67896737Y-104891837D01*
X67767187Y-104998157D01*
X67619385Y-105077159D01*
X67459005Y-105125810D01*
X67334015Y-105138120D01*
X67250425Y-105138120D01*
X67125435Y-105125810D01*
X66965055Y-105077159D01*
X66817253Y-104998157D01*
X66687703Y-104891837D01*
X66581383Y-104762287D01*
X66502381Y-104614485D01*
X66453730Y-104454105D01*
X66437304Y-104287320D01*
X66453730Y-104120535D01*
X66502381Y-103960155D01*
X66581383Y-103812353D01*
X66687703Y-103682803D01*
X66817253Y-103576483D01*
X66965055Y-103497481D01*
X67125435Y-103448830D01*
X67250425Y-103436520D01*
X67334015Y-103436520D01*
X67459005Y-103448830D01*
X67459005Y-103448830D01*
G37*
G36*
X59839005Y-103448830D02*
G01*
X59999385Y-103497481D01*
X60147187Y-103576483D01*
X60276737Y-103682803D01*
X60383057Y-103812353D01*
X60462059Y-103960155D01*
X60510710Y-104120535D01*
X60527136Y-104287320D01*
X60510710Y-104454105D01*
X60462059Y-104614485D01*
X60383057Y-104762287D01*
X60276737Y-104891837D01*
X60147187Y-104998157D01*
X59999385Y-105077159D01*
X59839005Y-105125810D01*
X59714015Y-105138120D01*
X59630425Y-105138120D01*
X59505435Y-105125810D01*
X59345055Y-105077159D01*
X59197253Y-104998157D01*
X59067703Y-104891837D01*
X58961383Y-104762287D01*
X58882381Y-104614485D01*
X58833730Y-104454105D01*
X58817304Y-104287320D01*
X58833730Y-104120535D01*
X58882381Y-103960155D01*
X58961383Y-103812353D01*
X59067703Y-103682803D01*
X59197253Y-103576483D01*
X59345055Y-103497481D01*
X59505435Y-103448830D01*
X59630425Y-103436520D01*
X59714015Y-103436520D01*
X59839005Y-103448830D01*
X59839005Y-103448830D01*
G37*
G36*
X117921185Y-103415810D02*
G01*
X118081565Y-103464461D01*
X118229367Y-103543463D01*
X118358917Y-103649783D01*
X118465237Y-103779333D01*
X118544239Y-103927135D01*
X118592890Y-104087515D01*
X118609316Y-104254300D01*
X118592890Y-104421085D01*
X118544239Y-104581465D01*
X118465237Y-104729267D01*
X118358917Y-104858817D01*
X118229367Y-104965137D01*
X118081565Y-105044139D01*
X117921185Y-105092790D01*
X117796195Y-105105100D01*
X117712605Y-105105100D01*
X117587615Y-105092790D01*
X117427235Y-105044139D01*
X117279433Y-104965137D01*
X117149883Y-104858817D01*
X117043563Y-104729267D01*
X116964561Y-104581465D01*
X116915910Y-104421085D01*
X116899484Y-104254300D01*
X116915910Y-104087515D01*
X116964561Y-103927135D01*
X117043563Y-103779333D01*
X117149883Y-103649783D01*
X117279433Y-103543463D01*
X117427235Y-103464461D01*
X117587615Y-103415810D01*
X117712605Y-103403500D01*
X117796195Y-103403500D01*
X117921185Y-103415810D01*
X117921185Y-103415810D01*
G37*
G36*
X126225200Y-105105100D02*
G01*
X124523600Y-105105100D01*
X124523600Y-103403500D01*
X126225200Y-103403500D01*
X126225200Y-105105100D01*
X126225200Y-105105100D01*
G37*
G36*
X73285951Y-103802370D02*
G01*
X73404389Y-103851428D01*
X73510981Y-103922651D01*
X73601629Y-104013299D01*
X73672852Y-104119891D01*
X73721910Y-104238329D01*
X73746920Y-104364062D01*
X73746920Y-104492258D01*
X73721910Y-104617991D01*
X73672852Y-104736429D01*
X73601629Y-104843021D01*
X73510981Y-104933669D01*
X73404389Y-105004892D01*
X73285951Y-105053950D01*
X73160218Y-105078960D01*
X73032022Y-105078960D01*
X72906289Y-105053950D01*
X72787851Y-105004892D01*
X72681259Y-104933669D01*
X72590611Y-104843021D01*
X72519388Y-104736429D01*
X72470330Y-104617991D01*
X72445320Y-104492258D01*
X72445320Y-104364062D01*
X72470330Y-104238329D01*
X72519388Y-104119891D01*
X72590611Y-104013299D01*
X72681259Y-103922651D01*
X72787851Y-103851428D01*
X72906289Y-103802370D01*
X73032022Y-103777360D01*
X73160218Y-103777360D01*
X73285951Y-103802370D01*
X73285951Y-103802370D01*
G37*
G36*
X91406588Y-103112234D02*
G01*
X91576389Y-103163743D01*
X91732879Y-103247389D01*
X91870043Y-103359957D01*
X91982611Y-103497121D01*
X92066257Y-103653611D01*
X92117766Y-103823412D01*
X92135158Y-104000000D01*
X92117766Y-104176588D01*
X92066257Y-104346389D01*
X91982611Y-104502879D01*
X91870043Y-104640043D01*
X91732879Y-104752611D01*
X91576389Y-104836257D01*
X91406588Y-104887766D01*
X91274249Y-104900800D01*
X91185751Y-104900800D01*
X91053412Y-104887766D01*
X90883611Y-104836257D01*
X90727121Y-104752611D01*
X90589957Y-104640043D01*
X90477389Y-104502879D01*
X90393743Y-104346389D01*
X90342234Y-104176588D01*
X90324842Y-104000000D01*
X90342234Y-103823412D01*
X90393743Y-103653611D01*
X90477389Y-103497121D01*
X90589957Y-103359957D01*
X90727121Y-103247389D01*
X90883611Y-103163743D01*
X91053412Y-103112234D01*
X91185751Y-103099200D01*
X91274249Y-103099200D01*
X91406588Y-103112234D01*
X91406588Y-103112234D01*
G37*
G36*
X93946588Y-103112234D02*
G01*
X94116389Y-103163743D01*
X94272879Y-103247389D01*
X94410043Y-103359957D01*
X94522611Y-103497121D01*
X94606257Y-103653611D01*
X94657766Y-103823412D01*
X94675158Y-104000000D01*
X94657766Y-104176588D01*
X94606257Y-104346389D01*
X94522611Y-104502879D01*
X94410043Y-104640043D01*
X94272879Y-104752611D01*
X94116389Y-104836257D01*
X93946588Y-104887766D01*
X93814249Y-104900800D01*
X93725751Y-104900800D01*
X93593412Y-104887766D01*
X93423611Y-104836257D01*
X93267121Y-104752611D01*
X93129957Y-104640043D01*
X93017389Y-104502879D01*
X92933743Y-104346389D01*
X92882234Y-104176588D01*
X92864842Y-104000000D01*
X92882234Y-103823412D01*
X92933743Y-103653611D01*
X93017389Y-103497121D01*
X93129957Y-103359957D01*
X93267121Y-103247389D01*
X93423611Y-103163743D01*
X93593412Y-103112234D01*
X93725751Y-103099200D01*
X93814249Y-103099200D01*
X93946588Y-103112234D01*
X93946588Y-103112234D01*
G37*
G36*
X96486588Y-103112234D02*
G01*
X96656389Y-103163743D01*
X96812879Y-103247389D01*
X96950043Y-103359957D01*
X97062611Y-103497121D01*
X97146257Y-103653611D01*
X97197766Y-103823412D01*
X97215158Y-104000000D01*
X97197766Y-104176588D01*
X97146257Y-104346389D01*
X97062611Y-104502879D01*
X96950043Y-104640043D01*
X96812879Y-104752611D01*
X96656389Y-104836257D01*
X96486588Y-104887766D01*
X96354249Y-104900800D01*
X96265751Y-104900800D01*
X96133412Y-104887766D01*
X95963611Y-104836257D01*
X95807121Y-104752611D01*
X95669957Y-104640043D01*
X95557389Y-104502879D01*
X95473743Y-104346389D01*
X95422234Y-104176588D01*
X95404842Y-104000000D01*
X95422234Y-103823412D01*
X95473743Y-103653611D01*
X95557389Y-103497121D01*
X95669957Y-103359957D01*
X95807121Y-103247389D01*
X95963611Y-103163743D01*
X96133412Y-103112234D01*
X96265751Y-103099200D01*
X96354249Y-103099200D01*
X96486588Y-103112234D01*
X96486588Y-103112234D01*
G37*
G36*
X99750800Y-104900800D02*
G01*
X97949200Y-104900800D01*
X97949200Y-103099200D01*
X99750800Y-103099200D01*
X99750800Y-104900800D01*
X99750800Y-104900800D01*
G37*
G36*
X86326588Y-103112234D02*
G01*
X86496389Y-103163743D01*
X86652879Y-103247389D01*
X86790043Y-103359957D01*
X86902611Y-103497121D01*
X86986257Y-103653611D01*
X87037766Y-103823412D01*
X87055158Y-104000000D01*
X87037766Y-104176588D01*
X86986257Y-104346389D01*
X86902611Y-104502879D01*
X86790043Y-104640043D01*
X86652879Y-104752611D01*
X86496389Y-104836257D01*
X86326588Y-104887766D01*
X86194249Y-104900800D01*
X86105751Y-104900800D01*
X85973412Y-104887766D01*
X85803611Y-104836257D01*
X85647121Y-104752611D01*
X85509957Y-104640043D01*
X85397389Y-104502879D01*
X85313743Y-104346389D01*
X85262234Y-104176588D01*
X85244842Y-104000000D01*
X85262234Y-103823412D01*
X85313743Y-103653611D01*
X85397389Y-103497121D01*
X85509957Y-103359957D01*
X85647121Y-103247389D01*
X85803611Y-103163743D01*
X85973412Y-103112234D01*
X86105751Y-103099200D01*
X86194249Y-103099200D01*
X86326588Y-103112234D01*
X86326588Y-103112234D01*
G37*
G36*
X88866588Y-103112234D02*
G01*
X89036389Y-103163743D01*
X89192879Y-103247389D01*
X89330043Y-103359957D01*
X89442611Y-103497121D01*
X89526257Y-103653611D01*
X89577766Y-103823412D01*
X89595158Y-104000000D01*
X89577766Y-104176588D01*
X89526257Y-104346389D01*
X89442611Y-104502879D01*
X89330043Y-104640043D01*
X89192879Y-104752611D01*
X89036389Y-104836257D01*
X88866588Y-104887766D01*
X88734249Y-104900800D01*
X88645751Y-104900800D01*
X88513412Y-104887766D01*
X88343611Y-104836257D01*
X88187121Y-104752611D01*
X88049957Y-104640043D01*
X87937389Y-104502879D01*
X87853743Y-104346389D01*
X87802234Y-104176588D01*
X87784842Y-104000000D01*
X87802234Y-103823412D01*
X87853743Y-103653611D01*
X87937389Y-103497121D01*
X88049957Y-103359957D01*
X88187121Y-103247389D01*
X88343611Y-103163743D01*
X88513412Y-103112234D01*
X88645751Y-103099200D01*
X88734249Y-103099200D01*
X88866588Y-103112234D01*
X88866588Y-103112234D01*
G37*
G36*
X67459005Y-100908830D02*
G01*
X67619385Y-100957481D01*
X67767187Y-101036483D01*
X67896737Y-101142803D01*
X68003057Y-101272353D01*
X68082059Y-101420155D01*
X68130710Y-101580535D01*
X68147136Y-101747320D01*
X68130710Y-101914105D01*
X68082059Y-102074485D01*
X68003057Y-102222287D01*
X67896737Y-102351837D01*
X67767187Y-102458157D01*
X67619385Y-102537159D01*
X67459005Y-102585810D01*
X67334015Y-102598120D01*
X67250425Y-102598120D01*
X67125435Y-102585810D01*
X66965055Y-102537159D01*
X66817253Y-102458157D01*
X66687703Y-102351837D01*
X66581383Y-102222287D01*
X66502381Y-102074485D01*
X66453730Y-101914105D01*
X66437304Y-101747320D01*
X66453730Y-101580535D01*
X66502381Y-101420155D01*
X66581383Y-101272353D01*
X66687703Y-101142803D01*
X66817253Y-101036483D01*
X66965055Y-100957481D01*
X67125435Y-100908830D01*
X67250425Y-100896520D01*
X67334015Y-100896520D01*
X67459005Y-100908830D01*
X67459005Y-100908830D01*
G37*
G36*
X59839005Y-100908830D02*
G01*
X59999385Y-100957481D01*
X60147187Y-101036483D01*
X60276737Y-101142803D01*
X60383057Y-101272353D01*
X60462059Y-101420155D01*
X60510710Y-101580535D01*
X60527136Y-101747320D01*
X60510710Y-101914105D01*
X60462059Y-102074485D01*
X60383057Y-102222287D01*
X60276737Y-102351837D01*
X60147187Y-102458157D01*
X59999385Y-102537159D01*
X59839005Y-102585810D01*
X59714015Y-102598120D01*
X59630425Y-102598120D01*
X59505435Y-102585810D01*
X59345055Y-102537159D01*
X59197253Y-102458157D01*
X59067703Y-102351837D01*
X58961383Y-102222287D01*
X58882381Y-102074485D01*
X58833730Y-101914105D01*
X58817304Y-101747320D01*
X58833730Y-101580535D01*
X58882381Y-101420155D01*
X58961383Y-101272353D01*
X59067703Y-101142803D01*
X59197253Y-101036483D01*
X59345055Y-100957481D01*
X59505435Y-100908830D01*
X59630425Y-100896520D01*
X59714015Y-100896520D01*
X59839005Y-100908830D01*
X59839005Y-100908830D01*
G37*
G36*
X125541185Y-100875810D02*
G01*
X125701565Y-100924461D01*
X125849367Y-101003463D01*
X125978917Y-101109783D01*
X126085237Y-101239333D01*
X126164239Y-101387135D01*
X126212890Y-101547515D01*
X126229316Y-101714300D01*
X126212890Y-101881085D01*
X126164239Y-102041465D01*
X126085237Y-102189267D01*
X125978917Y-102318817D01*
X125849367Y-102425137D01*
X125701565Y-102504139D01*
X125541185Y-102552790D01*
X125416195Y-102565100D01*
X125332605Y-102565100D01*
X125207615Y-102552790D01*
X125047235Y-102504139D01*
X124899433Y-102425137D01*
X124769883Y-102318817D01*
X124663563Y-102189267D01*
X124584561Y-102041465D01*
X124535910Y-101881085D01*
X124519484Y-101714300D01*
X124535910Y-101547515D01*
X124584561Y-101387135D01*
X124663563Y-101239333D01*
X124769883Y-101109783D01*
X124899433Y-101003463D01*
X125047235Y-100924461D01*
X125207615Y-100875810D01*
X125332605Y-100863500D01*
X125416195Y-100863500D01*
X125541185Y-100875810D01*
X125541185Y-100875810D01*
G37*
G36*
X117921185Y-100875810D02*
G01*
X118081565Y-100924461D01*
X118229367Y-101003463D01*
X118358917Y-101109783D01*
X118465237Y-101239333D01*
X118544239Y-101387135D01*
X118592890Y-101547515D01*
X118609316Y-101714300D01*
X118592890Y-101881085D01*
X118544239Y-102041465D01*
X118465237Y-102189267D01*
X118358917Y-102318817D01*
X118229367Y-102425137D01*
X118081565Y-102504139D01*
X117921185Y-102552790D01*
X117796195Y-102565100D01*
X117712605Y-102565100D01*
X117587615Y-102552790D01*
X117427235Y-102504139D01*
X117279433Y-102425137D01*
X117149883Y-102318817D01*
X117043563Y-102189267D01*
X116964561Y-102041465D01*
X116915910Y-101881085D01*
X116899484Y-101714300D01*
X116915910Y-101547515D01*
X116964561Y-101387135D01*
X117043563Y-101239333D01*
X117149883Y-101109783D01*
X117279433Y-101003463D01*
X117427235Y-100924461D01*
X117587615Y-100875810D01*
X117712605Y-100863500D01*
X117796195Y-100863500D01*
X117921185Y-100875810D01*
X117921185Y-100875810D01*
G37*
G36*
X132099998Y-99633284D02*
G01*
X132145299Y-99647026D01*
X132187040Y-99669337D01*
X132223633Y-99699367D01*
X132253663Y-99735960D01*
X132275974Y-99777701D01*
X132289716Y-99823002D01*
X132294600Y-99872591D01*
X132294600Y-100685809D01*
X132289716Y-100735398D01*
X132275974Y-100780699D01*
X132253663Y-100822440D01*
X132223633Y-100859033D01*
X132187040Y-100889063D01*
X132145299Y-100911374D01*
X132099998Y-100925116D01*
X132050409Y-100930000D01*
X130687191Y-100930000D01*
X130637602Y-100925116D01*
X130592301Y-100911374D01*
X130550560Y-100889063D01*
X130513967Y-100859033D01*
X130483937Y-100822440D01*
X130461626Y-100780699D01*
X130447884Y-100735398D01*
X130443000Y-100685809D01*
X130443000Y-99872591D01*
X130447884Y-99823002D01*
X130461626Y-99777701D01*
X130483937Y-99735960D01*
X130513967Y-99699367D01*
X130550560Y-99669337D01*
X130592301Y-99647026D01*
X130637602Y-99633284D01*
X130687191Y-99628400D01*
X132050409Y-99628400D01*
X132099998Y-99633284D01*
X132099998Y-99633284D01*
G37*
G36*
X54148978Y-99585016D02*
G01*
X54271658Y-99622231D01*
X54384715Y-99682662D01*
X54483811Y-99763989D01*
X54565138Y-99863085D01*
X54625569Y-99976142D01*
X54662784Y-100098822D01*
X54675348Y-100226400D01*
X54662784Y-100353978D01*
X54625569Y-100476658D01*
X54565138Y-100589715D01*
X54483811Y-100688811D01*
X54384715Y-100770138D01*
X54271658Y-100830569D01*
X54148978Y-100867784D01*
X54053368Y-100877200D01*
X53439432Y-100877200D01*
X53343822Y-100867784D01*
X53221142Y-100830569D01*
X53108085Y-100770138D01*
X53008989Y-100688811D01*
X52927662Y-100589715D01*
X52867231Y-100476658D01*
X52830016Y-100353978D01*
X52817452Y-100226400D01*
X52830016Y-100098822D01*
X52867231Y-99976142D01*
X52927662Y-99863085D01*
X53008989Y-99763989D01*
X53108085Y-99682662D01*
X53221142Y-99622231D01*
X53343822Y-99585016D01*
X53439432Y-99575600D01*
X54053368Y-99575600D01*
X54148978Y-99585016D01*
X54148978Y-99585016D01*
G37*
G36*
X77813018Y-96885256D02*
G01*
X77813021Y-96885257D01*
X77813022Y-96885257D01*
X77901347Y-96912050D01*
X78152471Y-96988228D01*
X78465312Y-97155445D01*
X78739519Y-97380481D01*
X78964555Y-97654688D01*
X79131772Y-97967529D01*
X79150401Y-98028942D01*
X79226317Y-98279200D01*
X79234744Y-98306982D01*
X79269513Y-98660000D01*
X79234744Y-99013018D01*
X79131772Y-99352471D01*
X78964555Y-99665312D01*
X78739519Y-99939519D01*
X78465312Y-100164555D01*
X78152471Y-100331772D01*
X77901347Y-100407950D01*
X77813022Y-100434743D01*
X77813021Y-100434743D01*
X77813018Y-100434744D01*
X77548465Y-100460800D01*
X77371535Y-100460800D01*
X77106982Y-100434744D01*
X77106979Y-100434743D01*
X77106978Y-100434743D01*
X77018653Y-100407950D01*
X76767529Y-100331772D01*
X76454688Y-100164555D01*
X76180481Y-99939519D01*
X75955445Y-99665312D01*
X75788228Y-99352471D01*
X75685256Y-99013018D01*
X75650487Y-98660000D01*
X75685256Y-98306982D01*
X75693684Y-98279200D01*
X75769599Y-98028942D01*
X75788228Y-97967529D01*
X75955445Y-97654688D01*
X76180481Y-97380481D01*
X76454688Y-97155445D01*
X76767529Y-96988228D01*
X77018653Y-96912050D01*
X77106978Y-96885257D01*
X77106979Y-96885257D01*
X77106982Y-96885256D01*
X77371535Y-96859200D01*
X77548465Y-96859200D01*
X77813018Y-96885256D01*
X77813018Y-96885256D01*
G37*
G36*
X107813018Y-96885256D02*
G01*
X107813021Y-96885257D01*
X107813022Y-96885257D01*
X107901347Y-96912050D01*
X108152471Y-96988228D01*
X108465312Y-97155445D01*
X108739519Y-97380481D01*
X108964555Y-97654688D01*
X109131772Y-97967529D01*
X109150401Y-98028942D01*
X109226317Y-98279200D01*
X109234744Y-98306982D01*
X109269513Y-98660000D01*
X109234744Y-99013018D01*
X109131772Y-99352471D01*
X108964555Y-99665312D01*
X108739519Y-99939519D01*
X108465312Y-100164555D01*
X108152471Y-100331772D01*
X107901347Y-100407950D01*
X107813022Y-100434743D01*
X107813021Y-100434743D01*
X107813018Y-100434744D01*
X107548465Y-100460800D01*
X107371535Y-100460800D01*
X107106982Y-100434744D01*
X107106979Y-100434743D01*
X107106978Y-100434743D01*
X107018653Y-100407950D01*
X106767529Y-100331772D01*
X106454688Y-100164555D01*
X106180481Y-99939519D01*
X105955445Y-99665312D01*
X105788228Y-99352471D01*
X105685256Y-99013018D01*
X105650487Y-98660000D01*
X105685256Y-98306982D01*
X105693684Y-98279200D01*
X105769599Y-98028942D01*
X105788228Y-97967529D01*
X105955445Y-97654688D01*
X106180481Y-97380481D01*
X106454688Y-97155445D01*
X106767529Y-96988228D01*
X107018653Y-96912050D01*
X107106978Y-96885257D01*
X107106979Y-96885257D01*
X107106982Y-96885256D01*
X107371535Y-96859200D01*
X107548465Y-96859200D01*
X107813018Y-96885256D01*
X107813018Y-96885256D01*
G37*
G36*
X67459005Y-98368830D02*
G01*
X67619385Y-98417481D01*
X67767187Y-98496483D01*
X67896737Y-98602803D01*
X68003057Y-98732353D01*
X68082059Y-98880155D01*
X68130710Y-99040535D01*
X68147136Y-99207320D01*
X68130710Y-99374105D01*
X68082059Y-99534485D01*
X68003057Y-99682287D01*
X67896737Y-99811837D01*
X67767187Y-99918157D01*
X67619385Y-99997159D01*
X67459005Y-100045810D01*
X67334015Y-100058120D01*
X67250425Y-100058120D01*
X67125435Y-100045810D01*
X66965055Y-99997159D01*
X66817253Y-99918157D01*
X66687703Y-99811837D01*
X66581383Y-99682287D01*
X66502381Y-99534485D01*
X66453730Y-99374105D01*
X66437304Y-99207320D01*
X66453730Y-99040535D01*
X66502381Y-98880155D01*
X66581383Y-98732353D01*
X66687703Y-98602803D01*
X66817253Y-98496483D01*
X66965055Y-98417481D01*
X67125435Y-98368830D01*
X67250425Y-98356520D01*
X67334015Y-98356520D01*
X67459005Y-98368830D01*
X67459005Y-98368830D01*
G37*
G36*
X59839005Y-98368830D02*
G01*
X59999385Y-98417481D01*
X60147187Y-98496483D01*
X60276737Y-98602803D01*
X60383057Y-98732353D01*
X60462059Y-98880155D01*
X60510710Y-99040535D01*
X60527136Y-99207320D01*
X60510710Y-99374105D01*
X60462059Y-99534485D01*
X60383057Y-99682287D01*
X60276737Y-99811837D01*
X60147187Y-99918157D01*
X59999385Y-99997159D01*
X59839005Y-100045810D01*
X59714015Y-100058120D01*
X59630425Y-100058120D01*
X59505435Y-100045810D01*
X59345055Y-99997159D01*
X59197253Y-99918157D01*
X59067703Y-99811837D01*
X58961383Y-99682287D01*
X58882381Y-99534485D01*
X58833730Y-99374105D01*
X58817304Y-99207320D01*
X58833730Y-99040535D01*
X58882381Y-98880155D01*
X58961383Y-98732353D01*
X59067703Y-98602803D01*
X59197253Y-98496483D01*
X59345055Y-98417481D01*
X59505435Y-98368830D01*
X59630425Y-98356520D01*
X59714015Y-98356520D01*
X59839005Y-98368830D01*
X59839005Y-98368830D01*
G37*
G36*
X125541185Y-98335810D02*
G01*
X125701565Y-98384461D01*
X125849367Y-98463463D01*
X125978917Y-98569783D01*
X126085237Y-98699333D01*
X126164239Y-98847135D01*
X126212890Y-99007515D01*
X126229316Y-99174300D01*
X126212890Y-99341085D01*
X126164239Y-99501465D01*
X126085237Y-99649267D01*
X125978917Y-99778817D01*
X125849367Y-99885137D01*
X125701565Y-99964139D01*
X125541185Y-100012790D01*
X125416195Y-100025100D01*
X125332605Y-100025100D01*
X125207615Y-100012790D01*
X125047235Y-99964139D01*
X124899433Y-99885137D01*
X124769883Y-99778817D01*
X124663563Y-99649267D01*
X124584561Y-99501465D01*
X124535910Y-99341085D01*
X124519484Y-99174300D01*
X124535910Y-99007515D01*
X124584561Y-98847135D01*
X124663563Y-98699333D01*
X124769883Y-98569783D01*
X124899433Y-98463463D01*
X125047235Y-98384461D01*
X125207615Y-98335810D01*
X125332605Y-98323500D01*
X125416195Y-98323500D01*
X125541185Y-98335810D01*
X125541185Y-98335810D01*
G37*
G36*
X117921185Y-98335810D02*
G01*
X118081565Y-98384461D01*
X118229367Y-98463463D01*
X118358917Y-98569783D01*
X118465237Y-98699333D01*
X118544239Y-98847135D01*
X118592890Y-99007515D01*
X118609316Y-99174300D01*
X118592890Y-99341085D01*
X118544239Y-99501465D01*
X118465237Y-99649267D01*
X118358917Y-99778817D01*
X118229367Y-99885137D01*
X118081565Y-99964139D01*
X117921185Y-100012790D01*
X117796195Y-100025100D01*
X117712605Y-100025100D01*
X117587615Y-100012790D01*
X117427235Y-99964139D01*
X117279433Y-99885137D01*
X117149883Y-99778817D01*
X117043563Y-99649267D01*
X116964561Y-99501465D01*
X116915910Y-99341085D01*
X116899484Y-99174300D01*
X116915910Y-99007515D01*
X116964561Y-98847135D01*
X117043563Y-98699333D01*
X117149883Y-98569783D01*
X117279433Y-98463463D01*
X117427235Y-98384461D01*
X117587615Y-98335810D01*
X117712605Y-98323500D01*
X117796195Y-98323500D01*
X117921185Y-98335810D01*
X117921185Y-98335810D01*
G37*
G36*
X131771378Y-97637816D02*
G01*
X131894058Y-97675031D01*
X132007115Y-97735462D01*
X132106211Y-97816789D01*
X132187538Y-97915885D01*
X132247969Y-98028942D01*
X132285184Y-98151622D01*
X132297748Y-98279200D01*
X132285184Y-98406778D01*
X132247969Y-98529458D01*
X132187538Y-98642515D01*
X132106211Y-98741611D01*
X132007115Y-98822938D01*
X131894058Y-98883369D01*
X131771378Y-98920584D01*
X131675768Y-98930000D01*
X131061832Y-98930000D01*
X130966222Y-98920584D01*
X130843542Y-98883369D01*
X130730485Y-98822938D01*
X130631389Y-98741611D01*
X130550062Y-98642515D01*
X130489631Y-98529458D01*
X130452416Y-98406778D01*
X130439852Y-98279200D01*
X130452416Y-98151622D01*
X130489631Y-98028942D01*
X130550062Y-97915885D01*
X130631389Y-97816789D01*
X130730485Y-97735462D01*
X130843542Y-97675031D01*
X130966222Y-97637816D01*
X131061832Y-97628400D01*
X131675768Y-97628400D01*
X131771378Y-97637816D01*
X131771378Y-97637816D01*
G37*
G36*
X54148978Y-97585016D02*
G01*
X54271658Y-97622231D01*
X54384715Y-97682662D01*
X54483811Y-97763989D01*
X54565138Y-97863085D01*
X54625569Y-97976142D01*
X54662784Y-98098822D01*
X54675348Y-98226400D01*
X54662784Y-98353978D01*
X54625569Y-98476658D01*
X54565138Y-98589715D01*
X54483811Y-98688811D01*
X54384715Y-98770138D01*
X54271658Y-98830569D01*
X54148978Y-98867784D01*
X54053368Y-98877200D01*
X53439432Y-98877200D01*
X53343822Y-98867784D01*
X53221142Y-98830569D01*
X53108085Y-98770138D01*
X53008989Y-98688811D01*
X52927662Y-98589715D01*
X52867231Y-98476658D01*
X52830016Y-98353978D01*
X52817452Y-98226400D01*
X52830016Y-98098822D01*
X52867231Y-97976142D01*
X52927662Y-97863085D01*
X53008989Y-97763989D01*
X53108085Y-97682662D01*
X53221142Y-97622231D01*
X53343822Y-97585016D01*
X53439432Y-97575600D01*
X54053368Y-97575600D01*
X54148978Y-97585016D01*
X54148978Y-97585016D01*
G37*
G36*
X59839005Y-95828830D02*
G01*
X59999385Y-95877481D01*
X60147187Y-95956483D01*
X60276737Y-96062803D01*
X60383057Y-96192353D01*
X60462059Y-96340155D01*
X60510710Y-96500535D01*
X60527136Y-96667320D01*
X60510710Y-96834105D01*
X60462059Y-96994485D01*
X60383057Y-97142287D01*
X60276737Y-97271837D01*
X60147187Y-97378157D01*
X59999385Y-97457159D01*
X59839005Y-97505810D01*
X59714015Y-97518120D01*
X59630425Y-97518120D01*
X59505435Y-97505810D01*
X59345055Y-97457159D01*
X59197253Y-97378157D01*
X59067703Y-97271837D01*
X58961383Y-97142287D01*
X58882381Y-96994485D01*
X58833730Y-96834105D01*
X58817304Y-96667320D01*
X58833730Y-96500535D01*
X58882381Y-96340155D01*
X58961383Y-96192353D01*
X59067703Y-96062803D01*
X59197253Y-95956483D01*
X59345055Y-95877481D01*
X59505435Y-95828830D01*
X59630425Y-95816520D01*
X59714015Y-95816520D01*
X59839005Y-95828830D01*
X59839005Y-95828830D01*
G37*
G36*
X67459005Y-95828830D02*
G01*
X67619385Y-95877481D01*
X67767187Y-95956483D01*
X67896737Y-96062803D01*
X68003057Y-96192353D01*
X68082059Y-96340155D01*
X68130710Y-96500535D01*
X68147136Y-96667320D01*
X68130710Y-96834105D01*
X68082059Y-96994485D01*
X68003057Y-97142287D01*
X67896737Y-97271837D01*
X67767187Y-97378157D01*
X67619385Y-97457159D01*
X67459005Y-97505810D01*
X67334015Y-97518120D01*
X67250425Y-97518120D01*
X67125435Y-97505810D01*
X66965055Y-97457159D01*
X66817253Y-97378157D01*
X66687703Y-97271837D01*
X66581383Y-97142287D01*
X66502381Y-96994485D01*
X66453730Y-96834105D01*
X66437304Y-96667320D01*
X66453730Y-96500535D01*
X66502381Y-96340155D01*
X66581383Y-96192353D01*
X66687703Y-96062803D01*
X66817253Y-95956483D01*
X66965055Y-95877481D01*
X67125435Y-95828830D01*
X67250425Y-95816520D01*
X67334015Y-95816520D01*
X67459005Y-95828830D01*
X67459005Y-95828830D01*
G37*
G36*
X125541185Y-95795810D02*
G01*
X125701565Y-95844461D01*
X125849367Y-95923463D01*
X125978917Y-96029783D01*
X126085237Y-96159333D01*
X126164239Y-96307135D01*
X126212890Y-96467515D01*
X126229316Y-96634300D01*
X126212890Y-96801085D01*
X126164239Y-96961465D01*
X126085237Y-97109267D01*
X125978917Y-97238817D01*
X125849367Y-97345137D01*
X125701565Y-97424139D01*
X125541185Y-97472790D01*
X125416195Y-97485100D01*
X125332605Y-97485100D01*
X125207615Y-97472790D01*
X125047235Y-97424139D01*
X124899433Y-97345137D01*
X124769883Y-97238817D01*
X124663563Y-97109267D01*
X124584561Y-96961465D01*
X124535910Y-96801085D01*
X124519484Y-96634300D01*
X124535910Y-96467515D01*
X124584561Y-96307135D01*
X124663563Y-96159333D01*
X124769883Y-96029783D01*
X124899433Y-95923463D01*
X125047235Y-95844461D01*
X125207615Y-95795810D01*
X125332605Y-95783500D01*
X125416195Y-95783500D01*
X125541185Y-95795810D01*
X125541185Y-95795810D01*
G37*
G36*
X117921185Y-95795810D02*
G01*
X118081565Y-95844461D01*
X118229367Y-95923463D01*
X118358917Y-96029783D01*
X118465237Y-96159333D01*
X118544239Y-96307135D01*
X118592890Y-96467515D01*
X118609316Y-96634300D01*
X118592890Y-96801085D01*
X118544239Y-96961465D01*
X118465237Y-97109267D01*
X118358917Y-97238817D01*
X118229367Y-97345137D01*
X118081565Y-97424139D01*
X117921185Y-97472790D01*
X117796195Y-97485100D01*
X117712605Y-97485100D01*
X117587615Y-97472790D01*
X117427235Y-97424139D01*
X117279433Y-97345137D01*
X117149883Y-97238817D01*
X117043563Y-97109267D01*
X116964561Y-96961465D01*
X116915910Y-96801085D01*
X116899484Y-96634300D01*
X116915910Y-96467515D01*
X116964561Y-96307135D01*
X117043563Y-96159333D01*
X117149883Y-96029783D01*
X117279433Y-95923463D01*
X117427235Y-95844461D01*
X117587615Y-95795810D01*
X117712605Y-95783500D01*
X117796195Y-95783500D01*
X117921185Y-95795810D01*
X117921185Y-95795810D01*
G37*
G36*
X131771378Y-95637816D02*
G01*
X131894058Y-95675031D01*
X132007115Y-95735462D01*
X132106211Y-95816789D01*
X132187538Y-95915885D01*
X132247969Y-96028942D01*
X132285184Y-96151622D01*
X132297748Y-96279200D01*
X132285184Y-96406778D01*
X132247969Y-96529458D01*
X132187538Y-96642515D01*
X132106211Y-96741611D01*
X132007115Y-96822938D01*
X131894058Y-96883369D01*
X131771378Y-96920584D01*
X131675768Y-96930000D01*
X131061832Y-96930000D01*
X130966222Y-96920584D01*
X130843542Y-96883369D01*
X130730485Y-96822938D01*
X130631389Y-96741611D01*
X130550062Y-96642515D01*
X130489631Y-96529458D01*
X130452416Y-96406778D01*
X130439852Y-96279200D01*
X130452416Y-96151622D01*
X130489631Y-96028942D01*
X130550062Y-95915885D01*
X130631389Y-95816789D01*
X130730485Y-95735462D01*
X130843542Y-95675031D01*
X130966222Y-95637816D01*
X131061832Y-95628400D01*
X131675768Y-95628400D01*
X131771378Y-95637816D01*
X131771378Y-95637816D01*
G37*
G36*
X54148978Y-95585016D02*
G01*
X54271658Y-95622231D01*
X54384715Y-95682662D01*
X54483811Y-95763989D01*
X54565138Y-95863085D01*
X54625569Y-95976142D01*
X54662784Y-96098822D01*
X54675348Y-96226400D01*
X54662784Y-96353978D01*
X54625569Y-96476658D01*
X54565138Y-96589715D01*
X54483811Y-96688811D01*
X54384715Y-96770138D01*
X54271658Y-96830569D01*
X54148978Y-96867784D01*
X54053368Y-96877200D01*
X53439432Y-96877200D01*
X53343822Y-96867784D01*
X53221142Y-96830569D01*
X53108085Y-96770138D01*
X53008989Y-96688811D01*
X52927662Y-96589715D01*
X52867231Y-96476658D01*
X52830016Y-96353978D01*
X52817452Y-96226400D01*
X52830016Y-96098822D01*
X52867231Y-95976142D01*
X52927662Y-95863085D01*
X53008989Y-95763989D01*
X53108085Y-95682662D01*
X53221142Y-95622231D01*
X53343822Y-95585016D01*
X53439432Y-95575600D01*
X54053368Y-95575600D01*
X54148978Y-95585016D01*
X54148978Y-95585016D01*
G37*
G36*
X67459005Y-93288830D02*
G01*
X67619385Y-93337481D01*
X67767187Y-93416483D01*
X67896737Y-93522803D01*
X68003057Y-93652353D01*
X68082059Y-93800155D01*
X68130710Y-93960535D01*
X68147136Y-94127320D01*
X68130710Y-94294105D01*
X68082059Y-94454485D01*
X68003057Y-94602287D01*
X67896737Y-94731837D01*
X67767187Y-94838157D01*
X67619385Y-94917159D01*
X67459005Y-94965810D01*
X67334015Y-94978120D01*
X67250425Y-94978120D01*
X67125435Y-94965810D01*
X66965055Y-94917159D01*
X66817253Y-94838157D01*
X66687703Y-94731837D01*
X66581383Y-94602287D01*
X66502381Y-94454485D01*
X66453730Y-94294105D01*
X66437304Y-94127320D01*
X66453730Y-93960535D01*
X66502381Y-93800155D01*
X66581383Y-93652353D01*
X66687703Y-93522803D01*
X66817253Y-93416483D01*
X66965055Y-93337481D01*
X67125435Y-93288830D01*
X67250425Y-93276520D01*
X67334015Y-93276520D01*
X67459005Y-93288830D01*
X67459005Y-93288830D01*
G37*
G36*
X59839005Y-93288830D02*
G01*
X59999385Y-93337481D01*
X60147187Y-93416483D01*
X60276737Y-93522803D01*
X60383057Y-93652353D01*
X60462059Y-93800155D01*
X60510710Y-93960535D01*
X60527136Y-94127320D01*
X60510710Y-94294105D01*
X60462059Y-94454485D01*
X60383057Y-94602287D01*
X60276737Y-94731837D01*
X60147187Y-94838157D01*
X59999385Y-94917159D01*
X59839005Y-94965810D01*
X59714015Y-94978120D01*
X59630425Y-94978120D01*
X59505435Y-94965810D01*
X59345055Y-94917159D01*
X59197253Y-94838157D01*
X59067703Y-94731837D01*
X58961383Y-94602287D01*
X58882381Y-94454485D01*
X58833730Y-94294105D01*
X58817304Y-94127320D01*
X58833730Y-93960535D01*
X58882381Y-93800155D01*
X58961383Y-93652353D01*
X59067703Y-93522803D01*
X59197253Y-93416483D01*
X59345055Y-93337481D01*
X59505435Y-93288830D01*
X59630425Y-93276520D01*
X59714015Y-93276520D01*
X59839005Y-93288830D01*
X59839005Y-93288830D01*
G37*
G36*
X117921185Y-93255810D02*
G01*
X118081565Y-93304461D01*
X118229367Y-93383463D01*
X118358917Y-93489783D01*
X118465237Y-93619333D01*
X118544239Y-93767135D01*
X118592890Y-93927515D01*
X118609316Y-94094300D01*
X118592890Y-94261085D01*
X118544239Y-94421465D01*
X118465237Y-94569267D01*
X118358917Y-94698817D01*
X118229367Y-94805137D01*
X118081565Y-94884139D01*
X117921185Y-94932790D01*
X117796195Y-94945100D01*
X117712605Y-94945100D01*
X117587615Y-94932790D01*
X117427235Y-94884139D01*
X117279433Y-94805137D01*
X117149883Y-94698817D01*
X117043563Y-94569267D01*
X116964561Y-94421465D01*
X116915910Y-94261085D01*
X116899484Y-94094300D01*
X116915910Y-93927515D01*
X116964561Y-93767135D01*
X117043563Y-93619333D01*
X117149883Y-93489783D01*
X117279433Y-93383463D01*
X117427235Y-93304461D01*
X117587615Y-93255810D01*
X117712605Y-93243500D01*
X117796195Y-93243500D01*
X117921185Y-93255810D01*
X117921185Y-93255810D01*
G37*
G36*
X125541185Y-93255810D02*
G01*
X125701565Y-93304461D01*
X125849367Y-93383463D01*
X125978917Y-93489783D01*
X126085237Y-93619333D01*
X126164239Y-93767135D01*
X126212890Y-93927515D01*
X126229316Y-94094300D01*
X126212890Y-94261085D01*
X126164239Y-94421465D01*
X126085237Y-94569267D01*
X125978917Y-94698817D01*
X125849367Y-94805137D01*
X125701565Y-94884139D01*
X125541185Y-94932790D01*
X125416195Y-94945100D01*
X125332605Y-94945100D01*
X125207615Y-94932790D01*
X125047235Y-94884139D01*
X124899433Y-94805137D01*
X124769883Y-94698817D01*
X124663563Y-94569267D01*
X124584561Y-94421465D01*
X124535910Y-94261085D01*
X124519484Y-94094300D01*
X124535910Y-93927515D01*
X124584561Y-93767135D01*
X124663563Y-93619333D01*
X124769883Y-93489783D01*
X124899433Y-93383463D01*
X125047235Y-93304461D01*
X125207615Y-93255810D01*
X125332605Y-93243500D01*
X125416195Y-93243500D01*
X125541185Y-93255810D01*
X125541185Y-93255810D01*
G37*
G36*
X131771378Y-93637816D02*
G01*
X131894058Y-93675031D01*
X132007115Y-93735462D01*
X132106211Y-93816789D01*
X132187538Y-93915885D01*
X132247969Y-94028942D01*
X132285184Y-94151622D01*
X132297748Y-94279200D01*
X132285184Y-94406778D01*
X132247969Y-94529458D01*
X132187538Y-94642515D01*
X132106211Y-94741611D01*
X132007115Y-94822938D01*
X131894058Y-94883369D01*
X131771378Y-94920584D01*
X131675768Y-94930000D01*
X131061832Y-94930000D01*
X130966222Y-94920584D01*
X130843542Y-94883369D01*
X130730485Y-94822938D01*
X130631389Y-94741611D01*
X130550062Y-94642515D01*
X130489631Y-94529458D01*
X130452416Y-94406778D01*
X130439852Y-94279200D01*
X130452416Y-94151622D01*
X130489631Y-94028942D01*
X130550062Y-93915885D01*
X130631389Y-93816789D01*
X130730485Y-93735462D01*
X130843542Y-93675031D01*
X130966222Y-93637816D01*
X131061832Y-93628400D01*
X131675768Y-93628400D01*
X131771378Y-93637816D01*
X131771378Y-93637816D01*
G37*
G36*
X54148978Y-93585016D02*
G01*
X54271658Y-93622231D01*
X54384715Y-93682662D01*
X54483811Y-93763989D01*
X54565138Y-93863085D01*
X54625569Y-93976142D01*
X54662784Y-94098822D01*
X54675348Y-94226400D01*
X54662784Y-94353978D01*
X54625569Y-94476658D01*
X54565138Y-94589715D01*
X54483811Y-94688811D01*
X54384715Y-94770138D01*
X54271658Y-94830569D01*
X54148978Y-94867784D01*
X54053368Y-94877200D01*
X53439432Y-94877200D01*
X53343822Y-94867784D01*
X53221142Y-94830569D01*
X53108085Y-94770138D01*
X53008989Y-94688811D01*
X52927662Y-94589715D01*
X52867231Y-94476658D01*
X52830016Y-94353978D01*
X52817452Y-94226400D01*
X52830016Y-94098822D01*
X52867231Y-93976142D01*
X52927662Y-93863085D01*
X53008989Y-93763989D01*
X53108085Y-93682662D01*
X53221142Y-93622231D01*
X53343822Y-93585016D01*
X53439432Y-93575600D01*
X54053368Y-93575600D01*
X54148978Y-93585016D01*
X54148978Y-93585016D01*
G37*
G36*
X87689831Y-93374210D02*
G01*
X87808269Y-93423268D01*
X87914861Y-93494491D01*
X88005509Y-93585139D01*
X88076732Y-93691731D01*
X88125790Y-93810169D01*
X88150800Y-93935902D01*
X88150800Y-94064098D01*
X88125790Y-94189831D01*
X88076732Y-94308269D01*
X88005509Y-94414861D01*
X87914861Y-94505509D01*
X87808269Y-94576732D01*
X87689831Y-94625790D01*
X87564098Y-94650800D01*
X87435902Y-94650800D01*
X87310169Y-94625790D01*
X87191731Y-94576732D01*
X87085139Y-94505509D01*
X86994491Y-94414861D01*
X86923268Y-94308269D01*
X86874210Y-94189831D01*
X86849200Y-94064098D01*
X86849200Y-93935902D01*
X86874210Y-93810169D01*
X86923268Y-93691731D01*
X86994491Y-93585139D01*
X87085139Y-93494491D01*
X87191731Y-93423268D01*
X87310169Y-93374210D01*
X87435902Y-93349200D01*
X87564098Y-93349200D01*
X87689831Y-93374210D01*
X87689831Y-93374210D01*
G37*
G36*
X93689831Y-93374210D02*
G01*
X93808269Y-93423268D01*
X93914861Y-93494491D01*
X94005509Y-93585139D01*
X94076732Y-93691731D01*
X94125790Y-93810169D01*
X94150800Y-93935902D01*
X94150800Y-94064098D01*
X94125790Y-94189831D01*
X94076732Y-94308269D01*
X94005509Y-94414861D01*
X93914861Y-94505509D01*
X93808269Y-94576732D01*
X93689831Y-94625790D01*
X93564098Y-94650800D01*
X93435902Y-94650800D01*
X93310169Y-94625790D01*
X93191731Y-94576732D01*
X93085139Y-94505509D01*
X92994491Y-94414861D01*
X92923268Y-94308269D01*
X92874210Y-94189831D01*
X92849200Y-94064098D01*
X92849200Y-93935902D01*
X92874210Y-93810169D01*
X92923268Y-93691731D01*
X92994491Y-93585139D01*
X93085139Y-93494491D01*
X93191731Y-93423268D01*
X93310169Y-93374210D01*
X93435902Y-93349200D01*
X93564098Y-93349200D01*
X93689831Y-93374210D01*
X93689831Y-93374210D01*
G37*
G36*
X91689831Y-93374210D02*
G01*
X91808269Y-93423268D01*
X91914861Y-93494491D01*
X92005509Y-93585139D01*
X92076732Y-93691731D01*
X92125790Y-93810169D01*
X92150800Y-93935902D01*
X92150800Y-94064098D01*
X92125790Y-94189831D01*
X92076732Y-94308269D01*
X92005509Y-94414861D01*
X91914861Y-94505509D01*
X91808269Y-94576732D01*
X91689831Y-94625790D01*
X91564098Y-94650800D01*
X91435902Y-94650800D01*
X91310169Y-94625790D01*
X91191731Y-94576732D01*
X91085139Y-94505509D01*
X90994491Y-94414861D01*
X90923268Y-94308269D01*
X90874210Y-94189831D01*
X90849200Y-94064098D01*
X90849200Y-93935902D01*
X90874210Y-93810169D01*
X90923268Y-93691731D01*
X90994491Y-93585139D01*
X91085139Y-93494491D01*
X91191731Y-93423268D01*
X91310169Y-93374210D01*
X91435902Y-93349200D01*
X91564098Y-93349200D01*
X91689831Y-93374210D01*
X91689831Y-93374210D01*
G37*
G36*
X97689831Y-93374210D02*
G01*
X97808269Y-93423268D01*
X97914861Y-93494491D01*
X98005509Y-93585139D01*
X98076732Y-93691731D01*
X98125790Y-93810169D01*
X98150800Y-93935902D01*
X98150800Y-94064098D01*
X98125790Y-94189831D01*
X98076732Y-94308269D01*
X98005509Y-94414861D01*
X97914861Y-94505509D01*
X97808269Y-94576732D01*
X97689831Y-94625790D01*
X97564098Y-94650800D01*
X97435902Y-94650800D01*
X97310169Y-94625790D01*
X97191731Y-94576732D01*
X97085139Y-94505509D01*
X96994491Y-94414861D01*
X96923268Y-94308269D01*
X96874210Y-94189831D01*
X96849200Y-94064098D01*
X96849200Y-93935902D01*
X96874210Y-93810169D01*
X96923268Y-93691731D01*
X96994491Y-93585139D01*
X97085139Y-93494491D01*
X97191731Y-93423268D01*
X97310169Y-93374210D01*
X97435902Y-93349200D01*
X97564098Y-93349200D01*
X97689831Y-93374210D01*
X97689831Y-93374210D01*
G37*
G36*
X95689831Y-93374210D02*
G01*
X95808269Y-93423268D01*
X95914861Y-93494491D01*
X96005509Y-93585139D01*
X96076732Y-93691731D01*
X96125790Y-93810169D01*
X96150800Y-93935902D01*
X96150800Y-94064098D01*
X96125790Y-94189831D01*
X96076732Y-94308269D01*
X96005509Y-94414861D01*
X95914861Y-94505509D01*
X95808269Y-94576732D01*
X95689831Y-94625790D01*
X95564098Y-94650800D01*
X95435902Y-94650800D01*
X95310169Y-94625790D01*
X95191731Y-94576732D01*
X95085139Y-94505509D01*
X94994491Y-94414861D01*
X94923268Y-94308269D01*
X94874210Y-94189831D01*
X94849200Y-94064098D01*
X94849200Y-93935902D01*
X94874210Y-93810169D01*
X94923268Y-93691731D01*
X94994491Y-93585139D01*
X95085139Y-93494491D01*
X95191731Y-93423268D01*
X95310169Y-93374210D01*
X95435902Y-93349200D01*
X95564098Y-93349200D01*
X95689831Y-93374210D01*
X95689831Y-93374210D01*
G37*
G36*
X89689831Y-93374210D02*
G01*
X89808269Y-93423268D01*
X89914861Y-93494491D01*
X90005509Y-93585139D01*
X90076732Y-93691731D01*
X90125790Y-93810169D01*
X90150800Y-93935902D01*
X90150800Y-94064098D01*
X90125790Y-94189831D01*
X90076732Y-94308269D01*
X90005509Y-94414861D01*
X89914861Y-94505509D01*
X89808269Y-94576732D01*
X89689831Y-94625790D01*
X89564098Y-94650800D01*
X89435902Y-94650800D01*
X89310169Y-94625790D01*
X89191731Y-94576732D01*
X89085139Y-94505509D01*
X88994491Y-94414861D01*
X88923268Y-94308269D01*
X88874210Y-94189831D01*
X88849200Y-94064098D01*
X88849200Y-93935902D01*
X88874210Y-93810169D01*
X88923268Y-93691731D01*
X88994491Y-93585139D01*
X89085139Y-93494491D01*
X89191731Y-93423268D01*
X89310169Y-93374210D01*
X89435902Y-93349200D01*
X89564098Y-93349200D01*
X89689831Y-93374210D01*
X89689831Y-93374210D01*
G37*
G36*
X131771378Y-91637816D02*
G01*
X131894058Y-91675031D01*
X132007115Y-91735462D01*
X132106211Y-91816789D01*
X132187538Y-91915885D01*
X132247969Y-92028942D01*
X132285184Y-92151622D01*
X132297748Y-92279200D01*
X132285184Y-92406778D01*
X132247969Y-92529458D01*
X132187538Y-92642515D01*
X132106211Y-92741611D01*
X132007115Y-92822938D01*
X131894058Y-92883369D01*
X131771378Y-92920584D01*
X131675768Y-92930000D01*
X131061832Y-92930000D01*
X130966222Y-92920584D01*
X130843542Y-92883369D01*
X130730485Y-92822938D01*
X130631389Y-92741611D01*
X130550062Y-92642515D01*
X130489631Y-92529458D01*
X130452416Y-92406778D01*
X130439852Y-92279200D01*
X130452416Y-92151622D01*
X130489631Y-92028942D01*
X130550062Y-91915885D01*
X130631389Y-91816789D01*
X130730485Y-91735462D01*
X130843542Y-91675031D01*
X130966222Y-91637816D01*
X131061832Y-91628400D01*
X131675768Y-91628400D01*
X131771378Y-91637816D01*
X131771378Y-91637816D01*
G37*
G36*
X54148978Y-91585016D02*
G01*
X54271658Y-91622231D01*
X54384715Y-91682662D01*
X54483811Y-91763989D01*
X54565138Y-91863085D01*
X54625569Y-91976142D01*
X54662784Y-92098822D01*
X54675348Y-92226400D01*
X54662784Y-92353978D01*
X54625569Y-92476658D01*
X54565138Y-92589715D01*
X54483811Y-92688811D01*
X54384715Y-92770138D01*
X54271658Y-92830569D01*
X54148978Y-92867784D01*
X54053368Y-92877200D01*
X53439432Y-92877200D01*
X53343822Y-92867784D01*
X53221142Y-92830569D01*
X53108085Y-92770138D01*
X53008989Y-92688811D01*
X52927662Y-92589715D01*
X52867231Y-92476658D01*
X52830016Y-92353978D01*
X52817452Y-92226400D01*
X52830016Y-92098822D01*
X52867231Y-91976142D01*
X52927662Y-91863085D01*
X53008989Y-91763989D01*
X53108085Y-91682662D01*
X53221142Y-91622231D01*
X53343822Y-91585016D01*
X53439432Y-91575600D01*
X54053368Y-91575600D01*
X54148978Y-91585016D01*
X54148978Y-91585016D01*
G37*
G36*
X91689831Y-91374210D02*
G01*
X91808269Y-91423268D01*
X91914861Y-91494491D01*
X92005509Y-91585139D01*
X92076732Y-91691731D01*
X92125790Y-91810169D01*
X92150800Y-91935902D01*
X92150800Y-92064098D01*
X92125790Y-92189831D01*
X92076732Y-92308269D01*
X92005509Y-92414861D01*
X91914861Y-92505509D01*
X91808269Y-92576732D01*
X91689831Y-92625790D01*
X91564098Y-92650800D01*
X91435902Y-92650800D01*
X91310169Y-92625790D01*
X91191731Y-92576732D01*
X91085139Y-92505509D01*
X90994491Y-92414861D01*
X90923268Y-92308269D01*
X90874210Y-92189831D01*
X90849200Y-92064098D01*
X90849200Y-91935902D01*
X90874210Y-91810169D01*
X90923268Y-91691731D01*
X90994491Y-91585139D01*
X91085139Y-91494491D01*
X91191731Y-91423268D01*
X91310169Y-91374210D01*
X91435902Y-91349200D01*
X91564098Y-91349200D01*
X91689831Y-91374210D01*
X91689831Y-91374210D01*
G37*
G36*
X93689831Y-91374210D02*
G01*
X93808269Y-91423268D01*
X93914861Y-91494491D01*
X94005509Y-91585139D01*
X94076732Y-91691731D01*
X94125790Y-91810169D01*
X94150800Y-91935902D01*
X94150800Y-92064098D01*
X94125790Y-92189831D01*
X94076732Y-92308269D01*
X94005509Y-92414861D01*
X93914861Y-92505509D01*
X93808269Y-92576732D01*
X93689831Y-92625790D01*
X93564098Y-92650800D01*
X93435902Y-92650800D01*
X93310169Y-92625790D01*
X93191731Y-92576732D01*
X93085139Y-92505509D01*
X92994491Y-92414861D01*
X92923268Y-92308269D01*
X92874210Y-92189831D01*
X92849200Y-92064098D01*
X92849200Y-91935902D01*
X92874210Y-91810169D01*
X92923268Y-91691731D01*
X92994491Y-91585139D01*
X93085139Y-91494491D01*
X93191731Y-91423268D01*
X93310169Y-91374210D01*
X93435902Y-91349200D01*
X93564098Y-91349200D01*
X93689831Y-91374210D01*
X93689831Y-91374210D01*
G37*
G36*
X97689831Y-91374210D02*
G01*
X97808269Y-91423268D01*
X97914861Y-91494491D01*
X98005509Y-91585139D01*
X98076732Y-91691731D01*
X98125790Y-91810169D01*
X98150800Y-91935902D01*
X98150800Y-92064098D01*
X98125790Y-92189831D01*
X98076732Y-92308269D01*
X98005509Y-92414861D01*
X97914861Y-92505509D01*
X97808269Y-92576732D01*
X97689831Y-92625790D01*
X97564098Y-92650800D01*
X97435902Y-92650800D01*
X97310169Y-92625790D01*
X97191731Y-92576732D01*
X97085139Y-92505509D01*
X96994491Y-92414861D01*
X96923268Y-92308269D01*
X96874210Y-92189831D01*
X96849200Y-92064098D01*
X96849200Y-91935902D01*
X96874210Y-91810169D01*
X96923268Y-91691731D01*
X96994491Y-91585139D01*
X97085139Y-91494491D01*
X97191731Y-91423268D01*
X97310169Y-91374210D01*
X97435902Y-91349200D01*
X97564098Y-91349200D01*
X97689831Y-91374210D01*
X97689831Y-91374210D01*
G37*
G36*
X95689831Y-91374210D02*
G01*
X95808269Y-91423268D01*
X95914861Y-91494491D01*
X96005509Y-91585139D01*
X96076732Y-91691731D01*
X96125790Y-91810169D01*
X96150800Y-91935902D01*
X96150800Y-92064098D01*
X96125790Y-92189831D01*
X96076732Y-92308269D01*
X96005509Y-92414861D01*
X95914861Y-92505509D01*
X95808269Y-92576732D01*
X95689831Y-92625790D01*
X95564098Y-92650800D01*
X95435902Y-92650800D01*
X95310169Y-92625790D01*
X95191731Y-92576732D01*
X95085139Y-92505509D01*
X94994491Y-92414861D01*
X94923268Y-92308269D01*
X94874210Y-92189831D01*
X94849200Y-92064098D01*
X94849200Y-91935902D01*
X94874210Y-91810169D01*
X94923268Y-91691731D01*
X94994491Y-91585139D01*
X95085139Y-91494491D01*
X95191731Y-91423268D01*
X95310169Y-91374210D01*
X95435902Y-91349200D01*
X95564098Y-91349200D01*
X95689831Y-91374210D01*
X95689831Y-91374210D01*
G37*
G36*
X89689831Y-91374210D02*
G01*
X89808269Y-91423268D01*
X89914861Y-91494491D01*
X90005509Y-91585139D01*
X90076732Y-91691731D01*
X90125790Y-91810169D01*
X90150800Y-91935902D01*
X90150800Y-92064098D01*
X90125790Y-92189831D01*
X90076732Y-92308269D01*
X90005509Y-92414861D01*
X89914861Y-92505509D01*
X89808269Y-92576732D01*
X89689831Y-92625790D01*
X89564098Y-92650800D01*
X89435902Y-92650800D01*
X89310169Y-92625790D01*
X89191731Y-92576732D01*
X89085139Y-92505509D01*
X88994491Y-92414861D01*
X88923268Y-92308269D01*
X88874210Y-92189831D01*
X88849200Y-92064098D01*
X88849200Y-91935902D01*
X88874210Y-91810169D01*
X88923268Y-91691731D01*
X88994491Y-91585139D01*
X89085139Y-91494491D01*
X89191731Y-91423268D01*
X89310169Y-91374210D01*
X89435902Y-91349200D01*
X89564098Y-91349200D01*
X89689831Y-91374210D01*
X89689831Y-91374210D01*
G37*
G36*
X87956198Y-91354084D02*
G01*
X88001499Y-91367826D01*
X88043240Y-91390137D01*
X88079833Y-91420167D01*
X88109863Y-91456760D01*
X88132174Y-91498501D01*
X88145916Y-91543802D01*
X88150800Y-91593391D01*
X88150800Y-92406609D01*
X88145916Y-92456198D01*
X88132174Y-92501499D01*
X88109863Y-92543240D01*
X88079833Y-92579833D01*
X88043240Y-92609863D01*
X88001499Y-92632174D01*
X87956198Y-92645916D01*
X87906609Y-92650800D01*
X87093391Y-92650800D01*
X87043802Y-92645916D01*
X86998501Y-92632174D01*
X86956760Y-92609863D01*
X86920167Y-92579833D01*
X86890137Y-92543240D01*
X86867826Y-92501499D01*
X86854084Y-92456198D01*
X86849200Y-92406609D01*
X86849200Y-91593391D01*
X86854084Y-91543802D01*
X86867826Y-91498501D01*
X86890137Y-91456760D01*
X86920167Y-91420167D01*
X86956760Y-91390137D01*
X86998501Y-91367826D01*
X87043802Y-91354084D01*
X87093391Y-91349200D01*
X87906609Y-91349200D01*
X87956198Y-91354084D01*
X87956198Y-91354084D01*
G37*
G36*
X67459005Y-90748830D02*
G01*
X67619385Y-90797481D01*
X67767187Y-90876483D01*
X67896737Y-90982803D01*
X68003057Y-91112353D01*
X68082059Y-91260155D01*
X68130710Y-91420535D01*
X68147136Y-91587320D01*
X68130710Y-91754105D01*
X68082059Y-91914485D01*
X68003057Y-92062287D01*
X67896737Y-92191837D01*
X67767187Y-92298157D01*
X67619385Y-92377159D01*
X67459005Y-92425810D01*
X67334015Y-92438120D01*
X67250425Y-92438120D01*
X67125435Y-92425810D01*
X66965055Y-92377159D01*
X66817253Y-92298157D01*
X66687703Y-92191837D01*
X66581383Y-92062287D01*
X66502381Y-91914485D01*
X66453730Y-91754105D01*
X66437304Y-91587320D01*
X66453730Y-91420535D01*
X66502381Y-91260155D01*
X66581383Y-91112353D01*
X66687703Y-90982803D01*
X66817253Y-90876483D01*
X66965055Y-90797481D01*
X67125435Y-90748830D01*
X67250425Y-90736520D01*
X67334015Y-90736520D01*
X67459005Y-90748830D01*
X67459005Y-90748830D01*
G37*
G36*
X59839005Y-90748830D02*
G01*
X59999385Y-90797481D01*
X60147187Y-90876483D01*
X60276737Y-90982803D01*
X60383057Y-91112353D01*
X60462059Y-91260155D01*
X60510710Y-91420535D01*
X60527136Y-91587320D01*
X60510710Y-91754105D01*
X60462059Y-91914485D01*
X60383057Y-92062287D01*
X60276737Y-92191837D01*
X60147187Y-92298157D01*
X59999385Y-92377159D01*
X59839005Y-92425810D01*
X59714015Y-92438120D01*
X59630425Y-92438120D01*
X59505435Y-92425810D01*
X59345055Y-92377159D01*
X59197253Y-92298157D01*
X59067703Y-92191837D01*
X58961383Y-92062287D01*
X58882381Y-91914485D01*
X58833730Y-91754105D01*
X58817304Y-91587320D01*
X58833730Y-91420535D01*
X58882381Y-91260155D01*
X58961383Y-91112353D01*
X59067703Y-90982803D01*
X59197253Y-90876483D01*
X59345055Y-90797481D01*
X59505435Y-90748830D01*
X59630425Y-90736520D01*
X59714015Y-90736520D01*
X59839005Y-90748830D01*
X59839005Y-90748830D01*
G37*
G36*
X117921185Y-90715810D02*
G01*
X118081565Y-90764461D01*
X118229367Y-90843463D01*
X118358917Y-90949783D01*
X118465237Y-91079333D01*
X118544239Y-91227135D01*
X118592890Y-91387515D01*
X118609316Y-91554300D01*
X118592890Y-91721085D01*
X118544239Y-91881465D01*
X118465237Y-92029267D01*
X118358917Y-92158817D01*
X118229367Y-92265137D01*
X118081565Y-92344139D01*
X117921185Y-92392790D01*
X117796195Y-92405100D01*
X117712605Y-92405100D01*
X117587615Y-92392790D01*
X117427235Y-92344139D01*
X117279433Y-92265137D01*
X117149883Y-92158817D01*
X117043563Y-92029267D01*
X116964561Y-91881465D01*
X116915910Y-91721085D01*
X116899484Y-91554300D01*
X116915910Y-91387515D01*
X116964561Y-91227135D01*
X117043563Y-91079333D01*
X117149883Y-90949783D01*
X117279433Y-90843463D01*
X117427235Y-90764461D01*
X117587615Y-90715810D01*
X117712605Y-90703500D01*
X117796195Y-90703500D01*
X117921185Y-90715810D01*
X117921185Y-90715810D01*
G37*
G36*
X125541185Y-90715810D02*
G01*
X125701565Y-90764461D01*
X125849367Y-90843463D01*
X125978917Y-90949783D01*
X126085237Y-91079333D01*
X126164239Y-91227135D01*
X126212890Y-91387515D01*
X126229316Y-91554300D01*
X126212890Y-91721085D01*
X126164239Y-91881465D01*
X126085237Y-92029267D01*
X125978917Y-92158817D01*
X125849367Y-92265137D01*
X125701565Y-92344139D01*
X125541185Y-92392790D01*
X125416195Y-92405100D01*
X125332605Y-92405100D01*
X125207615Y-92392790D01*
X125047235Y-92344139D01*
X124899433Y-92265137D01*
X124769883Y-92158817D01*
X124663563Y-92029267D01*
X124584561Y-91881465D01*
X124535910Y-91721085D01*
X124519484Y-91554300D01*
X124535910Y-91387515D01*
X124584561Y-91227135D01*
X124663563Y-91079333D01*
X124769883Y-90949783D01*
X124899433Y-90843463D01*
X125047235Y-90764461D01*
X125207615Y-90715810D01*
X125332605Y-90703500D01*
X125416195Y-90703500D01*
X125541185Y-90715810D01*
X125541185Y-90715810D01*
G37*
G36*
X131771378Y-89637816D02*
G01*
X131894058Y-89675031D01*
X132007115Y-89735462D01*
X132106211Y-89816789D01*
X132187538Y-89915885D01*
X132247969Y-90028942D01*
X132285184Y-90151622D01*
X132297748Y-90279200D01*
X132285184Y-90406778D01*
X132247969Y-90529458D01*
X132187538Y-90642515D01*
X132106211Y-90741611D01*
X132007115Y-90822938D01*
X131894058Y-90883369D01*
X131771378Y-90920584D01*
X131675768Y-90930000D01*
X131061832Y-90930000D01*
X130966222Y-90920584D01*
X130843542Y-90883369D01*
X130730485Y-90822938D01*
X130631389Y-90741611D01*
X130550062Y-90642515D01*
X130489631Y-90529458D01*
X130452416Y-90406778D01*
X130439852Y-90279200D01*
X130452416Y-90151622D01*
X130489631Y-90028942D01*
X130550062Y-89915885D01*
X130631389Y-89816789D01*
X130730485Y-89735462D01*
X130843542Y-89675031D01*
X130966222Y-89637816D01*
X131061832Y-89628400D01*
X131675768Y-89628400D01*
X131771378Y-89637816D01*
X131771378Y-89637816D01*
G37*
G36*
X54148978Y-89585016D02*
G01*
X54271658Y-89622231D01*
X54384715Y-89682662D01*
X54483811Y-89763989D01*
X54565138Y-89863085D01*
X54625569Y-89976142D01*
X54662784Y-90098822D01*
X54675348Y-90226400D01*
X54662784Y-90353978D01*
X54625569Y-90476658D01*
X54565138Y-90589715D01*
X54483811Y-90688811D01*
X54384715Y-90770138D01*
X54271658Y-90830569D01*
X54148978Y-90867784D01*
X54053368Y-90877200D01*
X53439432Y-90877200D01*
X53343822Y-90867784D01*
X53221142Y-90830569D01*
X53108085Y-90770138D01*
X53008989Y-90688811D01*
X52927662Y-90589715D01*
X52867231Y-90476658D01*
X52830016Y-90353978D01*
X52817452Y-90226400D01*
X52830016Y-90098822D01*
X52867231Y-89976142D01*
X52927662Y-89863085D01*
X53008989Y-89763989D01*
X53108085Y-89682662D01*
X53221142Y-89622231D01*
X53343822Y-89585016D01*
X53439432Y-89575600D01*
X54053368Y-89575600D01*
X54148978Y-89585016D01*
X54148978Y-89585016D01*
G37*
G36*
X59839005Y-88208830D02*
G01*
X59999385Y-88257481D01*
X60147187Y-88336483D01*
X60276737Y-88442803D01*
X60383057Y-88572353D01*
X60462059Y-88720155D01*
X60510710Y-88880535D01*
X60527136Y-89047320D01*
X60510710Y-89214105D01*
X60462059Y-89374485D01*
X60383057Y-89522287D01*
X60276737Y-89651837D01*
X60147187Y-89758157D01*
X59999385Y-89837159D01*
X59839005Y-89885810D01*
X59714015Y-89898120D01*
X59630425Y-89898120D01*
X59505435Y-89885810D01*
X59345055Y-89837159D01*
X59197253Y-89758157D01*
X59067703Y-89651837D01*
X58961383Y-89522287D01*
X58882381Y-89374485D01*
X58833730Y-89214105D01*
X58817304Y-89047320D01*
X58833730Y-88880535D01*
X58882381Y-88720155D01*
X58961383Y-88572353D01*
X59067703Y-88442803D01*
X59197253Y-88336483D01*
X59345055Y-88257481D01*
X59505435Y-88208830D01*
X59630425Y-88196520D01*
X59714015Y-88196520D01*
X59839005Y-88208830D01*
X59839005Y-88208830D01*
G37*
G36*
X67459005Y-88208830D02*
G01*
X67619385Y-88257481D01*
X67767187Y-88336483D01*
X67896737Y-88442803D01*
X68003057Y-88572353D01*
X68082059Y-88720155D01*
X68130710Y-88880535D01*
X68147136Y-89047320D01*
X68130710Y-89214105D01*
X68082059Y-89374485D01*
X68003057Y-89522287D01*
X67896737Y-89651837D01*
X67767187Y-89758157D01*
X67619385Y-89837159D01*
X67459005Y-89885810D01*
X67334015Y-89898120D01*
X67250425Y-89898120D01*
X67125435Y-89885810D01*
X66965055Y-89837159D01*
X66817253Y-89758157D01*
X66687703Y-89651837D01*
X66581383Y-89522287D01*
X66502381Y-89374485D01*
X66453730Y-89214105D01*
X66437304Y-89047320D01*
X66453730Y-88880535D01*
X66502381Y-88720155D01*
X66581383Y-88572353D01*
X66687703Y-88442803D01*
X66817253Y-88336483D01*
X66965055Y-88257481D01*
X67125435Y-88208830D01*
X67250425Y-88196520D01*
X67334015Y-88196520D01*
X67459005Y-88208830D01*
X67459005Y-88208830D01*
G37*
G36*
X117921185Y-88175810D02*
G01*
X118081565Y-88224461D01*
X118229367Y-88303463D01*
X118358917Y-88409783D01*
X118465237Y-88539333D01*
X118544239Y-88687135D01*
X118592890Y-88847515D01*
X118609316Y-89014300D01*
X118592890Y-89181085D01*
X118544239Y-89341465D01*
X118465237Y-89489267D01*
X118358917Y-89618817D01*
X118229367Y-89725137D01*
X118081565Y-89804139D01*
X117921185Y-89852790D01*
X117796195Y-89865100D01*
X117712605Y-89865100D01*
X117587615Y-89852790D01*
X117427235Y-89804139D01*
X117279433Y-89725137D01*
X117149883Y-89618817D01*
X117043563Y-89489267D01*
X116964561Y-89341465D01*
X116915910Y-89181085D01*
X116899484Y-89014300D01*
X116915910Y-88847515D01*
X116964561Y-88687135D01*
X117043563Y-88539333D01*
X117149883Y-88409783D01*
X117279433Y-88303463D01*
X117427235Y-88224461D01*
X117587615Y-88175810D01*
X117712605Y-88163500D01*
X117796195Y-88163500D01*
X117921185Y-88175810D01*
X117921185Y-88175810D01*
G37*
G36*
X125541185Y-88175810D02*
G01*
X125701565Y-88224461D01*
X125849367Y-88303463D01*
X125978917Y-88409783D01*
X126085237Y-88539333D01*
X126164239Y-88687135D01*
X126212890Y-88847515D01*
X126229316Y-89014300D01*
X126212890Y-89181085D01*
X126164239Y-89341465D01*
X126085237Y-89489267D01*
X125978917Y-89618817D01*
X125849367Y-89725137D01*
X125701565Y-89804139D01*
X125541185Y-89852790D01*
X125416195Y-89865100D01*
X125332605Y-89865100D01*
X125207615Y-89852790D01*
X125047235Y-89804139D01*
X124899433Y-89725137D01*
X124769883Y-89618817D01*
X124663563Y-89489267D01*
X124584561Y-89341465D01*
X124535910Y-89181085D01*
X124519484Y-89014300D01*
X124535910Y-88847515D01*
X124584561Y-88687135D01*
X124663563Y-88539333D01*
X124769883Y-88409783D01*
X124899433Y-88303463D01*
X125047235Y-88224461D01*
X125207615Y-88175810D01*
X125332605Y-88163500D01*
X125416195Y-88163500D01*
X125541185Y-88175810D01*
X125541185Y-88175810D01*
G37*
G36*
X131771378Y-87637816D02*
G01*
X131894058Y-87675031D01*
X132007115Y-87735462D01*
X132106211Y-87816789D01*
X132187538Y-87915885D01*
X132247969Y-88028942D01*
X132285184Y-88151622D01*
X132297748Y-88279200D01*
X132285184Y-88406778D01*
X132247969Y-88529458D01*
X132187538Y-88642515D01*
X132106211Y-88741611D01*
X132007115Y-88822938D01*
X131894058Y-88883369D01*
X131771378Y-88920584D01*
X131675768Y-88930000D01*
X131061832Y-88930000D01*
X130966222Y-88920584D01*
X130843542Y-88883369D01*
X130730485Y-88822938D01*
X130631389Y-88741611D01*
X130550062Y-88642515D01*
X130489631Y-88529458D01*
X130452416Y-88406778D01*
X130439852Y-88279200D01*
X130452416Y-88151622D01*
X130489631Y-88028942D01*
X130550062Y-87915885D01*
X130631389Y-87816789D01*
X130730485Y-87735462D01*
X130843542Y-87675031D01*
X130966222Y-87637816D01*
X131061832Y-87628400D01*
X131675768Y-87628400D01*
X131771378Y-87637816D01*
X131771378Y-87637816D01*
G37*
G36*
X54148978Y-87585016D02*
G01*
X54271658Y-87622231D01*
X54384715Y-87682662D01*
X54483811Y-87763989D01*
X54565138Y-87863085D01*
X54625569Y-87976142D01*
X54662784Y-88098822D01*
X54675348Y-88226400D01*
X54662784Y-88353978D01*
X54625569Y-88476658D01*
X54565138Y-88589715D01*
X54483811Y-88688811D01*
X54384715Y-88770138D01*
X54271658Y-88830569D01*
X54148978Y-88867784D01*
X54053368Y-88877200D01*
X53439432Y-88877200D01*
X53343822Y-88867784D01*
X53221142Y-88830569D01*
X53108085Y-88770138D01*
X53008989Y-88688811D01*
X52927662Y-88589715D01*
X52867231Y-88476658D01*
X52830016Y-88353978D01*
X52817452Y-88226400D01*
X52830016Y-88098822D01*
X52867231Y-87976142D01*
X52927662Y-87863085D01*
X53008989Y-87763989D01*
X53108085Y-87682662D01*
X53221142Y-87622231D01*
X53343822Y-87585016D01*
X53439432Y-87575600D01*
X54053368Y-87575600D01*
X54148978Y-87585016D01*
X54148978Y-87585016D01*
G37*
G36*
X93926785Y-86781510D02*
G01*
X94087165Y-86830161D01*
X94234967Y-86909163D01*
X94364517Y-87015483D01*
X94470837Y-87145033D01*
X94549839Y-87292835D01*
X94598490Y-87453215D01*
X94614916Y-87620000D01*
X94598490Y-87786785D01*
X94549839Y-87947165D01*
X94470837Y-88094967D01*
X94364517Y-88224517D01*
X94234967Y-88330837D01*
X94087165Y-88409839D01*
X93926785Y-88458490D01*
X93801795Y-88470800D01*
X93718205Y-88470800D01*
X93593215Y-88458490D01*
X93432835Y-88409839D01*
X93285033Y-88330837D01*
X93155483Y-88224517D01*
X93049163Y-88094967D01*
X92970161Y-87947165D01*
X92921510Y-87786785D01*
X92905084Y-87620000D01*
X92921510Y-87453215D01*
X92970161Y-87292835D01*
X93049163Y-87145033D01*
X93155483Y-87015483D01*
X93285033Y-86909163D01*
X93432835Y-86830161D01*
X93593215Y-86781510D01*
X93718205Y-86769200D01*
X93801795Y-86769200D01*
X93926785Y-86781510D01*
X93926785Y-86781510D01*
G37*
G36*
X96466785Y-86781510D02*
G01*
X96627165Y-86830161D01*
X96774967Y-86909163D01*
X96904517Y-87015483D01*
X97010837Y-87145033D01*
X97089839Y-87292835D01*
X97138490Y-87453215D01*
X97154916Y-87620000D01*
X97138490Y-87786785D01*
X97089839Y-87947165D01*
X97010837Y-88094967D01*
X96904517Y-88224517D01*
X96774967Y-88330837D01*
X96627165Y-88409839D01*
X96466785Y-88458490D01*
X96341795Y-88470800D01*
X96258205Y-88470800D01*
X96133215Y-88458490D01*
X95972835Y-88409839D01*
X95825033Y-88330837D01*
X95695483Y-88224517D01*
X95589163Y-88094967D01*
X95510161Y-87947165D01*
X95461510Y-87786785D01*
X95445084Y-87620000D01*
X95461510Y-87453215D01*
X95510161Y-87292835D01*
X95589163Y-87145033D01*
X95695483Y-87015483D01*
X95825033Y-86909163D01*
X95972835Y-86830161D01*
X96133215Y-86781510D01*
X96258205Y-86769200D01*
X96341795Y-86769200D01*
X96466785Y-86781510D01*
X96466785Y-86781510D01*
G37*
G36*
X91386785Y-86781510D02*
G01*
X91547165Y-86830161D01*
X91694967Y-86909163D01*
X91824517Y-87015483D01*
X91930837Y-87145033D01*
X92009839Y-87292835D01*
X92058490Y-87453215D01*
X92074916Y-87620000D01*
X92058490Y-87786785D01*
X92009839Y-87947165D01*
X91930837Y-88094967D01*
X91824517Y-88224517D01*
X91694967Y-88330837D01*
X91547165Y-88409839D01*
X91386785Y-88458490D01*
X91261795Y-88470800D01*
X91178205Y-88470800D01*
X91053215Y-88458490D01*
X90892835Y-88409839D01*
X90745033Y-88330837D01*
X90615483Y-88224517D01*
X90509163Y-88094967D01*
X90430161Y-87947165D01*
X90381510Y-87786785D01*
X90365084Y-87620000D01*
X90381510Y-87453215D01*
X90430161Y-87292835D01*
X90509163Y-87145033D01*
X90615483Y-87015483D01*
X90745033Y-86909163D01*
X90892835Y-86830161D01*
X91053215Y-86781510D01*
X91178205Y-86769200D01*
X91261795Y-86769200D01*
X91386785Y-86781510D01*
X91386785Y-86781510D01*
G37*
G36*
X88846785Y-86781510D02*
G01*
X89007165Y-86830161D01*
X89154967Y-86909163D01*
X89284517Y-87015483D01*
X89390837Y-87145033D01*
X89469839Y-87292835D01*
X89518490Y-87453215D01*
X89534916Y-87620000D01*
X89518490Y-87786785D01*
X89469839Y-87947165D01*
X89390837Y-88094967D01*
X89284517Y-88224517D01*
X89154967Y-88330837D01*
X89007165Y-88409839D01*
X88846785Y-88458490D01*
X88721795Y-88470800D01*
X88638205Y-88470800D01*
X88513215Y-88458490D01*
X88352835Y-88409839D01*
X88205033Y-88330837D01*
X88075483Y-88224517D01*
X87969163Y-88094967D01*
X87890161Y-87947165D01*
X87841510Y-87786785D01*
X87825084Y-87620000D01*
X87841510Y-87453215D01*
X87890161Y-87292835D01*
X87969163Y-87145033D01*
X88075483Y-87015483D01*
X88205033Y-86909163D01*
X88352835Y-86830161D01*
X88513215Y-86781510D01*
X88638205Y-86769200D01*
X88721795Y-86769200D01*
X88846785Y-86781510D01*
X88846785Y-86781510D01*
G37*
G36*
X60523020Y-87358120D02*
G01*
X58821420Y-87358120D01*
X58821420Y-85656520D01*
X60523020Y-85656520D01*
X60523020Y-87358120D01*
X60523020Y-87358120D01*
G37*
G36*
X67459005Y-85668830D02*
G01*
X67619385Y-85717481D01*
X67767187Y-85796483D01*
X67896737Y-85902803D01*
X68003057Y-86032353D01*
X68082059Y-86180155D01*
X68130710Y-86340535D01*
X68147136Y-86507320D01*
X68130710Y-86674105D01*
X68082059Y-86834485D01*
X68003057Y-86982287D01*
X67896737Y-87111837D01*
X67767187Y-87218157D01*
X67619385Y-87297159D01*
X67459005Y-87345810D01*
X67334015Y-87358120D01*
X67250425Y-87358120D01*
X67125435Y-87345810D01*
X66965055Y-87297159D01*
X66817253Y-87218157D01*
X66687703Y-87111837D01*
X66581383Y-86982287D01*
X66502381Y-86834485D01*
X66453730Y-86674105D01*
X66437304Y-86507320D01*
X66453730Y-86340535D01*
X66502381Y-86180155D01*
X66581383Y-86032353D01*
X66687703Y-85902803D01*
X66817253Y-85796483D01*
X66965055Y-85717481D01*
X67125435Y-85668830D01*
X67250425Y-85656520D01*
X67334015Y-85656520D01*
X67459005Y-85668830D01*
X67459005Y-85668830D01*
G37*
G36*
X125541185Y-85635810D02*
G01*
X125701565Y-85684461D01*
X125849367Y-85763463D01*
X125978917Y-85869783D01*
X126085237Y-85999333D01*
X126164239Y-86147135D01*
X126212890Y-86307515D01*
X126229316Y-86474300D01*
X126212890Y-86641085D01*
X126164239Y-86801465D01*
X126085237Y-86949267D01*
X125978917Y-87078817D01*
X125849367Y-87185137D01*
X125701565Y-87264139D01*
X125541185Y-87312790D01*
X125416195Y-87325100D01*
X125332605Y-87325100D01*
X125207615Y-87312790D01*
X125047235Y-87264139D01*
X124899433Y-87185137D01*
X124769883Y-87078817D01*
X124663563Y-86949267D01*
X124584561Y-86801465D01*
X124535910Y-86641085D01*
X124519484Y-86474300D01*
X124535910Y-86307515D01*
X124584561Y-86147135D01*
X124663563Y-85999333D01*
X124769883Y-85869783D01*
X124899433Y-85763463D01*
X125047235Y-85684461D01*
X125207615Y-85635810D01*
X125332605Y-85623500D01*
X125416195Y-85623500D01*
X125541185Y-85635810D01*
X125541185Y-85635810D01*
G37*
G36*
X117921185Y-85635810D02*
G01*
X118081565Y-85684461D01*
X118229367Y-85763463D01*
X118358917Y-85869783D01*
X118465237Y-85999333D01*
X118544239Y-86147135D01*
X118592890Y-86307515D01*
X118609316Y-86474300D01*
X118592890Y-86641085D01*
X118544239Y-86801465D01*
X118465237Y-86949267D01*
X118358917Y-87078817D01*
X118229367Y-87185137D01*
X118081565Y-87264139D01*
X117921185Y-87312790D01*
X117796195Y-87325100D01*
X117712605Y-87325100D01*
X117587615Y-87312790D01*
X117427235Y-87264139D01*
X117279433Y-87185137D01*
X117149883Y-87078817D01*
X117043563Y-86949267D01*
X116964561Y-86801465D01*
X116915910Y-86641085D01*
X116899484Y-86474300D01*
X116915910Y-86307515D01*
X116964561Y-86147135D01*
X117043563Y-85999333D01*
X117149883Y-85869783D01*
X117279433Y-85763463D01*
X117427235Y-85684461D01*
X117587615Y-85635810D01*
X117712605Y-85623500D01*
X117796195Y-85623500D01*
X117921185Y-85635810D01*
X117921185Y-85635810D01*
G37*
G36*
X131771378Y-85637816D02*
G01*
X131894058Y-85675031D01*
X132007115Y-85735462D01*
X132106211Y-85816789D01*
X132187538Y-85915885D01*
X132247969Y-86028942D01*
X132285184Y-86151622D01*
X132297748Y-86279200D01*
X132285184Y-86406778D01*
X132247969Y-86529458D01*
X132187538Y-86642515D01*
X132106211Y-86741611D01*
X132007115Y-86822938D01*
X131894058Y-86883369D01*
X131771378Y-86920584D01*
X131675768Y-86930000D01*
X131061832Y-86930000D01*
X130966222Y-86920584D01*
X130843542Y-86883369D01*
X130730485Y-86822938D01*
X130631389Y-86741611D01*
X130550062Y-86642515D01*
X130489631Y-86529458D01*
X130452416Y-86406778D01*
X130439852Y-86279200D01*
X130452416Y-86151622D01*
X130489631Y-86028942D01*
X130550062Y-85915885D01*
X130631389Y-85816789D01*
X130730485Y-85735462D01*
X130843542Y-85675031D01*
X130966222Y-85637816D01*
X131061832Y-85628400D01*
X131675768Y-85628400D01*
X131771378Y-85637816D01*
X131771378Y-85637816D01*
G37*
G36*
X54148978Y-85585016D02*
G01*
X54271658Y-85622231D01*
X54384715Y-85682662D01*
X54483811Y-85763989D01*
X54565138Y-85863085D01*
X54625569Y-85976142D01*
X54662784Y-86098822D01*
X54675348Y-86226400D01*
X54662784Y-86353978D01*
X54625569Y-86476658D01*
X54565138Y-86589715D01*
X54483811Y-86688811D01*
X54384715Y-86770138D01*
X54271658Y-86830569D01*
X54148978Y-86867784D01*
X54053368Y-86877200D01*
X53439432Y-86877200D01*
X53343822Y-86867784D01*
X53221142Y-86830569D01*
X53108085Y-86770138D01*
X53008989Y-86688811D01*
X52927662Y-86589715D01*
X52867231Y-86476658D01*
X52830016Y-86353978D01*
X52817452Y-86226400D01*
X52830016Y-86098822D01*
X52867231Y-85976142D01*
X52927662Y-85863085D01*
X53008989Y-85763989D01*
X53108085Y-85682662D01*
X53221142Y-85622231D01*
X53343822Y-85585016D01*
X53439432Y-85575600D01*
X54053368Y-85575600D01*
X54148978Y-85585016D01*
X54148978Y-85585016D01*
G37*
G36*
X131771378Y-83637816D02*
G01*
X131894058Y-83675031D01*
X132007115Y-83735462D01*
X132106211Y-83816789D01*
X132187538Y-83915885D01*
X132247969Y-84028942D01*
X132285184Y-84151622D01*
X132297748Y-84279200D01*
X132285184Y-84406778D01*
X132247969Y-84529458D01*
X132187538Y-84642515D01*
X132106211Y-84741611D01*
X132007115Y-84822938D01*
X131894058Y-84883369D01*
X131771378Y-84920584D01*
X131675768Y-84930000D01*
X131061832Y-84930000D01*
X130966222Y-84920584D01*
X130843542Y-84883369D01*
X130730485Y-84822938D01*
X130631389Y-84741611D01*
X130550062Y-84642515D01*
X130489631Y-84529458D01*
X130452416Y-84406778D01*
X130439852Y-84279200D01*
X130452416Y-84151622D01*
X130489631Y-84028942D01*
X130550062Y-83915885D01*
X130631389Y-83816789D01*
X130730485Y-83735462D01*
X130843542Y-83675031D01*
X130966222Y-83637816D01*
X131061832Y-83628400D01*
X131675768Y-83628400D01*
X131771378Y-83637816D01*
X131771378Y-83637816D01*
G37*
G36*
X54477598Y-83580484D02*
G01*
X54522899Y-83594226D01*
X54564640Y-83616537D01*
X54601233Y-83646567D01*
X54631263Y-83683160D01*
X54653574Y-83724901D01*
X54667316Y-83770202D01*
X54672200Y-83819791D01*
X54672200Y-84633009D01*
X54667316Y-84682598D01*
X54653574Y-84727899D01*
X54631263Y-84769640D01*
X54601233Y-84806233D01*
X54564640Y-84836263D01*
X54522899Y-84858574D01*
X54477598Y-84872316D01*
X54428009Y-84877200D01*
X53064791Y-84877200D01*
X53015202Y-84872316D01*
X52969901Y-84858574D01*
X52928160Y-84836263D01*
X52891567Y-84806233D01*
X52861537Y-84769640D01*
X52839226Y-84727899D01*
X52825484Y-84682598D01*
X52820600Y-84633009D01*
X52820600Y-83819791D01*
X52825484Y-83770202D01*
X52839226Y-83724901D01*
X52861537Y-83683160D01*
X52891567Y-83646567D01*
X52928160Y-83616537D01*
X52969901Y-83594226D01*
X53015202Y-83580484D01*
X53064791Y-83575600D01*
X54428009Y-83575600D01*
X54477598Y-83580484D01*
X54477598Y-83580484D01*
G37*
G36*
X107656681Y-80963717D02*
G01*
X107656684Y-80963718D01*
X107656685Y-80963718D01*
X107705894Y-80978646D01*
X107845804Y-81021087D01*
X107962001Y-81083196D01*
X108020101Y-81114251D01*
X108067567Y-81153206D01*
X108172873Y-81239627D01*
X108259294Y-81344933D01*
X108298249Y-81392399D01*
X108329304Y-81450499D01*
X108391413Y-81566697D01*
X108433854Y-81706607D01*
X108448782Y-81755815D01*
X108448783Y-81755820D01*
X108463300Y-81903217D01*
X108463300Y-82096784D01*
X108448783Y-82244181D01*
X108391413Y-82433304D01*
X108329304Y-82549501D01*
X108298249Y-82607601D01*
X108259294Y-82655067D01*
X108172873Y-82760373D01*
X108067567Y-82846794D01*
X108020101Y-82885749D01*
X107962001Y-82916804D01*
X107845803Y-82978913D01*
X107705893Y-83021354D01*
X107656684Y-83036282D01*
X107656683Y-83036282D01*
X107656680Y-83036283D01*
X107460000Y-83055654D01*
X107263319Y-83036283D01*
X107263316Y-83036282D01*
X107263315Y-83036282D01*
X107214106Y-83021354D01*
X107074196Y-82978913D01*
X106957999Y-82916804D01*
X106899899Y-82885749D01*
X106852433Y-82846794D01*
X106747127Y-82760373D01*
X106660706Y-82655067D01*
X106621751Y-82607601D01*
X106590696Y-82549501D01*
X106528587Y-82433303D01*
X106486146Y-82293393D01*
X106471218Y-82244184D01*
X106471218Y-82244183D01*
X106471217Y-82244180D01*
X106456700Y-82096783D01*
X106456700Y-81903216D01*
X106471217Y-81755819D01*
X106528587Y-81566696D01*
X106590696Y-81450499D01*
X106621751Y-81392399D01*
X106660706Y-81344933D01*
X106747127Y-81239627D01*
X106899900Y-81114251D01*
X107074197Y-81021087D01*
X107214107Y-80978646D01*
X107263316Y-80963718D01*
X107263317Y-80963718D01*
X107263320Y-80963717D01*
X107460000Y-80944346D01*
X107656681Y-80963717D01*
X107656681Y-80963717D01*
G37*
G36*
X75116681Y-80963717D02*
G01*
X75116684Y-80963718D01*
X75116685Y-80963718D01*
X75165894Y-80978646D01*
X75305804Y-81021087D01*
X75422001Y-81083196D01*
X75480101Y-81114251D01*
X75527567Y-81153206D01*
X75632873Y-81239627D01*
X75719294Y-81344933D01*
X75758249Y-81392399D01*
X75789304Y-81450499D01*
X75851413Y-81566697D01*
X75893854Y-81706607D01*
X75908782Y-81755815D01*
X75908783Y-81755820D01*
X75923300Y-81903217D01*
X75923300Y-82096784D01*
X75908783Y-82244181D01*
X75851413Y-82433304D01*
X75789304Y-82549501D01*
X75758249Y-82607601D01*
X75719294Y-82655067D01*
X75632873Y-82760373D01*
X75527567Y-82846794D01*
X75480101Y-82885749D01*
X75422001Y-82916804D01*
X75305803Y-82978913D01*
X75165893Y-83021354D01*
X75116684Y-83036282D01*
X75116683Y-83036282D01*
X75116680Y-83036283D01*
X74920000Y-83055654D01*
X74723319Y-83036283D01*
X74723316Y-83036282D01*
X74723315Y-83036282D01*
X74674106Y-83021354D01*
X74534196Y-82978913D01*
X74417999Y-82916804D01*
X74359899Y-82885749D01*
X74312433Y-82846794D01*
X74207127Y-82760373D01*
X74120706Y-82655067D01*
X74081751Y-82607601D01*
X74050696Y-82549501D01*
X73988587Y-82433303D01*
X73946146Y-82293393D01*
X73931218Y-82244184D01*
X73931218Y-82244183D01*
X73931217Y-82244180D01*
X73916700Y-82096783D01*
X73916700Y-81903216D01*
X73931217Y-81755819D01*
X73988587Y-81566696D01*
X74050696Y-81450499D01*
X74081751Y-81392399D01*
X74120706Y-81344933D01*
X74207127Y-81239627D01*
X74359900Y-81114251D01*
X74534197Y-81021087D01*
X74674107Y-80978646D01*
X74723316Y-80963718D01*
X74723317Y-80963718D01*
X74723320Y-80963717D01*
X74920000Y-80944346D01*
X75116681Y-80963717D01*
X75116681Y-80963717D01*
G37*
G36*
X77656681Y-80963717D02*
G01*
X77656684Y-80963718D01*
X77656685Y-80963718D01*
X77705894Y-80978646D01*
X77845804Y-81021087D01*
X77962001Y-81083196D01*
X78020101Y-81114251D01*
X78067567Y-81153206D01*
X78172873Y-81239627D01*
X78259294Y-81344933D01*
X78298249Y-81392399D01*
X78329304Y-81450499D01*
X78391413Y-81566697D01*
X78433854Y-81706607D01*
X78448782Y-81755815D01*
X78448783Y-81755820D01*
X78463300Y-81903217D01*
X78463300Y-82096784D01*
X78448783Y-82244181D01*
X78391413Y-82433304D01*
X78329304Y-82549501D01*
X78298249Y-82607601D01*
X78259294Y-82655067D01*
X78172873Y-82760373D01*
X78067567Y-82846794D01*
X78020101Y-82885749D01*
X77962001Y-82916804D01*
X77845803Y-82978913D01*
X77705893Y-83021354D01*
X77656684Y-83036282D01*
X77656683Y-83036282D01*
X77656680Y-83036283D01*
X77460000Y-83055654D01*
X77263319Y-83036283D01*
X77263316Y-83036282D01*
X77263315Y-83036282D01*
X77214106Y-83021354D01*
X77074196Y-82978913D01*
X76957999Y-82916804D01*
X76899899Y-82885749D01*
X76852433Y-82846794D01*
X76747127Y-82760373D01*
X76660706Y-82655067D01*
X76621751Y-82607601D01*
X76590696Y-82549501D01*
X76528587Y-82433303D01*
X76486146Y-82293393D01*
X76471218Y-82244184D01*
X76471218Y-82244183D01*
X76471217Y-82244180D01*
X76456700Y-82096783D01*
X76456700Y-81903216D01*
X76471217Y-81755819D01*
X76528587Y-81566696D01*
X76590696Y-81450499D01*
X76621751Y-81392399D01*
X76660706Y-81344933D01*
X76747127Y-81239627D01*
X76899900Y-81114251D01*
X77074197Y-81021087D01*
X77214107Y-80978646D01*
X77263316Y-80963718D01*
X77263317Y-80963718D01*
X77263320Y-80963717D01*
X77460000Y-80944346D01*
X77656681Y-80963717D01*
X77656681Y-80963717D01*
G37*
G36*
X105116681Y-80963717D02*
G01*
X105116684Y-80963718D01*
X105116685Y-80963718D01*
X105165894Y-80978646D01*
X105305804Y-81021087D01*
X105422001Y-81083196D01*
X105480101Y-81114251D01*
X105527567Y-81153206D01*
X105632873Y-81239627D01*
X105719294Y-81344933D01*
X105758249Y-81392399D01*
X105789304Y-81450499D01*
X105851413Y-81566697D01*
X105893854Y-81706607D01*
X105908782Y-81755815D01*
X105908783Y-81755820D01*
X105923300Y-81903217D01*
X105923300Y-82096784D01*
X105908783Y-82244181D01*
X105851413Y-82433304D01*
X105789304Y-82549501D01*
X105758249Y-82607601D01*
X105719294Y-82655067D01*
X105632873Y-82760373D01*
X105527567Y-82846794D01*
X105480101Y-82885749D01*
X105422001Y-82916804D01*
X105305803Y-82978913D01*
X105165893Y-83021354D01*
X105116684Y-83036282D01*
X105116683Y-83036282D01*
X105116680Y-83036283D01*
X104920000Y-83055654D01*
X104723319Y-83036283D01*
X104723316Y-83036282D01*
X104723315Y-83036282D01*
X104674106Y-83021354D01*
X104534196Y-82978913D01*
X104417999Y-82916804D01*
X104359899Y-82885749D01*
X104312433Y-82846794D01*
X104207127Y-82760373D01*
X104120706Y-82655067D01*
X104081751Y-82607601D01*
X104050696Y-82549501D01*
X103988587Y-82433303D01*
X103946146Y-82293393D01*
X103931218Y-82244184D01*
X103931218Y-82244183D01*
X103931217Y-82244180D01*
X103916700Y-82096783D01*
X103916700Y-81903216D01*
X103931217Y-81755819D01*
X103988587Y-81566696D01*
X104050696Y-81450499D01*
X104081751Y-81392399D01*
X104120706Y-81344933D01*
X104207127Y-81239627D01*
X104359900Y-81114251D01*
X104534197Y-81021087D01*
X104674107Y-80978646D01*
X104723316Y-80963718D01*
X104723317Y-80963718D01*
X104723320Y-80963717D01*
X104920000Y-80944346D01*
X105116681Y-80963717D01*
X105116681Y-80963717D01*
G37*
G36*
X81003300Y-83050800D02*
G01*
X78996700Y-83050800D01*
X78996700Y-80949200D01*
X81003300Y-80949200D01*
X81003300Y-83050800D01*
X81003300Y-83050800D01*
G37*
G36*
X111003300Y-83050800D02*
G01*
X108996700Y-83050800D01*
X108996700Y-80949200D01*
X111003300Y-80949200D01*
X111003300Y-83050800D01*
X111003300Y-83050800D01*
G37*
G36*
X97150800Y-80850800D02*
G01*
X95449200Y-80850800D01*
X95449200Y-79149200D01*
X97150800Y-79149200D01*
X97150800Y-80850800D01*
X97150800Y-80850800D01*
G37*
G36*
X88846785Y-79161510D02*
G01*
X89007165Y-79210161D01*
X89154967Y-79289163D01*
X89284517Y-79395483D01*
X89390837Y-79525033D01*
X89469839Y-79672835D01*
X89518490Y-79833215D01*
X89534916Y-80000000D01*
X89518490Y-80166785D01*
X89469839Y-80327165D01*
X89390837Y-80474967D01*
X89284517Y-80604517D01*
X89154967Y-80710837D01*
X89007165Y-80789839D01*
X88846785Y-80838490D01*
X88721795Y-80850800D01*
X88638205Y-80850800D01*
X88513215Y-80838490D01*
X88352835Y-80789839D01*
X88205033Y-80710837D01*
X88075483Y-80604517D01*
X87969163Y-80474967D01*
X87890161Y-80327165D01*
X87841510Y-80166785D01*
X87825084Y-80000000D01*
X87841510Y-79833215D01*
X87890161Y-79672835D01*
X87969163Y-79525033D01*
X88075483Y-79395483D01*
X88205033Y-79289163D01*
X88352835Y-79210161D01*
X88513215Y-79161510D01*
X88638205Y-79149200D01*
X88721795Y-79149200D01*
X88846785Y-79161510D01*
X88846785Y-79161510D01*
G37*
G36*
X93926785Y-79161510D02*
G01*
X94087165Y-79210161D01*
X94234967Y-79289163D01*
X94364517Y-79395483D01*
X94470837Y-79525033D01*
X94549839Y-79672835D01*
X94598490Y-79833215D01*
X94614916Y-80000000D01*
X94598490Y-80166785D01*
X94549839Y-80327165D01*
X94470837Y-80474967D01*
X94364517Y-80604517D01*
X94234967Y-80710837D01*
X94087165Y-80789839D01*
X93926785Y-80838490D01*
X93801795Y-80850800D01*
X93718205Y-80850800D01*
X93593215Y-80838490D01*
X93432835Y-80789839D01*
X93285033Y-80710837D01*
X93155483Y-80604517D01*
X93049163Y-80474967D01*
X92970161Y-80327165D01*
X92921510Y-80166785D01*
X92905084Y-80000000D01*
X92921510Y-79833215D01*
X92970161Y-79672835D01*
X93049163Y-79525033D01*
X93155483Y-79395483D01*
X93285033Y-79289163D01*
X93432835Y-79210161D01*
X93593215Y-79161510D01*
X93718205Y-79149200D01*
X93801795Y-79149200D01*
X93926785Y-79161510D01*
X93926785Y-79161510D01*
G37*
G36*
X91386785Y-79161510D02*
G01*
X91547165Y-79210161D01*
X91694967Y-79289163D01*
X91824517Y-79395483D01*
X91930837Y-79525033D01*
X92009839Y-79672835D01*
X92058490Y-79833215D01*
X92074916Y-80000000D01*
X92058490Y-80166785D01*
X92009839Y-80327165D01*
X91930837Y-80474967D01*
X91824517Y-80604517D01*
X91694967Y-80710837D01*
X91547165Y-80789839D01*
X91386785Y-80838490D01*
X91261795Y-80850800D01*
X91178205Y-80850800D01*
X91053215Y-80838490D01*
X90892835Y-80789839D01*
X90745033Y-80710837D01*
X90615483Y-80604517D01*
X90509163Y-80474967D01*
X90430161Y-80327165D01*
X90381510Y-80166785D01*
X90365084Y-80000000D01*
X90381510Y-79833215D01*
X90430161Y-79672835D01*
X90509163Y-79525033D01*
X90615483Y-79395483D01*
X90745033Y-79289163D01*
X90892835Y-79210161D01*
X91053215Y-79161510D01*
X91178205Y-79149200D01*
X91261795Y-79149200D01*
X91386785Y-79161510D01*
X91386785Y-79161510D01*
G37*
G36*
X55025617Y-73282096D02*
G01*
X55148297Y-73319311D01*
X55261354Y-73379742D01*
X55300442Y-73411821D01*
X55360451Y-73461069D01*
X55416764Y-73529687D01*
X55441780Y-73560168D01*
X55502209Y-73673222D01*
X55539424Y-73795902D01*
X55548840Y-73891512D01*
X55548840Y-74505448D01*
X55539424Y-74601058D01*
X55502209Y-74723738D01*
X55441778Y-74836795D01*
X55360451Y-74935891D01*
X55261355Y-75017218D01*
X55148298Y-75077649D01*
X55025618Y-75114864D01*
X54898040Y-75127428D01*
X54770463Y-75114864D01*
X54647783Y-75077649D01*
X54534726Y-75017218D01*
X54435632Y-74935893D01*
X54427294Y-74925733D01*
X54386097Y-74875536D01*
X54354300Y-74836792D01*
X54293871Y-74723738D01*
X54256656Y-74601058D01*
X54247240Y-74505448D01*
X54247240Y-73891513D01*
X54256656Y-73795903D01*
X54293871Y-73673223D01*
X54354302Y-73560166D01*
X54414848Y-73486391D01*
X54435629Y-73461069D01*
X54520398Y-73391501D01*
X54534728Y-73379740D01*
X54647782Y-73319311D01*
X54770462Y-73282096D01*
X54898040Y-73269532D01*
X55025617Y-73282096D01*
X55025617Y-73282096D01*
G37*
G36*
X53354238Y-73277564D02*
G01*
X53399539Y-73291306D01*
X53441280Y-73313617D01*
X53477873Y-73343647D01*
X53507903Y-73380240D01*
X53530214Y-73421981D01*
X53543956Y-73467282D01*
X53548840Y-73516871D01*
X53548840Y-74880089D01*
X53543956Y-74929678D01*
X53530214Y-74974979D01*
X53507903Y-75016720D01*
X53477873Y-75053313D01*
X53441280Y-75083343D01*
X53399539Y-75105654D01*
X53354238Y-75119396D01*
X53304649Y-75124280D01*
X52491431Y-75124280D01*
X52441842Y-75119396D01*
X52396541Y-75105654D01*
X52354800Y-75083343D01*
X52318207Y-75053313D01*
X52288177Y-75016720D01*
X52265866Y-74974979D01*
X52252124Y-74929678D01*
X52247240Y-74880089D01*
X52247240Y-73516871D01*
X52252124Y-73467282D01*
X52265866Y-73421981D01*
X52288177Y-73380240D01*
X52318207Y-73343647D01*
X52354800Y-73313617D01*
X52396541Y-73291306D01*
X52441842Y-73277564D01*
X52491431Y-73272680D01*
X53304649Y-73272680D01*
X53354238Y-73277564D01*
X53354238Y-73277564D01*
G37*
G36*
X119008217Y-73271936D02*
G01*
X119130897Y-73309151D01*
X119243954Y-73369582D01*
X119295422Y-73411821D01*
X119343051Y-73450909D01*
X119394308Y-73513366D01*
X119424380Y-73550008D01*
X119484809Y-73663062D01*
X119522024Y-73785742D01*
X119531440Y-73881352D01*
X119531440Y-74495288D01*
X119522024Y-74590898D01*
X119484809Y-74713578D01*
X119424378Y-74826635D01*
X119343051Y-74925731D01*
X119243955Y-75007058D01*
X119130898Y-75067489D01*
X119008218Y-75104704D01*
X118880640Y-75117268D01*
X118753063Y-75104704D01*
X118630383Y-75067489D01*
X118517326Y-75007058D01*
X118418232Y-74925733D01*
X118336900Y-74826632D01*
X118276471Y-74713578D01*
X118239256Y-74590898D01*
X118229840Y-74495288D01*
X118229840Y-73881353D01*
X118239256Y-73785743D01*
X118276471Y-73663063D01*
X118336902Y-73550006D01*
X118409893Y-73461067D01*
X118418229Y-73450909D01*
X118517326Y-73369582D01*
X118517328Y-73369580D01*
X118630382Y-73309151D01*
X118753062Y-73271936D01*
X118880640Y-73259372D01*
X119008217Y-73271936D01*
X119008217Y-73271936D01*
G37*
G36*
X121008217Y-73271936D02*
G01*
X121130897Y-73309151D01*
X121243954Y-73369582D01*
X121295422Y-73411821D01*
X121343051Y-73450909D01*
X121394308Y-73513366D01*
X121424380Y-73550008D01*
X121484809Y-73663062D01*
X121522024Y-73785742D01*
X121531440Y-73881352D01*
X121531440Y-74495288D01*
X121522024Y-74590898D01*
X121484809Y-74713578D01*
X121424378Y-74826635D01*
X121343051Y-74925731D01*
X121243955Y-75007058D01*
X121130898Y-75067489D01*
X121008218Y-75104704D01*
X120880640Y-75117268D01*
X120753063Y-75104704D01*
X120630383Y-75067489D01*
X120517326Y-75007058D01*
X120418232Y-74925733D01*
X120336900Y-74826632D01*
X120276471Y-74713578D01*
X120239256Y-74590898D01*
X120229840Y-74495288D01*
X120229840Y-73881353D01*
X120239256Y-73785743D01*
X120276471Y-73663063D01*
X120336902Y-73550006D01*
X120409893Y-73461067D01*
X120418229Y-73450909D01*
X120517326Y-73369582D01*
X120517328Y-73369580D01*
X120630382Y-73309151D01*
X120753062Y-73271936D01*
X120880640Y-73259372D01*
X121008217Y-73271936D01*
X121008217Y-73271936D01*
G37*
G36*
X117336838Y-73267404D02*
G01*
X117382139Y-73281146D01*
X117423880Y-73303457D01*
X117460473Y-73333487D01*
X117490503Y-73370080D01*
X117512814Y-73411821D01*
X117526556Y-73457122D01*
X117531440Y-73506711D01*
X117531440Y-74869929D01*
X117526556Y-74919518D01*
X117512814Y-74964819D01*
X117490503Y-75006560D01*
X117460473Y-75043153D01*
X117423880Y-75073183D01*
X117382139Y-75095494D01*
X117336838Y-75109236D01*
X117287249Y-75114120D01*
X116474031Y-75114120D01*
X116424442Y-75109236D01*
X116379141Y-75095494D01*
X116337400Y-75073183D01*
X116300807Y-75043153D01*
X116270777Y-75006560D01*
X116248466Y-74964819D01*
X116234724Y-74919518D01*
X116229840Y-74869929D01*
X116229840Y-73506711D01*
X116234724Y-73457122D01*
X116248466Y-73411821D01*
X116270777Y-73370080D01*
X116300807Y-73333487D01*
X116337400Y-73303457D01*
X116379141Y-73281146D01*
X116424442Y-73267404D01*
X116474031Y-73262520D01*
X117287249Y-73262520D01*
X117336838Y-73267404D01*
X117336838Y-73267404D01*
G37*
G36*
X132226377Y-73251616D02*
G01*
X132349057Y-73288831D01*
X132462114Y-73349262D01*
X132499860Y-73380240D01*
X132561211Y-73430589D01*
X132610743Y-73490944D01*
X132642540Y-73529688D01*
X132702969Y-73642742D01*
X132740184Y-73765422D01*
X132749600Y-73861032D01*
X132749600Y-74474968D01*
X132740184Y-74570578D01*
X132702969Y-74693258D01*
X132642538Y-74806315D01*
X132561211Y-74905411D01*
X132462115Y-74986738D01*
X132349058Y-75047169D01*
X132226378Y-75084384D01*
X132098800Y-75096948D01*
X131971223Y-75084384D01*
X131848543Y-75047169D01*
X131735486Y-74986738D01*
X131636392Y-74905413D01*
X131628549Y-74895856D01*
X131571737Y-74826632D01*
X131555060Y-74806312D01*
X131494631Y-74693258D01*
X131457416Y-74570578D01*
X131448000Y-74474968D01*
X131448000Y-73861033D01*
X131457416Y-73765423D01*
X131494631Y-73642743D01*
X131555062Y-73529686D01*
X131610332Y-73462340D01*
X131636389Y-73430589D01*
X131735486Y-73349262D01*
X131735488Y-73349260D01*
X131848542Y-73288831D01*
X131971222Y-73251616D01*
X132098800Y-73239052D01*
X132226377Y-73251616D01*
X132226377Y-73251616D01*
G37*
G36*
X130554998Y-73247084D02*
G01*
X130600299Y-73260826D01*
X130642040Y-73283137D01*
X130678633Y-73313167D01*
X130708663Y-73349760D01*
X130730974Y-73391501D01*
X130744716Y-73436802D01*
X130749600Y-73486391D01*
X130749600Y-74849609D01*
X130744716Y-74899198D01*
X130730974Y-74944499D01*
X130708663Y-74986240D01*
X130678633Y-75022833D01*
X130642040Y-75052863D01*
X130600299Y-75075174D01*
X130554998Y-75088916D01*
X130505409Y-75093800D01*
X129692191Y-75093800D01*
X129642602Y-75088916D01*
X129597301Y-75075174D01*
X129555560Y-75052863D01*
X129518967Y-75022833D01*
X129488937Y-74986240D01*
X129466626Y-74944499D01*
X129452884Y-74899198D01*
X129448000Y-74849609D01*
X129448000Y-73486391D01*
X129452884Y-73436802D01*
X129466626Y-73391501D01*
X129488937Y-73349760D01*
X129518967Y-73313167D01*
X129555560Y-73283137D01*
X129597301Y-73260826D01*
X129642602Y-73247084D01*
X129692191Y-73242200D01*
X130505409Y-73242200D01*
X130554998Y-73247084D01*
X130554998Y-73247084D01*
G37*
G36*
X83858169Y-71983375D02*
G01*
X84013005Y-72047511D01*
X84152354Y-72140620D01*
X84270860Y-72259126D01*
X84363969Y-72398475D01*
X84428105Y-72553311D01*
X84460800Y-72717683D01*
X84460800Y-72885277D01*
X84428105Y-73049649D01*
X84363969Y-73204485D01*
X84270860Y-73343834D01*
X84152354Y-73462340D01*
X84013005Y-73555449D01*
X83858169Y-73619585D01*
X83693797Y-73652280D01*
X83526203Y-73652280D01*
X83361831Y-73619585D01*
X83206995Y-73555449D01*
X83067646Y-73462340D01*
X82949140Y-73343834D01*
X82856031Y-73204485D01*
X82791895Y-73049649D01*
X82759200Y-72885277D01*
X82759200Y-72717683D01*
X82791895Y-72553311D01*
X82856031Y-72398475D01*
X82949140Y-72259126D01*
X83067646Y-72140620D01*
X83206995Y-72047511D01*
X83361831Y-71983375D01*
X83526203Y-71950680D01*
X83693797Y-71950680D01*
X83858169Y-71983375D01*
X83858169Y-71983375D01*
G37*
G36*
X76238169Y-71983375D02*
G01*
X76393005Y-72047511D01*
X76532354Y-72140620D01*
X76650860Y-72259126D01*
X76743969Y-72398475D01*
X76808105Y-72553311D01*
X76840800Y-72717683D01*
X76840800Y-72885277D01*
X76808105Y-73049649D01*
X76743969Y-73204485D01*
X76650860Y-73343834D01*
X76532354Y-73462340D01*
X76393005Y-73555449D01*
X76238169Y-73619585D01*
X76073797Y-73652280D01*
X75906203Y-73652280D01*
X75741831Y-73619585D01*
X75586995Y-73555449D01*
X75447646Y-73462340D01*
X75329140Y-73343834D01*
X75236031Y-73204485D01*
X75171895Y-73049649D01*
X75139200Y-72885277D01*
X75139200Y-72717683D01*
X75171895Y-72553311D01*
X75236031Y-72398475D01*
X75329140Y-72259126D01*
X75447646Y-72140620D01*
X75586995Y-72047511D01*
X75741831Y-71983375D01*
X75906203Y-71950680D01*
X76073797Y-71950680D01*
X76238169Y-71983375D01*
X76238169Y-71983375D01*
G37*
G36*
X78778169Y-71983375D02*
G01*
X78933005Y-72047511D01*
X79072354Y-72140620D01*
X79190860Y-72259126D01*
X79283969Y-72398475D01*
X79348105Y-72553311D01*
X79380800Y-72717683D01*
X79380800Y-72885277D01*
X79348105Y-73049649D01*
X79283969Y-73204485D01*
X79190860Y-73343834D01*
X79072354Y-73462340D01*
X78933005Y-73555449D01*
X78778169Y-73619585D01*
X78613797Y-73652280D01*
X78446203Y-73652280D01*
X78281831Y-73619585D01*
X78126995Y-73555449D01*
X77987646Y-73462340D01*
X77869140Y-73343834D01*
X77776031Y-73204485D01*
X77711895Y-73049649D01*
X77679200Y-72885277D01*
X77679200Y-72717683D01*
X77711895Y-72553311D01*
X77776031Y-72398475D01*
X77869140Y-72259126D01*
X77987646Y-72140620D01*
X78126995Y-72047511D01*
X78281831Y-71983375D01*
X78446203Y-71950680D01*
X78613797Y-71950680D01*
X78778169Y-71983375D01*
X78778169Y-71983375D01*
G37*
G36*
X81318169Y-71983375D02*
G01*
X81473005Y-72047511D01*
X81612354Y-72140620D01*
X81730860Y-72259126D01*
X81823969Y-72398475D01*
X81888105Y-72553311D01*
X81920800Y-72717683D01*
X81920800Y-72885277D01*
X81888105Y-73049649D01*
X81823969Y-73204485D01*
X81730860Y-73343834D01*
X81612354Y-73462340D01*
X81473005Y-73555449D01*
X81318169Y-73619585D01*
X81153797Y-73652280D01*
X80986203Y-73652280D01*
X80821831Y-73619585D01*
X80666995Y-73555449D01*
X80527646Y-73462340D01*
X80409140Y-73343834D01*
X80316031Y-73204485D01*
X80251895Y-73049649D01*
X80219200Y-72885277D01*
X80219200Y-72717683D01*
X80251895Y-72553311D01*
X80316031Y-72398475D01*
X80409140Y-72259126D01*
X80527646Y-72140620D01*
X80666995Y-72047511D01*
X80821831Y-71983375D01*
X80986203Y-71950680D01*
X81153797Y-71950680D01*
X81318169Y-71983375D01*
X81318169Y-71983375D01*
G37*
G36*
X86398169Y-71983375D02*
G01*
X86553005Y-72047511D01*
X86692354Y-72140620D01*
X86810860Y-72259126D01*
X86903969Y-72398475D01*
X86968105Y-72553311D01*
X87000800Y-72717683D01*
X87000800Y-72885277D01*
X86968105Y-73049649D01*
X86903969Y-73204485D01*
X86810860Y-73343834D01*
X86692354Y-73462340D01*
X86553005Y-73555449D01*
X86398169Y-73619585D01*
X86233797Y-73652280D01*
X86066203Y-73652280D01*
X85901831Y-73619585D01*
X85746995Y-73555449D01*
X85607646Y-73462340D01*
X85489140Y-73343834D01*
X85396031Y-73204485D01*
X85331895Y-73049649D01*
X85299200Y-72885277D01*
X85299200Y-72717683D01*
X85331895Y-72553311D01*
X85396031Y-72398475D01*
X85489140Y-72259126D01*
X85607646Y-72140620D01*
X85746995Y-72047511D01*
X85901831Y-71983375D01*
X86066203Y-71950680D01*
X86233797Y-71950680D01*
X86398169Y-71983375D01*
X86398169Y-71983375D01*
G37*
G36*
X88938169Y-71983375D02*
G01*
X89093005Y-72047511D01*
X89232354Y-72140620D01*
X89350860Y-72259126D01*
X89443969Y-72398475D01*
X89508105Y-72553311D01*
X89540800Y-72717683D01*
X89540800Y-72885277D01*
X89508105Y-73049649D01*
X89443969Y-73204485D01*
X89350860Y-73343834D01*
X89232354Y-73462340D01*
X89093005Y-73555449D01*
X88938169Y-73619585D01*
X88773797Y-73652280D01*
X88606203Y-73652280D01*
X88441831Y-73619585D01*
X88286995Y-73555449D01*
X88147646Y-73462340D01*
X88029140Y-73343834D01*
X87936031Y-73204485D01*
X87871895Y-73049649D01*
X87839200Y-72885277D01*
X87839200Y-72717683D01*
X87871895Y-72553311D01*
X87936031Y-72398475D01*
X88029140Y-72259126D01*
X88147646Y-72140620D01*
X88286995Y-72047511D01*
X88441831Y-71983375D01*
X88606203Y-71950680D01*
X88773797Y-71950680D01*
X88938169Y-71983375D01*
X88938169Y-71983375D01*
G37*
G36*
X91478169Y-71983375D02*
G01*
X91633005Y-72047511D01*
X91772354Y-72140620D01*
X91890860Y-72259126D01*
X91983969Y-72398475D01*
X92048105Y-72553311D01*
X92080800Y-72717683D01*
X92080800Y-72885277D01*
X92048105Y-73049649D01*
X91983969Y-73204485D01*
X91890860Y-73343834D01*
X91772354Y-73462340D01*
X91633005Y-73555449D01*
X91478169Y-73619585D01*
X91313797Y-73652280D01*
X91146203Y-73652280D01*
X90981831Y-73619585D01*
X90826995Y-73555449D01*
X90687646Y-73462340D01*
X90569140Y-73343834D01*
X90476031Y-73204485D01*
X90411895Y-73049649D01*
X90379200Y-72885277D01*
X90379200Y-72717683D01*
X90411895Y-72553311D01*
X90476031Y-72398475D01*
X90569140Y-72259126D01*
X90687646Y-72140620D01*
X90826995Y-72047511D01*
X90981831Y-71983375D01*
X91146203Y-71950680D01*
X91313797Y-71950680D01*
X91478169Y-71983375D01*
X91478169Y-71983375D01*
G37*
G36*
X96558169Y-71983375D02*
G01*
X96713005Y-72047511D01*
X96852354Y-72140620D01*
X96970860Y-72259126D01*
X97063969Y-72398475D01*
X97128105Y-72553311D01*
X97160800Y-72717683D01*
X97160800Y-72885277D01*
X97128105Y-73049649D01*
X97063969Y-73204485D01*
X96970860Y-73343834D01*
X96852354Y-73462340D01*
X96713005Y-73555449D01*
X96558169Y-73619585D01*
X96393797Y-73652280D01*
X96226203Y-73652280D01*
X96061831Y-73619585D01*
X95906995Y-73555449D01*
X95767646Y-73462340D01*
X95649140Y-73343834D01*
X95556031Y-73204485D01*
X95491895Y-73049649D01*
X95459200Y-72885277D01*
X95459200Y-72717683D01*
X95491895Y-72553311D01*
X95556031Y-72398475D01*
X95649140Y-72259126D01*
X95767646Y-72140620D01*
X95906995Y-72047511D01*
X96061831Y-71983375D01*
X96226203Y-71950680D01*
X96393797Y-71950680D01*
X96558169Y-71983375D01*
X96558169Y-71983375D01*
G37*
G36*
X99098169Y-71983375D02*
G01*
X99253005Y-72047511D01*
X99392354Y-72140620D01*
X99510860Y-72259126D01*
X99603969Y-72398475D01*
X99668105Y-72553311D01*
X99700800Y-72717683D01*
X99700800Y-72885277D01*
X99668105Y-73049649D01*
X99603969Y-73204485D01*
X99510860Y-73343834D01*
X99392354Y-73462340D01*
X99253005Y-73555449D01*
X99098169Y-73619585D01*
X98933797Y-73652280D01*
X98766203Y-73652280D01*
X98601831Y-73619585D01*
X98446995Y-73555449D01*
X98307646Y-73462340D01*
X98189140Y-73343834D01*
X98096031Y-73204485D01*
X98031895Y-73049649D01*
X97999200Y-72885277D01*
X97999200Y-72717683D01*
X98031895Y-72553311D01*
X98096031Y-72398475D01*
X98189140Y-72259126D01*
X98307646Y-72140620D01*
X98446995Y-72047511D01*
X98601831Y-71983375D01*
X98766203Y-71950680D01*
X98933797Y-71950680D01*
X99098169Y-71983375D01*
X99098169Y-71983375D01*
G37*
G36*
X101638169Y-71983375D02*
G01*
X101793005Y-72047511D01*
X101932354Y-72140620D01*
X102050860Y-72259126D01*
X102143969Y-72398475D01*
X102208105Y-72553311D01*
X102240800Y-72717683D01*
X102240800Y-72885277D01*
X102208105Y-73049649D01*
X102143969Y-73204485D01*
X102050860Y-73343834D01*
X101932354Y-73462340D01*
X101793005Y-73555449D01*
X101638169Y-73619585D01*
X101473797Y-73652280D01*
X101306203Y-73652280D01*
X101141831Y-73619585D01*
X100986995Y-73555449D01*
X100847646Y-73462340D01*
X100729140Y-73343834D01*
X100636031Y-73204485D01*
X100571895Y-73049649D01*
X100539200Y-72885277D01*
X100539200Y-72717683D01*
X100571895Y-72553311D01*
X100636031Y-72398475D01*
X100729140Y-72259126D01*
X100847646Y-72140620D01*
X100986995Y-72047511D01*
X101141831Y-71983375D01*
X101306203Y-71950680D01*
X101473797Y-71950680D01*
X101638169Y-71983375D01*
X101638169Y-71983375D01*
G37*
G36*
X106718169Y-71983375D02*
G01*
X106873005Y-72047511D01*
X107012354Y-72140620D01*
X107130860Y-72259126D01*
X107223969Y-72398475D01*
X107288105Y-72553311D01*
X107320800Y-72717683D01*
X107320800Y-72885277D01*
X107288105Y-73049649D01*
X107223969Y-73204485D01*
X107130860Y-73343834D01*
X107012354Y-73462340D01*
X106873005Y-73555449D01*
X106718169Y-73619585D01*
X106553797Y-73652280D01*
X106386203Y-73652280D01*
X106221831Y-73619585D01*
X106066995Y-73555449D01*
X105927646Y-73462340D01*
X105809140Y-73343834D01*
X105716031Y-73204485D01*
X105651895Y-73049649D01*
X105619200Y-72885277D01*
X105619200Y-72717683D01*
X105651895Y-72553311D01*
X105716031Y-72398475D01*
X105809140Y-72259126D01*
X105927646Y-72140620D01*
X106066995Y-72047511D01*
X106221831Y-71983375D01*
X106386203Y-71950680D01*
X106553797Y-71950680D01*
X106718169Y-71983375D01*
X106718169Y-71983375D01*
G37*
G36*
X109258169Y-71983375D02*
G01*
X109413005Y-72047511D01*
X109552354Y-72140620D01*
X109670860Y-72259126D01*
X109763969Y-72398475D01*
X109828105Y-72553311D01*
X109860800Y-72717683D01*
X109860800Y-72885277D01*
X109828105Y-73049649D01*
X109763969Y-73204485D01*
X109670860Y-73343834D01*
X109552354Y-73462340D01*
X109413005Y-73555449D01*
X109258169Y-73619585D01*
X109093797Y-73652280D01*
X108926203Y-73652280D01*
X108761831Y-73619585D01*
X108606995Y-73555449D01*
X108467646Y-73462340D01*
X108349140Y-73343834D01*
X108256031Y-73204485D01*
X108191895Y-73049649D01*
X108159200Y-72885277D01*
X108159200Y-72717683D01*
X108191895Y-72553311D01*
X108256031Y-72398475D01*
X108349140Y-72259126D01*
X108467646Y-72140620D01*
X108606995Y-72047511D01*
X108761831Y-71983375D01*
X108926203Y-71950680D01*
X109093797Y-71950680D01*
X109258169Y-71983375D01*
X109258169Y-71983375D01*
G37*
G36*
X104178169Y-71983375D02*
G01*
X104333005Y-72047511D01*
X104472354Y-72140620D01*
X104590860Y-72259126D01*
X104683969Y-72398475D01*
X104748105Y-72553311D01*
X104780800Y-72717683D01*
X104780800Y-72885277D01*
X104748105Y-73049649D01*
X104683969Y-73204485D01*
X104590860Y-73343834D01*
X104472354Y-73462340D01*
X104333005Y-73555449D01*
X104178169Y-73619585D01*
X104013797Y-73652280D01*
X103846203Y-73652280D01*
X103681831Y-73619585D01*
X103526995Y-73555449D01*
X103387646Y-73462340D01*
X103269140Y-73343834D01*
X103176031Y-73204485D01*
X103111895Y-73049649D01*
X103079200Y-72885277D01*
X103079200Y-72717683D01*
X103111895Y-72553311D01*
X103176031Y-72398475D01*
X103269140Y-72259126D01*
X103387646Y-72140620D01*
X103526995Y-72047511D01*
X103681831Y-71983375D01*
X103846203Y-71950680D01*
X104013797Y-71950680D01*
X104178169Y-71983375D01*
X104178169Y-71983375D01*
G37*
G36*
X94018169Y-71983375D02*
G01*
X94173005Y-72047511D01*
X94312354Y-72140620D01*
X94430860Y-72259126D01*
X94523969Y-72398475D01*
X94588105Y-72553311D01*
X94620800Y-72717683D01*
X94620800Y-72885277D01*
X94588105Y-73049649D01*
X94523969Y-73204485D01*
X94430860Y-73343834D01*
X94312354Y-73462340D01*
X94173005Y-73555449D01*
X94018169Y-73619585D01*
X93853797Y-73652280D01*
X93686203Y-73652280D01*
X93521831Y-73619585D01*
X93366995Y-73555449D01*
X93227646Y-73462340D01*
X93109140Y-73343834D01*
X93016031Y-73204485D01*
X92951895Y-73049649D01*
X92919200Y-72885277D01*
X92919200Y-72717683D01*
X92951895Y-72553311D01*
X93016031Y-72398475D01*
X93109140Y-72259126D01*
X93227646Y-72140620D01*
X93366995Y-72047511D01*
X93521831Y-71983375D01*
X93686203Y-71950680D01*
X93853797Y-71950680D01*
X94018169Y-71983375D01*
X94018169Y-71983375D01*
G37*
G36*
X65625658Y-71225924D02*
G01*
X65670959Y-71239666D01*
X65712700Y-71261977D01*
X65749293Y-71292007D01*
X65779323Y-71328600D01*
X65801634Y-71370341D01*
X65815376Y-71415642D01*
X65820260Y-71465231D01*
X65820260Y-72278449D01*
X65815376Y-72328038D01*
X65801634Y-72373339D01*
X65779323Y-72415080D01*
X65749293Y-72451673D01*
X65712700Y-72481703D01*
X65670959Y-72504014D01*
X65625658Y-72517756D01*
X65576069Y-72522640D01*
X64212851Y-72522640D01*
X64163262Y-72517756D01*
X64117961Y-72504014D01*
X64076220Y-72481703D01*
X64039627Y-72451673D01*
X64009597Y-72415080D01*
X63987286Y-72373339D01*
X63973544Y-72328038D01*
X63968660Y-72278449D01*
X63968660Y-71465231D01*
X63973544Y-71415642D01*
X63987286Y-71370341D01*
X64009597Y-71328600D01*
X64039627Y-71292007D01*
X64076220Y-71261977D01*
X64117961Y-71239666D01*
X64163262Y-71225924D01*
X64212851Y-71221040D01*
X65576069Y-71221040D01*
X65625658Y-71225924D01*
X65625658Y-71225924D01*
G37*
G36*
X76238169Y-69443375D02*
G01*
X76393005Y-69507511D01*
X76532354Y-69600620D01*
X76650860Y-69719126D01*
X76743969Y-69858475D01*
X76808105Y-70013311D01*
X76840800Y-70177683D01*
X76840800Y-70345277D01*
X76808105Y-70509649D01*
X76743969Y-70664485D01*
X76650860Y-70803834D01*
X76532354Y-70922340D01*
X76393005Y-71015449D01*
X76238169Y-71079585D01*
X76073797Y-71112280D01*
X75906203Y-71112280D01*
X75741831Y-71079585D01*
X75586995Y-71015449D01*
X75447646Y-70922340D01*
X75329140Y-70803834D01*
X75236031Y-70664485D01*
X75171895Y-70509649D01*
X75139200Y-70345277D01*
X75139200Y-70177683D01*
X75171895Y-70013311D01*
X75236031Y-69858475D01*
X75329140Y-69719126D01*
X75447646Y-69600620D01*
X75586995Y-69507511D01*
X75741831Y-69443375D01*
X75906203Y-69410680D01*
X76073797Y-69410680D01*
X76238169Y-69443375D01*
X76238169Y-69443375D01*
G37*
G36*
X106718169Y-69443375D02*
G01*
X106873005Y-69507511D01*
X107012354Y-69600620D01*
X107130860Y-69719126D01*
X107223969Y-69858475D01*
X107288105Y-70013311D01*
X107320800Y-70177683D01*
X107320800Y-70345277D01*
X107288105Y-70509649D01*
X107223969Y-70664485D01*
X107130860Y-70803834D01*
X107012354Y-70922340D01*
X106873005Y-71015449D01*
X106718169Y-71079585D01*
X106553797Y-71112280D01*
X106386203Y-71112280D01*
X106221831Y-71079585D01*
X106066995Y-71015449D01*
X105927646Y-70922340D01*
X105809140Y-70803834D01*
X105716031Y-70664485D01*
X105651895Y-70509649D01*
X105619200Y-70345277D01*
X105619200Y-70177683D01*
X105651895Y-70013311D01*
X105716031Y-69858475D01*
X105809140Y-69719126D01*
X105927646Y-69600620D01*
X106066995Y-69507511D01*
X106221831Y-69443375D01*
X106386203Y-69410680D01*
X106553797Y-69410680D01*
X106718169Y-69443375D01*
X106718169Y-69443375D01*
G37*
G36*
X65297038Y-69230456D02*
G01*
X65419718Y-69267671D01*
X65532775Y-69328102D01*
X65631871Y-69409429D01*
X65713198Y-69508525D01*
X65773629Y-69621582D01*
X65810844Y-69744262D01*
X65823408Y-69871840D01*
X65810844Y-69999418D01*
X65773629Y-70122098D01*
X65713198Y-70235155D01*
X65631871Y-70334251D01*
X65532775Y-70415578D01*
X65419718Y-70476009D01*
X65297038Y-70513224D01*
X65201428Y-70522640D01*
X64587492Y-70522640D01*
X64491882Y-70513224D01*
X64369202Y-70476009D01*
X64256145Y-70415578D01*
X64157049Y-70334251D01*
X64075722Y-70235155D01*
X64015291Y-70122098D01*
X63978076Y-69999418D01*
X63965512Y-69871840D01*
X63978076Y-69744262D01*
X64015291Y-69621582D01*
X64075722Y-69508525D01*
X64157049Y-69409429D01*
X64256145Y-69328102D01*
X64369202Y-69267671D01*
X64491882Y-69230456D01*
X64587492Y-69221040D01*
X65201428Y-69221040D01*
X65297038Y-69230456D01*
X65297038Y-69230456D01*
G37*
G36*
X76238169Y-66903375D02*
G01*
X76393005Y-66967511D01*
X76532354Y-67060620D01*
X76650860Y-67179126D01*
X76743969Y-67318475D01*
X76808105Y-67473311D01*
X76840800Y-67637683D01*
X76840800Y-67805277D01*
X76808105Y-67969649D01*
X76743969Y-68124485D01*
X76650860Y-68263834D01*
X76532354Y-68382340D01*
X76393005Y-68475449D01*
X76238169Y-68539585D01*
X76073797Y-68572280D01*
X75906203Y-68572280D01*
X75741831Y-68539585D01*
X75586995Y-68475449D01*
X75447646Y-68382340D01*
X75329140Y-68263834D01*
X75236031Y-68124485D01*
X75171895Y-67969649D01*
X75139200Y-67805277D01*
X75139200Y-67637683D01*
X75171895Y-67473311D01*
X75236031Y-67318475D01*
X75329140Y-67179126D01*
X75447646Y-67060620D01*
X75586995Y-66967511D01*
X75741831Y-66903375D01*
X75906203Y-66870680D01*
X76073797Y-66870680D01*
X76238169Y-66903375D01*
X76238169Y-66903375D01*
G37*
G36*
X65297038Y-67230456D02*
G01*
X65419718Y-67267671D01*
X65532775Y-67328102D01*
X65631871Y-67409429D01*
X65713198Y-67508525D01*
X65773629Y-67621582D01*
X65810844Y-67744262D01*
X65823408Y-67871840D01*
X65810844Y-67999418D01*
X65773629Y-68122098D01*
X65713198Y-68235155D01*
X65631871Y-68334251D01*
X65532775Y-68415578D01*
X65419718Y-68476009D01*
X65297038Y-68513224D01*
X65201428Y-68522640D01*
X64587492Y-68522640D01*
X64491882Y-68513224D01*
X64369202Y-68476009D01*
X64256145Y-68415578D01*
X64157049Y-68334251D01*
X64075722Y-68235155D01*
X64015291Y-68122098D01*
X63978076Y-67999418D01*
X63965512Y-67871840D01*
X63978076Y-67744262D01*
X64015291Y-67621582D01*
X64075722Y-67508525D01*
X64157049Y-67409429D01*
X64256145Y-67328102D01*
X64369202Y-67267671D01*
X64491882Y-67230456D01*
X64587492Y-67221040D01*
X65201428Y-67221040D01*
X65297038Y-67230456D01*
X65297038Y-67230456D01*
G37*
G36*
X55010377Y-65082976D02*
G01*
X55133057Y-65120191D01*
X55246114Y-65180622D01*
X55297582Y-65222861D01*
X55345211Y-65261949D01*
X55409555Y-65340352D01*
X55426540Y-65361048D01*
X55486969Y-65474102D01*
X55524184Y-65596782D01*
X55533600Y-65692392D01*
X55533600Y-66306328D01*
X55524184Y-66401938D01*
X55486969Y-66524618D01*
X55426538Y-66637675D01*
X55345211Y-66736771D01*
X55246115Y-66818098D01*
X55133058Y-66878529D01*
X55010378Y-66915744D01*
X54882800Y-66928308D01*
X54755223Y-66915744D01*
X54632543Y-66878529D01*
X54519486Y-66818098D01*
X54420392Y-66736773D01*
X54339060Y-66637672D01*
X54278631Y-66524618D01*
X54241416Y-66401938D01*
X54232000Y-66306328D01*
X54232000Y-65692393D01*
X54241416Y-65596783D01*
X54278631Y-65474103D01*
X54339062Y-65361046D01*
X54395871Y-65291824D01*
X54420389Y-65261949D01*
X54503095Y-65194074D01*
X54519488Y-65180620D01*
X54632542Y-65120191D01*
X54755222Y-65082976D01*
X54882800Y-65070412D01*
X55010377Y-65082976D01*
X55010377Y-65082976D01*
G37*
G36*
X53338998Y-65078444D02*
G01*
X53384299Y-65092186D01*
X53426040Y-65114497D01*
X53462633Y-65144527D01*
X53492663Y-65181120D01*
X53514974Y-65222861D01*
X53528716Y-65268162D01*
X53533600Y-65317751D01*
X53533600Y-66680969D01*
X53528716Y-66730558D01*
X53514974Y-66775859D01*
X53492663Y-66817600D01*
X53462633Y-66854193D01*
X53426040Y-66884223D01*
X53384299Y-66906534D01*
X53338998Y-66920276D01*
X53289409Y-66925160D01*
X52476191Y-66925160D01*
X52426602Y-66920276D01*
X52381301Y-66906534D01*
X52339560Y-66884223D01*
X52302967Y-66854193D01*
X52272937Y-66817600D01*
X52250626Y-66775859D01*
X52236884Y-66730558D01*
X52232000Y-66680969D01*
X52232000Y-65317751D01*
X52236884Y-65268162D01*
X52250626Y-65222861D01*
X52272937Y-65181120D01*
X52302967Y-65144527D01*
X52339560Y-65114497D01*
X52381301Y-65092186D01*
X52426602Y-65078444D01*
X52476191Y-65073560D01*
X53289409Y-65073560D01*
X53338998Y-65078444D01*
X53338998Y-65078444D01*
G37*
G36*
X132226377Y-64920416D02*
G01*
X132349057Y-64957631D01*
X132462114Y-65018062D01*
X132513582Y-65060301D01*
X132561211Y-65099389D01*
X132625555Y-65177792D01*
X132642540Y-65198488D01*
X132702969Y-65311542D01*
X132740184Y-65434222D01*
X132749600Y-65529832D01*
X132749600Y-66143768D01*
X132740184Y-66239378D01*
X132702969Y-66362058D01*
X132642538Y-66475115D01*
X132561211Y-66574211D01*
X132462115Y-66655538D01*
X132349058Y-66715969D01*
X132226378Y-66753184D01*
X132098800Y-66765748D01*
X131971223Y-66753184D01*
X131848543Y-66715969D01*
X131735486Y-66655538D01*
X131636392Y-66574213D01*
X131555060Y-66475112D01*
X131494631Y-66362058D01*
X131457416Y-66239378D01*
X131448000Y-66143768D01*
X131448000Y-65529833D01*
X131457416Y-65434223D01*
X131494631Y-65311543D01*
X131555062Y-65198486D01*
X131611871Y-65129264D01*
X131636389Y-65099389D01*
X131735486Y-65018062D01*
X131735488Y-65018060D01*
X131848542Y-64957631D01*
X131971222Y-64920416D01*
X132098800Y-64907852D01*
X132226377Y-64920416D01*
X132226377Y-64920416D01*
G37*
G36*
X130554998Y-64915884D02*
G01*
X130600299Y-64929626D01*
X130642040Y-64951937D01*
X130678633Y-64981967D01*
X130708663Y-65018560D01*
X130730974Y-65060301D01*
X130744716Y-65105602D01*
X130749600Y-65155191D01*
X130749600Y-66518409D01*
X130744716Y-66567998D01*
X130730974Y-66613299D01*
X130708663Y-66655040D01*
X130678633Y-66691633D01*
X130642040Y-66721663D01*
X130600299Y-66743974D01*
X130554998Y-66757716D01*
X130505409Y-66762600D01*
X129692191Y-66762600D01*
X129642602Y-66757716D01*
X129597301Y-66743974D01*
X129555560Y-66721663D01*
X129518967Y-66691633D01*
X129488937Y-66655040D01*
X129466626Y-66613299D01*
X129452884Y-66567998D01*
X129448000Y-66518409D01*
X129448000Y-65155191D01*
X129452884Y-65105602D01*
X129466626Y-65060301D01*
X129488937Y-65018560D01*
X129518967Y-64981967D01*
X129555560Y-64951937D01*
X129597301Y-64929626D01*
X129642602Y-64915884D01*
X129692191Y-64911000D01*
X130505409Y-64911000D01*
X130554998Y-64915884D01*
X130554998Y-64915884D01*
G37*
G36*
X76238169Y-64363375D02*
G01*
X76393005Y-64427511D01*
X76532354Y-64520620D01*
X76650860Y-64639126D01*
X76743969Y-64778475D01*
X76808105Y-64933311D01*
X76840800Y-65097683D01*
X76840800Y-65265277D01*
X76808105Y-65429649D01*
X76743969Y-65584485D01*
X76650860Y-65723834D01*
X76532354Y-65842340D01*
X76393005Y-65935449D01*
X76238169Y-65999585D01*
X76073797Y-66032280D01*
X75906203Y-66032280D01*
X75741831Y-65999585D01*
X75586995Y-65935449D01*
X75447646Y-65842340D01*
X75329140Y-65723834D01*
X75236031Y-65584485D01*
X75171895Y-65429649D01*
X75139200Y-65265277D01*
X75139200Y-65097683D01*
X75171895Y-64933311D01*
X75236031Y-64778475D01*
X75329140Y-64639126D01*
X75447646Y-64520620D01*
X75586995Y-64427511D01*
X75741831Y-64363375D01*
X75906203Y-64330680D01*
X76073797Y-64330680D01*
X76238169Y-64363375D01*
X76238169Y-64363375D01*
G37*
G36*
X76238169Y-61823375D02*
G01*
X76393005Y-61887511D01*
X76532354Y-61980620D01*
X76650860Y-62099126D01*
X76743969Y-62238475D01*
X76808105Y-62393311D01*
X76840800Y-62557683D01*
X76840800Y-62725277D01*
X76808105Y-62889649D01*
X76743969Y-63044485D01*
X76650860Y-63183834D01*
X76532354Y-63302340D01*
X76393005Y-63395449D01*
X76238169Y-63459585D01*
X76073797Y-63492280D01*
X75906203Y-63492280D01*
X75741831Y-63459585D01*
X75586995Y-63395449D01*
X75447646Y-63302340D01*
X75329140Y-63183834D01*
X75236031Y-63044485D01*
X75171895Y-62889649D01*
X75139200Y-62725277D01*
X75139200Y-62557683D01*
X75171895Y-62393311D01*
X75236031Y-62238475D01*
X75329140Y-62099126D01*
X75447646Y-61980620D01*
X75586995Y-61887511D01*
X75741831Y-61823375D01*
X75906203Y-61790680D01*
X76073797Y-61790680D01*
X76238169Y-61823375D01*
X76238169Y-61823375D01*
G37*
G36*
X76238169Y-59283375D02*
G01*
X76393005Y-59347511D01*
X76532354Y-59440620D01*
X76650860Y-59559126D01*
X76743969Y-59698475D01*
X76808105Y-59853311D01*
X76840800Y-60017683D01*
X76840800Y-60185277D01*
X76808105Y-60349649D01*
X76743969Y-60504485D01*
X76650860Y-60643834D01*
X76532354Y-60762340D01*
X76393005Y-60855449D01*
X76238169Y-60919585D01*
X76073797Y-60952280D01*
X75906203Y-60952280D01*
X75741831Y-60919585D01*
X75586995Y-60855449D01*
X75447646Y-60762340D01*
X75329140Y-60643834D01*
X75236031Y-60504485D01*
X75171895Y-60349649D01*
X75139200Y-60185277D01*
X75139200Y-60017683D01*
X75171895Y-59853311D01*
X75236031Y-59698475D01*
X75329140Y-59559126D01*
X75447646Y-59440620D01*
X75586995Y-59347511D01*
X75741831Y-59283375D01*
X75906203Y-59250680D01*
X76073797Y-59250680D01*
X76238169Y-59283375D01*
X76238169Y-59283375D01*
G37*
G36*
X65590098Y-59125364D02*
G01*
X65635399Y-59139106D01*
X65677140Y-59161417D01*
X65713733Y-59191447D01*
X65743763Y-59228040D01*
X65766074Y-59269781D01*
X65779816Y-59315082D01*
X65784700Y-59364671D01*
X65784700Y-60177889D01*
X65779816Y-60227478D01*
X65766074Y-60272779D01*
X65743763Y-60314520D01*
X65713733Y-60351113D01*
X65677140Y-60381143D01*
X65635399Y-60403454D01*
X65590098Y-60417196D01*
X65540509Y-60422080D01*
X64177291Y-60422080D01*
X64127702Y-60417196D01*
X64082401Y-60403454D01*
X64040660Y-60381143D01*
X64004067Y-60351113D01*
X63974037Y-60314520D01*
X63951726Y-60272779D01*
X63937984Y-60227478D01*
X63933100Y-60177889D01*
X63933100Y-59364671D01*
X63937984Y-59315082D01*
X63951726Y-59269781D01*
X63974037Y-59228040D01*
X64004067Y-59191447D01*
X64040660Y-59161417D01*
X64082401Y-59139106D01*
X64127702Y-59125364D01*
X64177291Y-59120480D01*
X65540509Y-59120480D01*
X65590098Y-59125364D01*
X65590098Y-59125364D01*
G37*
G36*
X55010377Y-56640016D02*
G01*
X55133057Y-56677231D01*
X55246114Y-56737662D01*
X55297582Y-56779901D01*
X55345211Y-56818989D01*
X55409555Y-56897392D01*
X55426540Y-56918088D01*
X55486969Y-57031142D01*
X55524184Y-57153822D01*
X55533600Y-57249432D01*
X55533600Y-57863368D01*
X55524184Y-57958978D01*
X55486969Y-58081658D01*
X55426538Y-58194715D01*
X55345211Y-58293811D01*
X55246115Y-58375138D01*
X55133058Y-58435569D01*
X55010378Y-58472784D01*
X54882800Y-58485348D01*
X54755223Y-58472784D01*
X54632543Y-58435569D01*
X54519486Y-58375138D01*
X54420392Y-58293813D01*
X54339060Y-58194712D01*
X54278631Y-58081658D01*
X54241416Y-57958978D01*
X54232000Y-57863368D01*
X54232000Y-57249433D01*
X54241416Y-57153823D01*
X54278631Y-57031143D01*
X54339062Y-56918086D01*
X54408599Y-56833355D01*
X54420389Y-56818989D01*
X54512523Y-56743376D01*
X54519488Y-56737660D01*
X54632542Y-56677231D01*
X54755222Y-56640016D01*
X54882800Y-56627452D01*
X55010377Y-56640016D01*
X55010377Y-56640016D01*
G37*
G36*
X132226377Y-56640016D02*
G01*
X132349057Y-56677231D01*
X132462114Y-56737662D01*
X132513582Y-56779901D01*
X132561211Y-56818989D01*
X132625555Y-56897392D01*
X132642540Y-56918088D01*
X132702969Y-57031142D01*
X132740184Y-57153822D01*
X132749600Y-57249432D01*
X132749600Y-57863368D01*
X132740184Y-57958978D01*
X132702969Y-58081658D01*
X132642538Y-58194715D01*
X132561211Y-58293811D01*
X132462115Y-58375138D01*
X132349058Y-58435569D01*
X132226378Y-58472784D01*
X132098800Y-58485348D01*
X131971223Y-58472784D01*
X131848543Y-58435569D01*
X131735486Y-58375138D01*
X131636392Y-58293813D01*
X131555060Y-58194712D01*
X131494631Y-58081658D01*
X131457416Y-57958978D01*
X131448000Y-57863368D01*
X131448000Y-57249433D01*
X131457416Y-57153823D01*
X131494631Y-57031143D01*
X131555062Y-56918086D01*
X131624599Y-56833355D01*
X131636389Y-56818989D01*
X131728523Y-56743376D01*
X131735488Y-56737660D01*
X131848542Y-56677231D01*
X131971222Y-56640016D01*
X132098800Y-56627452D01*
X132226377Y-56640016D01*
X132226377Y-56640016D01*
G37*
G36*
X130554998Y-56635484D02*
G01*
X130600299Y-56649226D01*
X130642040Y-56671537D01*
X130678633Y-56701567D01*
X130708663Y-56738160D01*
X130730974Y-56779901D01*
X130744716Y-56825202D01*
X130749600Y-56874791D01*
X130749600Y-58238009D01*
X130744716Y-58287598D01*
X130730974Y-58332899D01*
X130708663Y-58374640D01*
X130678633Y-58411233D01*
X130642040Y-58441263D01*
X130600299Y-58463574D01*
X130554998Y-58477316D01*
X130505409Y-58482200D01*
X129692191Y-58482200D01*
X129642602Y-58477316D01*
X129597301Y-58463574D01*
X129555560Y-58441263D01*
X129518967Y-58411233D01*
X129488937Y-58374640D01*
X129466626Y-58332899D01*
X129452884Y-58287598D01*
X129448000Y-58238009D01*
X129448000Y-56874791D01*
X129452884Y-56825202D01*
X129466626Y-56779901D01*
X129488937Y-56738160D01*
X129518967Y-56701567D01*
X129555560Y-56671537D01*
X129597301Y-56649226D01*
X129642602Y-56635484D01*
X129692191Y-56630600D01*
X130505409Y-56630600D01*
X130554998Y-56635484D01*
X130554998Y-56635484D01*
G37*
G36*
X53338998Y-56635484D02*
G01*
X53384299Y-56649226D01*
X53426040Y-56671537D01*
X53462633Y-56701567D01*
X53492663Y-56738160D01*
X53514974Y-56779901D01*
X53528716Y-56825202D01*
X53533600Y-56874791D01*
X53533600Y-58238009D01*
X53528716Y-58287598D01*
X53514974Y-58332899D01*
X53492663Y-58374640D01*
X53462633Y-58411233D01*
X53426040Y-58441263D01*
X53384299Y-58463574D01*
X53338998Y-58477316D01*
X53289409Y-58482200D01*
X52476191Y-58482200D01*
X52426602Y-58477316D01*
X52381301Y-58463574D01*
X52339560Y-58441263D01*
X52302967Y-58411233D01*
X52272937Y-58374640D01*
X52250626Y-58332899D01*
X52236884Y-58287598D01*
X52232000Y-58238009D01*
X52232000Y-56874791D01*
X52236884Y-56825202D01*
X52250626Y-56779901D01*
X52272937Y-56738160D01*
X52302967Y-56701567D01*
X52339560Y-56671537D01*
X52381301Y-56649226D01*
X52426602Y-56635484D01*
X52476191Y-56630600D01*
X53289409Y-56630600D01*
X53338998Y-56635484D01*
X53338998Y-56635484D01*
G37*
G36*
X65261478Y-57129896D02*
G01*
X65384158Y-57167111D01*
X65497215Y-57227542D01*
X65596311Y-57308869D01*
X65677638Y-57407965D01*
X65738069Y-57521022D01*
X65775284Y-57643702D01*
X65787848Y-57771280D01*
X65775284Y-57898858D01*
X65738069Y-58021538D01*
X65677638Y-58134595D01*
X65596311Y-58233691D01*
X65497215Y-58315018D01*
X65384158Y-58375449D01*
X65261478Y-58412664D01*
X65165868Y-58422080D01*
X64551932Y-58422080D01*
X64456322Y-58412664D01*
X64333642Y-58375449D01*
X64220585Y-58315018D01*
X64121489Y-58233691D01*
X64040162Y-58134595D01*
X63979731Y-58021538D01*
X63942516Y-57898858D01*
X63929952Y-57771280D01*
X63942516Y-57643702D01*
X63979731Y-57521022D01*
X64040162Y-57407965D01*
X64121489Y-57308869D01*
X64220585Y-57227542D01*
X64333642Y-57167111D01*
X64456322Y-57129896D01*
X64551932Y-57120480D01*
X65165868Y-57120480D01*
X65261478Y-57129896D01*
X65261478Y-57129896D01*
G37*
G36*
X109860800Y-58412280D02*
G01*
X108159200Y-58412280D01*
X108159200Y-56710680D01*
X109860800Y-56710680D01*
X109860800Y-58412280D01*
X109860800Y-58412280D01*
G37*
G36*
X86398169Y-56743375D02*
G01*
X86553005Y-56807511D01*
X86692354Y-56900620D01*
X86810860Y-57019126D01*
X86903969Y-57158475D01*
X86968105Y-57313311D01*
X87000800Y-57477683D01*
X87000800Y-57645277D01*
X86968105Y-57809649D01*
X86903969Y-57964485D01*
X86810860Y-58103834D01*
X86692354Y-58222340D01*
X86553005Y-58315449D01*
X86398169Y-58379585D01*
X86233797Y-58412280D01*
X86066203Y-58412280D01*
X85901831Y-58379585D01*
X85746995Y-58315449D01*
X85607646Y-58222340D01*
X85489140Y-58103834D01*
X85396031Y-57964485D01*
X85331895Y-57809649D01*
X85299200Y-57645277D01*
X85299200Y-57477683D01*
X85331895Y-57313311D01*
X85396031Y-57158475D01*
X85489140Y-57019126D01*
X85607646Y-56900620D01*
X85746995Y-56807511D01*
X85901831Y-56743375D01*
X86066203Y-56710680D01*
X86233797Y-56710680D01*
X86398169Y-56743375D01*
X86398169Y-56743375D01*
G37*
G36*
X83858169Y-56743375D02*
G01*
X84013005Y-56807511D01*
X84152354Y-56900620D01*
X84270860Y-57019126D01*
X84363969Y-57158475D01*
X84428105Y-57313311D01*
X84460800Y-57477683D01*
X84460800Y-57645277D01*
X84428105Y-57809649D01*
X84363969Y-57964485D01*
X84270860Y-58103834D01*
X84152354Y-58222340D01*
X84013005Y-58315449D01*
X83858169Y-58379585D01*
X83693797Y-58412280D01*
X83526203Y-58412280D01*
X83361831Y-58379585D01*
X83206995Y-58315449D01*
X83067646Y-58222340D01*
X82949140Y-58103834D01*
X82856031Y-57964485D01*
X82791895Y-57809649D01*
X82759200Y-57645277D01*
X82759200Y-57477683D01*
X82791895Y-57313311D01*
X82856031Y-57158475D01*
X82949140Y-57019126D01*
X83067646Y-56900620D01*
X83206995Y-56807511D01*
X83361831Y-56743375D01*
X83526203Y-56710680D01*
X83693797Y-56710680D01*
X83858169Y-56743375D01*
X83858169Y-56743375D01*
G37*
G36*
X88938169Y-56743375D02*
G01*
X89093005Y-56807511D01*
X89232354Y-56900620D01*
X89350860Y-57019126D01*
X89443969Y-57158475D01*
X89508105Y-57313311D01*
X89540800Y-57477683D01*
X89540800Y-57645277D01*
X89508105Y-57809649D01*
X89443969Y-57964485D01*
X89350860Y-58103834D01*
X89232354Y-58222340D01*
X89093005Y-58315449D01*
X88938169Y-58379585D01*
X88773797Y-58412280D01*
X88606203Y-58412280D01*
X88441831Y-58379585D01*
X88286995Y-58315449D01*
X88147646Y-58222340D01*
X88029140Y-58103834D01*
X87936031Y-57964485D01*
X87871895Y-57809649D01*
X87839200Y-57645277D01*
X87839200Y-57477683D01*
X87871895Y-57313311D01*
X87936031Y-57158475D01*
X88029140Y-57019126D01*
X88147646Y-56900620D01*
X88286995Y-56807511D01*
X88441831Y-56743375D01*
X88606203Y-56710680D01*
X88773797Y-56710680D01*
X88938169Y-56743375D01*
X88938169Y-56743375D01*
G37*
G36*
X81318169Y-56743375D02*
G01*
X81473005Y-56807511D01*
X81612354Y-56900620D01*
X81730860Y-57019126D01*
X81823969Y-57158475D01*
X81888105Y-57313311D01*
X81920800Y-57477683D01*
X81920800Y-57645277D01*
X81888105Y-57809649D01*
X81823969Y-57964485D01*
X81730860Y-58103834D01*
X81612354Y-58222340D01*
X81473005Y-58315449D01*
X81318169Y-58379585D01*
X81153797Y-58412280D01*
X80986203Y-58412280D01*
X80821831Y-58379585D01*
X80666995Y-58315449D01*
X80527646Y-58222340D01*
X80409140Y-58103834D01*
X80316031Y-57964485D01*
X80251895Y-57809649D01*
X80219200Y-57645277D01*
X80219200Y-57477683D01*
X80251895Y-57313311D01*
X80316031Y-57158475D01*
X80409140Y-57019126D01*
X80527646Y-56900620D01*
X80666995Y-56807511D01*
X80821831Y-56743375D01*
X80986203Y-56710680D01*
X81153797Y-56710680D01*
X81318169Y-56743375D01*
X81318169Y-56743375D01*
G37*
G36*
X78778169Y-56743375D02*
G01*
X78933005Y-56807511D01*
X79072354Y-56900620D01*
X79190860Y-57019126D01*
X79283969Y-57158475D01*
X79348105Y-57313311D01*
X79380800Y-57477683D01*
X79380800Y-57645277D01*
X79348105Y-57809649D01*
X79283969Y-57964485D01*
X79190860Y-58103834D01*
X79072354Y-58222340D01*
X78933005Y-58315449D01*
X78778169Y-58379585D01*
X78613797Y-58412280D01*
X78446203Y-58412280D01*
X78281831Y-58379585D01*
X78126995Y-58315449D01*
X77987646Y-58222340D01*
X77869140Y-58103834D01*
X77776031Y-57964485D01*
X77711895Y-57809649D01*
X77679200Y-57645277D01*
X77679200Y-57477683D01*
X77711895Y-57313311D01*
X77776031Y-57158475D01*
X77869140Y-57019126D01*
X77987646Y-56900620D01*
X78126995Y-56807511D01*
X78281831Y-56743375D01*
X78446203Y-56710680D01*
X78613797Y-56710680D01*
X78778169Y-56743375D01*
X78778169Y-56743375D01*
G37*
G36*
X91478169Y-56743375D02*
G01*
X91633005Y-56807511D01*
X91772354Y-56900620D01*
X91890860Y-57019126D01*
X91983969Y-57158475D01*
X92048105Y-57313311D01*
X92080800Y-57477683D01*
X92080800Y-57645277D01*
X92048105Y-57809649D01*
X91983969Y-57964485D01*
X91890860Y-58103834D01*
X91772354Y-58222340D01*
X91633005Y-58315449D01*
X91478169Y-58379585D01*
X91313797Y-58412280D01*
X91146203Y-58412280D01*
X90981831Y-58379585D01*
X90826995Y-58315449D01*
X90687646Y-58222340D01*
X90569140Y-58103834D01*
X90476031Y-57964485D01*
X90411895Y-57809649D01*
X90379200Y-57645277D01*
X90379200Y-57477683D01*
X90411895Y-57313311D01*
X90476031Y-57158475D01*
X90569140Y-57019126D01*
X90687646Y-56900620D01*
X90826995Y-56807511D01*
X90981831Y-56743375D01*
X91146203Y-56710680D01*
X91313797Y-56710680D01*
X91478169Y-56743375D01*
X91478169Y-56743375D01*
G37*
G36*
X96558169Y-56743375D02*
G01*
X96713005Y-56807511D01*
X96852354Y-56900620D01*
X96970860Y-57019126D01*
X97063969Y-57158475D01*
X97128105Y-57313311D01*
X97160800Y-57477683D01*
X97160800Y-57645277D01*
X97128105Y-57809649D01*
X97063969Y-57964485D01*
X96970860Y-58103834D01*
X96852354Y-58222340D01*
X96713005Y-58315449D01*
X96558169Y-58379585D01*
X96393797Y-58412280D01*
X96226203Y-58412280D01*
X96061831Y-58379585D01*
X95906995Y-58315449D01*
X95767646Y-58222340D01*
X95649140Y-58103834D01*
X95556031Y-57964485D01*
X95491895Y-57809649D01*
X95459200Y-57645277D01*
X95459200Y-57477683D01*
X95491895Y-57313311D01*
X95556031Y-57158475D01*
X95649140Y-57019126D01*
X95767646Y-56900620D01*
X95906995Y-56807511D01*
X96061831Y-56743375D01*
X96226203Y-56710680D01*
X96393797Y-56710680D01*
X96558169Y-56743375D01*
X96558169Y-56743375D01*
G37*
G36*
X106718169Y-56743375D02*
G01*
X106873005Y-56807511D01*
X107012354Y-56900620D01*
X107130860Y-57019126D01*
X107223969Y-57158475D01*
X107288105Y-57313311D01*
X107320800Y-57477683D01*
X107320800Y-57645277D01*
X107288105Y-57809649D01*
X107223969Y-57964485D01*
X107130860Y-58103834D01*
X107012354Y-58222340D01*
X106873005Y-58315449D01*
X106718169Y-58379585D01*
X106553797Y-58412280D01*
X106386203Y-58412280D01*
X106221831Y-58379585D01*
X106066995Y-58315449D01*
X105927646Y-58222340D01*
X105809140Y-58103834D01*
X105716031Y-57964485D01*
X105651895Y-57809649D01*
X105619200Y-57645277D01*
X105619200Y-57477683D01*
X105651895Y-57313311D01*
X105716031Y-57158475D01*
X105809140Y-57019126D01*
X105927646Y-56900620D01*
X106066995Y-56807511D01*
X106221831Y-56743375D01*
X106386203Y-56710680D01*
X106553797Y-56710680D01*
X106718169Y-56743375D01*
X106718169Y-56743375D01*
G37*
G36*
X76238169Y-56743375D02*
G01*
X76393005Y-56807511D01*
X76532354Y-56900620D01*
X76650860Y-57019126D01*
X76743969Y-57158475D01*
X76808105Y-57313311D01*
X76840800Y-57477683D01*
X76840800Y-57645277D01*
X76808105Y-57809649D01*
X76743969Y-57964485D01*
X76650860Y-58103834D01*
X76532354Y-58222340D01*
X76393005Y-58315449D01*
X76238169Y-58379585D01*
X76073797Y-58412280D01*
X75906203Y-58412280D01*
X75741831Y-58379585D01*
X75586995Y-58315449D01*
X75447646Y-58222340D01*
X75329140Y-58103834D01*
X75236031Y-57964485D01*
X75171895Y-57809649D01*
X75139200Y-57645277D01*
X75139200Y-57477683D01*
X75171895Y-57313311D01*
X75236031Y-57158475D01*
X75329140Y-57019126D01*
X75447646Y-56900620D01*
X75586995Y-56807511D01*
X75741831Y-56743375D01*
X75906203Y-56710680D01*
X76073797Y-56710680D01*
X76238169Y-56743375D01*
X76238169Y-56743375D01*
G37*
G36*
X104178169Y-56743375D02*
G01*
X104333005Y-56807511D01*
X104472354Y-56900620D01*
X104590860Y-57019126D01*
X104683969Y-57158475D01*
X104748105Y-57313311D01*
X104780800Y-57477683D01*
X104780800Y-57645277D01*
X104748105Y-57809649D01*
X104683969Y-57964485D01*
X104590860Y-58103834D01*
X104472354Y-58222340D01*
X104333005Y-58315449D01*
X104178169Y-58379585D01*
X104013797Y-58412280D01*
X103846203Y-58412280D01*
X103681831Y-58379585D01*
X103526995Y-58315449D01*
X103387646Y-58222340D01*
X103269140Y-58103834D01*
X103176031Y-57964485D01*
X103111895Y-57809649D01*
X103079200Y-57645277D01*
X103079200Y-57477683D01*
X103111895Y-57313311D01*
X103176031Y-57158475D01*
X103269140Y-57019126D01*
X103387646Y-56900620D01*
X103526995Y-56807511D01*
X103681831Y-56743375D01*
X103846203Y-56710680D01*
X104013797Y-56710680D01*
X104178169Y-56743375D01*
X104178169Y-56743375D01*
G37*
G36*
X101638169Y-56743375D02*
G01*
X101793005Y-56807511D01*
X101932354Y-56900620D01*
X102050860Y-57019126D01*
X102143969Y-57158475D01*
X102208105Y-57313311D01*
X102240800Y-57477683D01*
X102240800Y-57645277D01*
X102208105Y-57809649D01*
X102143969Y-57964485D01*
X102050860Y-58103834D01*
X101932354Y-58222340D01*
X101793005Y-58315449D01*
X101638169Y-58379585D01*
X101473797Y-58412280D01*
X101306203Y-58412280D01*
X101141831Y-58379585D01*
X100986995Y-58315449D01*
X100847646Y-58222340D01*
X100729140Y-58103834D01*
X100636031Y-57964485D01*
X100571895Y-57809649D01*
X100539200Y-57645277D01*
X100539200Y-57477683D01*
X100571895Y-57313311D01*
X100636031Y-57158475D01*
X100729140Y-57019126D01*
X100847646Y-56900620D01*
X100986995Y-56807511D01*
X101141831Y-56743375D01*
X101306203Y-56710680D01*
X101473797Y-56710680D01*
X101638169Y-56743375D01*
X101638169Y-56743375D01*
G37*
G36*
X99098169Y-56743375D02*
G01*
X99253005Y-56807511D01*
X99392354Y-56900620D01*
X99510860Y-57019126D01*
X99603969Y-57158475D01*
X99668105Y-57313311D01*
X99700800Y-57477683D01*
X99700800Y-57645277D01*
X99668105Y-57809649D01*
X99603969Y-57964485D01*
X99510860Y-58103834D01*
X99392354Y-58222340D01*
X99253005Y-58315449D01*
X99098169Y-58379585D01*
X98933797Y-58412280D01*
X98766203Y-58412280D01*
X98601831Y-58379585D01*
X98446995Y-58315449D01*
X98307646Y-58222340D01*
X98189140Y-58103834D01*
X98096031Y-57964485D01*
X98031895Y-57809649D01*
X97999200Y-57645277D01*
X97999200Y-57477683D01*
X98031895Y-57313311D01*
X98096031Y-57158475D01*
X98189140Y-57019126D01*
X98307646Y-56900620D01*
X98446995Y-56807511D01*
X98601831Y-56743375D01*
X98766203Y-56710680D01*
X98933797Y-56710680D01*
X99098169Y-56743375D01*
X99098169Y-56743375D01*
G37*
G36*
X94018169Y-56743375D02*
G01*
X94173005Y-56807511D01*
X94312354Y-56900620D01*
X94430860Y-57019126D01*
X94523969Y-57158475D01*
X94588105Y-57313311D01*
X94620800Y-57477683D01*
X94620800Y-57645277D01*
X94588105Y-57809649D01*
X94523969Y-57964485D01*
X94430860Y-58103834D01*
X94312354Y-58222340D01*
X94173005Y-58315449D01*
X94018169Y-58379585D01*
X93853797Y-58412280D01*
X93686203Y-58412280D01*
X93521831Y-58379585D01*
X93366995Y-58315449D01*
X93227646Y-58222340D01*
X93109140Y-58103834D01*
X93016031Y-57964485D01*
X92951895Y-57809649D01*
X92919200Y-57645277D01*
X92919200Y-57477683D01*
X92951895Y-57313311D01*
X93016031Y-57158475D01*
X93109140Y-57019126D01*
X93227646Y-56900620D01*
X93366995Y-56807511D01*
X93521831Y-56743375D01*
X93686203Y-56710680D01*
X93853797Y-56710680D01*
X94018169Y-56743375D01*
X94018169Y-56743375D01*
G37*
G36*
X120444160Y-58087160D02*
G01*
X118742560Y-58087160D01*
X118742560Y-56385560D01*
X120444160Y-56385560D01*
X120444160Y-58087160D01*
X120444160Y-58087160D01*
G37*
G36*
X121841529Y-56418255D02*
G01*
X121996365Y-56482391D01*
X122135714Y-56575500D01*
X122254220Y-56694006D01*
X122347329Y-56833355D01*
X122411465Y-56988191D01*
X122444160Y-57152563D01*
X122444160Y-57320157D01*
X122411465Y-57484529D01*
X122347329Y-57639365D01*
X122254220Y-57778714D01*
X122135714Y-57897220D01*
X121996365Y-57990329D01*
X121841529Y-58054465D01*
X121677157Y-58087160D01*
X121509563Y-58087160D01*
X121345191Y-58054465D01*
X121190355Y-57990329D01*
X121051006Y-57897220D01*
X120932500Y-57778714D01*
X120839391Y-57639365D01*
X120775255Y-57484529D01*
X120742560Y-57320157D01*
X120742560Y-57152563D01*
X120775255Y-56988191D01*
X120839391Y-56833355D01*
X120932500Y-56694006D01*
X121051006Y-56575500D01*
X121190355Y-56482391D01*
X121345191Y-56418255D01*
X121509563Y-56385560D01*
X121677157Y-56385560D01*
X121841529Y-56418255D01*
X121841529Y-56418255D01*
G37*
G36*
X81416588Y-51652234D02*
G01*
X81586389Y-51703743D01*
X81742879Y-51787389D01*
X81880043Y-51899957D01*
X81992611Y-52037121D01*
X82076257Y-52193611D01*
X82127766Y-52363412D01*
X82145158Y-52540000D01*
X82127766Y-52716588D01*
X82076257Y-52886389D01*
X81992611Y-53042879D01*
X81880043Y-53180043D01*
X81742879Y-53292611D01*
X81586389Y-53376257D01*
X81416588Y-53427766D01*
X81284249Y-53440800D01*
X81195751Y-53440800D01*
X81063412Y-53427766D01*
X80893611Y-53376257D01*
X80737121Y-53292611D01*
X80599957Y-53180043D01*
X80487389Y-53042879D01*
X80403743Y-52886389D01*
X80352234Y-52716588D01*
X80334842Y-52540000D01*
X80352234Y-52363412D01*
X80403743Y-52193611D01*
X80487389Y-52037121D01*
X80599957Y-51899957D01*
X80737121Y-51787389D01*
X80893611Y-51703743D01*
X81063412Y-51652234D01*
X81195751Y-51639200D01*
X81284249Y-51639200D01*
X81416588Y-51652234D01*
X81416588Y-51652234D01*
G37*
G36*
X73796588Y-51652234D02*
G01*
X73966389Y-51703743D01*
X74122879Y-51787389D01*
X74260043Y-51899957D01*
X74372611Y-52037121D01*
X74456257Y-52193611D01*
X74507766Y-52363412D01*
X74525158Y-52540000D01*
X74507766Y-52716588D01*
X74456257Y-52886389D01*
X74372611Y-53042879D01*
X74260043Y-53180043D01*
X74122879Y-53292611D01*
X73966389Y-53376257D01*
X73796588Y-53427766D01*
X73664249Y-53440800D01*
X73575751Y-53440800D01*
X73443412Y-53427766D01*
X73273611Y-53376257D01*
X73117121Y-53292611D01*
X72979957Y-53180043D01*
X72867389Y-53042879D01*
X72783743Y-52886389D01*
X72732234Y-52716588D01*
X72714842Y-52540000D01*
X72732234Y-52363412D01*
X72783743Y-52193611D01*
X72867389Y-52037121D01*
X72979957Y-51899957D01*
X73117121Y-51787389D01*
X73273611Y-51703743D01*
X73443412Y-51652234D01*
X73575751Y-51639200D01*
X73664249Y-51639200D01*
X73796588Y-51652234D01*
X73796588Y-51652234D01*
G37*
G36*
X76336588Y-51652234D02*
G01*
X76506389Y-51703743D01*
X76662879Y-51787389D01*
X76800043Y-51899957D01*
X76912611Y-52037121D01*
X76996257Y-52193611D01*
X77047766Y-52363412D01*
X77065158Y-52540000D01*
X77047766Y-52716588D01*
X76996257Y-52886389D01*
X76912611Y-53042879D01*
X76800043Y-53180043D01*
X76662879Y-53292611D01*
X76506389Y-53376257D01*
X76336588Y-53427766D01*
X76204249Y-53440800D01*
X76115751Y-53440800D01*
X75983412Y-53427766D01*
X75813611Y-53376257D01*
X75657121Y-53292611D01*
X75519957Y-53180043D01*
X75407389Y-53042879D01*
X75323743Y-52886389D01*
X75272234Y-52716588D01*
X75254842Y-52540000D01*
X75272234Y-52363412D01*
X75323743Y-52193611D01*
X75407389Y-52037121D01*
X75519957Y-51899957D01*
X75657121Y-51787389D01*
X75813611Y-51703743D01*
X75983412Y-51652234D01*
X76115751Y-51639200D01*
X76204249Y-51639200D01*
X76336588Y-51652234D01*
X76336588Y-51652234D01*
G37*
G36*
X117700800Y-53440800D02*
G01*
X115899200Y-53440800D01*
X115899200Y-51639200D01*
X117700800Y-51639200D01*
X117700800Y-53440800D01*
X117700800Y-53440800D01*
G37*
G36*
X114436588Y-51652234D02*
G01*
X114606389Y-51703743D01*
X114762879Y-51787389D01*
X114900043Y-51899957D01*
X115012611Y-52037121D01*
X115096257Y-52193611D01*
X115147766Y-52363412D01*
X115165158Y-52540000D01*
X115147766Y-52716588D01*
X115096257Y-52886389D01*
X115012611Y-53042879D01*
X114900043Y-53180043D01*
X114762879Y-53292611D01*
X114606389Y-53376257D01*
X114436588Y-53427766D01*
X114304249Y-53440800D01*
X114215751Y-53440800D01*
X114083412Y-53427766D01*
X113913611Y-53376257D01*
X113757121Y-53292611D01*
X113619957Y-53180043D01*
X113507389Y-53042879D01*
X113423743Y-52886389D01*
X113372234Y-52716588D01*
X113354842Y-52540000D01*
X113372234Y-52363412D01*
X113423743Y-52193611D01*
X113507389Y-52037121D01*
X113619957Y-51899957D01*
X113757121Y-51787389D01*
X113913611Y-51703743D01*
X114083412Y-51652234D01*
X114215751Y-51639200D01*
X114304249Y-51639200D01*
X114436588Y-51652234D01*
X114436588Y-51652234D01*
G37*
G36*
X111896588Y-51652234D02*
G01*
X112066389Y-51703743D01*
X112222879Y-51787389D01*
X112360043Y-51899957D01*
X112472611Y-52037121D01*
X112556257Y-52193611D01*
X112607766Y-52363412D01*
X112625158Y-52540000D01*
X112607766Y-52716588D01*
X112556257Y-52886389D01*
X112472611Y-53042879D01*
X112360043Y-53180043D01*
X112222879Y-53292611D01*
X112066389Y-53376257D01*
X111896588Y-53427766D01*
X111764249Y-53440800D01*
X111675751Y-53440800D01*
X111543412Y-53427766D01*
X111373611Y-53376257D01*
X111217121Y-53292611D01*
X111079957Y-53180043D01*
X110967389Y-53042879D01*
X110883743Y-52886389D01*
X110832234Y-52716588D01*
X110814842Y-52540000D01*
X110832234Y-52363412D01*
X110883743Y-52193611D01*
X110967389Y-52037121D01*
X111079957Y-51899957D01*
X111217121Y-51787389D01*
X111373611Y-51703743D01*
X111543412Y-51652234D01*
X111675751Y-51639200D01*
X111764249Y-51639200D01*
X111896588Y-51652234D01*
X111896588Y-51652234D01*
G37*
G36*
X109356588Y-51652234D02*
G01*
X109526389Y-51703743D01*
X109682879Y-51787389D01*
X109820043Y-51899957D01*
X109932611Y-52037121D01*
X110016257Y-52193611D01*
X110067766Y-52363412D01*
X110085158Y-52540000D01*
X110067766Y-52716588D01*
X110016257Y-52886389D01*
X109932611Y-53042879D01*
X109820043Y-53180043D01*
X109682879Y-53292611D01*
X109526389Y-53376257D01*
X109356588Y-53427766D01*
X109224249Y-53440800D01*
X109135751Y-53440800D01*
X109003412Y-53427766D01*
X108833611Y-53376257D01*
X108677121Y-53292611D01*
X108539957Y-53180043D01*
X108427389Y-53042879D01*
X108343743Y-52886389D01*
X108292234Y-52716588D01*
X108274842Y-52540000D01*
X108292234Y-52363412D01*
X108343743Y-52193611D01*
X108427389Y-52037121D01*
X108539957Y-51899957D01*
X108677121Y-51787389D01*
X108833611Y-51703743D01*
X109003412Y-51652234D01*
X109135751Y-51639200D01*
X109224249Y-51639200D01*
X109356588Y-51652234D01*
X109356588Y-51652234D01*
G37*
G36*
X68716588Y-51652234D02*
G01*
X68886389Y-51703743D01*
X69042879Y-51787389D01*
X69180043Y-51899957D01*
X69292611Y-52037121D01*
X69376257Y-52193611D01*
X69427766Y-52363412D01*
X69445158Y-52540000D01*
X69427766Y-52716588D01*
X69376257Y-52886389D01*
X69292611Y-53042879D01*
X69180043Y-53180043D01*
X69042879Y-53292611D01*
X68886389Y-53376257D01*
X68716588Y-53427766D01*
X68584249Y-53440800D01*
X68495751Y-53440800D01*
X68363412Y-53427766D01*
X68193611Y-53376257D01*
X68037121Y-53292611D01*
X67899957Y-53180043D01*
X67787389Y-53042879D01*
X67703743Y-52886389D01*
X67652234Y-52716588D01*
X67634842Y-52540000D01*
X67652234Y-52363412D01*
X67703743Y-52193611D01*
X67787389Y-52037121D01*
X67899957Y-51899957D01*
X68037121Y-51787389D01*
X68193611Y-51703743D01*
X68363412Y-51652234D01*
X68495751Y-51639200D01*
X68584249Y-51639200D01*
X68716588Y-51652234D01*
X68716588Y-51652234D01*
G37*
G36*
X78876588Y-51652234D02*
G01*
X79046389Y-51703743D01*
X79202879Y-51787389D01*
X79340043Y-51899957D01*
X79452611Y-52037121D01*
X79536257Y-52193611D01*
X79587766Y-52363412D01*
X79605158Y-52540000D01*
X79587766Y-52716588D01*
X79536257Y-52886389D01*
X79452611Y-53042879D01*
X79340043Y-53180043D01*
X79202879Y-53292611D01*
X79046389Y-53376257D01*
X78876588Y-53427766D01*
X78744249Y-53440800D01*
X78655751Y-53440800D01*
X78523412Y-53427766D01*
X78353611Y-53376257D01*
X78197121Y-53292611D01*
X78059957Y-53180043D01*
X77947389Y-53042879D01*
X77863743Y-52886389D01*
X77812234Y-52716588D01*
X77794842Y-52540000D01*
X77812234Y-52363412D01*
X77863743Y-52193611D01*
X77947389Y-52037121D01*
X78059957Y-51899957D01*
X78197121Y-51787389D01*
X78353611Y-51703743D01*
X78523412Y-51652234D01*
X78655751Y-51639200D01*
X78744249Y-51639200D01*
X78876588Y-51652234D01*
X78876588Y-51652234D01*
G37*
G36*
X71256588Y-51652234D02*
G01*
X71426389Y-51703743D01*
X71582879Y-51787389D01*
X71720043Y-51899957D01*
X71832611Y-52037121D01*
X71916257Y-52193611D01*
X71967766Y-52363412D01*
X71985158Y-52540000D01*
X71967766Y-52716588D01*
X71916257Y-52886389D01*
X71832611Y-53042879D01*
X71720043Y-53180043D01*
X71582879Y-53292611D01*
X71426389Y-53376257D01*
X71256588Y-53427766D01*
X71124249Y-53440800D01*
X71035751Y-53440800D01*
X70903412Y-53427766D01*
X70733611Y-53376257D01*
X70577121Y-53292611D01*
X70439957Y-53180043D01*
X70327389Y-53042879D01*
X70243743Y-52886389D01*
X70192234Y-52716588D01*
X70174842Y-52540000D01*
X70192234Y-52363412D01*
X70243743Y-52193611D01*
X70327389Y-52037121D01*
X70439957Y-51899957D01*
X70577121Y-51787389D01*
X70733611Y-51703743D01*
X70903412Y-51652234D01*
X71035751Y-51639200D01*
X71124249Y-51639200D01*
X71256588Y-51652234D01*
X71256588Y-51652234D01*
G37*
G36*
X104276588Y-51652234D02*
G01*
X104446389Y-51703743D01*
X104602879Y-51787389D01*
X104740043Y-51899957D01*
X104852611Y-52037121D01*
X104936257Y-52193611D01*
X104987766Y-52363412D01*
X105005158Y-52540000D01*
X104987766Y-52716588D01*
X104936257Y-52886389D01*
X104852611Y-53042879D01*
X104740043Y-53180043D01*
X104602879Y-53292611D01*
X104446389Y-53376257D01*
X104276588Y-53427766D01*
X104144249Y-53440800D01*
X104055751Y-53440800D01*
X103923412Y-53427766D01*
X103753611Y-53376257D01*
X103597121Y-53292611D01*
X103459957Y-53180043D01*
X103347389Y-53042879D01*
X103263743Y-52886389D01*
X103212234Y-52716588D01*
X103194842Y-52540000D01*
X103212234Y-52363412D01*
X103263743Y-52193611D01*
X103347389Y-52037121D01*
X103459957Y-51899957D01*
X103597121Y-51787389D01*
X103753611Y-51703743D01*
X103923412Y-51652234D01*
X104055751Y-51639200D01*
X104144249Y-51639200D01*
X104276588Y-51652234D01*
X104276588Y-51652234D01*
G37*
G36*
X101736588Y-51652234D02*
G01*
X101906389Y-51703743D01*
X102062879Y-51787389D01*
X102200043Y-51899957D01*
X102312611Y-52037121D01*
X102396257Y-52193611D01*
X102447766Y-52363412D01*
X102465158Y-52540000D01*
X102447766Y-52716588D01*
X102396257Y-52886389D01*
X102312611Y-53042879D01*
X102200043Y-53180043D01*
X102062879Y-53292611D01*
X101906389Y-53376257D01*
X101736588Y-53427766D01*
X101604249Y-53440800D01*
X101515751Y-53440800D01*
X101383412Y-53427766D01*
X101213611Y-53376257D01*
X101057121Y-53292611D01*
X100919957Y-53180043D01*
X100807389Y-53042879D01*
X100723743Y-52886389D01*
X100672234Y-52716588D01*
X100654842Y-52540000D01*
X100672234Y-52363412D01*
X100723743Y-52193611D01*
X100807389Y-52037121D01*
X100919957Y-51899957D01*
X101057121Y-51787389D01*
X101213611Y-51703743D01*
X101383412Y-51652234D01*
X101515751Y-51639200D01*
X101604249Y-51639200D01*
X101736588Y-51652234D01*
X101736588Y-51652234D01*
G37*
G36*
X99196588Y-51652234D02*
G01*
X99366389Y-51703743D01*
X99522879Y-51787389D01*
X99660043Y-51899957D01*
X99772611Y-52037121D01*
X99856257Y-52193611D01*
X99907766Y-52363412D01*
X99925158Y-52540000D01*
X99907766Y-52716588D01*
X99856257Y-52886389D01*
X99772611Y-53042879D01*
X99660043Y-53180043D01*
X99522879Y-53292611D01*
X99366389Y-53376257D01*
X99196588Y-53427766D01*
X99064249Y-53440800D01*
X98975751Y-53440800D01*
X98843412Y-53427766D01*
X98673611Y-53376257D01*
X98517121Y-53292611D01*
X98379957Y-53180043D01*
X98267389Y-53042879D01*
X98183743Y-52886389D01*
X98132234Y-52716588D01*
X98114842Y-52540000D01*
X98132234Y-52363412D01*
X98183743Y-52193611D01*
X98267389Y-52037121D01*
X98379957Y-51899957D01*
X98517121Y-51787389D01*
X98673611Y-51703743D01*
X98843412Y-51652234D01*
X98975751Y-51639200D01*
X99064249Y-51639200D01*
X99196588Y-51652234D01*
X99196588Y-51652234D01*
G37*
G36*
X96656588Y-51652234D02*
G01*
X96826389Y-51703743D01*
X96982879Y-51787389D01*
X97120043Y-51899957D01*
X97232611Y-52037121D01*
X97316257Y-52193611D01*
X97367766Y-52363412D01*
X97385158Y-52540000D01*
X97367766Y-52716588D01*
X97316257Y-52886389D01*
X97232611Y-53042879D01*
X97120043Y-53180043D01*
X96982879Y-53292611D01*
X96826389Y-53376257D01*
X96656588Y-53427766D01*
X96524249Y-53440800D01*
X96435751Y-53440800D01*
X96303412Y-53427766D01*
X96133611Y-53376257D01*
X95977121Y-53292611D01*
X95839957Y-53180043D01*
X95727389Y-53042879D01*
X95643743Y-52886389D01*
X95592234Y-52716588D01*
X95574842Y-52540000D01*
X95592234Y-52363412D01*
X95643743Y-52193611D01*
X95727389Y-52037121D01*
X95839957Y-51899957D01*
X95977121Y-51787389D01*
X96133611Y-51703743D01*
X96303412Y-51652234D01*
X96435751Y-51639200D01*
X96524249Y-51639200D01*
X96656588Y-51652234D01*
X96656588Y-51652234D01*
G37*
G36*
X94116588Y-51652234D02*
G01*
X94286389Y-51703743D01*
X94442879Y-51787389D01*
X94580043Y-51899957D01*
X94692611Y-52037121D01*
X94776257Y-52193611D01*
X94827766Y-52363412D01*
X94845158Y-52540000D01*
X94827766Y-52716588D01*
X94776257Y-52886389D01*
X94692611Y-53042879D01*
X94580043Y-53180043D01*
X94442879Y-53292611D01*
X94286389Y-53376257D01*
X94116588Y-53427766D01*
X93984249Y-53440800D01*
X93895751Y-53440800D01*
X93763412Y-53427766D01*
X93593611Y-53376257D01*
X93437121Y-53292611D01*
X93299957Y-53180043D01*
X93187389Y-53042879D01*
X93103743Y-52886389D01*
X93052234Y-52716588D01*
X93034842Y-52540000D01*
X93052234Y-52363412D01*
X93103743Y-52193611D01*
X93187389Y-52037121D01*
X93299957Y-51899957D01*
X93437121Y-51787389D01*
X93593611Y-51703743D01*
X93763412Y-51652234D01*
X93895751Y-51639200D01*
X93984249Y-51639200D01*
X94116588Y-51652234D01*
X94116588Y-51652234D01*
G37*
G36*
X91576588Y-51652234D02*
G01*
X91746389Y-51703743D01*
X91902879Y-51787389D01*
X92040043Y-51899957D01*
X92152611Y-52037121D01*
X92236257Y-52193611D01*
X92287766Y-52363412D01*
X92305158Y-52540000D01*
X92287766Y-52716588D01*
X92236257Y-52886389D01*
X92152611Y-53042879D01*
X92040043Y-53180043D01*
X91902879Y-53292611D01*
X91746389Y-53376257D01*
X91576588Y-53427766D01*
X91444249Y-53440800D01*
X91355751Y-53440800D01*
X91223412Y-53427766D01*
X91053611Y-53376257D01*
X90897121Y-53292611D01*
X90759957Y-53180043D01*
X90647389Y-53042879D01*
X90563743Y-52886389D01*
X90512234Y-52716588D01*
X90494842Y-52540000D01*
X90512234Y-52363412D01*
X90563743Y-52193611D01*
X90647389Y-52037121D01*
X90759957Y-51899957D01*
X90897121Y-51787389D01*
X91053611Y-51703743D01*
X91223412Y-51652234D01*
X91355751Y-51639200D01*
X91444249Y-51639200D01*
X91576588Y-51652234D01*
X91576588Y-51652234D01*
G37*
G36*
X89036588Y-51652234D02*
G01*
X89206389Y-51703743D01*
X89362879Y-51787389D01*
X89500043Y-51899957D01*
X89612611Y-52037121D01*
X89696257Y-52193611D01*
X89747766Y-52363412D01*
X89765158Y-52540000D01*
X89747766Y-52716588D01*
X89696257Y-52886389D01*
X89612611Y-53042879D01*
X89500043Y-53180043D01*
X89362879Y-53292611D01*
X89206389Y-53376257D01*
X89036588Y-53427766D01*
X88904249Y-53440800D01*
X88815751Y-53440800D01*
X88683412Y-53427766D01*
X88513611Y-53376257D01*
X88357121Y-53292611D01*
X88219957Y-53180043D01*
X88107389Y-53042879D01*
X88023743Y-52886389D01*
X87972234Y-52716588D01*
X87954842Y-52540000D01*
X87972234Y-52363412D01*
X88023743Y-52193611D01*
X88107389Y-52037121D01*
X88219957Y-51899957D01*
X88357121Y-51787389D01*
X88513611Y-51703743D01*
X88683412Y-51652234D01*
X88815751Y-51639200D01*
X88904249Y-51639200D01*
X89036588Y-51652234D01*
X89036588Y-51652234D01*
G37*
G36*
X86496588Y-51652234D02*
G01*
X86666389Y-51703743D01*
X86822879Y-51787389D01*
X86960043Y-51899957D01*
X87072611Y-52037121D01*
X87156257Y-52193611D01*
X87207766Y-52363412D01*
X87225158Y-52540000D01*
X87207766Y-52716588D01*
X87156257Y-52886389D01*
X87072611Y-53042879D01*
X86960043Y-53180043D01*
X86822879Y-53292611D01*
X86666389Y-53376257D01*
X86496588Y-53427766D01*
X86364249Y-53440800D01*
X86275751Y-53440800D01*
X86143412Y-53427766D01*
X85973611Y-53376257D01*
X85817121Y-53292611D01*
X85679957Y-53180043D01*
X85567389Y-53042879D01*
X85483743Y-52886389D01*
X85432234Y-52716588D01*
X85414842Y-52540000D01*
X85432234Y-52363412D01*
X85483743Y-52193611D01*
X85567389Y-52037121D01*
X85679957Y-51899957D01*
X85817121Y-51787389D01*
X85973611Y-51703743D01*
X86143412Y-51652234D01*
X86275751Y-51639200D01*
X86364249Y-51639200D01*
X86496588Y-51652234D01*
X86496588Y-51652234D01*
G37*
G36*
X83956588Y-51652234D02*
G01*
X84126389Y-51703743D01*
X84282879Y-51787389D01*
X84420043Y-51899957D01*
X84532611Y-52037121D01*
X84616257Y-52193611D01*
X84667766Y-52363412D01*
X84685158Y-52540000D01*
X84667766Y-52716588D01*
X84616257Y-52886389D01*
X84532611Y-53042879D01*
X84420043Y-53180043D01*
X84282879Y-53292611D01*
X84126389Y-53376257D01*
X83956588Y-53427766D01*
X83824249Y-53440800D01*
X83735751Y-53440800D01*
X83603412Y-53427766D01*
X83433611Y-53376257D01*
X83277121Y-53292611D01*
X83139957Y-53180043D01*
X83027389Y-53042879D01*
X82943743Y-52886389D01*
X82892234Y-52716588D01*
X82874842Y-52540000D01*
X82892234Y-52363412D01*
X82943743Y-52193611D01*
X83027389Y-52037121D01*
X83139957Y-51899957D01*
X83277121Y-51787389D01*
X83433611Y-51703743D01*
X83603412Y-51652234D01*
X83735751Y-51639200D01*
X83824249Y-51639200D01*
X83956588Y-51652234D01*
X83956588Y-51652234D01*
G37*
G36*
X106816588Y-51652234D02*
G01*
X106986389Y-51703743D01*
X107142879Y-51787389D01*
X107280043Y-51899957D01*
X107392611Y-52037121D01*
X107476257Y-52193611D01*
X107527766Y-52363412D01*
X107545158Y-52540000D01*
X107527766Y-52716588D01*
X107476257Y-52886389D01*
X107392611Y-53042879D01*
X107280043Y-53180043D01*
X107142879Y-53292611D01*
X106986389Y-53376257D01*
X106816588Y-53427766D01*
X106684249Y-53440800D01*
X106595751Y-53440800D01*
X106463412Y-53427766D01*
X106293611Y-53376257D01*
X106137121Y-53292611D01*
X105999957Y-53180043D01*
X105887389Y-53042879D01*
X105803743Y-52886389D01*
X105752234Y-52716588D01*
X105734842Y-52540000D01*
X105752234Y-52363412D01*
X105803743Y-52193611D01*
X105887389Y-52037121D01*
X105999957Y-51899957D01*
X106137121Y-51787389D01*
X106293611Y-51703743D01*
X106463412Y-51652234D01*
X106595751Y-51639200D01*
X106684249Y-51639200D01*
X106816588Y-51652234D01*
X106816588Y-51652234D01*
G37*
M02*
