M48
; DRILL file {KiCad (5.1.4)-1} date 03/01/20 00:54:21
; FORMAT={-:-/ absolute / inch / decimal}
; #@! TF.CreationDate,2020-03-01T00:54:21-05:00
; #@! TF.GenerationSoftware,Kicad,Pcbnew,(5.1.4)-1
FMAT,2
INCH
T1C0.0150
T2C0.0236
T3C0.0295
T4C0.0315
T5C0.0394
T6C0.0433
T7C0.1378
%
G90
G05
T1
X2.56Y-3.172
X2.787Y-3.416
X2.93Y-3.534
X3.0Y-3.01
X3.279Y-3.534
X3.282Y-3.582
X3.3133Y-3.793
X3.38Y-2.458
X3.4Y-3.308
X3.985Y-3.93
X4.025Y-3.525
X4.044Y-3.065
X4.1841Y-3.0812
X4.6005Y-3.227
X4.7581Y-3.227
X4.785Y-2.716
X4.809Y-2.591
X4.837Y-2.375
T2
X2.8778Y-4.1113
X2.8778Y-4.1704
T3
X2.082Y-2.5984
X2.1607Y-2.5984
X5.122Y-2.92
X5.2007Y-2.92
X2.116Y-3.316
X2.116Y-3.3947
X2.116Y-3.4735
X2.116Y-3.5522
X2.116Y-3.631
X2.116Y-3.7097
X2.116Y-3.7884
X2.116Y-3.8672
X2.116Y-3.9459
X2.5535Y-2.2745
X2.5535Y-2.3532
X5.172Y-3.3181
X5.172Y-3.3968
X5.172Y-3.4756
X5.172Y-3.5543
X5.172Y-3.633
X5.172Y-3.7118
X5.172Y-3.7905
X5.172Y-3.8693
X5.172Y-3.948
X2.082Y-2.266
X2.1607Y-2.266
X3.4449Y-3.622
X3.4449Y-3.7008
X3.5236Y-3.622
X3.5236Y-3.7008
X3.6024Y-3.622
X3.6024Y-3.7008
X3.6811Y-3.622
X3.6811Y-3.7008
X3.7598Y-3.622
X3.7598Y-3.7008
X3.8386Y-3.622
X3.8386Y-3.7008
X2.0826Y-2.9212
X2.1613Y-2.9212
X5.122Y-2.592
X5.2007Y-2.592
X5.122Y-2.266
X5.2007Y-2.266
X4.6016Y-2.9208
X4.6803Y-2.9208
X4.7591Y-2.9208
X2.5549Y-2.6721
X2.5549Y-2.7509
X2.5549Y-2.8296
T4
X4.7084Y-2.2534
X4.7871Y-2.2534
X2.3493Y-3.4058
X2.3493Y-3.5058
X2.3493Y-3.6058
X2.3493Y-3.7058
X2.3493Y-3.8058
X2.3493Y-3.9058
X2.3493Y-4.0058
X2.3493Y-4.1058
X2.6493Y-3.4058
X2.6493Y-3.5058
X2.6493Y-3.6058
X2.6493Y-3.7058
X2.6493Y-3.8058
X2.6493Y-3.9058
X2.6493Y-4.0058
X2.6493Y-4.1058
X3.4913Y-3.1496
X3.4913Y-3.4496
X3.5913Y-3.1496
X3.5913Y-3.4496
X3.6913Y-3.1496
X3.6913Y-3.4496
X3.7913Y-3.1496
X3.7913Y-3.4496
X4.636Y-3.4045
X4.636Y-3.5045
X4.636Y-3.6045
X4.636Y-3.7045
X4.636Y-3.8045
X4.636Y-3.9045
X4.636Y-4.0045
X4.636Y-4.1045
X4.936Y-3.4045
X4.936Y-3.5045
X4.936Y-3.6045
X4.936Y-3.7045
X4.936Y-3.8045
X4.936Y-3.9045
X4.936Y-4.0045
X4.936Y-4.1045
T5
X2.6984Y-2.0685
X2.7984Y-2.0685
X2.8984Y-2.0685
X2.9984Y-2.0685
X3.0984Y-2.0685
X3.1984Y-2.0685
X3.2984Y-2.0685
X3.3984Y-2.0685
X3.4984Y-2.0685
X3.5984Y-2.0685
X3.6984Y-2.0685
X3.7984Y-2.0685
X3.8984Y-2.0685
X3.9984Y-2.0685
X4.0984Y-2.0685
X4.1984Y-2.0685
X4.2984Y-2.0685
X4.3984Y-2.0685
X4.4984Y-2.0685
X4.5984Y-2.0685
X3.3917Y-4.0945
X3.4917Y-4.0945
X3.5917Y-4.0945
X3.6917Y-4.0945
X3.7917Y-4.0945
X3.8917Y-4.0945
T6
X2.9496Y-3.2283
X3.0496Y-3.2283
X3.1496Y-3.2283
X4.1307Y-3.2283
X4.2307Y-3.2283
X4.3307Y-3.2283
X2.9917Y-2.2662
X2.9917Y-2.3662
X2.9917Y-2.4662
X2.9917Y-2.5662
X2.9917Y-2.6662
X2.9917Y-2.7662
X2.9917Y-2.8662
X3.0917Y-2.2662
X3.0917Y-2.8662
X3.1917Y-2.2662
X3.1917Y-2.8662
X3.2917Y-2.2662
X3.2917Y-2.8662
X3.3917Y-2.2662
X3.3917Y-2.8662
X3.4917Y-2.2662
X3.4917Y-2.8662
X3.5917Y-2.2662
X3.5917Y-2.8662
X3.6917Y-2.2662
X3.6917Y-2.8662
X3.7917Y-2.2662
X3.7917Y-2.8662
X3.8917Y-2.2662
X3.8917Y-2.8662
X3.9917Y-2.2662
X3.9917Y-2.8662
X4.0917Y-2.2662
X4.0917Y-2.8662
X4.1917Y-2.2662
X4.1917Y-2.7662
X4.1917Y-2.8662
X4.2917Y-2.2662
X4.2917Y-2.8662
T7
X3.0496Y-3.8843
X4.2307Y-3.8843
T0
M30
