G04 #@! TF.GenerationSoftware,KiCad,Pcbnew,(5.1.4)-1*
G04 #@! TF.CreationDate,2020-03-01T00:53:56-05:00*
G04 #@! TF.ProjectId,TEST_newWheelBoard,54455354-5f6e-4657-9757-6865656c426f,v1.0*
G04 #@! TF.SameCoordinates,Original*
G04 #@! TF.FileFunction,Legend,Top*
G04 #@! TF.FilePolarity,Positive*
%FSLAX46Y46*%
G04 Gerber Fmt 4.6, Leading zero omitted, Abs format (unit mm)*
G04 Created by KiCad (PCBNEW (5.1.4)-1) date 2020-03-01 00:53:56*
%MOMM*%
%LPD*%
G04 APERTURE LIST*
%ADD10C,0.300000*%
%ADD11C,0.150000*%
%ADD12C,0.120000*%
%ADD13C,0.100000*%
G04 APERTURE END LIST*
D10*
X125904571Y-107612571D02*
X125047428Y-107612571D01*
X125476000Y-107612571D02*
X125476000Y-106112571D01*
X125333142Y-106326857D01*
X125190285Y-106469714D01*
X125047428Y-106541142D01*
X59991571Y-84498571D02*
X59134428Y-84498571D01*
X59563000Y-84498571D02*
X59563000Y-82998571D01*
X59420142Y-83212857D01*
X59277285Y-83355714D01*
X59134428Y-83427142D01*
X112569571Y-82720571D02*
X111712428Y-82720571D01*
X112141000Y-82720571D02*
X112141000Y-81220571D01*
X111998142Y-81434857D01*
X111855285Y-81577714D01*
X111712428Y-81649142D01*
X102370000Y-81347571D02*
X103298571Y-81347571D01*
X102798571Y-81919000D01*
X103012857Y-81919000D01*
X103155714Y-81990428D01*
X103227142Y-82061857D01*
X103298571Y-82204714D01*
X103298571Y-82561857D01*
X103227142Y-82704714D01*
X103155714Y-82776142D01*
X103012857Y-82847571D01*
X102584285Y-82847571D01*
X102441428Y-82776142D01*
X102370000Y-82704714D01*
X72271000Y-81220571D02*
X73199571Y-81220571D01*
X72699571Y-81792000D01*
X72913857Y-81792000D01*
X73056714Y-81863428D01*
X73128142Y-81934857D01*
X73199571Y-82077714D01*
X73199571Y-82434857D01*
X73128142Y-82577714D01*
X73056714Y-82649142D01*
X72913857Y-82720571D01*
X72485285Y-82720571D01*
X72342428Y-82649142D01*
X72271000Y-82577714D01*
X82597571Y-82593571D02*
X81740428Y-82593571D01*
X82169000Y-82593571D02*
X82169000Y-81093571D01*
X82026142Y-81307857D01*
X81883285Y-81450714D01*
X81740428Y-81522142D01*
X132504571Y-102949428D02*
X132504571Y-103806571D01*
X132504571Y-103378000D02*
X131004571Y-103378000D01*
X131218857Y-103520857D01*
X131361714Y-103663714D01*
X131433142Y-103806571D01*
X132631571Y-81311714D02*
X132631571Y-81026000D01*
X132560142Y-80883142D01*
X132488714Y-80811714D01*
X132274428Y-80668857D01*
X131988714Y-80597428D01*
X131417285Y-80597428D01*
X131274428Y-80668857D01*
X131203000Y-80740285D01*
X131131571Y-80883142D01*
X131131571Y-81168857D01*
X131203000Y-81311714D01*
X131274428Y-81383142D01*
X131417285Y-81454571D01*
X131774428Y-81454571D01*
X131917285Y-81383142D01*
X131988714Y-81311714D01*
X132060142Y-81168857D01*
X132060142Y-80883142D01*
X131988714Y-80740285D01*
X131917285Y-80668857D01*
X131774428Y-80597428D01*
X54526571Y-103790714D02*
X54526571Y-103505000D01*
X54455142Y-103362142D01*
X54383714Y-103290714D01*
X54169428Y-103147857D01*
X53883714Y-103076428D01*
X53312285Y-103076428D01*
X53169428Y-103147857D01*
X53098000Y-103219285D01*
X53026571Y-103362142D01*
X53026571Y-103647857D01*
X53098000Y-103790714D01*
X53169428Y-103862142D01*
X53312285Y-103933571D01*
X53669428Y-103933571D01*
X53812285Y-103862142D01*
X53883714Y-103790714D01*
X53955142Y-103647857D01*
X53955142Y-103362142D01*
X53883714Y-103219285D01*
X53812285Y-103147857D01*
X53669428Y-103076428D01*
X53891571Y-80343428D02*
X53891571Y-81200571D01*
X53891571Y-80772000D02*
X52391571Y-80772000D01*
X52605857Y-80914857D01*
X52748714Y-81057714D01*
X52820142Y-81200571D01*
X83978714Y-103191571D02*
X83693000Y-103191571D01*
X83550142Y-103263000D01*
X83478714Y-103334428D01*
X83335857Y-103548714D01*
X83264428Y-103834428D01*
X83264428Y-104405857D01*
X83335857Y-104548714D01*
X83407285Y-104620142D01*
X83550142Y-104691571D01*
X83835857Y-104691571D01*
X83978714Y-104620142D01*
X84050142Y-104548714D01*
X84121571Y-104405857D01*
X84121571Y-104048714D01*
X84050142Y-103905857D01*
X83978714Y-103834428D01*
X83835857Y-103763000D01*
X83550142Y-103763000D01*
X83407285Y-103834428D01*
X83335857Y-103905857D01*
X83264428Y-104048714D01*
X101901571Y-104564571D02*
X101044428Y-104564571D01*
X101473000Y-104564571D02*
X101473000Y-103064571D01*
X101330142Y-103278857D01*
X101187285Y-103421714D01*
X101044428Y-103493142D01*
X100679285Y-94531571D02*
X99822142Y-94531571D01*
X100250714Y-94531571D02*
X100250714Y-93031571D01*
X100107857Y-93245857D01*
X99965000Y-93388714D01*
X99822142Y-93460142D01*
X101250714Y-93174428D02*
X101322142Y-93103000D01*
X101465000Y-93031571D01*
X101822142Y-93031571D01*
X101965000Y-93103000D01*
X102036428Y-93174428D01*
X102107857Y-93317285D01*
X102107857Y-93460142D01*
X102036428Y-93674428D01*
X101179285Y-94531571D01*
X102107857Y-94531571D01*
X100679285Y-92499571D02*
X99822142Y-92499571D01*
X100250714Y-92499571D02*
X100250714Y-90999571D01*
X100107857Y-91213857D01*
X99965000Y-91356714D01*
X99822142Y-91428142D01*
X102107857Y-92499571D02*
X101250714Y-92499571D01*
X101679285Y-92499571D02*
X101679285Y-90999571D01*
X101536428Y-91213857D01*
X101393571Y-91356714D01*
X101250714Y-91428142D01*
X84026428Y-93301428D02*
X84097857Y-93230000D01*
X84240714Y-93158571D01*
X84597857Y-93158571D01*
X84740714Y-93230000D01*
X84812142Y-93301428D01*
X84883571Y-93444285D01*
X84883571Y-93587142D01*
X84812142Y-93801428D01*
X83955000Y-94658571D01*
X84883571Y-94658571D01*
X84883571Y-92499571D02*
X84026428Y-92499571D01*
X84455000Y-92499571D02*
X84455000Y-90999571D01*
X84312142Y-91213857D01*
X84169285Y-91356714D01*
X84026428Y-91428142D01*
D11*
X112991047Y-70921571D02*
X112657714Y-70921571D01*
X112657714Y-71445380D02*
X112657714Y-70445380D01*
X113133904Y-70445380D01*
X113657714Y-71445380D02*
X113562476Y-71397761D01*
X113514857Y-71350142D01*
X113467238Y-71254904D01*
X113467238Y-70969190D01*
X113514857Y-70873952D01*
X113562476Y-70826333D01*
X113657714Y-70778714D01*
X113800571Y-70778714D01*
X113895809Y-70826333D01*
X113943428Y-70873952D01*
X113991047Y-70969190D01*
X113991047Y-71254904D01*
X113943428Y-71350142D01*
X113895809Y-71397761D01*
X113800571Y-71445380D01*
X113657714Y-71445380D01*
X114419619Y-71445380D02*
X114419619Y-70778714D01*
X114419619Y-70969190D02*
X114467238Y-70873952D01*
X114514857Y-70826333D01*
X114610095Y-70778714D01*
X114705333Y-70778714D01*
X115800571Y-71064428D02*
X116562476Y-71064428D01*
X117705333Y-70445380D02*
X118324380Y-70445380D01*
X117991047Y-70826333D01*
X118133904Y-70826333D01*
X118229142Y-70873952D01*
X118276761Y-70921571D01*
X118324380Y-71016809D01*
X118324380Y-71254904D01*
X118276761Y-71350142D01*
X118229142Y-71397761D01*
X118133904Y-71445380D01*
X117848190Y-71445380D01*
X117752952Y-71397761D01*
X117705333Y-71350142D01*
X118752952Y-71350142D02*
X118800571Y-71397761D01*
X118752952Y-71445380D01*
X118705333Y-71397761D01*
X118752952Y-71350142D01*
X118752952Y-71445380D01*
X119133904Y-70445380D02*
X119752952Y-70445380D01*
X119419619Y-70826333D01*
X119562476Y-70826333D01*
X119657714Y-70873952D01*
X119705333Y-70921571D01*
X119752952Y-71016809D01*
X119752952Y-71254904D01*
X119705333Y-71350142D01*
X119657714Y-71397761D01*
X119562476Y-71445380D01*
X119276761Y-71445380D01*
X119181523Y-71397761D01*
X119133904Y-71350142D01*
X120943428Y-71064428D02*
X121705333Y-71064428D01*
X123514857Y-71445380D02*
X123181523Y-70969190D01*
X122943428Y-71445380D02*
X122943428Y-70445380D01*
X123324380Y-70445380D01*
X123419619Y-70493000D01*
X123467238Y-70540619D01*
X123514857Y-70635857D01*
X123514857Y-70778714D01*
X123467238Y-70873952D01*
X123419619Y-70921571D01*
X123324380Y-70969190D01*
X122943428Y-70969190D01*
X124324380Y-71397761D02*
X124229142Y-71445380D01*
X124038666Y-71445380D01*
X123943428Y-71397761D01*
X123895809Y-71302523D01*
X123895809Y-70921571D01*
X123943428Y-70826333D01*
X124038666Y-70778714D01*
X124229142Y-70778714D01*
X124324380Y-70826333D01*
X124372000Y-70921571D01*
X124372000Y-71016809D01*
X123895809Y-71112047D01*
X124705333Y-70778714D02*
X124943428Y-71445380D01*
X125181523Y-70778714D01*
D10*
X64008142Y-51899428D02*
X64079571Y-51828000D01*
X64222428Y-51756571D01*
X64579571Y-51756571D01*
X64722428Y-51828000D01*
X64793857Y-51899428D01*
X64865285Y-52042285D01*
X64865285Y-52185142D01*
X64793857Y-52399428D01*
X63936714Y-53256571D01*
X64865285Y-53256571D01*
X65793857Y-51756571D02*
X65936714Y-51756571D01*
X66079571Y-51828000D01*
X66151000Y-51899428D01*
X66222428Y-52042285D01*
X66293857Y-52328000D01*
X66293857Y-52685142D01*
X66222428Y-52970857D01*
X66151000Y-53113714D01*
X66079571Y-53185142D01*
X65936714Y-53256571D01*
X65793857Y-53256571D01*
X65651000Y-53185142D01*
X65579571Y-53113714D01*
X65508142Y-52970857D01*
X65436714Y-52685142D01*
X65436714Y-52328000D01*
X65508142Y-52042285D01*
X65579571Y-51899428D01*
X65651000Y-51828000D01*
X65793857Y-51756571D01*
X120062571Y-53129571D02*
X119205428Y-53129571D01*
X119634000Y-53129571D02*
X119634000Y-51629571D01*
X119491142Y-51843857D01*
X119348285Y-51986714D01*
X119205428Y-52058142D01*
D12*
X112580000Y-85690000D02*
X102340000Y-85690000D01*
X112580000Y-101580000D02*
X102340000Y-101580000D01*
X112580000Y-101580000D02*
X112580000Y-85690000D01*
X102340000Y-101580000D02*
X102340000Y-85690000D01*
X110000000Y-85690000D02*
X110000000Y-83150000D01*
X107460000Y-85690000D02*
X107460000Y-83150000D01*
X104920000Y-85690000D02*
X104920000Y-83150000D01*
X123213360Y-57236360D02*
G75*
G03X123213360Y-57236360I-2620000J0D01*
G01*
X120593360Y-58276360D02*
X120593360Y-59816360D01*
X120593360Y-54656360D02*
X120593360Y-56196360D01*
X120633360Y-58276360D02*
X120633360Y-59816360D01*
X120633360Y-54656360D02*
X120633360Y-56196360D01*
X120673360Y-54657360D02*
X120673360Y-56196360D01*
X120673360Y-58276360D02*
X120673360Y-59815360D01*
X120713360Y-54658360D02*
X120713360Y-56196360D01*
X120713360Y-58276360D02*
X120713360Y-59814360D01*
X120753360Y-54660360D02*
X120753360Y-56196360D01*
X120753360Y-58276360D02*
X120753360Y-59812360D01*
X120793360Y-54663360D02*
X120793360Y-56196360D01*
X120793360Y-58276360D02*
X120793360Y-59809360D01*
X120833360Y-54667360D02*
X120833360Y-56196360D01*
X120833360Y-58276360D02*
X120833360Y-59805360D01*
X120873360Y-54671360D02*
X120873360Y-56196360D01*
X120873360Y-58276360D02*
X120873360Y-59801360D01*
X120913360Y-54675360D02*
X120913360Y-56196360D01*
X120913360Y-58276360D02*
X120913360Y-59797360D01*
X120953360Y-54680360D02*
X120953360Y-56196360D01*
X120953360Y-58276360D02*
X120953360Y-59792360D01*
X120993360Y-54686360D02*
X120993360Y-56196360D01*
X120993360Y-58276360D02*
X120993360Y-59786360D01*
X121033360Y-54693360D02*
X121033360Y-56196360D01*
X121033360Y-58276360D02*
X121033360Y-59779360D01*
X121073360Y-54700360D02*
X121073360Y-56196360D01*
X121073360Y-58276360D02*
X121073360Y-59772360D01*
X121113360Y-54708360D02*
X121113360Y-56196360D01*
X121113360Y-58276360D02*
X121113360Y-59764360D01*
X121153360Y-54716360D02*
X121153360Y-56196360D01*
X121153360Y-58276360D02*
X121153360Y-59756360D01*
X121193360Y-54725360D02*
X121193360Y-56196360D01*
X121193360Y-58276360D02*
X121193360Y-59747360D01*
X121233360Y-54735360D02*
X121233360Y-56196360D01*
X121233360Y-58276360D02*
X121233360Y-59737360D01*
X121273360Y-54745360D02*
X121273360Y-56196360D01*
X121273360Y-58276360D02*
X121273360Y-59727360D01*
X121314360Y-54756360D02*
X121314360Y-56196360D01*
X121314360Y-58276360D02*
X121314360Y-59716360D01*
X121354360Y-54768360D02*
X121354360Y-56196360D01*
X121354360Y-58276360D02*
X121354360Y-59704360D01*
X121394360Y-54781360D02*
X121394360Y-56196360D01*
X121394360Y-58276360D02*
X121394360Y-59691360D01*
X121434360Y-54794360D02*
X121434360Y-56196360D01*
X121434360Y-58276360D02*
X121434360Y-59678360D01*
X121474360Y-54808360D02*
X121474360Y-56196360D01*
X121474360Y-58276360D02*
X121474360Y-59664360D01*
X121514360Y-54822360D02*
X121514360Y-56196360D01*
X121514360Y-58276360D02*
X121514360Y-59650360D01*
X121554360Y-54838360D02*
X121554360Y-56196360D01*
X121554360Y-58276360D02*
X121554360Y-59634360D01*
X121594360Y-54854360D02*
X121594360Y-56196360D01*
X121594360Y-58276360D02*
X121594360Y-59618360D01*
X121634360Y-54871360D02*
X121634360Y-56196360D01*
X121634360Y-58276360D02*
X121634360Y-59601360D01*
X121674360Y-54888360D02*
X121674360Y-56196360D01*
X121674360Y-58276360D02*
X121674360Y-59584360D01*
X121714360Y-54907360D02*
X121714360Y-56196360D01*
X121714360Y-58276360D02*
X121714360Y-59565360D01*
X121754360Y-54926360D02*
X121754360Y-56196360D01*
X121754360Y-58276360D02*
X121754360Y-59546360D01*
X121794360Y-54946360D02*
X121794360Y-56196360D01*
X121794360Y-58276360D02*
X121794360Y-59526360D01*
X121834360Y-54968360D02*
X121834360Y-56196360D01*
X121834360Y-58276360D02*
X121834360Y-59504360D01*
X121874360Y-54989360D02*
X121874360Y-56196360D01*
X121874360Y-58276360D02*
X121874360Y-59483360D01*
X121914360Y-55012360D02*
X121914360Y-56196360D01*
X121914360Y-58276360D02*
X121914360Y-59460360D01*
X121954360Y-55036360D02*
X121954360Y-56196360D01*
X121954360Y-58276360D02*
X121954360Y-59436360D01*
X121994360Y-55061360D02*
X121994360Y-56196360D01*
X121994360Y-58276360D02*
X121994360Y-59411360D01*
X122034360Y-55087360D02*
X122034360Y-56196360D01*
X122034360Y-58276360D02*
X122034360Y-59385360D01*
X122074360Y-55114360D02*
X122074360Y-56196360D01*
X122074360Y-58276360D02*
X122074360Y-59358360D01*
X122114360Y-55141360D02*
X122114360Y-56196360D01*
X122114360Y-58276360D02*
X122114360Y-59331360D01*
X122154360Y-55171360D02*
X122154360Y-56196360D01*
X122154360Y-58276360D02*
X122154360Y-59301360D01*
X122194360Y-55201360D02*
X122194360Y-56196360D01*
X122194360Y-58276360D02*
X122194360Y-59271360D01*
X122234360Y-55232360D02*
X122234360Y-56196360D01*
X122234360Y-58276360D02*
X122234360Y-59240360D01*
X122274360Y-55265360D02*
X122274360Y-56196360D01*
X122274360Y-58276360D02*
X122274360Y-59207360D01*
X122314360Y-55299360D02*
X122314360Y-56196360D01*
X122314360Y-58276360D02*
X122314360Y-59173360D01*
X122354360Y-55335360D02*
X122354360Y-56196360D01*
X122354360Y-58276360D02*
X122354360Y-59137360D01*
X122394360Y-55372360D02*
X122394360Y-56196360D01*
X122394360Y-58276360D02*
X122394360Y-59100360D01*
X122434360Y-55410360D02*
X122434360Y-56196360D01*
X122434360Y-58276360D02*
X122434360Y-59062360D01*
X122474360Y-55451360D02*
X122474360Y-56196360D01*
X122474360Y-58276360D02*
X122474360Y-59021360D01*
X122514360Y-55493360D02*
X122514360Y-56196360D01*
X122514360Y-58276360D02*
X122514360Y-58979360D01*
X122554360Y-55537360D02*
X122554360Y-56196360D01*
X122554360Y-58276360D02*
X122554360Y-58935360D01*
X122594360Y-55583360D02*
X122594360Y-56196360D01*
X122594360Y-58276360D02*
X122594360Y-58889360D01*
X122634360Y-55631360D02*
X122634360Y-58841360D01*
X122674360Y-55682360D02*
X122674360Y-58790360D01*
X122714360Y-55736360D02*
X122714360Y-58736360D01*
X122754360Y-55793360D02*
X122754360Y-58679360D01*
X122794360Y-55853360D02*
X122794360Y-58619360D01*
X122834360Y-55917360D02*
X122834360Y-58555360D01*
X122874360Y-55985360D02*
X122874360Y-58487360D01*
X122914360Y-56058360D02*
X122914360Y-58414360D01*
X122954360Y-56138360D02*
X122954360Y-58334360D01*
X122994360Y-56225360D02*
X122994360Y-58247360D01*
X123034360Y-56321360D02*
X123034360Y-58151360D01*
X123074360Y-56431360D02*
X123074360Y-58041360D01*
X123114360Y-56559360D02*
X123114360Y-57913360D01*
X123154360Y-56718360D02*
X123154360Y-57754360D01*
X123194360Y-56952360D02*
X123194360Y-57520360D01*
X117788585Y-55761360D02*
X118288585Y-55761360D01*
X118038585Y-55511360D02*
X118038585Y-56011360D01*
X75216120Y-105178160D02*
G75*
G03X75216120Y-105178160I-2120000J0D01*
G01*
X73936120Y-105178160D02*
X75176120Y-105178160D01*
X71016120Y-105178160D02*
X72256120Y-105178160D01*
X73936120Y-105138160D02*
X75176120Y-105138160D01*
X71016120Y-105138160D02*
X72256120Y-105138160D01*
X73936120Y-105098160D02*
X75175120Y-105098160D01*
X71017120Y-105098160D02*
X72256120Y-105098160D01*
X71019120Y-105058160D02*
X72256120Y-105058160D01*
X73936120Y-105058160D02*
X75173120Y-105058160D01*
X71022120Y-105018160D02*
X72256120Y-105018160D01*
X73936120Y-105018160D02*
X75170120Y-105018160D01*
X71025120Y-104978160D02*
X72256120Y-104978160D01*
X73936120Y-104978160D02*
X75167120Y-104978160D01*
X71029120Y-104938160D02*
X72256120Y-104938160D01*
X73936120Y-104938160D02*
X75163120Y-104938160D01*
X71034120Y-104898160D02*
X72256120Y-104898160D01*
X73936120Y-104898160D02*
X75158120Y-104898160D01*
X71040120Y-104858160D02*
X72256120Y-104858160D01*
X73936120Y-104858160D02*
X75152120Y-104858160D01*
X71046120Y-104818160D02*
X72256120Y-104818160D01*
X73936120Y-104818160D02*
X75146120Y-104818160D01*
X71054120Y-104778160D02*
X72256120Y-104778160D01*
X73936120Y-104778160D02*
X75138120Y-104778160D01*
X71062120Y-104738160D02*
X72256120Y-104738160D01*
X73936120Y-104738160D02*
X75130120Y-104738160D01*
X71071120Y-104698160D02*
X72256120Y-104698160D01*
X73936120Y-104698160D02*
X75121120Y-104698160D01*
X71080120Y-104658160D02*
X72256120Y-104658160D01*
X73936120Y-104658160D02*
X75112120Y-104658160D01*
X71091120Y-104618160D02*
X72256120Y-104618160D01*
X73936120Y-104618160D02*
X75101120Y-104618160D01*
X71102120Y-104578160D02*
X72256120Y-104578160D01*
X73936120Y-104578160D02*
X75090120Y-104578160D01*
X71114120Y-104538160D02*
X72256120Y-104538160D01*
X73936120Y-104538160D02*
X75078120Y-104538160D01*
X71128120Y-104498160D02*
X72256120Y-104498160D01*
X73936120Y-104498160D02*
X75064120Y-104498160D01*
X71142120Y-104457160D02*
X72256120Y-104457160D01*
X73936120Y-104457160D02*
X75050120Y-104457160D01*
X71156120Y-104417160D02*
X72256120Y-104417160D01*
X73936120Y-104417160D02*
X75036120Y-104417160D01*
X71172120Y-104377160D02*
X72256120Y-104377160D01*
X73936120Y-104377160D02*
X75020120Y-104377160D01*
X71189120Y-104337160D02*
X72256120Y-104337160D01*
X73936120Y-104337160D02*
X75003120Y-104337160D01*
X71207120Y-104297160D02*
X72256120Y-104297160D01*
X73936120Y-104297160D02*
X74985120Y-104297160D01*
X71226120Y-104257160D02*
X72256120Y-104257160D01*
X73936120Y-104257160D02*
X74966120Y-104257160D01*
X71245120Y-104217160D02*
X72256120Y-104217160D01*
X73936120Y-104217160D02*
X74947120Y-104217160D01*
X71266120Y-104177160D02*
X72256120Y-104177160D01*
X73936120Y-104177160D02*
X74926120Y-104177160D01*
X71288120Y-104137160D02*
X72256120Y-104137160D01*
X73936120Y-104137160D02*
X74904120Y-104137160D01*
X71311120Y-104097160D02*
X72256120Y-104097160D01*
X73936120Y-104097160D02*
X74881120Y-104097160D01*
X71336120Y-104057160D02*
X72256120Y-104057160D01*
X73936120Y-104057160D02*
X74856120Y-104057160D01*
X71361120Y-104017160D02*
X72256120Y-104017160D01*
X73936120Y-104017160D02*
X74831120Y-104017160D01*
X71388120Y-103977160D02*
X72256120Y-103977160D01*
X73936120Y-103977160D02*
X74804120Y-103977160D01*
X71416120Y-103937160D02*
X72256120Y-103937160D01*
X73936120Y-103937160D02*
X74776120Y-103937160D01*
X71446120Y-103897160D02*
X72256120Y-103897160D01*
X73936120Y-103897160D02*
X74746120Y-103897160D01*
X71477120Y-103857160D02*
X72256120Y-103857160D01*
X73936120Y-103857160D02*
X74715120Y-103857160D01*
X71509120Y-103817160D02*
X72256120Y-103817160D01*
X73936120Y-103817160D02*
X74683120Y-103817160D01*
X71544120Y-103777160D02*
X72256120Y-103777160D01*
X73936120Y-103777160D02*
X74648120Y-103777160D01*
X71580120Y-103737160D02*
X72256120Y-103737160D01*
X73936120Y-103737160D02*
X74612120Y-103737160D01*
X71618120Y-103697160D02*
X72256120Y-103697160D01*
X73936120Y-103697160D02*
X74574120Y-103697160D01*
X71658120Y-103657160D02*
X72256120Y-103657160D01*
X73936120Y-103657160D02*
X74534120Y-103657160D01*
X71700120Y-103617160D02*
X72256120Y-103617160D01*
X73936120Y-103617160D02*
X74492120Y-103617160D01*
X71745120Y-103577160D02*
X74447120Y-103577160D01*
X71792120Y-103537160D02*
X74400120Y-103537160D01*
X71842120Y-103497160D02*
X74350120Y-103497160D01*
X71896120Y-103457160D02*
X74296120Y-103457160D01*
X71954120Y-103417160D02*
X74238120Y-103417160D01*
X72016120Y-103377160D02*
X74176120Y-103377160D01*
X72083120Y-103337160D02*
X74109120Y-103337160D01*
X72156120Y-103297160D02*
X74036120Y-103297160D01*
X72237120Y-103257160D02*
X73955120Y-103257160D01*
X72328120Y-103217160D02*
X73864120Y-103217160D01*
X72432120Y-103177160D02*
X73760120Y-103177160D01*
X72559120Y-103137160D02*
X73633120Y-103137160D01*
X72726120Y-103097160D02*
X73466120Y-103097160D01*
X71901120Y-107447961D02*
X71901120Y-107047961D01*
X71701120Y-107247961D02*
X72101120Y-107247961D01*
X79355767Y-79117920D02*
X79013233Y-79117920D01*
X79355767Y-78097920D02*
X79013233Y-78097920D01*
X108626496Y-77705540D02*
X109830624Y-77705540D01*
X108626496Y-79525540D02*
X109830624Y-79525540D01*
X129558800Y-102339200D02*
X134278800Y-102339200D01*
X134278800Y-102339200D02*
X134278800Y-82219200D01*
X134278800Y-82219200D02*
X129558800Y-82219200D01*
X129558800Y-82219200D02*
X129558800Y-102339200D01*
X129558800Y-100579200D02*
X129358800Y-100579200D01*
X129358800Y-100579200D02*
X129358800Y-100879200D01*
X129358800Y-100879200D02*
X129558800Y-100879200D01*
X129458800Y-100579200D02*
X129458800Y-100879200D01*
X129558800Y-99779200D02*
X130168800Y-99779200D01*
X130168800Y-99779200D02*
X130168800Y-101729200D01*
X130168800Y-101729200D02*
X133668800Y-101729200D01*
X133668800Y-101729200D02*
X133668800Y-82829200D01*
X133668800Y-82829200D02*
X130168800Y-82829200D01*
X130168800Y-82829200D02*
X130168800Y-84779200D01*
X130168800Y-84779200D02*
X129558800Y-84779200D01*
X130868800Y-102339200D02*
X130868800Y-101729200D01*
X132168800Y-102339200D02*
X132168800Y-101729200D01*
X130868800Y-82219200D02*
X130868800Y-82829200D01*
X132168800Y-82219200D02*
X132168800Y-82829200D01*
X133668800Y-99379200D02*
X133168800Y-99379200D01*
X133168800Y-99379200D02*
X133168800Y-99179200D01*
X133168800Y-99179200D02*
X133668800Y-99179200D01*
X133668800Y-99279200D02*
X133168800Y-99279200D01*
X133668800Y-97379200D02*
X133168800Y-97379200D01*
X133168800Y-97379200D02*
X133168800Y-97179200D01*
X133168800Y-97179200D02*
X133668800Y-97179200D01*
X133668800Y-97279200D02*
X133168800Y-97279200D01*
X133668800Y-95379200D02*
X133168800Y-95379200D01*
X133168800Y-95379200D02*
X133168800Y-95179200D01*
X133168800Y-95179200D02*
X133668800Y-95179200D01*
X133668800Y-95279200D02*
X133168800Y-95279200D01*
X133668800Y-93379200D02*
X133168800Y-93379200D01*
X133168800Y-93379200D02*
X133168800Y-93179200D01*
X133168800Y-93179200D02*
X133668800Y-93179200D01*
X133668800Y-93279200D02*
X133168800Y-93279200D01*
X133668800Y-91379200D02*
X133168800Y-91379200D01*
X133168800Y-91379200D02*
X133168800Y-91179200D01*
X133168800Y-91179200D02*
X133668800Y-91179200D01*
X133668800Y-91279200D02*
X133168800Y-91279200D01*
X133668800Y-89379200D02*
X133168800Y-89379200D01*
X133168800Y-89379200D02*
X133168800Y-89179200D01*
X133168800Y-89179200D02*
X133668800Y-89179200D01*
X133668800Y-89279200D02*
X133168800Y-89279200D01*
X133668800Y-87379200D02*
X133168800Y-87379200D01*
X133168800Y-87379200D02*
X133168800Y-87179200D01*
X133168800Y-87179200D02*
X133668800Y-87179200D01*
X133668800Y-87279200D02*
X133168800Y-87279200D01*
X133668800Y-85379200D02*
X133168800Y-85379200D01*
X133168800Y-85379200D02*
X133168800Y-85179200D01*
X133168800Y-85179200D02*
X133668800Y-85179200D01*
X133668800Y-85279200D02*
X133168800Y-85279200D01*
X129258800Y-101389200D02*
X129258800Y-102639200D01*
X129258800Y-102639200D02*
X130508800Y-102639200D01*
X55856400Y-81866400D02*
X54606400Y-81866400D01*
X55856400Y-83116400D02*
X55856400Y-81866400D01*
X51446400Y-99226400D02*
X51946400Y-99226400D01*
X51946400Y-99326400D02*
X51446400Y-99326400D01*
X51946400Y-99126400D02*
X51946400Y-99326400D01*
X51446400Y-99126400D02*
X51946400Y-99126400D01*
X51446400Y-97226400D02*
X51946400Y-97226400D01*
X51946400Y-97326400D02*
X51446400Y-97326400D01*
X51946400Y-97126400D02*
X51946400Y-97326400D01*
X51446400Y-97126400D02*
X51946400Y-97126400D01*
X51446400Y-95226400D02*
X51946400Y-95226400D01*
X51946400Y-95326400D02*
X51446400Y-95326400D01*
X51946400Y-95126400D02*
X51946400Y-95326400D01*
X51446400Y-95126400D02*
X51946400Y-95126400D01*
X51446400Y-93226400D02*
X51946400Y-93226400D01*
X51946400Y-93326400D02*
X51446400Y-93326400D01*
X51946400Y-93126400D02*
X51946400Y-93326400D01*
X51446400Y-93126400D02*
X51946400Y-93126400D01*
X51446400Y-91226400D02*
X51946400Y-91226400D01*
X51946400Y-91326400D02*
X51446400Y-91326400D01*
X51946400Y-91126400D02*
X51946400Y-91326400D01*
X51446400Y-91126400D02*
X51946400Y-91126400D01*
X51446400Y-89226400D02*
X51946400Y-89226400D01*
X51946400Y-89326400D02*
X51446400Y-89326400D01*
X51946400Y-89126400D02*
X51946400Y-89326400D01*
X51446400Y-89126400D02*
X51946400Y-89126400D01*
X51446400Y-87226400D02*
X51946400Y-87226400D01*
X51946400Y-87326400D02*
X51446400Y-87326400D01*
X51946400Y-87126400D02*
X51946400Y-87326400D01*
X51446400Y-87126400D02*
X51946400Y-87126400D01*
X51446400Y-85226400D02*
X51946400Y-85226400D01*
X51946400Y-85326400D02*
X51446400Y-85326400D01*
X51946400Y-85126400D02*
X51946400Y-85326400D01*
X51446400Y-85126400D02*
X51946400Y-85126400D01*
X52946400Y-102286400D02*
X52946400Y-101676400D01*
X54246400Y-102286400D02*
X54246400Y-101676400D01*
X52946400Y-82166400D02*
X52946400Y-82776400D01*
X54246400Y-82166400D02*
X54246400Y-82776400D01*
X54946400Y-99726400D02*
X55556400Y-99726400D01*
X54946400Y-101676400D02*
X54946400Y-99726400D01*
X51446400Y-101676400D02*
X54946400Y-101676400D01*
X51446400Y-82776400D02*
X51446400Y-101676400D01*
X54946400Y-82776400D02*
X51446400Y-82776400D01*
X54946400Y-84726400D02*
X54946400Y-82776400D01*
X55556400Y-84726400D02*
X54946400Y-84726400D01*
X55656400Y-83926400D02*
X55656400Y-83626400D01*
X55756400Y-83626400D02*
X55556400Y-83626400D01*
X55756400Y-83926400D02*
X55756400Y-83626400D01*
X55556400Y-83926400D02*
X55756400Y-83926400D01*
X55556400Y-102286400D02*
X55556400Y-82166400D01*
X50836400Y-102286400D02*
X55556400Y-102286400D01*
X50836400Y-82166400D02*
X50836400Y-102286400D01*
X55556400Y-82166400D02*
X50836400Y-82166400D01*
X50838040Y-72388480D02*
X50838040Y-77108480D01*
X50838040Y-77108480D02*
X56958040Y-77108480D01*
X56958040Y-77108480D02*
X56958040Y-72388480D01*
X56958040Y-72388480D02*
X50838040Y-72388480D01*
X52598040Y-72388480D02*
X52598040Y-72188480D01*
X52598040Y-72188480D02*
X52298040Y-72188480D01*
X52298040Y-72188480D02*
X52298040Y-72388480D01*
X52598040Y-72288480D02*
X52298040Y-72288480D01*
X53398040Y-72388480D02*
X53398040Y-72998480D01*
X53398040Y-72998480D02*
X51448040Y-72998480D01*
X51448040Y-72998480D02*
X51448040Y-76498480D01*
X51448040Y-76498480D02*
X56348040Y-76498480D01*
X56348040Y-76498480D02*
X56348040Y-72998480D01*
X56348040Y-72998480D02*
X54398040Y-72998480D01*
X54398040Y-72998480D02*
X54398040Y-72388480D01*
X50838040Y-73698480D02*
X51448040Y-73698480D01*
X50838040Y-74998480D02*
X51448040Y-74998480D01*
X56958040Y-73698480D02*
X56348040Y-73698480D01*
X56958040Y-74998480D02*
X56348040Y-74998480D01*
X53798040Y-76498480D02*
X53798040Y-75998480D01*
X53798040Y-75998480D02*
X53998040Y-75998480D01*
X53998040Y-75998480D02*
X53998040Y-76498480D01*
X53898040Y-76498480D02*
X53898040Y-75998480D01*
X51788040Y-72088480D02*
X50538040Y-72088480D01*
X50538040Y-72088480D02*
X50538040Y-73338480D01*
X63048900Y-61831280D02*
X67768900Y-61831280D01*
X67768900Y-61831280D02*
X67768900Y-55711280D01*
X67768900Y-55711280D02*
X63048900Y-55711280D01*
X63048900Y-55711280D02*
X63048900Y-61831280D01*
X63048900Y-60071280D02*
X62848900Y-60071280D01*
X62848900Y-60071280D02*
X62848900Y-60371280D01*
X62848900Y-60371280D02*
X63048900Y-60371280D01*
X62948900Y-60071280D02*
X62948900Y-60371280D01*
X63048900Y-59271280D02*
X63658900Y-59271280D01*
X63658900Y-59271280D02*
X63658900Y-61221280D01*
X63658900Y-61221280D02*
X67158900Y-61221280D01*
X67158900Y-61221280D02*
X67158900Y-56321280D01*
X67158900Y-56321280D02*
X63658900Y-56321280D01*
X63658900Y-56321280D02*
X63658900Y-58271280D01*
X63658900Y-58271280D02*
X63048900Y-58271280D01*
X64358900Y-61831280D02*
X64358900Y-61221280D01*
X65658900Y-61831280D02*
X65658900Y-61221280D01*
X64358900Y-55711280D02*
X64358900Y-56321280D01*
X65658900Y-55711280D02*
X65658900Y-56321280D01*
X67158900Y-58871280D02*
X66658900Y-58871280D01*
X66658900Y-58871280D02*
X66658900Y-58671280D01*
X66658900Y-58671280D02*
X67158900Y-58671280D01*
X67158900Y-58771280D02*
X66658900Y-58771280D01*
X62748900Y-60881280D02*
X62748900Y-62131280D01*
X62748900Y-62131280D02*
X63998900Y-62131280D01*
X85140000Y-91090000D02*
X85140000Y-93590000D01*
X88500000Y-91090000D02*
X85140000Y-91090000D01*
X88500000Y-91340000D02*
X88500000Y-91090000D01*
X99560000Y-101110000D02*
X92500000Y-101110000D01*
X99560000Y-91390000D02*
X99560000Y-101110000D01*
X98340000Y-91390000D02*
X99560000Y-91390000D01*
X98340000Y-94390000D02*
X98340000Y-91390000D01*
X85440000Y-101110000D02*
X92500000Y-101110000D01*
X85440000Y-91390000D02*
X85440000Y-101110000D01*
X86660000Y-91390000D02*
X85440000Y-91390000D01*
X86660000Y-94390000D02*
X86660000Y-91390000D01*
X114820640Y-72378320D02*
X114820640Y-77098320D01*
X114820640Y-77098320D02*
X122940640Y-77098320D01*
X122940640Y-77098320D02*
X122940640Y-72378320D01*
X122940640Y-72378320D02*
X114820640Y-72378320D01*
X116580640Y-72378320D02*
X116580640Y-72178320D01*
X116580640Y-72178320D02*
X116280640Y-72178320D01*
X116280640Y-72178320D02*
X116280640Y-72378320D01*
X116580640Y-72278320D02*
X116280640Y-72278320D01*
X117380640Y-72378320D02*
X117380640Y-72988320D01*
X117380640Y-72988320D02*
X115430640Y-72988320D01*
X115430640Y-72988320D02*
X115430640Y-76488320D01*
X115430640Y-76488320D02*
X122330640Y-76488320D01*
X122330640Y-76488320D02*
X122330640Y-72988320D01*
X122330640Y-72988320D02*
X120380640Y-72988320D01*
X120380640Y-72988320D02*
X120380640Y-72378320D01*
X114820640Y-73688320D02*
X115430640Y-73688320D01*
X114820640Y-74988320D02*
X115430640Y-74988320D01*
X122940640Y-73688320D02*
X122330640Y-73688320D01*
X122940640Y-74988320D02*
X122330640Y-74988320D01*
X117780640Y-76488320D02*
X117780640Y-75988320D01*
X117780640Y-75988320D02*
X117980640Y-75988320D01*
X117980640Y-75988320D02*
X117980640Y-76488320D01*
X117880640Y-76488320D02*
X117880640Y-75988320D01*
X119780640Y-76488320D02*
X119780640Y-75988320D01*
X119780640Y-75988320D02*
X119980640Y-75988320D01*
X119980640Y-75988320D02*
X119980640Y-76488320D01*
X119880640Y-76488320D02*
X119880640Y-75988320D01*
X115770640Y-72078320D02*
X114520640Y-72078320D01*
X114520640Y-72078320D02*
X114520640Y-73328320D01*
X62784460Y-74231840D02*
X64034460Y-74231840D01*
X62784460Y-72981840D02*
X62784460Y-74231840D01*
X67194460Y-68871840D02*
X66694460Y-68871840D01*
X66694460Y-68771840D02*
X67194460Y-68771840D01*
X66694460Y-68971840D02*
X66694460Y-68771840D01*
X67194460Y-68971840D02*
X66694460Y-68971840D01*
X67194460Y-70871840D02*
X66694460Y-70871840D01*
X66694460Y-70771840D02*
X67194460Y-70771840D01*
X66694460Y-70971840D02*
X66694460Y-70771840D01*
X67194460Y-70971840D02*
X66694460Y-70971840D01*
X65694460Y-65811840D02*
X65694460Y-66421840D01*
X64394460Y-65811840D02*
X64394460Y-66421840D01*
X65694460Y-73931840D02*
X65694460Y-73321840D01*
X64394460Y-73931840D02*
X64394460Y-73321840D01*
X63694460Y-68371840D02*
X63084460Y-68371840D01*
X63694460Y-66421840D02*
X63694460Y-68371840D01*
X67194460Y-66421840D02*
X63694460Y-66421840D01*
X67194460Y-73321840D02*
X67194460Y-66421840D01*
X63694460Y-73321840D02*
X67194460Y-73321840D01*
X63694460Y-71371840D02*
X63694460Y-73321840D01*
X63084460Y-71371840D02*
X63694460Y-71371840D01*
X62984460Y-72171840D02*
X62984460Y-72471840D01*
X62884460Y-72471840D02*
X63084460Y-72471840D01*
X62884460Y-72171840D02*
X62884460Y-72471840D01*
X63084460Y-72171840D02*
X62884460Y-72171840D01*
X63084460Y-65811840D02*
X63084460Y-73931840D01*
X67804460Y-65811840D02*
X63084460Y-65811840D01*
X67804460Y-73931840D02*
X67804460Y-65811840D01*
X63084460Y-73931840D02*
X67804460Y-73931840D01*
X127738800Y-55446400D02*
X127738800Y-56696400D01*
X128988800Y-55446400D02*
X127738800Y-55446400D01*
X131098800Y-59856400D02*
X131098800Y-59356400D01*
X131198800Y-59356400D02*
X131198800Y-59856400D01*
X130998800Y-59356400D02*
X131198800Y-59356400D01*
X130998800Y-59856400D02*
X130998800Y-59356400D01*
X134158800Y-58356400D02*
X133548800Y-58356400D01*
X134158800Y-57056400D02*
X133548800Y-57056400D01*
X128038800Y-58356400D02*
X128648800Y-58356400D01*
X128038800Y-57056400D02*
X128648800Y-57056400D01*
X131598800Y-56356400D02*
X131598800Y-55746400D01*
X133548800Y-56356400D02*
X131598800Y-56356400D01*
X133548800Y-59856400D02*
X133548800Y-56356400D01*
X128648800Y-59856400D02*
X133548800Y-59856400D01*
X128648800Y-56356400D02*
X128648800Y-59856400D01*
X130598800Y-56356400D02*
X128648800Y-56356400D01*
X130598800Y-55746400D02*
X130598800Y-56356400D01*
X129798800Y-55646400D02*
X129498800Y-55646400D01*
X129498800Y-55546400D02*
X129498800Y-55746400D01*
X129798800Y-55546400D02*
X129498800Y-55546400D01*
X129798800Y-55746400D02*
X129798800Y-55546400D01*
X134158800Y-55746400D02*
X128038800Y-55746400D01*
X134158800Y-60466400D02*
X134158800Y-55746400D01*
X128038800Y-60466400D02*
X134158800Y-60466400D01*
X128038800Y-55746400D02*
X128038800Y-60466400D01*
X50822800Y-64189360D02*
X50822800Y-68909360D01*
X50822800Y-68909360D02*
X56942800Y-68909360D01*
X56942800Y-68909360D02*
X56942800Y-64189360D01*
X56942800Y-64189360D02*
X50822800Y-64189360D01*
X52582800Y-64189360D02*
X52582800Y-63989360D01*
X52582800Y-63989360D02*
X52282800Y-63989360D01*
X52282800Y-63989360D02*
X52282800Y-64189360D01*
X52582800Y-64089360D02*
X52282800Y-64089360D01*
X53382800Y-64189360D02*
X53382800Y-64799360D01*
X53382800Y-64799360D02*
X51432800Y-64799360D01*
X51432800Y-64799360D02*
X51432800Y-68299360D01*
X51432800Y-68299360D02*
X56332800Y-68299360D01*
X56332800Y-68299360D02*
X56332800Y-64799360D01*
X56332800Y-64799360D02*
X54382800Y-64799360D01*
X54382800Y-64799360D02*
X54382800Y-64189360D01*
X50822800Y-65499360D02*
X51432800Y-65499360D01*
X50822800Y-66799360D02*
X51432800Y-66799360D01*
X56942800Y-65499360D02*
X56332800Y-65499360D01*
X56942800Y-66799360D02*
X56332800Y-66799360D01*
X53782800Y-68299360D02*
X53782800Y-67799360D01*
X53782800Y-67799360D02*
X53982800Y-67799360D01*
X53982800Y-67799360D02*
X53982800Y-68299360D01*
X53882800Y-68299360D02*
X53882800Y-67799360D01*
X51772800Y-63889360D02*
X50522800Y-63889360D01*
X50522800Y-63889360D02*
X50522800Y-65139360D01*
X127738800Y-63726800D02*
X127738800Y-64976800D01*
X128988800Y-63726800D02*
X127738800Y-63726800D01*
X131098800Y-68136800D02*
X131098800Y-67636800D01*
X131198800Y-67636800D02*
X131198800Y-68136800D01*
X130998800Y-67636800D02*
X131198800Y-67636800D01*
X130998800Y-68136800D02*
X130998800Y-67636800D01*
X134158800Y-66636800D02*
X133548800Y-66636800D01*
X134158800Y-65336800D02*
X133548800Y-65336800D01*
X128038800Y-66636800D02*
X128648800Y-66636800D01*
X128038800Y-65336800D02*
X128648800Y-65336800D01*
X131598800Y-64636800D02*
X131598800Y-64026800D01*
X133548800Y-64636800D02*
X131598800Y-64636800D01*
X133548800Y-68136800D02*
X133548800Y-64636800D01*
X128648800Y-68136800D02*
X133548800Y-68136800D01*
X128648800Y-64636800D02*
X128648800Y-68136800D01*
X130598800Y-64636800D02*
X128648800Y-64636800D01*
X130598800Y-64026800D02*
X130598800Y-64636800D01*
X129798800Y-63926800D02*
X129498800Y-63926800D01*
X129498800Y-63826800D02*
X129498800Y-64026800D01*
X129798800Y-63826800D02*
X129498800Y-63826800D01*
X129798800Y-64026800D02*
X129798800Y-63826800D01*
X134158800Y-64026800D02*
X128038800Y-64026800D01*
X134158800Y-68746800D02*
X134158800Y-64026800D01*
X128038800Y-68746800D02*
X134158800Y-68746800D01*
X128038800Y-64026800D02*
X128038800Y-68746800D01*
X128038800Y-72358000D02*
X128038800Y-77078000D01*
X128038800Y-77078000D02*
X134158800Y-77078000D01*
X134158800Y-77078000D02*
X134158800Y-72358000D01*
X134158800Y-72358000D02*
X128038800Y-72358000D01*
X129798800Y-72358000D02*
X129798800Y-72158000D01*
X129798800Y-72158000D02*
X129498800Y-72158000D01*
X129498800Y-72158000D02*
X129498800Y-72358000D01*
X129798800Y-72258000D02*
X129498800Y-72258000D01*
X130598800Y-72358000D02*
X130598800Y-72968000D01*
X130598800Y-72968000D02*
X128648800Y-72968000D01*
X128648800Y-72968000D02*
X128648800Y-76468000D01*
X128648800Y-76468000D02*
X133548800Y-76468000D01*
X133548800Y-76468000D02*
X133548800Y-72968000D01*
X133548800Y-72968000D02*
X131598800Y-72968000D01*
X131598800Y-72968000D02*
X131598800Y-72358000D01*
X128038800Y-73668000D02*
X128648800Y-73668000D01*
X128038800Y-74968000D02*
X128648800Y-74968000D01*
X134158800Y-73668000D02*
X133548800Y-73668000D01*
X134158800Y-74968000D02*
X133548800Y-74968000D01*
X130998800Y-76468000D02*
X130998800Y-75968000D01*
X130998800Y-75968000D02*
X131198800Y-75968000D01*
X131198800Y-75968000D02*
X131198800Y-76468000D01*
X131098800Y-76468000D02*
X131098800Y-75968000D01*
X128988800Y-72058000D02*
X127738800Y-72058000D01*
X127738800Y-72058000D02*
X127738800Y-73308000D01*
X50522800Y-55446400D02*
X50522800Y-56696400D01*
X51772800Y-55446400D02*
X50522800Y-55446400D01*
X53882800Y-59856400D02*
X53882800Y-59356400D01*
X53982800Y-59356400D02*
X53982800Y-59856400D01*
X53782800Y-59356400D02*
X53982800Y-59356400D01*
X53782800Y-59856400D02*
X53782800Y-59356400D01*
X56942800Y-58356400D02*
X56332800Y-58356400D01*
X56942800Y-57056400D02*
X56332800Y-57056400D01*
X50822800Y-58356400D02*
X51432800Y-58356400D01*
X50822800Y-57056400D02*
X51432800Y-57056400D01*
X54382800Y-56356400D02*
X54382800Y-55746400D01*
X56332800Y-56356400D02*
X54382800Y-56356400D01*
X56332800Y-59856400D02*
X56332800Y-56356400D01*
X51432800Y-59856400D02*
X56332800Y-59856400D01*
X51432800Y-56356400D02*
X51432800Y-59856400D01*
X53382800Y-56356400D02*
X51432800Y-56356400D01*
X53382800Y-55746400D02*
X53382800Y-56356400D01*
X52582800Y-55646400D02*
X52282800Y-55646400D01*
X52282800Y-55546400D02*
X52282800Y-55746400D01*
X52582800Y-55546400D02*
X52282800Y-55546400D01*
X52582800Y-55746400D02*
X52582800Y-55546400D01*
X56942800Y-55746400D02*
X50822800Y-55746400D01*
X56942800Y-60466400D02*
X56942800Y-55746400D01*
X50822800Y-60466400D02*
X56942800Y-60466400D01*
X50822800Y-55746400D02*
X50822800Y-60466400D01*
X59136820Y-75242207D02*
X59136820Y-74899673D01*
X60156820Y-75242207D02*
X60156820Y-74899673D01*
X125532420Y-58591267D02*
X125532420Y-58248733D01*
X126552420Y-58591267D02*
X126552420Y-58248733D01*
X59129200Y-67035467D02*
X59129200Y-66692933D01*
X60149200Y-67035467D02*
X60149200Y-66692933D01*
X126552420Y-66871667D02*
X126552420Y-66529133D01*
X125532420Y-66871667D02*
X125532420Y-66529133D01*
X125532420Y-75202867D02*
X125532420Y-74860333D01*
X126552420Y-75202867D02*
X126552420Y-74860333D01*
X60149200Y-58602667D02*
X60149200Y-58260133D01*
X59129200Y-58602667D02*
X59129200Y-58260133D01*
X120371140Y-79726607D02*
X120371140Y-79384073D01*
X121391140Y-79726607D02*
X121391140Y-79384073D01*
X117375400Y-79729147D02*
X117375400Y-79386613D01*
X116355400Y-79729147D02*
X116355400Y-79386613D01*
X69964840Y-68470627D02*
X69964840Y-68128093D01*
X70984840Y-68470627D02*
X70984840Y-68128093D01*
X70989920Y-72886387D02*
X70989920Y-72543853D01*
X69969920Y-72886387D02*
X69969920Y-72543853D01*
X116424400Y-105644300D02*
X126704400Y-105644300D01*
X116424400Y-85084300D02*
X116424400Y-105644300D01*
X126704400Y-85084300D02*
X116424400Y-85084300D01*
X126704400Y-105644300D02*
X126704400Y-85084300D01*
X118914400Y-105584300D02*
X120564400Y-105584300D01*
X118914400Y-85144300D02*
X118914400Y-105584300D01*
X124214400Y-85144300D02*
X118914400Y-85144300D01*
X124214400Y-105584300D02*
X124214400Y-85144300D01*
X122564400Y-105584300D02*
X124214400Y-105584300D01*
X120564400Y-105584300D02*
G75*
G02X122564400Y-105584300I1000000J0D01*
G01*
X64482220Y-85177320D02*
G75*
G02X62482220Y-85177320I-1000000J0D01*
G01*
X62482220Y-85177320D02*
X60832220Y-85177320D01*
X60832220Y-85177320D02*
X60832220Y-105617320D01*
X60832220Y-105617320D02*
X66132220Y-105617320D01*
X66132220Y-105617320D02*
X66132220Y-85177320D01*
X66132220Y-85177320D02*
X64482220Y-85177320D01*
X58342220Y-85117320D02*
X58342220Y-105677320D01*
X58342220Y-105677320D02*
X68622220Y-105677320D01*
X68622220Y-105677320D02*
X68622220Y-85117320D01*
X68622220Y-85117320D02*
X58342220Y-85117320D01*
D13*
G36*
X96437000Y-65054480D02*
G01*
X96183000Y-65308480D01*
X95929000Y-64927480D01*
X96183000Y-64673480D01*
X96437000Y-65054480D01*
G37*
X96437000Y-65054480D02*
X96183000Y-65308480D01*
X95929000Y-64927480D01*
X96183000Y-64673480D01*
X96437000Y-65054480D01*
G36*
X96056000Y-65435480D02*
G01*
X95802000Y-65689480D01*
X95548000Y-65308480D01*
X95802000Y-65054480D01*
X96056000Y-65435480D01*
G37*
X96056000Y-65435480D02*
X95802000Y-65689480D01*
X95548000Y-65308480D01*
X95802000Y-65054480D01*
X96056000Y-65435480D01*
G36*
X94151000Y-64673480D02*
G01*
X93897000Y-64927480D01*
X93643000Y-64546480D01*
X93897000Y-64292480D01*
X94151000Y-64673480D01*
G37*
X94151000Y-64673480D02*
X93897000Y-64927480D01*
X93643000Y-64546480D01*
X93897000Y-64292480D01*
X94151000Y-64673480D01*
G36*
X94532000Y-65181480D02*
G01*
X94278000Y-65435480D01*
X94024000Y-65054480D01*
X94278000Y-64800480D01*
X94532000Y-65181480D01*
G37*
X94532000Y-65181480D02*
X94278000Y-65435480D01*
X94024000Y-65054480D01*
X94278000Y-64800480D01*
X94532000Y-65181480D01*
G36*
X94913000Y-65689480D02*
G01*
X94659000Y-65943480D01*
X94405000Y-65562480D01*
X94659000Y-65308480D01*
X94913000Y-65689480D01*
G37*
X94913000Y-65689480D02*
X94659000Y-65943480D01*
X94405000Y-65562480D01*
X94659000Y-65308480D01*
X94913000Y-65689480D01*
G36*
X94913000Y-64800480D02*
G01*
X94659000Y-65054480D01*
X94405000Y-64673480D01*
X94659000Y-64419480D01*
X94913000Y-64800480D01*
G37*
X94913000Y-64800480D02*
X94659000Y-65054480D01*
X94405000Y-64673480D01*
X94659000Y-64419480D01*
X94913000Y-64800480D01*
G36*
X95294000Y-65308480D02*
G01*
X95040000Y-65562480D01*
X94786000Y-65181480D01*
X95040000Y-64927480D01*
X95294000Y-65308480D01*
G37*
X95294000Y-65308480D02*
X95040000Y-65562480D01*
X94786000Y-65181480D01*
X95040000Y-64927480D01*
X95294000Y-65308480D01*
G36*
X95675000Y-65816480D02*
G01*
X95421000Y-66070480D01*
X95167000Y-65689480D01*
X95421000Y-65435480D01*
X95675000Y-65816480D01*
G37*
X95675000Y-65816480D02*
X95421000Y-66070480D01*
X95167000Y-65689480D01*
X95421000Y-65435480D01*
X95675000Y-65816480D01*
D11*
X86785000Y-67086480D02*
X86785000Y-70261480D01*
X84245000Y-67086480D02*
X86785000Y-67086480D01*
X84245000Y-70261480D02*
X84245000Y-67086480D01*
X86785000Y-70261480D02*
X84245000Y-70261480D01*
X110280000Y-56291480D02*
X110280000Y-74071480D01*
X74720000Y-56291480D02*
X110280000Y-56291480D01*
X74720000Y-74071480D02*
X74720000Y-56291480D01*
X110280000Y-74071480D02*
X74720000Y-74071480D01*
X88182000Y-60101480D02*
X97961000Y-60101480D01*
X88182000Y-70261480D02*
X97961000Y-70261480D01*
X97961000Y-70261480D02*
X97961000Y-60101480D01*
X88182000Y-60101480D02*
X88182000Y-70261480D01*
X81832000Y-66959480D02*
X77768000Y-66959480D01*
X81832000Y-63403480D02*
X81832000Y-66959480D01*
X77768000Y-63403480D02*
X81832000Y-63403480D01*
X77768000Y-66959480D02*
X77768000Y-63403480D01*
X105708000Y-61371480D02*
X110280000Y-61371480D01*
X105708000Y-68991480D02*
X110280000Y-68991480D01*
X105708000Y-61371480D02*
X105708000Y-68991480D01*
X111550000Y-68991480D02*
X110280000Y-68991480D01*
X111550000Y-61371480D02*
X111550000Y-68991480D01*
X110280000Y-61371480D02*
X111550000Y-61371480D01*
D12*
X74920000Y-85690000D02*
X74920000Y-83150000D01*
X77460000Y-85690000D02*
X77460000Y-83150000D01*
X80000000Y-85690000D02*
X80000000Y-83150000D01*
X72340000Y-101580000D02*
X72340000Y-85690000D01*
X82580000Y-101580000D02*
X82580000Y-85690000D01*
X82580000Y-101580000D02*
X72340000Y-101580000D01*
X82580000Y-85690000D02*
X72340000Y-85690000D01*
X97630000Y-84810000D02*
G75*
G02X97630000Y-82810000I0J1000000D01*
G01*
X97630000Y-82810000D02*
X97630000Y-81160000D01*
X97630000Y-81160000D02*
X87350000Y-81160000D01*
X87350000Y-81160000D02*
X87350000Y-86460000D01*
X87350000Y-86460000D02*
X97630000Y-86460000D01*
X97630000Y-86460000D02*
X97630000Y-84810000D01*
X118130000Y-51210000D02*
X118130000Y-52540000D01*
X116800000Y-51210000D02*
X118130000Y-51210000D01*
X115530000Y-51210000D02*
X115530000Y-53870000D01*
X115530000Y-53870000D02*
X67210000Y-53870000D01*
X115530000Y-51210000D02*
X67210000Y-51210000D01*
X67210000Y-51210000D02*
X67210000Y-53870000D01*
X84820000Y-102670000D02*
X84820000Y-105330000D01*
X97580000Y-102670000D02*
X84820000Y-102670000D01*
X97580000Y-105330000D02*
X84820000Y-105330000D01*
X97580000Y-102670000D02*
X97580000Y-105330000D01*
X98850000Y-102670000D02*
X100180000Y-102670000D01*
X100180000Y-102670000D02*
X100180000Y-104000000D01*
X99083400Y-88374067D02*
X99083400Y-88031533D01*
X100103400Y-88374067D02*
X100103400Y-88031533D01*
D11*
X106698095Y-102032380D02*
X106698095Y-102841904D01*
X106745714Y-102937142D01*
X106793333Y-102984761D01*
X106888571Y-103032380D01*
X107079047Y-103032380D01*
X107174285Y-102984761D01*
X107221904Y-102937142D01*
X107269523Y-102841904D01*
X107269523Y-102032380D01*
X108174285Y-102365714D02*
X108174285Y-103032380D01*
X107936190Y-101984761D02*
X107698095Y-102699047D01*
X108317142Y-102699047D01*
X120483333Y-61190142D02*
X120435714Y-61237761D01*
X120292857Y-61285380D01*
X120197619Y-61285380D01*
X120054761Y-61237761D01*
X119959523Y-61142523D01*
X119911904Y-61047285D01*
X119864285Y-60856809D01*
X119864285Y-60713952D01*
X119911904Y-60523476D01*
X119959523Y-60428238D01*
X120054761Y-60333000D01*
X120197619Y-60285380D01*
X120292857Y-60285380D01*
X120435714Y-60333000D01*
X120483333Y-60380619D01*
X121435714Y-61285380D02*
X120864285Y-61285380D01*
X121150000Y-61285380D02*
X121150000Y-60285380D01*
X121054761Y-60428238D01*
X120959523Y-60523476D01*
X120864285Y-60571095D01*
X75652333Y-107418142D02*
X75604714Y-107465761D01*
X75461857Y-107513380D01*
X75366619Y-107513380D01*
X75223761Y-107465761D01*
X75128523Y-107370523D01*
X75080904Y-107275285D01*
X75033285Y-107084809D01*
X75033285Y-106941952D01*
X75080904Y-106751476D01*
X75128523Y-106656238D01*
X75223761Y-106561000D01*
X75366619Y-106513380D01*
X75461857Y-106513380D01*
X75604714Y-106561000D01*
X75652333Y-106608619D01*
X76033285Y-106608619D02*
X76080904Y-106561000D01*
X76176142Y-106513380D01*
X76414238Y-106513380D01*
X76509476Y-106561000D01*
X76557095Y-106608619D01*
X76604714Y-106703857D01*
X76604714Y-106799095D01*
X76557095Y-106941952D01*
X75985666Y-107513380D01*
X76604714Y-107513380D01*
X79017833Y-77319142D02*
X78970214Y-77366761D01*
X78827357Y-77414380D01*
X78732119Y-77414380D01*
X78589261Y-77366761D01*
X78494023Y-77271523D01*
X78446404Y-77176285D01*
X78398785Y-76985809D01*
X78398785Y-76842952D01*
X78446404Y-76652476D01*
X78494023Y-76557238D01*
X78589261Y-76462000D01*
X78732119Y-76414380D01*
X78827357Y-76414380D01*
X78970214Y-76462000D01*
X79017833Y-76509619D01*
X79874976Y-76747714D02*
X79874976Y-77414380D01*
X79636880Y-76366761D02*
X79398785Y-77081047D01*
X80017833Y-77081047D01*
X109061893Y-77152682D02*
X109014274Y-77200301D01*
X108871417Y-77247920D01*
X108776179Y-77247920D01*
X108633321Y-77200301D01*
X108538083Y-77105063D01*
X108490464Y-77009825D01*
X108442845Y-76819349D01*
X108442845Y-76676492D01*
X108490464Y-76486016D01*
X108538083Y-76390778D01*
X108633321Y-76295540D01*
X108776179Y-76247920D01*
X108871417Y-76247920D01*
X109014274Y-76295540D01*
X109061893Y-76343159D01*
X109966655Y-76247920D02*
X109490464Y-76247920D01*
X109442845Y-76724111D01*
X109490464Y-76676492D01*
X109585702Y-76628873D01*
X109823798Y-76628873D01*
X109919036Y-76676492D01*
X109966655Y-76724111D01*
X110014274Y-76819349D01*
X110014274Y-77057444D01*
X109966655Y-77152682D01*
X109919036Y-77200301D01*
X109823798Y-77247920D01*
X109585702Y-77247920D01*
X109490464Y-77200301D01*
X109442845Y-77152682D01*
X127921180Y-92612533D02*
X128635466Y-92612533D01*
X128778323Y-92660152D01*
X128873561Y-92755390D01*
X128921180Y-92898247D01*
X128921180Y-92993485D01*
X128016419Y-92183961D02*
X127968800Y-92136342D01*
X127921180Y-92041104D01*
X127921180Y-91803009D01*
X127968800Y-91707771D01*
X128016419Y-91660152D01*
X128111657Y-91612533D01*
X128206895Y-91612533D01*
X128349752Y-91660152D01*
X128921180Y-92231580D01*
X128921180Y-91612533D01*
X56098780Y-92559733D02*
X56813066Y-92559733D01*
X56955923Y-92607352D01*
X57051161Y-92702590D01*
X57098780Y-92845447D01*
X57098780Y-92940685D01*
X56098780Y-92178780D02*
X56098780Y-91559733D01*
X56479733Y-91893066D01*
X56479733Y-91750209D01*
X56527352Y-91654971D01*
X56574971Y-91607352D01*
X56670209Y-91559733D01*
X56908304Y-91559733D01*
X57003542Y-91607352D01*
X57051161Y-91654971D01*
X57098780Y-91750209D01*
X57098780Y-92035923D01*
X57051161Y-92131161D01*
X57003542Y-92178780D01*
X54149666Y-70826380D02*
X54149666Y-71540666D01*
X54102047Y-71683523D01*
X54006809Y-71778761D01*
X53863952Y-71826380D01*
X53768714Y-71826380D01*
X55102047Y-70826380D02*
X54625857Y-70826380D01*
X54578238Y-71302571D01*
X54625857Y-71254952D01*
X54721095Y-71207333D01*
X54959190Y-71207333D01*
X55054428Y-71254952D01*
X55102047Y-71302571D01*
X55149666Y-71397809D01*
X55149666Y-71635904D01*
X55102047Y-71731142D01*
X55054428Y-71778761D01*
X54959190Y-71826380D01*
X54721095Y-71826380D01*
X54625857Y-71778761D01*
X54578238Y-71731142D01*
X61411280Y-59104613D02*
X62125566Y-59104613D01*
X62268423Y-59152232D01*
X62363661Y-59247470D01*
X62411280Y-59390327D01*
X62411280Y-59485565D01*
X61411280Y-58199851D02*
X61411280Y-58390327D01*
X61458900Y-58485565D01*
X61506519Y-58533184D01*
X61649376Y-58628422D01*
X61839852Y-58676041D01*
X62220804Y-58676041D01*
X62316042Y-58628422D01*
X62363661Y-58580803D01*
X62411280Y-58485565D01*
X62411280Y-58295089D01*
X62363661Y-58199851D01*
X62316042Y-58152232D01*
X62220804Y-58104613D01*
X61982709Y-58104613D01*
X61887471Y-58152232D01*
X61839852Y-58199851D01*
X61792233Y-58295089D01*
X61792233Y-58485565D01*
X61839852Y-58580803D01*
X61887471Y-58628422D01*
X61982709Y-58676041D01*
X92166666Y-89652380D02*
X92166666Y-90366666D01*
X92119047Y-90509523D01*
X92023809Y-90604761D01*
X91880952Y-90652380D01*
X91785714Y-90652380D01*
X92547619Y-89652380D02*
X93214285Y-89652380D01*
X92785714Y-90652380D01*
X118538666Y-68921380D02*
X118538666Y-69635666D01*
X118491047Y-69778523D01*
X118395809Y-69873761D01*
X118252952Y-69921380D01*
X118157714Y-69921380D01*
X119157714Y-69349952D02*
X119062476Y-69302333D01*
X119014857Y-69254714D01*
X118967238Y-69159476D01*
X118967238Y-69111857D01*
X119014857Y-69016619D01*
X119062476Y-68969000D01*
X119157714Y-68921380D01*
X119348190Y-68921380D01*
X119443428Y-68969000D01*
X119491047Y-69016619D01*
X119538666Y-69111857D01*
X119538666Y-69159476D01*
X119491047Y-69254714D01*
X119443428Y-69302333D01*
X119348190Y-69349952D01*
X119157714Y-69349952D01*
X119062476Y-69397571D01*
X119014857Y-69445190D01*
X118967238Y-69540428D01*
X118967238Y-69730904D01*
X119014857Y-69826142D01*
X119062476Y-69873761D01*
X119157714Y-69921380D01*
X119348190Y-69921380D01*
X119443428Y-69873761D01*
X119491047Y-69826142D01*
X119538666Y-69730904D01*
X119538666Y-69540428D01*
X119491047Y-69445190D01*
X119443428Y-69397571D01*
X119348190Y-69349952D01*
X61446840Y-70205173D02*
X62161126Y-70205173D01*
X62303983Y-70252792D01*
X62399221Y-70348030D01*
X62446840Y-70490887D01*
X62446840Y-70586125D01*
X62446840Y-69681363D02*
X62446840Y-69490887D01*
X62399221Y-69395649D01*
X62351602Y-69348030D01*
X62208745Y-69252792D01*
X62018269Y-69205173D01*
X61637317Y-69205173D01*
X61542079Y-69252792D01*
X61494460Y-69300411D01*
X61446840Y-69395649D01*
X61446840Y-69586125D01*
X61494460Y-69681363D01*
X61542079Y-69728982D01*
X61637317Y-69776601D01*
X61875412Y-69776601D01*
X61970650Y-69728982D01*
X62018269Y-69681363D01*
X62065888Y-69586125D01*
X62065888Y-69395649D01*
X62018269Y-69300411D01*
X61970650Y-69252792D01*
X61875412Y-69205173D01*
X130000476Y-54062380D02*
X130000476Y-54776666D01*
X129952857Y-54919523D01*
X129857619Y-55014761D01*
X129714761Y-55062380D01*
X129619523Y-55062380D01*
X131000476Y-55062380D02*
X130429047Y-55062380D01*
X130714761Y-55062380D02*
X130714761Y-54062380D01*
X130619523Y-54205238D01*
X130524285Y-54300476D01*
X130429047Y-54348095D01*
X131619523Y-54062380D02*
X131714761Y-54062380D01*
X131810000Y-54110000D01*
X131857619Y-54157619D01*
X131905238Y-54252857D01*
X131952857Y-54443333D01*
X131952857Y-54681428D01*
X131905238Y-54871904D01*
X131857619Y-54967142D01*
X131810000Y-55014761D01*
X131714761Y-55062380D01*
X131619523Y-55062380D01*
X131524285Y-55014761D01*
X131476666Y-54967142D01*
X131429047Y-54871904D01*
X131381428Y-54681428D01*
X131381428Y-54443333D01*
X131429047Y-54252857D01*
X131476666Y-54157619D01*
X131524285Y-54110000D01*
X131619523Y-54062380D01*
X51133476Y-62444380D02*
X51133476Y-63158666D01*
X51085857Y-63301523D01*
X50990619Y-63396761D01*
X50847761Y-63444380D01*
X50752523Y-63444380D01*
X52133476Y-63444380D02*
X51562047Y-63444380D01*
X51847761Y-63444380D02*
X51847761Y-62444380D01*
X51752523Y-62587238D01*
X51657285Y-62682476D01*
X51562047Y-62730095D01*
X53085857Y-63444380D02*
X52514428Y-63444380D01*
X52800142Y-63444380D02*
X52800142Y-62444380D01*
X52704904Y-62587238D01*
X52609666Y-62682476D01*
X52514428Y-62730095D01*
X131778476Y-62317380D02*
X131778476Y-63031666D01*
X131730857Y-63174523D01*
X131635619Y-63269761D01*
X131492761Y-63317380D01*
X131397523Y-63317380D01*
X132778476Y-63317380D02*
X132207047Y-63317380D01*
X132492761Y-63317380D02*
X132492761Y-62317380D01*
X132397523Y-62460238D01*
X132302285Y-62555476D01*
X132207047Y-62603095D01*
X133159428Y-62412619D02*
X133207047Y-62365000D01*
X133302285Y-62317380D01*
X133540380Y-62317380D01*
X133635619Y-62365000D01*
X133683238Y-62412619D01*
X133730857Y-62507857D01*
X133730857Y-62603095D01*
X133683238Y-62745952D01*
X133111809Y-63317380D01*
X133730857Y-63317380D01*
X132540476Y-70699380D02*
X132540476Y-71413666D01*
X132492857Y-71556523D01*
X132397619Y-71651761D01*
X132254761Y-71699380D01*
X132159523Y-71699380D01*
X133540476Y-71699380D02*
X132969047Y-71699380D01*
X133254761Y-71699380D02*
X133254761Y-70699380D01*
X133159523Y-70842238D01*
X133064285Y-70937476D01*
X132969047Y-70985095D01*
X133873809Y-70699380D02*
X134492857Y-70699380D01*
X134159523Y-71080333D01*
X134302380Y-71080333D01*
X134397619Y-71127952D01*
X134445238Y-71175571D01*
X134492857Y-71270809D01*
X134492857Y-71508904D01*
X134445238Y-71604142D01*
X134397619Y-71651761D01*
X134302380Y-71699380D01*
X134016666Y-71699380D01*
X133921428Y-71651761D01*
X133873809Y-71604142D01*
X53800476Y-54189380D02*
X53800476Y-54903666D01*
X53752857Y-55046523D01*
X53657619Y-55141761D01*
X53514761Y-55189380D01*
X53419523Y-55189380D01*
X54800476Y-55189380D02*
X54229047Y-55189380D01*
X54514761Y-55189380D02*
X54514761Y-54189380D01*
X54419523Y-54332238D01*
X54324285Y-54427476D01*
X54229047Y-54475095D01*
X55657619Y-54522714D02*
X55657619Y-55189380D01*
X55419523Y-54141761D02*
X55181428Y-54856047D01*
X55800476Y-54856047D01*
X69536240Y-58429326D02*
X69060050Y-58762660D01*
X69536240Y-59000755D02*
X68536240Y-59000755D01*
X68536240Y-58619802D01*
X68583860Y-58524564D01*
X68631479Y-58476945D01*
X68726717Y-58429326D01*
X68869574Y-58429326D01*
X68964812Y-58476945D01*
X69012431Y-58524564D01*
X69060050Y-58619802D01*
X69060050Y-59000755D01*
X69536240Y-57476945D02*
X69536240Y-58048374D01*
X69536240Y-57762660D02*
X68536240Y-57762660D01*
X68679098Y-57857898D01*
X68774336Y-57953136D01*
X68821955Y-58048374D01*
X58669200Y-75237606D02*
X58193010Y-75570940D01*
X58669200Y-75809035D02*
X57669200Y-75809035D01*
X57669200Y-75428082D01*
X57716820Y-75332844D01*
X57764439Y-75285225D01*
X57859677Y-75237606D01*
X58002534Y-75237606D01*
X58097772Y-75285225D01*
X58145391Y-75332844D01*
X58193010Y-75428082D01*
X58193010Y-75809035D01*
X57764439Y-74856654D02*
X57716820Y-74809035D01*
X57669200Y-74713797D01*
X57669200Y-74475701D01*
X57716820Y-74380463D01*
X57764439Y-74332844D01*
X57859677Y-74285225D01*
X57954915Y-74285225D01*
X58097772Y-74332844D01*
X58669200Y-74904273D01*
X58669200Y-74285225D01*
X125064800Y-58586666D02*
X124588610Y-58920000D01*
X125064800Y-59158095D02*
X124064800Y-59158095D01*
X124064800Y-58777142D01*
X124112420Y-58681904D01*
X124160039Y-58634285D01*
X124255277Y-58586666D01*
X124398134Y-58586666D01*
X124493372Y-58634285D01*
X124540991Y-58681904D01*
X124588610Y-58777142D01*
X124588610Y-59158095D01*
X124064800Y-58253333D02*
X124064800Y-57634285D01*
X124445753Y-57967619D01*
X124445753Y-57824761D01*
X124493372Y-57729523D01*
X124540991Y-57681904D01*
X124636229Y-57634285D01*
X124874324Y-57634285D01*
X124969562Y-57681904D01*
X125017181Y-57729523D01*
X125064800Y-57824761D01*
X125064800Y-58110476D01*
X125017181Y-58205714D01*
X124969562Y-58253333D01*
X58661580Y-67030866D02*
X58185390Y-67364200D01*
X58661580Y-67602295D02*
X57661580Y-67602295D01*
X57661580Y-67221342D01*
X57709200Y-67126104D01*
X57756819Y-67078485D01*
X57852057Y-67030866D01*
X57994914Y-67030866D01*
X58090152Y-67078485D01*
X58137771Y-67126104D01*
X58185390Y-67221342D01*
X58185390Y-67602295D01*
X57994914Y-66173723D02*
X58661580Y-66173723D01*
X57613961Y-66411819D02*
X58328247Y-66649914D01*
X58328247Y-66030866D01*
X125064800Y-66867066D02*
X124588610Y-67200400D01*
X125064800Y-67438495D02*
X124064800Y-67438495D01*
X124064800Y-67057542D01*
X124112420Y-66962304D01*
X124160039Y-66914685D01*
X124255277Y-66867066D01*
X124398134Y-66867066D01*
X124493372Y-66914685D01*
X124540991Y-66962304D01*
X124588610Y-67057542D01*
X124588610Y-67438495D01*
X124064800Y-65962304D02*
X124064800Y-66438495D01*
X124540991Y-66486114D01*
X124493372Y-66438495D01*
X124445753Y-66343257D01*
X124445753Y-66105161D01*
X124493372Y-66009923D01*
X124540991Y-65962304D01*
X124636229Y-65914685D01*
X124874324Y-65914685D01*
X124969562Y-65962304D01*
X125017181Y-66009923D01*
X125064800Y-66105161D01*
X125064800Y-66343257D01*
X125017181Y-66438495D01*
X124969562Y-66486114D01*
X125064800Y-75198266D02*
X124588610Y-75531600D01*
X125064800Y-75769695D02*
X124064800Y-75769695D01*
X124064800Y-75388742D01*
X124112420Y-75293504D01*
X124160039Y-75245885D01*
X124255277Y-75198266D01*
X124398134Y-75198266D01*
X124493372Y-75245885D01*
X124540991Y-75293504D01*
X124588610Y-75388742D01*
X124588610Y-75769695D01*
X124064800Y-74341123D02*
X124064800Y-74531600D01*
X124112420Y-74626838D01*
X124160039Y-74674457D01*
X124302896Y-74769695D01*
X124493372Y-74817314D01*
X124874324Y-74817314D01*
X124969562Y-74769695D01*
X125017181Y-74722076D01*
X125064800Y-74626838D01*
X125064800Y-74436361D01*
X125017181Y-74341123D01*
X124969562Y-74293504D01*
X124874324Y-74245885D01*
X124636229Y-74245885D01*
X124540991Y-74293504D01*
X124493372Y-74341123D01*
X124445753Y-74436361D01*
X124445753Y-74626838D01*
X124493372Y-74722076D01*
X124540991Y-74769695D01*
X124636229Y-74817314D01*
X58661580Y-58598066D02*
X58185390Y-58931400D01*
X58661580Y-59169495D02*
X57661580Y-59169495D01*
X57661580Y-58788542D01*
X57709200Y-58693304D01*
X57756819Y-58645685D01*
X57852057Y-58598066D01*
X57994914Y-58598066D01*
X58090152Y-58645685D01*
X58137771Y-58693304D01*
X58185390Y-58788542D01*
X58185390Y-59169495D01*
X57661580Y-58264733D02*
X57661580Y-57598066D01*
X58661580Y-58026638D01*
X119903520Y-79722006D02*
X119427330Y-80055340D01*
X119903520Y-80293435D02*
X118903520Y-80293435D01*
X118903520Y-79912482D01*
X118951140Y-79817244D01*
X118998759Y-79769625D01*
X119093997Y-79722006D01*
X119236854Y-79722006D01*
X119332092Y-79769625D01*
X119379711Y-79817244D01*
X119427330Y-79912482D01*
X119427330Y-80293435D01*
X119332092Y-79150578D02*
X119284473Y-79245816D01*
X119236854Y-79293435D01*
X119141616Y-79341054D01*
X119093997Y-79341054D01*
X118998759Y-79293435D01*
X118951140Y-79245816D01*
X118903520Y-79150578D01*
X118903520Y-78960101D01*
X118951140Y-78864863D01*
X118998759Y-78817244D01*
X119093997Y-78769625D01*
X119141616Y-78769625D01*
X119236854Y-78817244D01*
X119284473Y-78864863D01*
X119332092Y-78960101D01*
X119332092Y-79150578D01*
X119379711Y-79245816D01*
X119427330Y-79293435D01*
X119522568Y-79341054D01*
X119713044Y-79341054D01*
X119808282Y-79293435D01*
X119855901Y-79245816D01*
X119903520Y-79150578D01*
X119903520Y-78960101D01*
X119855901Y-78864863D01*
X119808282Y-78817244D01*
X119713044Y-78769625D01*
X119522568Y-78769625D01*
X119427330Y-78817244D01*
X119379711Y-78864863D01*
X119332092Y-78960101D01*
X115887780Y-79724546D02*
X115411590Y-80057880D01*
X115887780Y-80295975D02*
X114887780Y-80295975D01*
X114887780Y-79915022D01*
X114935400Y-79819784D01*
X114983019Y-79772165D01*
X115078257Y-79724546D01*
X115221114Y-79724546D01*
X115316352Y-79772165D01*
X115363971Y-79819784D01*
X115411590Y-79915022D01*
X115411590Y-80295975D01*
X115887780Y-79248356D02*
X115887780Y-79057880D01*
X115840161Y-78962641D01*
X115792542Y-78915022D01*
X115649685Y-78819784D01*
X115459209Y-78772165D01*
X115078257Y-78772165D01*
X114983019Y-78819784D01*
X114935400Y-78867403D01*
X114887780Y-78962641D01*
X114887780Y-79153118D01*
X114935400Y-79248356D01*
X114983019Y-79295975D01*
X115078257Y-79343594D01*
X115316352Y-79343594D01*
X115411590Y-79295975D01*
X115459209Y-79248356D01*
X115506828Y-79153118D01*
X115506828Y-78962641D01*
X115459209Y-78867403D01*
X115411590Y-78819784D01*
X115316352Y-78772165D01*
X69497220Y-68942217D02*
X69021030Y-69275550D01*
X69497220Y-69513645D02*
X68497220Y-69513645D01*
X68497220Y-69132693D01*
X68544840Y-69037455D01*
X68592459Y-68989836D01*
X68687697Y-68942217D01*
X68830554Y-68942217D01*
X68925792Y-68989836D01*
X68973411Y-69037455D01*
X69021030Y-69132693D01*
X69021030Y-69513645D01*
X69497220Y-67989836D02*
X69497220Y-68561264D01*
X69497220Y-68275550D02*
X68497220Y-68275550D01*
X68640078Y-68370788D01*
X68735316Y-68466026D01*
X68782935Y-68561264D01*
X68497220Y-67370788D02*
X68497220Y-67275550D01*
X68544840Y-67180312D01*
X68592459Y-67132693D01*
X68687697Y-67085074D01*
X68878173Y-67037455D01*
X69116268Y-67037455D01*
X69306744Y-67085074D01*
X69401982Y-67132693D01*
X69449601Y-67180312D01*
X69497220Y-67275550D01*
X69497220Y-67370788D01*
X69449601Y-67466026D01*
X69401982Y-67513645D01*
X69306744Y-67561264D01*
X69116268Y-67608883D01*
X68878173Y-67608883D01*
X68687697Y-67561264D01*
X68592459Y-67513645D01*
X68544840Y-67466026D01*
X68497220Y-67370788D01*
X69502300Y-73357977D02*
X69026110Y-73691310D01*
X69502300Y-73929405D02*
X68502300Y-73929405D01*
X68502300Y-73548453D01*
X68549920Y-73453215D01*
X68597539Y-73405596D01*
X68692777Y-73357977D01*
X68835634Y-73357977D01*
X68930872Y-73405596D01*
X68978491Y-73453215D01*
X69026110Y-73548453D01*
X69026110Y-73929405D01*
X69502300Y-72405596D02*
X69502300Y-72977024D01*
X69502300Y-72691310D02*
X68502300Y-72691310D01*
X68645158Y-72786548D01*
X68740396Y-72881786D01*
X68788015Y-72977024D01*
X69502300Y-71453215D02*
X69502300Y-72024643D01*
X69502300Y-71738929D02*
X68502300Y-71738929D01*
X68645158Y-71834167D01*
X68740396Y-71929405D01*
X68788015Y-72024643D01*
X120802495Y-106036680D02*
X120802495Y-106846204D01*
X120850114Y-106941442D01*
X120897733Y-106989061D01*
X120992971Y-107036680D01*
X121183447Y-107036680D01*
X121278685Y-106989061D01*
X121326304Y-106941442D01*
X121373923Y-106846204D01*
X121373923Y-106036680D01*
X122373923Y-107036680D02*
X121802495Y-107036680D01*
X122088209Y-107036680D02*
X122088209Y-106036680D01*
X121992971Y-106179538D01*
X121897733Y-106274776D01*
X121802495Y-106322395D01*
X62720315Y-83629700D02*
X62720315Y-84439224D01*
X62767934Y-84534462D01*
X62815553Y-84582081D01*
X62910791Y-84629700D01*
X63101267Y-84629700D01*
X63196505Y-84582081D01*
X63244124Y-84534462D01*
X63291743Y-84439224D01*
X63291743Y-83629700D01*
X63720315Y-83724939D02*
X63767934Y-83677320D01*
X63863172Y-83629700D01*
X64101267Y-83629700D01*
X64196505Y-83677320D01*
X64244124Y-83724939D01*
X64291743Y-83820177D01*
X64291743Y-83915415D01*
X64244124Y-84058272D01*
X63672696Y-84629700D01*
X64291743Y-84629700D01*
X91738095Y-74793860D02*
X91738095Y-75603384D01*
X91785714Y-75698622D01*
X91833333Y-75746241D01*
X91928571Y-75793860D01*
X92119047Y-75793860D01*
X92214285Y-75746241D01*
X92261904Y-75698622D01*
X92309523Y-75603384D01*
X92309523Y-74793860D01*
X92690476Y-74793860D02*
X93309523Y-74793860D01*
X92976190Y-75174813D01*
X93119047Y-75174813D01*
X93214285Y-75222432D01*
X93261904Y-75270051D01*
X93309523Y-75365289D01*
X93309523Y-75603384D01*
X93261904Y-75698622D01*
X93214285Y-75746241D01*
X93119047Y-75793860D01*
X92833333Y-75793860D01*
X92738095Y-75746241D01*
X92690476Y-75698622D01*
X91038666Y-66581480D02*
X90338666Y-66581480D01*
X90338666Y-66414813D01*
X90372000Y-66314813D01*
X90438666Y-66248146D01*
X90505333Y-66214813D01*
X90638666Y-66181480D01*
X90738666Y-66181480D01*
X90872000Y-66214813D01*
X90938666Y-66248146D01*
X91005333Y-66314813D01*
X91038666Y-66414813D01*
X91038666Y-66581480D01*
X90338666Y-65981480D02*
X91038666Y-65748146D01*
X90338666Y-65514813D01*
X91038666Y-64948146D02*
X91038666Y-65281480D01*
X90338666Y-65281480D01*
X90338666Y-64414813D02*
X90338666Y-64548146D01*
X90372000Y-64614813D01*
X90405333Y-64648146D01*
X90505333Y-64714813D01*
X90638666Y-64748146D01*
X90905333Y-64748146D01*
X90972000Y-64714813D01*
X91005333Y-64681480D01*
X91038666Y-64614813D01*
X91038666Y-64481480D01*
X91005333Y-64414813D01*
X90972000Y-64381480D01*
X90905333Y-64348146D01*
X90738666Y-64348146D01*
X90672000Y-64381480D01*
X90638666Y-64414813D01*
X90605333Y-64481480D01*
X90605333Y-64614813D01*
X90638666Y-64681480D01*
X90672000Y-64714813D01*
X90738666Y-64748146D01*
X90838666Y-64081480D02*
X90838666Y-63748146D01*
X91038666Y-64148146D02*
X90338666Y-63914813D01*
X91038666Y-63681480D01*
X92562666Y-68264813D02*
X91862666Y-68264813D01*
X92362666Y-68031480D01*
X91862666Y-67798146D01*
X92562666Y-67798146D01*
X92562666Y-67464813D02*
X91862666Y-67464813D01*
X92562666Y-67131480D02*
X91862666Y-67131480D01*
X92362666Y-66898146D01*
X91862666Y-66664813D01*
X92562666Y-66664813D01*
X91862666Y-66398146D02*
X92562666Y-65931480D01*
X91862666Y-65931480D02*
X92562666Y-66398146D01*
X92562666Y-65264813D02*
X92229333Y-65498146D01*
X92562666Y-65664813D02*
X91862666Y-65664813D01*
X91862666Y-65398146D01*
X91896000Y-65331480D01*
X91929333Y-65298146D01*
X91996000Y-65264813D01*
X92096000Y-65264813D01*
X92162666Y-65298146D01*
X92196000Y-65331480D01*
X92229333Y-65398146D01*
X92229333Y-65664813D01*
X91862666Y-65064813D02*
X91862666Y-64664813D01*
X92562666Y-64864813D02*
X91862666Y-64864813D01*
X92562666Y-64064813D02*
X92562666Y-64464813D01*
X92562666Y-64264813D02*
X91862666Y-64264813D01*
X91962666Y-64331480D01*
X92029333Y-64398146D01*
X92062666Y-64464813D01*
X91862666Y-63631480D02*
X91862666Y-63564813D01*
X91896000Y-63498146D01*
X91929333Y-63464813D01*
X91996000Y-63431480D01*
X92129333Y-63398146D01*
X92296000Y-63398146D01*
X92429333Y-63431480D01*
X92496000Y-63464813D01*
X92529333Y-63498146D01*
X92562666Y-63564813D01*
X92562666Y-63631480D01*
X92529333Y-63698146D01*
X92496000Y-63731480D01*
X92429333Y-63764813D01*
X92296000Y-63798146D01*
X92129333Y-63798146D01*
X91996000Y-63764813D01*
X91929333Y-63731480D01*
X91896000Y-63698146D01*
X91862666Y-63631480D01*
X91862666Y-62798146D02*
X91862666Y-62931480D01*
X91896000Y-62998146D01*
X91929333Y-63031480D01*
X92029333Y-63098146D01*
X92162666Y-63131480D01*
X92429333Y-63131480D01*
X92496000Y-63098146D01*
X92529333Y-63064813D01*
X92562666Y-62998146D01*
X92562666Y-62864813D01*
X92529333Y-62798146D01*
X92496000Y-62764813D01*
X92429333Y-62731480D01*
X92262666Y-62731480D01*
X92196000Y-62764813D01*
X92162666Y-62798146D01*
X92129333Y-62864813D01*
X92129333Y-62998146D01*
X92162666Y-63064813D01*
X92196000Y-63098146D01*
X92262666Y-63131480D01*
X91929333Y-62464813D02*
X91896000Y-62431480D01*
X91862666Y-62364813D01*
X91862666Y-62198146D01*
X91896000Y-62131480D01*
X91929333Y-62098146D01*
X91996000Y-62064813D01*
X92062666Y-62064813D01*
X92162666Y-62098146D01*
X92562666Y-62498146D01*
X92562666Y-62064813D01*
X76698095Y-102032380D02*
X76698095Y-102841904D01*
X76745714Y-102937142D01*
X76793333Y-102984761D01*
X76888571Y-103032380D01*
X77079047Y-103032380D01*
X77174285Y-102984761D01*
X77221904Y-102937142D01*
X77269523Y-102841904D01*
X77269523Y-102032380D01*
X78221904Y-102032380D02*
X77745714Y-102032380D01*
X77698095Y-102508571D01*
X77745714Y-102460952D01*
X77840952Y-102413333D01*
X78079047Y-102413333D01*
X78174285Y-102460952D01*
X78221904Y-102508571D01*
X78269523Y-102603809D01*
X78269523Y-102841904D01*
X78221904Y-102937142D01*
X78174285Y-102984761D01*
X78079047Y-103032380D01*
X77840952Y-103032380D01*
X77745714Y-102984761D01*
X77698095Y-102937142D01*
X91821095Y-77557380D02*
X91821095Y-78366904D01*
X91868714Y-78462142D01*
X91916333Y-78509761D01*
X92011571Y-78557380D01*
X92202047Y-78557380D01*
X92297285Y-78509761D01*
X92344904Y-78462142D01*
X92392523Y-78366904D01*
X92392523Y-77557380D01*
X93297285Y-77557380D02*
X93106809Y-77557380D01*
X93011571Y-77605000D01*
X92963952Y-77652619D01*
X92868714Y-77795476D01*
X92821095Y-77985952D01*
X92821095Y-78366904D01*
X92868714Y-78462142D01*
X92916333Y-78509761D01*
X93011571Y-78557380D01*
X93202047Y-78557380D01*
X93297285Y-78509761D01*
X93344904Y-78462142D01*
X93392523Y-78366904D01*
X93392523Y-78128809D01*
X93344904Y-78033571D01*
X93297285Y-77985952D01*
X93202047Y-77938333D01*
X93011571Y-77938333D01*
X92916333Y-77985952D01*
X92868714Y-78033571D01*
X92821095Y-78128809D01*
X92249666Y-54443380D02*
X92249666Y-55157666D01*
X92202047Y-55300523D01*
X92106809Y-55395761D01*
X91963952Y-55443380D01*
X91868714Y-55443380D01*
X93249666Y-55443380D02*
X92678238Y-55443380D01*
X92963952Y-55443380D02*
X92963952Y-54443380D01*
X92868714Y-54586238D01*
X92773476Y-54681476D01*
X92678238Y-54729095D01*
X92249666Y-106005380D02*
X92249666Y-106719666D01*
X92202047Y-106862523D01*
X92106809Y-106957761D01*
X91963952Y-107005380D01*
X91868714Y-107005380D01*
X93154428Y-106338714D02*
X93154428Y-107005380D01*
X92916333Y-105957761D02*
X92678238Y-106672047D01*
X93297285Y-106672047D01*
X104368542Y-79163206D02*
X104416161Y-79210825D01*
X104463780Y-79353682D01*
X104463780Y-79448920D01*
X104416161Y-79591778D01*
X104320923Y-79687016D01*
X104225685Y-79734635D01*
X104035209Y-79782254D01*
X103892352Y-79782254D01*
X103701876Y-79734635D01*
X103606638Y-79687016D01*
X103511400Y-79591778D01*
X103463780Y-79448920D01*
X103463780Y-79353682D01*
X103511400Y-79210825D01*
X103559019Y-79163206D01*
X103463780Y-78829873D02*
X103463780Y-78210825D01*
X103844733Y-78544159D01*
X103844733Y-78401301D01*
X103892352Y-78306063D01*
X103939971Y-78258444D01*
X104035209Y-78210825D01*
X104273304Y-78210825D01*
X104368542Y-78258444D01*
X104416161Y-78306063D01*
X104463780Y-78401301D01*
X104463780Y-78687016D01*
X104416161Y-78782254D01*
X104368542Y-78829873D01*
X73990142Y-78525666D02*
X74037761Y-78573285D01*
X74085380Y-78716142D01*
X74085380Y-78811380D01*
X74037761Y-78954238D01*
X73942523Y-79049476D01*
X73847285Y-79097095D01*
X73656809Y-79144714D01*
X73513952Y-79144714D01*
X73323476Y-79097095D01*
X73228238Y-79049476D01*
X73133000Y-78954238D01*
X73085380Y-78811380D01*
X73085380Y-78716142D01*
X73133000Y-78573285D01*
X73180619Y-78525666D01*
X73085380Y-77668523D02*
X73085380Y-77859000D01*
X73133000Y-77954238D01*
X73180619Y-78001857D01*
X73323476Y-78097095D01*
X73513952Y-78144714D01*
X73894904Y-78144714D01*
X73990142Y-78097095D01*
X74037761Y-78049476D01*
X74085380Y-77954238D01*
X74085380Y-77763761D01*
X74037761Y-77668523D01*
X73990142Y-77620904D01*
X73894904Y-77573285D01*
X73656809Y-77573285D01*
X73561571Y-77620904D01*
X73513952Y-77668523D01*
X73466333Y-77763761D01*
X73466333Y-77954238D01*
X73513952Y-78049476D01*
X73561571Y-78097095D01*
X73656809Y-78144714D01*
X100045780Y-85732857D02*
X99569590Y-86066190D01*
X100045780Y-86304285D02*
X99045780Y-86304285D01*
X99045780Y-85923333D01*
X99093400Y-85828095D01*
X99141019Y-85780476D01*
X99236257Y-85732857D01*
X99379114Y-85732857D01*
X99474352Y-85780476D01*
X99521971Y-85828095D01*
X99569590Y-85923333D01*
X99569590Y-86304285D01*
X100045780Y-84780476D02*
X100045780Y-85351904D01*
X100045780Y-85066190D02*
X99045780Y-85066190D01*
X99188638Y-85161428D01*
X99283876Y-85256666D01*
X99331495Y-85351904D01*
X99141019Y-84399523D02*
X99093400Y-84351904D01*
X99045780Y-84256666D01*
X99045780Y-84018571D01*
X99093400Y-83923333D01*
X99141019Y-83875714D01*
X99236257Y-83828095D01*
X99331495Y-83828095D01*
X99474352Y-83875714D01*
X100045780Y-84447142D01*
X100045780Y-83828095D01*
M02*
