%
M48
M72
T01C0.02362
T02C0.03150
T03C0.03200
T04C0.11811
%
T01
X41784Y87239
X41390Y97476
X41390Y117948
X41390Y138420
X41390Y158499
X41390Y178578
T02
X53949Y111373
X53949Y103499
X53949Y95625
X53949Y87751
X53949Y79877
X53949Y72003
X53949Y64129
X53949Y56255
X53949Y48381
T03
X10012Y41570
X10012Y62082
X10012Y82594
X10012Y102712
X10012Y123224
X10012Y143735
X10012Y163775
X10012Y184287
X20012Y184287
X20012Y163775
X20012Y143735
X20012Y123224
X20012Y102712
X20012Y82594
X20012Y62082
X20012Y41570
T04
X28988Y12003
X28988Y207909
M30
