G75*
%MOIN*%
%OFA0B0*%
%FSLAX25Y25*%
%IPPOS*%
%LPD*%
%AMOC8*
5,1,8,0,0,1.08239X$1,22.5*
%
%ADD10OC8,0.06600*%
%ADD11R,0.07874X0.06299*%
%ADD12R,0.05150X0.05150*%
%ADD13C,0.01600*%
%ADD14R,0.03962X0.03962*%
D10*
X0010012Y0041570D03*
X0010012Y0062082D03*
X0010012Y0082594D03*
X0010012Y0102712D03*
X0010012Y0123224D03*
X0010012Y0143735D03*
X0010012Y0163775D03*
X0010012Y0184287D03*
X0020012Y0184287D03*
X0020012Y0163775D03*
X0020012Y0143735D03*
X0020012Y0123224D03*
X0020012Y0102712D03*
X0020012Y0082594D03*
X0020012Y0062082D03*
X0020012Y0041570D03*
D11*
X0034697Y0036058D03*
X0034697Y0047082D03*
X0034697Y0056491D03*
X0034697Y0067515D03*
X0034697Y0076924D03*
X0034697Y0087948D03*
X0034697Y0097357D03*
X0034697Y0108381D03*
X0034697Y0117791D03*
X0034697Y0128814D03*
X0034697Y0138224D03*
X0034697Y0149247D03*
X0034697Y0158342D03*
X0034697Y0169365D03*
X0034697Y0178775D03*
X0034697Y0189798D03*
D12*
X0053949Y0111373D03*
X0053949Y0103499D03*
X0053949Y0095625D03*
X0053949Y0087751D03*
X0053949Y0079877D03*
X0053949Y0072003D03*
X0053949Y0064129D03*
X0053949Y0056255D03*
X0053949Y0048381D03*
D13*
X0058713Y0041176D02*
X0053595Y0036058D01*
X0034697Y0036058D01*
X0034697Y0047082D02*
X0025524Y0047082D01*
X0020012Y0041570D01*
X0020012Y0062082D02*
X0025445Y0067515D01*
X0034697Y0067515D01*
X0034697Y0076924D02*
X0040130Y0076924D01*
X0041784Y0078578D01*
X0041784Y0087239D01*
X0041390Y0097476D02*
X0034815Y0097476D01*
X0034697Y0097357D01*
X0034697Y0087948D02*
X0025366Y0087948D01*
X0020012Y0082594D01*
X0020012Y0102712D02*
X0025681Y0108381D01*
X0034697Y0108381D01*
X0034697Y0117791D02*
X0034855Y0117948D01*
X0041390Y0117948D01*
X0041390Y0138420D02*
X0034894Y0138420D01*
X0034697Y0138224D01*
X0034697Y0128814D02*
X0025603Y0128814D01*
X0020012Y0123224D01*
X0020012Y0143735D02*
X0025524Y0149247D01*
X0034697Y0149247D01*
X0034697Y0158342D02*
X0041232Y0158342D01*
X0041390Y0158499D01*
X0041390Y0178578D02*
X0034894Y0178578D01*
X0034697Y0178775D01*
X0034697Y0169365D02*
X0025603Y0169365D01*
X0020012Y0163775D01*
X0020012Y0184287D02*
X0025524Y0189798D01*
X0034697Y0189798D01*
X0053949Y0103499D02*
X0055839Y0103499D01*
X0058713Y0100625D01*
X0058713Y0041176D01*
X0035445Y0056491D02*
X0046114Y0067161D01*
X0046114Y0093145D01*
X0048595Y0095625D01*
X0053949Y0095625D01*
X0035445Y0056491D02*
X0034697Y0056491D01*
D14*
X0041784Y0087239D03*
X0041390Y0097476D03*
X0041390Y0117948D03*
X0041390Y0138420D03*
X0041390Y0158499D03*
X0041390Y0178578D03*
M02*
