G75*
%MOIN*%
%OFA0B0*%
%FSLAX25Y25*%
%IPPOS*%
%LPD*%
%AMOC8*
5,1,8,0,0,1.08239X$1,22.5*
%
%ADD10C,0.12611*%
%ADD11OC8,0.07400*%
%ADD12R,0.08674X0.07099*%
%ADD13R,0.05950X0.05950*%
%ADD14R,0.04762X0.04762*%
D10*
X0028988Y0012003D03*
X0028988Y0207909D03*
D11*
X0010012Y0041570D03*
X0010012Y0062082D03*
X0010012Y0082594D03*
X0010012Y0102712D03*
X0010012Y0123224D03*
X0010012Y0143735D03*
X0010012Y0163775D03*
X0010012Y0184287D03*
X0020012Y0184287D03*
X0020012Y0163775D03*
X0020012Y0143735D03*
X0020012Y0123224D03*
X0020012Y0102712D03*
X0020012Y0082594D03*
X0020012Y0062082D03*
X0020012Y0041570D03*
D12*
X0034697Y0036058D03*
X0034697Y0047082D03*
X0034697Y0056491D03*
X0034697Y0067515D03*
X0034697Y0076924D03*
X0034697Y0087948D03*
X0034697Y0097357D03*
X0034697Y0108381D03*
X0034697Y0117791D03*
X0034697Y0128814D03*
X0034697Y0138224D03*
X0034697Y0149247D03*
X0034697Y0158342D03*
X0034697Y0169365D03*
X0034697Y0178775D03*
X0034697Y0189798D03*
D13*
X0053949Y0111373D03*
X0053949Y0103499D03*
X0053949Y0095625D03*
X0053949Y0087751D03*
X0053949Y0079877D03*
X0053949Y0072003D03*
X0053949Y0064129D03*
X0053949Y0056255D03*
X0053949Y0048381D03*
D14*
X0041784Y0087239D03*
X0041390Y0097476D03*
X0041390Y0117948D03*
X0041390Y0138420D03*
X0041390Y0158499D03*
X0041390Y0178578D03*
M02*
