G75*
%MOIN*%
%OFA0B0*%
%FSLAX25Y25*%
%IPPOS*%
%LPD*%
%AMOC8*
5,1,8,0,0,1.08239X$1,22.5*
%
%ADD10C,0.08674*%
%ADD11R,0.07887X0.07099*%
%ADD12R,0.07099X0.07887*%
%ADD13OC8,0.07100*%
%ADD14C,0.07100*%
%ADD15C,0.06400*%
%ADD16OC8,0.05950*%
%ADD17C,0.06800*%
%ADD18R,0.08800X0.03400*%
%ADD19R,0.03400X0.08800*%
%ADD20C,0.05556*%
%ADD21C,0.07800*%
%ADD22C,0.07300*%
%ADD23R,0.07099X0.08674*%
%ADD24R,0.08674X0.07099*%
%ADD25R,0.05950X0.05950*%
%ADD26OC8,0.04762*%
D10*
X0149622Y0029543D03*
X0259858Y0074819D03*
X0395685Y0171276D03*
X0033480Y0171276D03*
D11*
X0203008Y0132220D03*
X0203008Y0121197D03*
X0317339Y0068520D03*
X0317339Y0057496D03*
X0112220Y0054346D03*
X0112220Y0065370D03*
D12*
X0080331Y0092535D03*
X0069307Y0092535D03*
X0297654Y0145685D03*
X0308677Y0145685D03*
X0317339Y0145685D03*
X0328362Y0145685D03*
X0362220Y0035449D03*
X0373244Y0035449D03*
D13*
X0103559Y0173331D03*
D14*
X0103559Y0187331D03*
D15*
X0074819Y0179150D03*
X0066945Y0179150D03*
X0066945Y0155528D03*
X0074819Y0155528D03*
X0074819Y0131906D03*
X0066945Y0131906D03*
X0066945Y0108283D03*
X0074819Y0108283D03*
X0354346Y0108283D03*
X0362220Y0108283D03*
X0362220Y0131906D03*
X0354346Y0131906D03*
X0354346Y0155528D03*
X0362220Y0155528D03*
X0362220Y0179150D03*
X0354346Y0179150D03*
D16*
X0259858Y0057102D03*
X0259858Y0049228D03*
X0259858Y0041354D03*
X0169307Y0041354D03*
X0169307Y0049228D03*
X0169307Y0057102D03*
D17*
X0303008Y0153748D02*
X0303008Y0159748D01*
X0313008Y0159748D02*
X0313008Y0153748D01*
X0323008Y0153748D02*
X0323008Y0159748D01*
X0319425Y0176150D02*
X0319425Y0182150D01*
X0309425Y0182150D02*
X0309425Y0176150D01*
X0299425Y0176150D02*
X0299425Y0182150D01*
X0289425Y0182150D02*
X0289425Y0176150D01*
X0279425Y0176150D02*
X0279425Y0182150D01*
X0269425Y0182150D02*
X0269425Y0176150D01*
X0259425Y0176150D02*
X0259425Y0182150D01*
X0249425Y0182150D02*
X0249425Y0176150D01*
X0239425Y0176150D02*
X0239425Y0182150D01*
X0229425Y0182150D02*
X0229425Y0176150D01*
X0219425Y0176150D02*
X0219425Y0182150D01*
X0209425Y0182150D02*
X0209425Y0176150D01*
X0199425Y0176150D02*
X0199425Y0182150D01*
X0189425Y0182150D02*
X0189425Y0176150D01*
X0179425Y0176150D02*
X0179425Y0182150D01*
X0169425Y0182150D02*
X0169425Y0176150D01*
X0159425Y0176150D02*
X0159425Y0182150D01*
X0149425Y0182150D02*
X0149425Y0176150D01*
X0139425Y0176150D02*
X0139425Y0182150D01*
X0129425Y0182150D02*
X0129425Y0176150D01*
D18*
X0094619Y0083539D03*
X0094619Y0078539D03*
X0094619Y0073539D03*
X0094619Y0068539D03*
X0094619Y0063539D03*
X0094619Y0058539D03*
X0094619Y0053539D03*
X0094619Y0048539D03*
X0094619Y0043539D03*
X0094619Y0038539D03*
X0055019Y0038539D03*
X0055019Y0043539D03*
X0055019Y0048539D03*
X0055019Y0053539D03*
X0055019Y0058539D03*
X0055019Y0063539D03*
X0055019Y0068539D03*
X0055019Y0073539D03*
X0055019Y0078539D03*
X0055019Y0083539D03*
X0334546Y0082476D03*
X0334546Y0077476D03*
X0334546Y0072476D03*
X0334546Y0067476D03*
X0334546Y0062476D03*
X0334546Y0057476D03*
X0334546Y0052476D03*
X0334546Y0047476D03*
X0334546Y0042476D03*
X0374146Y0042476D03*
X0374146Y0047476D03*
X0374146Y0052476D03*
X0374146Y0057476D03*
X0374146Y0062476D03*
X0374146Y0067476D03*
X0374146Y0072476D03*
X0374146Y0077476D03*
X0374146Y0082476D03*
X0374146Y0087476D03*
X0334546Y0087476D03*
D19*
X0310291Y0075108D03*
X0305291Y0075108D03*
X0300291Y0075108D03*
X0295291Y0075108D03*
X0290291Y0075108D03*
X0285291Y0075108D03*
X0280291Y0075108D03*
X0280291Y0050908D03*
X0285291Y0050908D03*
X0290291Y0050908D03*
X0295291Y0050908D03*
X0300291Y0050908D03*
X0305291Y0050908D03*
X0310291Y0050908D03*
X0244602Y0114806D03*
X0239602Y0114806D03*
X0234602Y0114806D03*
X0229602Y0114806D03*
X0224602Y0114806D03*
X0219602Y0114806D03*
X0214602Y0114806D03*
X0209602Y0114806D03*
X0209602Y0139006D03*
X0214602Y0139006D03*
X0219602Y0139006D03*
X0224602Y0139006D03*
X0229602Y0139006D03*
X0234602Y0139006D03*
X0239602Y0139006D03*
X0244602Y0139006D03*
X0148874Y0073139D03*
X0143874Y0073139D03*
X0138874Y0073139D03*
X0133874Y0073139D03*
X0128874Y0073139D03*
X0123874Y0073139D03*
X0118874Y0073139D03*
X0118874Y0048939D03*
X0123874Y0048939D03*
X0128874Y0048939D03*
X0133874Y0048939D03*
X0138874Y0048939D03*
X0143874Y0048939D03*
X0148874Y0048939D03*
D20*
X0194898Y0053165D03*
X0202772Y0053165D03*
X0210646Y0053165D03*
X0218520Y0053165D03*
X0226394Y0053165D03*
X0234268Y0053165D03*
X0234268Y0061039D03*
X0226394Y0061039D03*
X0218520Y0061039D03*
X0210646Y0061039D03*
X0202772Y0061039D03*
X0194898Y0061039D03*
D21*
X0190449Y0098795D03*
X0200449Y0098795D03*
X0210449Y0098795D03*
X0220449Y0098795D03*
X0230449Y0098795D03*
X0240449Y0098795D03*
X0250449Y0098795D03*
X0260449Y0098795D03*
X0270449Y0098795D03*
X0180449Y0098795D03*
X0170449Y0098795D03*
X0160449Y0098795D03*
X0150449Y0098795D03*
X0140449Y0098795D03*
X0130449Y0098795D03*
X0130449Y0158795D03*
X0140449Y0158795D03*
X0150449Y0158795D03*
X0160449Y0158795D03*
X0170449Y0158795D03*
X0180449Y0158795D03*
X0190449Y0158795D03*
X0200449Y0158795D03*
X0210449Y0158795D03*
X0220449Y0158795D03*
X0230449Y0158795D03*
X0240449Y0158795D03*
X0250449Y0158795D03*
X0260449Y0158795D03*
X0270449Y0158795D03*
D22*
X0280449Y0158795D03*
X0280449Y0098795D03*
X0120449Y0158795D03*
D23*
X0202772Y0074031D03*
X0213795Y0074031D03*
D24*
X0340567Y0151984D03*
X0340567Y0163008D03*
X0337811Y0174819D03*
X0337811Y0185843D03*
X0053165Y0163008D03*
X0053165Y0151984D03*
X0053165Y0139386D03*
X0053165Y0128362D03*
X0053165Y0115764D03*
X0053165Y0104740D03*
D25*
X0035449Y0035449D03*
X0035449Y0043323D03*
X0035449Y0051197D03*
X0035449Y0059071D03*
X0035449Y0066945D03*
X0035449Y0074819D03*
X0035449Y0082693D03*
X0035449Y0090567D03*
X0035449Y0098441D03*
X0393717Y0098441D03*
X0393717Y0090567D03*
X0393717Y0082693D03*
X0393717Y0074819D03*
X0393717Y0066945D03*
X0393717Y0059071D03*
X0393717Y0051197D03*
X0393717Y0043323D03*
X0393717Y0035449D03*
D26*
X0365764Y0047654D03*
X0357102Y0040961D03*
X0343323Y0042535D03*
X0280331Y0057890D03*
X0276000Y0069307D03*
X0272063Y0088598D03*
X0230331Y0107102D03*
X0222063Y0107102D03*
X0203165Y0114189D03*
X0219701Y0121669D03*
X0209465Y0132299D03*
X0198835Y0144110D03*
X0193323Y0144110D03*
X0245291Y0132299D03*
X0205528Y0088205D03*
X0227969Y0083087D03*
X0168913Y0072063D03*
X0151984Y0079150D03*
X0119701Y0065370D03*
X0112220Y0072063D03*
X0094504Y0087417D03*
X0080331Y0085449D03*
X0061827Y0078756D03*
X0046079Y0115764D03*
X0046079Y0139386D03*
X0045685Y0163008D03*
X0147654Y0192142D03*
X0340567Y0145291D03*
X0327969Y0088598D03*
X0317339Y0074819D03*
X0201197Y0045291D03*
X0201197Y0040173D03*
X0201197Y0035055D03*
X0176787Y0035055D03*
X0176787Y0040173D03*
X0176787Y0045291D03*
X0094898Y0034661D03*
M02*
