%
M48
M72
T01C0.02362
T02C0.02756
T03C0.03150
T04C0.03200
T05C0.04000
T06C0.06500
T07C0.07874
%
T01
X94898Y34661
X119701Y65370
X112220Y72063
X94504Y87417
X80331Y85449
X61827Y78756
X46079Y115764
X46079Y139386
X45685Y163008
X147654Y192142
X193323Y144110
X198835Y144110
X209465Y132299
X219701Y121669
X203165Y114189
X222063Y107102
X230331Y107102
X205528Y88205
X227969Y83087
X272063Y88598
X276000Y69307
X280331Y57890
X317339Y74819
X327969Y88598
X365764Y47654
X357102Y40961
X343323Y42535
X201197Y40173
X201197Y35055
X201197Y45291
X176787Y45291
X176787Y40173
X176787Y35055
X168913Y72063
X151984Y79150
X245291Y132299
X340567Y145291
T02
X234268Y61039
X226394Y61039
X218520Y61039
X210646Y61039
X202772Y61039
X194898Y61039
X194898Y53165
X202772Y53165
X210646Y53165
X218520Y53165
X226394Y53165
X234268Y53165
T03
X35449Y35449
X35449Y43323
X35449Y51197
X35449Y59071
X35449Y66945
X35449Y74819
X35449Y82693
X35449Y90567
X35449Y98441
X66945Y108283
X74819Y108283
X74819Y131906
X66945Y131906
X66945Y155528
X74819Y155528
X74819Y179150
X66945Y179150
X169307Y57102
X169307Y49228
X169307Y41354
X259858Y41354
X259858Y49228
X259858Y57102
X354346Y108283
X362220Y108283
X393717Y98441
X393717Y90567
X393717Y82693
X393717Y74819
X393717Y66945
X393717Y59071
X393717Y51197
X393717Y43323
X393717Y35449
X362220Y131906
X354346Y131906
X354346Y155528
X362220Y155528
X362220Y179150
X354346Y179150
T04
X103559Y173331
X103559Y187331
T05
X129425Y179150
X139425Y179150
X149425Y179150
X159425Y179150
X169425Y179150
X179425Y179150
X189425Y179150
X199425Y179150
X209425Y179150
X219425Y179150
X229425Y179150
X239425Y179150
X249425Y179150
X259425Y179150
X269425Y179150
X279425Y179150
X289425Y179150
X299425Y179150
X309425Y179150
X319425Y179150
X323008Y156748
X313008Y156748
X303008Y156748
X270449Y158795
X260449Y158795
X250449Y158795
X240449Y158795
X230449Y158795
X220449Y158795
X210449Y158795
X200449Y158795
X190449Y158795
X180449Y158795
X170449Y158795
X160449Y158795
X150449Y158795
X140449Y158795
X130449Y158795
X130449Y98795
X140449Y98795
X150449Y98795
X160449Y98795
X170449Y98795
X180449Y98795
X190449Y98795
X200449Y98795
X210449Y98795
X220449Y98795
X230449Y98795
X240449Y98795
X250449Y98795
X260449Y98795
X270449Y98795
T06
X280449Y98795
X280449Y158795
X120449Y158795
T07
X33480Y171276
X259858Y74819
X149622Y29543
X395685Y171276
M30
