G75*
%MOIN*%
%OFA0B0*%
%FSLAX25Y25*%
%IPPOS*%
%LPD*%
%AMOC8*
5,1,8,0,0,1.08239X$1,22.5*
%
%ADD10C,0.12611*%
%ADD11OC8,0.07400*%
%ADD12R,0.08674X0.07099*%
%ADD13R,0.05950X0.05950*%
D10*
X0043342Y0012003D03*
X0043342Y0207909D03*
D11*
X0052318Y0184287D03*
X0052318Y0163854D03*
X0052318Y0143735D03*
X0052318Y0123302D03*
X0052318Y0102869D03*
X0052318Y0082436D03*
X0052318Y0062003D03*
X0052318Y0041570D03*
X0062318Y0041570D03*
X0062318Y0062003D03*
X0062318Y0082436D03*
X0062318Y0102869D03*
X0062318Y0123302D03*
X0062318Y0143735D03*
X0062318Y0163854D03*
X0062318Y0184287D03*
D12*
X0037633Y0189798D03*
X0037633Y0178775D03*
X0037633Y0169365D03*
X0037633Y0158342D03*
X0037633Y0149247D03*
X0037633Y0138224D03*
X0037633Y0128814D03*
X0037633Y0117791D03*
X0037633Y0108381D03*
X0037633Y0097357D03*
X0037633Y0087948D03*
X0037633Y0076924D03*
X0037633Y0067515D03*
X0037633Y0056491D03*
X0037633Y0047082D03*
X0037633Y0036058D03*
D13*
X0018696Y0046964D03*
X0018696Y0054838D03*
X0018696Y0062712D03*
X0018696Y0070586D03*
X0018696Y0078460D03*
X0018696Y0086334D03*
X0018696Y0094208D03*
X0018696Y0102082D03*
X0018696Y0109956D03*
M02*
