%
M48
M72
T01C0.03150
T02C0.03200
T03C0.11811
%
T01
X18696Y46964
X18696Y54838
X18696Y62712
X18696Y70586
X18696Y78460
X18696Y86334
X18696Y94208
X18696Y102082
X18696Y109956
T02
X52318Y102869
X52318Y82436
X52318Y62003
X52318Y41570
X62318Y41570
X62318Y62003
X62318Y82436
X62318Y102869
X62318Y123302
X62318Y143735
X62318Y163854
X62318Y184287
X52318Y184287
X52318Y163854
X52318Y143735
X52318Y123302
T03
X43342Y207909
X43342Y12003
M30
